M48
; DRILL file {KiCad 8.0.8-8.0.8-0~ubuntu22.04.1} date 2025-01-23T22:19:21+0100
; FORMAT={-:-/ absolute / inch / decimal}
; #@! TF.CreationDate,2025-01-23T22:19:21+01:00
; #@! TF.GenerationSoftware,Kicad,Pcbnew,8.0.8-8.0.8-0~ubuntu22.04.1
; #@! TF.FileFunction,Plated,1,2,PTH
FMAT,2
INCH
; #@! TA.AperFunction,Plated,PTH,ViaDrill
T1C0.0118
; #@! TA.AperFunction,Plated,PTH,ComponentDrill
T2C0.0394
; #@! TA.AperFunction,Plated,PTH,ComponentDrill
T3C0.0669
%
G90
G05
T1
X5.1575Y-3.248
X5.1772Y-3.7402
X5.374Y-2.8543
X5.374Y-3.4252
X5.5709Y-3.3858
X5.5906Y-2.874
X5.7087Y-3.622
X5.7283Y-3.5709
X5.7677Y-3.5236
X5.8268Y-3.622
X5.8366Y-3.5138
X5.8858Y-3.563
X5.9646Y-3.2829
X5.9744Y-3.376
T2
X4.7228Y-2.9039
X4.7228Y-3.0039
X4.7228Y-3.1039
X4.7228Y-3.2039
X4.7228Y-3.3039
X4.7228Y-3.4039
X4.7228Y-3.5039
X4.7228Y-3.6039
X4.7228Y-3.7039
X4.7228Y-3.8039
X4.8228Y-2.9039
X4.8228Y-3.0039
X4.8228Y-3.1039
X4.8228Y-3.2039
X4.8228Y-3.3039
X4.8228Y-3.4039
X4.8228Y-3.5039
X4.8228Y-3.6039
X4.8228Y-3.7039
X4.8228Y-3.8039
X5.0591Y-2.8543
X5.0591Y-3.8583
X6.5732Y-3.0268
X6.5732Y-3.1268
X6.5732Y-3.2268
X6.5732Y-3.3268
X6.5732Y-3.4268
X6.5732Y-3.5268
X6.5732Y-3.6268
X6.5732Y-3.7268
X6.6732Y-3.0268
X6.6732Y-3.1268
X6.6732Y-3.2268
X6.6732Y-3.3268
X6.6732Y-3.4268
X6.6732Y-3.5268
X6.6732Y-3.6268
X6.6732Y-3.7268
T3
X5.7898Y-3.0159
X5.9457Y-3.0159
X6.1016Y-3.0159
X6.2575Y-3.0159
M30
