G04 #@! TF.GenerationSoftware,KiCad,Pcbnew,8.0.8-8.0.8-0~ubuntu22.04.1*
G04 #@! TF.CreationDate,2025-01-23T22:17:41+01:00*
G04 #@! TF.ProjectId,glm5va,676c6d35-7661-42e6-9b69-6361645f7063,v1.0*
G04 #@! TF.SameCoordinates,Original*
G04 #@! TF.FileFunction,Soldermask,Top*
G04 #@! TF.FilePolarity,Negative*
%FSLAX46Y46*%
G04 Gerber Fmt 4.6, Leading zero omitted, Abs format (unit mm)*
G04 Created by KiCad (PCBNEW 8.0.8-8.0.8-0~ubuntu22.04.1) date 2025-01-23 22:17:41*
%MOMM*%
%LPD*%
G01*
G04 APERTURE LIST*
G04 Aperture macros list*
%AMRoundRect*
0 Rectangle with rounded corners*
0 $1 Rounding radius*
0 $2 $3 $4 $5 $6 $7 $8 $9 X,Y pos of 4 corners*
0 Add a 4 corners polygon primitive as box body*
4,1,4,$2,$3,$4,$5,$6,$7,$8,$9,$2,$3,0*
0 Add four circle primitives for the rounded corners*
1,1,$1+$1,$2,$3*
1,1,$1+$1,$4,$5*
1,1,$1+$1,$6,$7*
1,1,$1+$1,$8,$9*
0 Add four rect primitives between the rounded corners*
20,1,$1+$1,$2,$3,$4,$5,0*
20,1,$1+$1,$4,$5,$6,$7,0*
20,1,$1+$1,$6,$7,$8,$9,0*
20,1,$1+$1,$8,$9,$2,$3,0*%
G04 Aperture macros list end*
%ADD10RoundRect,0.250000X-0.600000X-0.600000X0.600000X-0.600000X0.600000X0.600000X-0.600000X0.600000X0*%
%ADD11C,1.700000*%
%ADD12R,1.700000X1.700000*%
%ADD13O,1.700000X1.700000*%
%ADD14RoundRect,0.225000X-0.225000X-0.250000X0.225000X-0.250000X0.225000X0.250000X-0.225000X0.250000X0*%
%ADD15RoundRect,0.200000X0.200000X0.275000X-0.200000X0.275000X-0.200000X-0.275000X0.200000X-0.275000X0*%
%ADD16RoundRect,0.250000X-0.625000X0.375000X-0.625000X-0.375000X0.625000X-0.375000X0.625000X0.375000X0*%
%ADD17RoundRect,0.200000X0.275000X-0.200000X0.275000X0.200000X-0.275000X0.200000X-0.275000X-0.200000X0*%
%ADD18C,2.000000*%
%ADD19RoundRect,0.100000X-0.637500X-0.100000X0.637500X-0.100000X0.637500X0.100000X-0.637500X0.100000X0*%
%ADD20RoundRect,0.250000X-1.330000X-1.800000X1.330000X-1.800000X1.330000X1.800000X-1.330000X1.800000X0*%
%ADD21O,3.160000X4.100000*%
G04 APERTURE END LIST*
D10*
X166960000Y-76880000D03*
D11*
X169500000Y-76880000D03*
X166960000Y-79420000D03*
X169500000Y-79420000D03*
X166960000Y-81960000D03*
X169500000Y-81960000D03*
X166960000Y-84500000D03*
X169500000Y-84500000D03*
X166960000Y-87040000D03*
X169500000Y-87040000D03*
X166960000Y-89580000D03*
X169500000Y-89580000D03*
X166960000Y-92120000D03*
X169500000Y-92120000D03*
X166960000Y-94660000D03*
X169500000Y-94660000D03*
D12*
X119960000Y-73760000D03*
D13*
X122500000Y-73760000D03*
X119960000Y-76300000D03*
X122500000Y-76300000D03*
X119960000Y-78840000D03*
X122500000Y-78840000D03*
X119960000Y-81380000D03*
X122500000Y-81380000D03*
X119960000Y-83920000D03*
X122500000Y-83920000D03*
X119960000Y-86460000D03*
X122500000Y-86460000D03*
X119960000Y-89000000D03*
X122500000Y-89000000D03*
X119960000Y-91540000D03*
X122500000Y-91540000D03*
X119960000Y-94080000D03*
X122500000Y-94080000D03*
X119960000Y-96620000D03*
X122500000Y-96620000D03*
D14*
X137725000Y-87000000D03*
X139275000Y-87000000D03*
D15*
X134650000Y-74000000D03*
X133000000Y-74000000D03*
D16*
X157000000Y-95700000D03*
X157000000Y-98500000D03*
X151000000Y-95700000D03*
X151000000Y-98500000D03*
D15*
X133000000Y-87000000D03*
X131350000Y-87000000D03*
D17*
X141500000Y-89000000D03*
X141500000Y-87350000D03*
X154000000Y-93500000D03*
X154000000Y-91850000D03*
D18*
X128500000Y-72500000D03*
D17*
X151000000Y-93500000D03*
X151000000Y-91850000D03*
X160000000Y-93500000D03*
X160000000Y-91850000D03*
D19*
X133000000Y-88750000D03*
X133000000Y-89400000D03*
X133000000Y-90050000D03*
X133000000Y-90700000D03*
X133000000Y-91350000D03*
X133000000Y-92000000D03*
X133000000Y-92650000D03*
X133000000Y-93300000D03*
X133000000Y-93950000D03*
X133000000Y-94600000D03*
X138725000Y-94600000D03*
X138725000Y-93950000D03*
X138725000Y-93300000D03*
X138725000Y-92650000D03*
X138725000Y-92000000D03*
X138725000Y-91350000D03*
X138725000Y-90700000D03*
X138725000Y-90050000D03*
X138725000Y-89400000D03*
X138725000Y-88750000D03*
D20*
X147060000Y-76605000D03*
D21*
X151020000Y-76605000D03*
X154980000Y-76605000D03*
X158940000Y-76605000D03*
D18*
X128500000Y-98000000D03*
D16*
X160000000Y-95700000D03*
X160000000Y-98500000D03*
D17*
X141000000Y-76150000D03*
X141000000Y-74500000D03*
X157000000Y-93500000D03*
X157000000Y-91850000D03*
D19*
X132775000Y-76250000D03*
X132775000Y-76900000D03*
X132775000Y-77550000D03*
X132775000Y-78200000D03*
X132775000Y-78850000D03*
X132775000Y-79500000D03*
X132775000Y-80150000D03*
X132775000Y-80800000D03*
X132775000Y-81450000D03*
X132775000Y-82100000D03*
X138500000Y-82100000D03*
X138500000Y-81450000D03*
X138500000Y-80800000D03*
X138500000Y-80150000D03*
X138500000Y-79500000D03*
X138500000Y-78850000D03*
X138500000Y-78200000D03*
X138500000Y-77550000D03*
X138500000Y-76900000D03*
X138500000Y-76250000D03*
D16*
X154000000Y-95700000D03*
X154000000Y-98500000D03*
D14*
X136950000Y-74000000D03*
X138500000Y-74000000D03*
M02*
