%TF.GenerationSoftware,KiCad,Pcbnew,8.0.8-8.0.8-0~ubuntu22.04.1*%
%TF.CreationDate,2025-01-23T22:19:47+01:00*%
%TF.ProjectId,glm5va,676c6d35-7661-42e6-9b69-6361645f7063,v1.0*%
%TF.SameCoordinates,Original*%
%TF.FileFunction,Drillmap*%
%TF.FilePolarity,Positive*%
%FSLAX45Y45*%
G04 Gerber Fmt 4.5, Leading zero omitted, Abs format (unit mm)*
G04 Created by KiCad (PCBNEW 8.0.8-8.0.8-0~ubuntu22.04.1) date 2025-01-23 22:19:47*
%MOMM*%
%LPD*%
G01*
G04 APERTURE LIST*
%ADD10C,0.050000*%
%ADD11C,0.200000*%
%ADD12C,0.100000*%
%ADD13C,0.170000*%
G04 APERTURE END LIST*
D10*
X11850000Y-6950000D02*
X17200000Y-6950000D01*
X11650000Y-9950000D02*
X11650000Y-7150000D01*
X17200000Y-6950000D02*
G75*
G02*
X17400000Y-7150000I0J-200000D01*
G01*
X17400000Y-7150000D02*
X17400000Y-9950000D01*
X11850000Y-10150000D02*
G75*
G02*
X11650000Y-9950000I0J200000D01*
G01*
X17400000Y-9950000D02*
G75*
G02*
X17200000Y-10150000I-200000J0D01*
G01*
X11650000Y-7150000D02*
G75*
G02*
X11850000Y-6950000I200000J0D01*
G01*
X17200000Y-10150000D02*
X11850000Y-10150000D01*
D11*
D12*
X13085000Y-8235000D02*
X13115000Y-8265000D01*
X13115000Y-8235000D02*
X13085000Y-8265000D01*
X13135000Y-9485000D02*
X13165000Y-9515000D01*
X13165000Y-9485000D02*
X13135000Y-9515000D01*
X13635000Y-7235000D02*
X13665000Y-7265000D01*
X13665000Y-7235000D02*
X13635000Y-7265000D01*
X13635000Y-8685000D02*
X13665000Y-8715000D01*
X13665000Y-8685000D02*
X13635000Y-8715000D01*
X14135000Y-8585000D02*
X14165000Y-8615000D01*
X14165000Y-8585000D02*
X14135000Y-8615000D01*
X14185000Y-7285000D02*
X14215000Y-7315000D01*
X14215000Y-7285000D02*
X14185000Y-7315000D01*
X14485000Y-9185000D02*
X14515000Y-9215000D01*
X14515000Y-9185000D02*
X14485000Y-9215000D01*
X14535000Y-9055000D02*
X14565000Y-9085000D01*
X14565000Y-9055000D02*
X14535000Y-9085000D01*
X14635000Y-8935000D02*
X14665000Y-8965000D01*
X14665000Y-8935000D02*
X14635000Y-8965000D01*
X14785000Y-9185000D02*
X14815000Y-9215000D01*
X14815000Y-9185000D02*
X14785000Y-9215000D01*
X14810000Y-8910000D02*
X14840000Y-8940000D01*
X14840000Y-8910000D02*
X14810000Y-8940000D01*
X14935000Y-9035000D02*
X14965000Y-9065000D01*
X14965000Y-9035000D02*
X14935000Y-9065000D01*
X15135000Y-8323536D02*
X15165000Y-8353536D01*
X15165000Y-8323536D02*
X15135000Y-8353536D01*
X15160000Y-8560000D02*
X15190000Y-8590000D01*
X15190000Y-8560000D02*
X15160000Y-8590000D01*
X12046000Y-7376000D02*
G75*
G02*
X11946000Y-7376000I-50000J0D01*
G01*
X11946000Y-7376000D02*
G75*
G02*
X12046000Y-7376000I50000J0D01*
G01*
X12046000Y-7630000D02*
G75*
G02*
X11946000Y-7630000I-50000J0D01*
G01*
X11946000Y-7630000D02*
G75*
G02*
X12046000Y-7630000I50000J0D01*
G01*
X12046000Y-7884000D02*
G75*
G02*
X11946000Y-7884000I-50000J0D01*
G01*
X11946000Y-7884000D02*
G75*
G02*
X12046000Y-7884000I50000J0D01*
G01*
X12046000Y-8138000D02*
G75*
G02*
X11946000Y-8138000I-50000J0D01*
G01*
X11946000Y-8138000D02*
G75*
G02*
X12046000Y-8138000I50000J0D01*
G01*
X12046000Y-8392000D02*
G75*
G02*
X11946000Y-8392000I-50000J0D01*
G01*
X11946000Y-8392000D02*
G75*
G02*
X12046000Y-8392000I50000J0D01*
G01*
X12046000Y-8646000D02*
G75*
G02*
X11946000Y-8646000I-50000J0D01*
G01*
X11946000Y-8646000D02*
G75*
G02*
X12046000Y-8646000I50000J0D01*
G01*
X12046000Y-8900000D02*
G75*
G02*
X11946000Y-8900000I-50000J0D01*
G01*
X11946000Y-8900000D02*
G75*
G02*
X12046000Y-8900000I50000J0D01*
G01*
X12046000Y-9154000D02*
G75*
G02*
X11946000Y-9154000I-50000J0D01*
G01*
X11946000Y-9154000D02*
G75*
G02*
X12046000Y-9154000I50000J0D01*
G01*
X12046000Y-9408000D02*
G75*
G02*
X11946000Y-9408000I-50000J0D01*
G01*
X11946000Y-9408000D02*
G75*
G02*
X12046000Y-9408000I50000J0D01*
G01*
X12046000Y-9662000D02*
G75*
G02*
X11946000Y-9662000I-50000J0D01*
G01*
X11946000Y-9662000D02*
G75*
G02*
X12046000Y-9662000I50000J0D01*
G01*
X12300000Y-7376000D02*
G75*
G02*
X12200000Y-7376000I-50000J0D01*
G01*
X12200000Y-7376000D02*
G75*
G02*
X12300000Y-7376000I50000J0D01*
G01*
X12300000Y-7630000D02*
G75*
G02*
X12200000Y-7630000I-50000J0D01*
G01*
X12200000Y-7630000D02*
G75*
G02*
X12300000Y-7630000I50000J0D01*
G01*
X12300000Y-7884000D02*
G75*
G02*
X12200000Y-7884000I-50000J0D01*
G01*
X12200000Y-7884000D02*
G75*
G02*
X12300000Y-7884000I50000J0D01*
G01*
X12300000Y-8138000D02*
G75*
G02*
X12200000Y-8138000I-50000J0D01*
G01*
X12200000Y-8138000D02*
G75*
G02*
X12300000Y-8138000I50000J0D01*
G01*
X12300000Y-8392000D02*
G75*
G02*
X12200000Y-8392000I-50000J0D01*
G01*
X12200000Y-8392000D02*
G75*
G02*
X12300000Y-8392000I50000J0D01*
G01*
X12300000Y-8646000D02*
G75*
G02*
X12200000Y-8646000I-50000J0D01*
G01*
X12200000Y-8646000D02*
G75*
G02*
X12300000Y-8646000I50000J0D01*
G01*
X12300000Y-8900000D02*
G75*
G02*
X12200000Y-8900000I-50000J0D01*
G01*
X12200000Y-8900000D02*
G75*
G02*
X12300000Y-8900000I50000J0D01*
G01*
X12300000Y-9154000D02*
G75*
G02*
X12200000Y-9154000I-50000J0D01*
G01*
X12200000Y-9154000D02*
G75*
G02*
X12300000Y-9154000I50000J0D01*
G01*
X12300000Y-9408000D02*
G75*
G02*
X12200000Y-9408000I-50000J0D01*
G01*
X12200000Y-9408000D02*
G75*
G02*
X12300000Y-9408000I50000J0D01*
G01*
X12300000Y-9662000D02*
G75*
G02*
X12200000Y-9662000I-50000J0D01*
G01*
X12200000Y-9662000D02*
G75*
G02*
X12300000Y-9662000I50000J0D01*
G01*
X12900000Y-7250000D02*
G75*
G02*
X12800000Y-7250000I-50000J0D01*
G01*
X12800000Y-7250000D02*
G75*
G02*
X12900000Y-7250000I50000J0D01*
G01*
X12900000Y-9800000D02*
G75*
G02*
X12800000Y-9800000I-50000J0D01*
G01*
X12800000Y-9800000D02*
G75*
G02*
X12900000Y-9800000I50000J0D01*
G01*
X16746000Y-7688000D02*
G75*
G02*
X16646000Y-7688000I-50000J0D01*
G01*
X16646000Y-7688000D02*
G75*
G02*
X16746000Y-7688000I50000J0D01*
G01*
X16746000Y-7942000D02*
G75*
G02*
X16646000Y-7942000I-50000J0D01*
G01*
X16646000Y-7942000D02*
G75*
G02*
X16746000Y-7942000I50000J0D01*
G01*
X16746000Y-8196000D02*
G75*
G02*
X16646000Y-8196000I-50000J0D01*
G01*
X16646000Y-8196000D02*
G75*
G02*
X16746000Y-8196000I50000J0D01*
G01*
X16746000Y-8450000D02*
G75*
G02*
X16646000Y-8450000I-50000J0D01*
G01*
X16646000Y-8450000D02*
G75*
G02*
X16746000Y-8450000I50000J0D01*
G01*
X16746000Y-8704000D02*
G75*
G02*
X16646000Y-8704000I-50000J0D01*
G01*
X16646000Y-8704000D02*
G75*
G02*
X16746000Y-8704000I50000J0D01*
G01*
X16746000Y-8958000D02*
G75*
G02*
X16646000Y-8958000I-50000J0D01*
G01*
X16646000Y-8958000D02*
G75*
G02*
X16746000Y-8958000I50000J0D01*
G01*
X16746000Y-9212000D02*
G75*
G02*
X16646000Y-9212000I-50000J0D01*
G01*
X16646000Y-9212000D02*
G75*
G02*
X16746000Y-9212000I50000J0D01*
G01*
X16746000Y-9466000D02*
G75*
G02*
X16646000Y-9466000I-50000J0D01*
G01*
X16646000Y-9466000D02*
G75*
G02*
X16746000Y-9466000I50000J0D01*
G01*
X17000000Y-7688000D02*
G75*
G02*
X16900000Y-7688000I-50000J0D01*
G01*
X16900000Y-7688000D02*
G75*
G02*
X17000000Y-7688000I50000J0D01*
G01*
X17000000Y-7942000D02*
G75*
G02*
X16900000Y-7942000I-50000J0D01*
G01*
X16900000Y-7942000D02*
G75*
G02*
X17000000Y-7942000I50000J0D01*
G01*
X17000000Y-8196000D02*
G75*
G02*
X16900000Y-8196000I-50000J0D01*
G01*
X16900000Y-8196000D02*
G75*
G02*
X17000000Y-8196000I50000J0D01*
G01*
X17000000Y-8450000D02*
G75*
G02*
X16900000Y-8450000I-50000J0D01*
G01*
X16900000Y-8450000D02*
G75*
G02*
X17000000Y-8450000I50000J0D01*
G01*
X17000000Y-8704000D02*
G75*
G02*
X16900000Y-8704000I-50000J0D01*
G01*
X16900000Y-8704000D02*
G75*
G02*
X17000000Y-8704000I50000J0D01*
G01*
X17000000Y-8958000D02*
G75*
G02*
X16900000Y-8958000I-50000J0D01*
G01*
X16900000Y-8958000D02*
G75*
G02*
X17000000Y-8958000I50000J0D01*
G01*
X17000000Y-9212000D02*
G75*
G02*
X16900000Y-9212000I-50000J0D01*
G01*
X16900000Y-9212000D02*
G75*
G02*
X17000000Y-9212000I50000J0D01*
G01*
X17000000Y-9466000D02*
G75*
G02*
X16900000Y-9466000I-50000J0D01*
G01*
X16900000Y-9466000D02*
G75*
G02*
X17000000Y-9466000I50000J0D01*
G01*
D13*
X14706000Y-7575500D02*
X14706000Y-7745500D01*
X14621000Y-7660500D02*
X14791000Y-7660500D01*
X15102000Y-7575500D02*
X15102000Y-7745500D01*
X15017000Y-7660500D02*
X15187000Y-7660500D01*
X15498000Y-7575500D02*
X15498000Y-7745500D01*
X15413000Y-7660500D02*
X15583000Y-7660500D01*
X15894000Y-7575500D02*
X15894000Y-7745500D01*
X15809000Y-7660500D02*
X15979000Y-7660500D01*
D11*
X11908277Y-10463984D02*
X11908277Y-10263984D01*
X11908277Y-10263984D02*
X11955896Y-10263984D01*
X11955896Y-10263984D02*
X11984467Y-10273508D01*
X11984467Y-10273508D02*
X12003515Y-10292555D01*
X12003515Y-10292555D02*
X12013039Y-10311603D01*
X12013039Y-10311603D02*
X12022562Y-10349698D01*
X12022562Y-10349698D02*
X12022562Y-10378270D01*
X12022562Y-10378270D02*
X12013039Y-10416365D01*
X12013039Y-10416365D02*
X12003515Y-10435412D01*
X12003515Y-10435412D02*
X11984467Y-10454460D01*
X11984467Y-10454460D02*
X11955896Y-10463984D01*
X11955896Y-10463984D02*
X11908277Y-10463984D01*
X12108277Y-10463984D02*
X12108277Y-10330650D01*
X12108277Y-10368746D02*
X12117801Y-10349698D01*
X12117801Y-10349698D02*
X12127324Y-10340174D01*
X12127324Y-10340174D02*
X12146372Y-10330650D01*
X12146372Y-10330650D02*
X12165420Y-10330650D01*
X12232086Y-10463984D02*
X12232086Y-10330650D01*
X12232086Y-10263984D02*
X12222562Y-10273508D01*
X12222562Y-10273508D02*
X12232086Y-10283031D01*
X12232086Y-10283031D02*
X12241610Y-10273508D01*
X12241610Y-10273508D02*
X12232086Y-10263984D01*
X12232086Y-10263984D02*
X12232086Y-10283031D01*
X12355896Y-10463984D02*
X12336848Y-10454460D01*
X12336848Y-10454460D02*
X12327324Y-10435412D01*
X12327324Y-10435412D02*
X12327324Y-10263984D01*
X12460658Y-10463984D02*
X12441610Y-10454460D01*
X12441610Y-10454460D02*
X12432086Y-10435412D01*
X12432086Y-10435412D02*
X12432086Y-10263984D01*
X12689229Y-10463984D02*
X12689229Y-10263984D01*
X12689229Y-10263984D02*
X12755896Y-10406841D01*
X12755896Y-10406841D02*
X12822562Y-10263984D01*
X12822562Y-10263984D02*
X12822562Y-10463984D01*
X13003515Y-10463984D02*
X13003515Y-10359222D01*
X13003515Y-10359222D02*
X12993991Y-10340174D01*
X12993991Y-10340174D02*
X12974943Y-10330650D01*
X12974943Y-10330650D02*
X12936848Y-10330650D01*
X12936848Y-10330650D02*
X12917801Y-10340174D01*
X13003515Y-10454460D02*
X12984467Y-10463984D01*
X12984467Y-10463984D02*
X12936848Y-10463984D01*
X12936848Y-10463984D02*
X12917801Y-10454460D01*
X12917801Y-10454460D02*
X12908277Y-10435412D01*
X12908277Y-10435412D02*
X12908277Y-10416365D01*
X12908277Y-10416365D02*
X12917801Y-10397317D01*
X12917801Y-10397317D02*
X12936848Y-10387793D01*
X12936848Y-10387793D02*
X12984467Y-10387793D01*
X12984467Y-10387793D02*
X13003515Y-10378270D01*
X13098753Y-10330650D02*
X13098753Y-10530650D01*
X13098753Y-10340174D02*
X13117801Y-10330650D01*
X13117801Y-10330650D02*
X13155896Y-10330650D01*
X13155896Y-10330650D02*
X13174943Y-10340174D01*
X13174943Y-10340174D02*
X13184467Y-10349698D01*
X13184467Y-10349698D02*
X13193991Y-10368746D01*
X13193991Y-10368746D02*
X13193991Y-10425889D01*
X13193991Y-10425889D02*
X13184467Y-10444936D01*
X13184467Y-10444936D02*
X13174943Y-10454460D01*
X13174943Y-10454460D02*
X13155896Y-10463984D01*
X13155896Y-10463984D02*
X13117801Y-10463984D01*
X13117801Y-10463984D02*
X13098753Y-10454460D01*
X13279705Y-10444936D02*
X13289229Y-10454460D01*
X13289229Y-10454460D02*
X13279705Y-10463984D01*
X13279705Y-10463984D02*
X13270182Y-10454460D01*
X13270182Y-10454460D02*
X13279705Y-10444936D01*
X13279705Y-10444936D02*
X13279705Y-10463984D01*
X13279705Y-10340174D02*
X13289229Y-10349698D01*
X13289229Y-10349698D02*
X13279705Y-10359222D01*
X13279705Y-10359222D02*
X13270182Y-10349698D01*
X13270182Y-10349698D02*
X13279705Y-10340174D01*
X13279705Y-10340174D02*
X13279705Y-10359222D01*
D12*
X11617500Y-10777500D02*
X11647500Y-10807500D01*
X11647500Y-10777500D02*
X11617500Y-10807500D01*
D11*
X11946372Y-10683984D02*
X11965420Y-10683984D01*
X11965420Y-10683984D02*
X11984467Y-10693508D01*
X11984467Y-10693508D02*
X11993991Y-10703031D01*
X11993991Y-10703031D02*
X12003515Y-10722079D01*
X12003515Y-10722079D02*
X12013039Y-10760174D01*
X12013039Y-10760174D02*
X12013039Y-10807793D01*
X12013039Y-10807793D02*
X12003515Y-10845889D01*
X12003515Y-10845889D02*
X11993991Y-10864936D01*
X11993991Y-10864936D02*
X11984467Y-10874460D01*
X11984467Y-10874460D02*
X11965420Y-10883984D01*
X11965420Y-10883984D02*
X11946372Y-10883984D01*
X11946372Y-10883984D02*
X11927324Y-10874460D01*
X11927324Y-10874460D02*
X11917801Y-10864936D01*
X11917801Y-10864936D02*
X11908277Y-10845889D01*
X11908277Y-10845889D02*
X11898753Y-10807793D01*
X11898753Y-10807793D02*
X11898753Y-10760174D01*
X11898753Y-10760174D02*
X11908277Y-10722079D01*
X11908277Y-10722079D02*
X11917801Y-10703031D01*
X11917801Y-10703031D02*
X11927324Y-10693508D01*
X11927324Y-10693508D02*
X11946372Y-10683984D01*
X12098753Y-10864936D02*
X12108277Y-10874460D01*
X12108277Y-10874460D02*
X12098753Y-10883984D01*
X12098753Y-10883984D02*
X12089229Y-10874460D01*
X12089229Y-10874460D02*
X12098753Y-10864936D01*
X12098753Y-10864936D02*
X12098753Y-10883984D01*
X12174943Y-10683984D02*
X12298753Y-10683984D01*
X12298753Y-10683984D02*
X12232086Y-10760174D01*
X12232086Y-10760174D02*
X12260658Y-10760174D01*
X12260658Y-10760174D02*
X12279705Y-10769698D01*
X12279705Y-10769698D02*
X12289229Y-10779222D01*
X12289229Y-10779222D02*
X12298753Y-10798270D01*
X12298753Y-10798270D02*
X12298753Y-10845889D01*
X12298753Y-10845889D02*
X12289229Y-10864936D01*
X12289229Y-10864936D02*
X12279705Y-10874460D01*
X12279705Y-10874460D02*
X12260658Y-10883984D01*
X12260658Y-10883984D02*
X12203515Y-10883984D01*
X12203515Y-10883984D02*
X12184467Y-10874460D01*
X12184467Y-10874460D02*
X12174943Y-10864936D01*
X12422562Y-10683984D02*
X12441610Y-10683984D01*
X12441610Y-10683984D02*
X12460658Y-10693508D01*
X12460658Y-10693508D02*
X12470182Y-10703031D01*
X12470182Y-10703031D02*
X12479705Y-10722079D01*
X12479705Y-10722079D02*
X12489229Y-10760174D01*
X12489229Y-10760174D02*
X12489229Y-10807793D01*
X12489229Y-10807793D02*
X12479705Y-10845889D01*
X12479705Y-10845889D02*
X12470182Y-10864936D01*
X12470182Y-10864936D02*
X12460658Y-10874460D01*
X12460658Y-10874460D02*
X12441610Y-10883984D01*
X12441610Y-10883984D02*
X12422562Y-10883984D01*
X12422562Y-10883984D02*
X12403515Y-10874460D01*
X12403515Y-10874460D02*
X12393991Y-10864936D01*
X12393991Y-10864936D02*
X12384467Y-10845889D01*
X12384467Y-10845889D02*
X12374943Y-10807793D01*
X12374943Y-10807793D02*
X12374943Y-10760174D01*
X12374943Y-10760174D02*
X12384467Y-10722079D01*
X12384467Y-10722079D02*
X12393991Y-10703031D01*
X12393991Y-10703031D02*
X12403515Y-10693508D01*
X12403515Y-10693508D02*
X12422562Y-10683984D01*
X12613039Y-10683984D02*
X12632086Y-10683984D01*
X12632086Y-10683984D02*
X12651134Y-10693508D01*
X12651134Y-10693508D02*
X12660658Y-10703031D01*
X12660658Y-10703031D02*
X12670182Y-10722079D01*
X12670182Y-10722079D02*
X12679705Y-10760174D01*
X12679705Y-10760174D02*
X12679705Y-10807793D01*
X12679705Y-10807793D02*
X12670182Y-10845889D01*
X12670182Y-10845889D02*
X12660658Y-10864936D01*
X12660658Y-10864936D02*
X12651134Y-10874460D01*
X12651134Y-10874460D02*
X12632086Y-10883984D01*
X12632086Y-10883984D02*
X12613039Y-10883984D01*
X12613039Y-10883984D02*
X12593991Y-10874460D01*
X12593991Y-10874460D02*
X12584467Y-10864936D01*
X12584467Y-10864936D02*
X12574943Y-10845889D01*
X12574943Y-10845889D02*
X12565420Y-10807793D01*
X12565420Y-10807793D02*
X12565420Y-10760174D01*
X12565420Y-10760174D02*
X12574943Y-10722079D01*
X12574943Y-10722079D02*
X12584467Y-10703031D01*
X12584467Y-10703031D02*
X12593991Y-10693508D01*
X12593991Y-10693508D02*
X12613039Y-10683984D01*
X12765420Y-10883984D02*
X12765420Y-10750650D01*
X12765420Y-10769698D02*
X12774943Y-10760174D01*
X12774943Y-10760174D02*
X12793991Y-10750650D01*
X12793991Y-10750650D02*
X12822563Y-10750650D01*
X12822563Y-10750650D02*
X12841610Y-10760174D01*
X12841610Y-10760174D02*
X12851134Y-10779222D01*
X12851134Y-10779222D02*
X12851134Y-10883984D01*
X12851134Y-10779222D02*
X12860658Y-10760174D01*
X12860658Y-10760174D02*
X12879705Y-10750650D01*
X12879705Y-10750650D02*
X12908277Y-10750650D01*
X12908277Y-10750650D02*
X12927324Y-10760174D01*
X12927324Y-10760174D02*
X12936848Y-10779222D01*
X12936848Y-10779222D02*
X12936848Y-10883984D01*
X13032086Y-10883984D02*
X13032086Y-10750650D01*
X13032086Y-10769698D02*
X13041610Y-10760174D01*
X13041610Y-10760174D02*
X13060658Y-10750650D01*
X13060658Y-10750650D02*
X13089229Y-10750650D01*
X13089229Y-10750650D02*
X13108277Y-10760174D01*
X13108277Y-10760174D02*
X13117801Y-10779222D01*
X13117801Y-10779222D02*
X13117801Y-10883984D01*
X13117801Y-10779222D02*
X13127324Y-10760174D01*
X13127324Y-10760174D02*
X13146372Y-10750650D01*
X13146372Y-10750650D02*
X13174943Y-10750650D01*
X13174943Y-10750650D02*
X13193991Y-10760174D01*
X13193991Y-10760174D02*
X13203515Y-10779222D01*
X13203515Y-10779222D02*
X13203515Y-10883984D01*
X13593991Y-10674460D02*
X13422563Y-10931603D01*
X13851134Y-10683984D02*
X13870182Y-10683984D01*
X13870182Y-10683984D02*
X13889229Y-10693508D01*
X13889229Y-10693508D02*
X13898753Y-10703031D01*
X13898753Y-10703031D02*
X13908277Y-10722079D01*
X13908277Y-10722079D02*
X13917801Y-10760174D01*
X13917801Y-10760174D02*
X13917801Y-10807793D01*
X13917801Y-10807793D02*
X13908277Y-10845889D01*
X13908277Y-10845889D02*
X13898753Y-10864936D01*
X13898753Y-10864936D02*
X13889229Y-10874460D01*
X13889229Y-10874460D02*
X13870182Y-10883984D01*
X13870182Y-10883984D02*
X13851134Y-10883984D01*
X13851134Y-10883984D02*
X13832086Y-10874460D01*
X13832086Y-10874460D02*
X13822563Y-10864936D01*
X13822563Y-10864936D02*
X13813039Y-10845889D01*
X13813039Y-10845889D02*
X13803515Y-10807793D01*
X13803515Y-10807793D02*
X13803515Y-10760174D01*
X13803515Y-10760174D02*
X13813039Y-10722079D01*
X13813039Y-10722079D02*
X13822563Y-10703031D01*
X13822563Y-10703031D02*
X13832086Y-10693508D01*
X13832086Y-10693508D02*
X13851134Y-10683984D01*
X14003515Y-10864936D02*
X14013039Y-10874460D01*
X14013039Y-10874460D02*
X14003515Y-10883984D01*
X14003515Y-10883984D02*
X13993991Y-10874460D01*
X13993991Y-10874460D02*
X14003515Y-10864936D01*
X14003515Y-10864936D02*
X14003515Y-10883984D01*
X14136848Y-10683984D02*
X14155896Y-10683984D01*
X14155896Y-10683984D02*
X14174944Y-10693508D01*
X14174944Y-10693508D02*
X14184467Y-10703031D01*
X14184467Y-10703031D02*
X14193991Y-10722079D01*
X14193991Y-10722079D02*
X14203515Y-10760174D01*
X14203515Y-10760174D02*
X14203515Y-10807793D01*
X14203515Y-10807793D02*
X14193991Y-10845889D01*
X14193991Y-10845889D02*
X14184467Y-10864936D01*
X14184467Y-10864936D02*
X14174944Y-10874460D01*
X14174944Y-10874460D02*
X14155896Y-10883984D01*
X14155896Y-10883984D02*
X14136848Y-10883984D01*
X14136848Y-10883984D02*
X14117801Y-10874460D01*
X14117801Y-10874460D02*
X14108277Y-10864936D01*
X14108277Y-10864936D02*
X14098753Y-10845889D01*
X14098753Y-10845889D02*
X14089229Y-10807793D01*
X14089229Y-10807793D02*
X14089229Y-10760174D01*
X14089229Y-10760174D02*
X14098753Y-10722079D01*
X14098753Y-10722079D02*
X14108277Y-10703031D01*
X14108277Y-10703031D02*
X14117801Y-10693508D01*
X14117801Y-10693508D02*
X14136848Y-10683984D01*
X14393991Y-10883984D02*
X14279706Y-10883984D01*
X14336848Y-10883984D02*
X14336848Y-10683984D01*
X14336848Y-10683984D02*
X14317801Y-10712555D01*
X14317801Y-10712555D02*
X14298753Y-10731603D01*
X14298753Y-10731603D02*
X14279706Y-10741127D01*
X14584467Y-10883984D02*
X14470182Y-10883984D01*
X14527325Y-10883984D02*
X14527325Y-10683984D01*
X14527325Y-10683984D02*
X14508277Y-10712555D01*
X14508277Y-10712555D02*
X14489229Y-10731603D01*
X14489229Y-10731603D02*
X14470182Y-10741127D01*
X14698753Y-10769698D02*
X14679706Y-10760174D01*
X14679706Y-10760174D02*
X14670182Y-10750650D01*
X14670182Y-10750650D02*
X14660658Y-10731603D01*
X14660658Y-10731603D02*
X14660658Y-10722079D01*
X14660658Y-10722079D02*
X14670182Y-10703031D01*
X14670182Y-10703031D02*
X14679706Y-10693508D01*
X14679706Y-10693508D02*
X14698753Y-10683984D01*
X14698753Y-10683984D02*
X14736848Y-10683984D01*
X14736848Y-10683984D02*
X14755896Y-10693508D01*
X14755896Y-10693508D02*
X14765420Y-10703031D01*
X14765420Y-10703031D02*
X14774944Y-10722079D01*
X14774944Y-10722079D02*
X14774944Y-10731603D01*
X14774944Y-10731603D02*
X14765420Y-10750650D01*
X14765420Y-10750650D02*
X14755896Y-10760174D01*
X14755896Y-10760174D02*
X14736848Y-10769698D01*
X14736848Y-10769698D02*
X14698753Y-10769698D01*
X14698753Y-10769698D02*
X14679706Y-10779222D01*
X14679706Y-10779222D02*
X14670182Y-10788746D01*
X14670182Y-10788746D02*
X14660658Y-10807793D01*
X14660658Y-10807793D02*
X14660658Y-10845889D01*
X14660658Y-10845889D02*
X14670182Y-10864936D01*
X14670182Y-10864936D02*
X14679706Y-10874460D01*
X14679706Y-10874460D02*
X14698753Y-10883984D01*
X14698753Y-10883984D02*
X14736848Y-10883984D01*
X14736848Y-10883984D02*
X14755896Y-10874460D01*
X14755896Y-10874460D02*
X14765420Y-10864936D01*
X14765420Y-10864936D02*
X14774944Y-10845889D01*
X14774944Y-10845889D02*
X14774944Y-10807793D01*
X14774944Y-10807793D02*
X14765420Y-10788746D01*
X14765420Y-10788746D02*
X14755896Y-10779222D01*
X14755896Y-10779222D02*
X14736848Y-10769698D01*
X14851134Y-10683984D02*
X14851134Y-10722079D01*
X14927325Y-10683984D02*
X14927325Y-10722079D01*
X15222563Y-10960174D02*
X15213039Y-10950650D01*
X15213039Y-10950650D02*
X15193991Y-10922079D01*
X15193991Y-10922079D02*
X15184468Y-10903031D01*
X15184468Y-10903031D02*
X15174944Y-10874460D01*
X15174944Y-10874460D02*
X15165420Y-10826841D01*
X15165420Y-10826841D02*
X15165420Y-10788746D01*
X15165420Y-10788746D02*
X15174944Y-10741127D01*
X15174944Y-10741127D02*
X15184468Y-10712555D01*
X15184468Y-10712555D02*
X15193991Y-10693508D01*
X15193991Y-10693508D02*
X15213039Y-10664936D01*
X15213039Y-10664936D02*
X15222563Y-10655412D01*
X15403515Y-10883984D02*
X15289229Y-10883984D01*
X15346372Y-10883984D02*
X15346372Y-10683984D01*
X15346372Y-10683984D02*
X15327325Y-10712555D01*
X15327325Y-10712555D02*
X15308277Y-10731603D01*
X15308277Y-10731603D02*
X15289229Y-10741127D01*
X15574944Y-10750650D02*
X15574944Y-10883984D01*
X15527325Y-10674460D02*
X15479706Y-10817317D01*
X15479706Y-10817317D02*
X15603515Y-10817317D01*
X15832087Y-10883984D02*
X15832087Y-10683984D01*
X15917801Y-10883984D02*
X15917801Y-10779222D01*
X15917801Y-10779222D02*
X15908277Y-10760174D01*
X15908277Y-10760174D02*
X15889230Y-10750650D01*
X15889230Y-10750650D02*
X15860658Y-10750650D01*
X15860658Y-10750650D02*
X15841610Y-10760174D01*
X15841610Y-10760174D02*
X15832087Y-10769698D01*
X16041610Y-10883984D02*
X16022563Y-10874460D01*
X16022563Y-10874460D02*
X16013039Y-10864936D01*
X16013039Y-10864936D02*
X16003515Y-10845889D01*
X16003515Y-10845889D02*
X16003515Y-10788746D01*
X16003515Y-10788746D02*
X16013039Y-10769698D01*
X16013039Y-10769698D02*
X16022563Y-10760174D01*
X16022563Y-10760174D02*
X16041610Y-10750650D01*
X16041610Y-10750650D02*
X16070182Y-10750650D01*
X16070182Y-10750650D02*
X16089230Y-10760174D01*
X16089230Y-10760174D02*
X16098753Y-10769698D01*
X16098753Y-10769698D02*
X16108277Y-10788746D01*
X16108277Y-10788746D02*
X16108277Y-10845889D01*
X16108277Y-10845889D02*
X16098753Y-10864936D01*
X16098753Y-10864936D02*
X16089230Y-10874460D01*
X16089230Y-10874460D02*
X16070182Y-10883984D01*
X16070182Y-10883984D02*
X16041610Y-10883984D01*
X16222563Y-10883984D02*
X16203515Y-10874460D01*
X16203515Y-10874460D02*
X16193991Y-10855412D01*
X16193991Y-10855412D02*
X16193991Y-10683984D01*
X16374944Y-10874460D02*
X16355896Y-10883984D01*
X16355896Y-10883984D02*
X16317801Y-10883984D01*
X16317801Y-10883984D02*
X16298753Y-10874460D01*
X16298753Y-10874460D02*
X16289230Y-10855412D01*
X16289230Y-10855412D02*
X16289230Y-10779222D01*
X16289230Y-10779222D02*
X16298753Y-10760174D01*
X16298753Y-10760174D02*
X16317801Y-10750650D01*
X16317801Y-10750650D02*
X16355896Y-10750650D01*
X16355896Y-10750650D02*
X16374944Y-10760174D01*
X16374944Y-10760174D02*
X16384468Y-10779222D01*
X16384468Y-10779222D02*
X16384468Y-10798270D01*
X16384468Y-10798270D02*
X16289230Y-10817317D01*
X16460658Y-10874460D02*
X16479706Y-10883984D01*
X16479706Y-10883984D02*
X16517801Y-10883984D01*
X16517801Y-10883984D02*
X16536849Y-10874460D01*
X16536849Y-10874460D02*
X16546372Y-10855412D01*
X16546372Y-10855412D02*
X16546372Y-10845889D01*
X16546372Y-10845889D02*
X16536849Y-10826841D01*
X16536849Y-10826841D02*
X16517801Y-10817317D01*
X16517801Y-10817317D02*
X16489230Y-10817317D01*
X16489230Y-10817317D02*
X16470182Y-10807793D01*
X16470182Y-10807793D02*
X16460658Y-10788746D01*
X16460658Y-10788746D02*
X16460658Y-10779222D01*
X16460658Y-10779222D02*
X16470182Y-10760174D01*
X16470182Y-10760174D02*
X16489230Y-10750650D01*
X16489230Y-10750650D02*
X16517801Y-10750650D01*
X16517801Y-10750650D02*
X16536849Y-10760174D01*
X16613039Y-10960174D02*
X16622563Y-10950650D01*
X16622563Y-10950650D02*
X16641611Y-10922079D01*
X16641611Y-10922079D02*
X16651134Y-10903031D01*
X16651134Y-10903031D02*
X16660658Y-10874460D01*
X16660658Y-10874460D02*
X16670182Y-10826841D01*
X16670182Y-10826841D02*
X16670182Y-10788746D01*
X16670182Y-10788746D02*
X16660658Y-10741127D01*
X16660658Y-10741127D02*
X16651134Y-10712555D01*
X16651134Y-10712555D02*
X16641611Y-10693508D01*
X16641611Y-10693508D02*
X16622563Y-10664936D01*
X16622563Y-10664936D02*
X16613039Y-10655412D01*
D12*
X11647500Y-11056500D02*
G75*
G02*
X11547500Y-11056500I-50000J0D01*
G01*
X11547500Y-11056500D02*
G75*
G02*
X11647500Y-11056500I50000J0D01*
G01*
D11*
X12013039Y-11147984D02*
X11898753Y-11147984D01*
X11955896Y-11147984D02*
X11955896Y-10947984D01*
X11955896Y-10947984D02*
X11936848Y-10976555D01*
X11936848Y-10976555D02*
X11917801Y-10995603D01*
X11917801Y-10995603D02*
X11898753Y-11005127D01*
X12098753Y-11128936D02*
X12108277Y-11138460D01*
X12108277Y-11138460D02*
X12098753Y-11147984D01*
X12098753Y-11147984D02*
X12089229Y-11138460D01*
X12089229Y-11138460D02*
X12098753Y-11128936D01*
X12098753Y-11128936D02*
X12098753Y-11147984D01*
X12232086Y-10947984D02*
X12251134Y-10947984D01*
X12251134Y-10947984D02*
X12270182Y-10957508D01*
X12270182Y-10957508D02*
X12279705Y-10967031D01*
X12279705Y-10967031D02*
X12289229Y-10986079D01*
X12289229Y-10986079D02*
X12298753Y-11024174D01*
X12298753Y-11024174D02*
X12298753Y-11071793D01*
X12298753Y-11071793D02*
X12289229Y-11109889D01*
X12289229Y-11109889D02*
X12279705Y-11128936D01*
X12279705Y-11128936D02*
X12270182Y-11138460D01*
X12270182Y-11138460D02*
X12251134Y-11147984D01*
X12251134Y-11147984D02*
X12232086Y-11147984D01*
X12232086Y-11147984D02*
X12213039Y-11138460D01*
X12213039Y-11138460D02*
X12203515Y-11128936D01*
X12203515Y-11128936D02*
X12193991Y-11109889D01*
X12193991Y-11109889D02*
X12184467Y-11071793D01*
X12184467Y-11071793D02*
X12184467Y-11024174D01*
X12184467Y-11024174D02*
X12193991Y-10986079D01*
X12193991Y-10986079D02*
X12203515Y-10967031D01*
X12203515Y-10967031D02*
X12213039Y-10957508D01*
X12213039Y-10957508D02*
X12232086Y-10947984D01*
X12422562Y-10947984D02*
X12441610Y-10947984D01*
X12441610Y-10947984D02*
X12460658Y-10957508D01*
X12460658Y-10957508D02*
X12470182Y-10967031D01*
X12470182Y-10967031D02*
X12479705Y-10986079D01*
X12479705Y-10986079D02*
X12489229Y-11024174D01*
X12489229Y-11024174D02*
X12489229Y-11071793D01*
X12489229Y-11071793D02*
X12479705Y-11109889D01*
X12479705Y-11109889D02*
X12470182Y-11128936D01*
X12470182Y-11128936D02*
X12460658Y-11138460D01*
X12460658Y-11138460D02*
X12441610Y-11147984D01*
X12441610Y-11147984D02*
X12422562Y-11147984D01*
X12422562Y-11147984D02*
X12403515Y-11138460D01*
X12403515Y-11138460D02*
X12393991Y-11128936D01*
X12393991Y-11128936D02*
X12384467Y-11109889D01*
X12384467Y-11109889D02*
X12374943Y-11071793D01*
X12374943Y-11071793D02*
X12374943Y-11024174D01*
X12374943Y-11024174D02*
X12384467Y-10986079D01*
X12384467Y-10986079D02*
X12393991Y-10967031D01*
X12393991Y-10967031D02*
X12403515Y-10957508D01*
X12403515Y-10957508D02*
X12422562Y-10947984D01*
X12613039Y-10947984D02*
X12632086Y-10947984D01*
X12632086Y-10947984D02*
X12651134Y-10957508D01*
X12651134Y-10957508D02*
X12660658Y-10967031D01*
X12660658Y-10967031D02*
X12670182Y-10986079D01*
X12670182Y-10986079D02*
X12679705Y-11024174D01*
X12679705Y-11024174D02*
X12679705Y-11071793D01*
X12679705Y-11071793D02*
X12670182Y-11109889D01*
X12670182Y-11109889D02*
X12660658Y-11128936D01*
X12660658Y-11128936D02*
X12651134Y-11138460D01*
X12651134Y-11138460D02*
X12632086Y-11147984D01*
X12632086Y-11147984D02*
X12613039Y-11147984D01*
X12613039Y-11147984D02*
X12593991Y-11138460D01*
X12593991Y-11138460D02*
X12584467Y-11128936D01*
X12584467Y-11128936D02*
X12574943Y-11109889D01*
X12574943Y-11109889D02*
X12565420Y-11071793D01*
X12565420Y-11071793D02*
X12565420Y-11024174D01*
X12565420Y-11024174D02*
X12574943Y-10986079D01*
X12574943Y-10986079D02*
X12584467Y-10967031D01*
X12584467Y-10967031D02*
X12593991Y-10957508D01*
X12593991Y-10957508D02*
X12613039Y-10947984D01*
X12765420Y-11147984D02*
X12765420Y-11014650D01*
X12765420Y-11033698D02*
X12774943Y-11024174D01*
X12774943Y-11024174D02*
X12793991Y-11014650D01*
X12793991Y-11014650D02*
X12822563Y-11014650D01*
X12822563Y-11014650D02*
X12841610Y-11024174D01*
X12841610Y-11024174D02*
X12851134Y-11043222D01*
X12851134Y-11043222D02*
X12851134Y-11147984D01*
X12851134Y-11043222D02*
X12860658Y-11024174D01*
X12860658Y-11024174D02*
X12879705Y-11014650D01*
X12879705Y-11014650D02*
X12908277Y-11014650D01*
X12908277Y-11014650D02*
X12927324Y-11024174D01*
X12927324Y-11024174D02*
X12936848Y-11043222D01*
X12936848Y-11043222D02*
X12936848Y-11147984D01*
X13032086Y-11147984D02*
X13032086Y-11014650D01*
X13032086Y-11033698D02*
X13041610Y-11024174D01*
X13041610Y-11024174D02*
X13060658Y-11014650D01*
X13060658Y-11014650D02*
X13089229Y-11014650D01*
X13089229Y-11014650D02*
X13108277Y-11024174D01*
X13108277Y-11024174D02*
X13117801Y-11043222D01*
X13117801Y-11043222D02*
X13117801Y-11147984D01*
X13117801Y-11043222D02*
X13127324Y-11024174D01*
X13127324Y-11024174D02*
X13146372Y-11014650D01*
X13146372Y-11014650D02*
X13174943Y-11014650D01*
X13174943Y-11014650D02*
X13193991Y-11024174D01*
X13193991Y-11024174D02*
X13203515Y-11043222D01*
X13203515Y-11043222D02*
X13203515Y-11147984D01*
X13593991Y-10938460D02*
X13422563Y-11195603D01*
X13851134Y-10947984D02*
X13870182Y-10947984D01*
X13870182Y-10947984D02*
X13889229Y-10957508D01*
X13889229Y-10957508D02*
X13898753Y-10967031D01*
X13898753Y-10967031D02*
X13908277Y-10986079D01*
X13908277Y-10986079D02*
X13917801Y-11024174D01*
X13917801Y-11024174D02*
X13917801Y-11071793D01*
X13917801Y-11071793D02*
X13908277Y-11109889D01*
X13908277Y-11109889D02*
X13898753Y-11128936D01*
X13898753Y-11128936D02*
X13889229Y-11138460D01*
X13889229Y-11138460D02*
X13870182Y-11147984D01*
X13870182Y-11147984D02*
X13851134Y-11147984D01*
X13851134Y-11147984D02*
X13832086Y-11138460D01*
X13832086Y-11138460D02*
X13822563Y-11128936D01*
X13822563Y-11128936D02*
X13813039Y-11109889D01*
X13813039Y-11109889D02*
X13803515Y-11071793D01*
X13803515Y-11071793D02*
X13803515Y-11024174D01*
X13803515Y-11024174D02*
X13813039Y-10986079D01*
X13813039Y-10986079D02*
X13822563Y-10967031D01*
X13822563Y-10967031D02*
X13832086Y-10957508D01*
X13832086Y-10957508D02*
X13851134Y-10947984D01*
X14003515Y-11128936D02*
X14013039Y-11138460D01*
X14013039Y-11138460D02*
X14003515Y-11147984D01*
X14003515Y-11147984D02*
X13993991Y-11138460D01*
X13993991Y-11138460D02*
X14003515Y-11128936D01*
X14003515Y-11128936D02*
X14003515Y-11147984D01*
X14136848Y-10947984D02*
X14155896Y-10947984D01*
X14155896Y-10947984D02*
X14174944Y-10957508D01*
X14174944Y-10957508D02*
X14184467Y-10967031D01*
X14184467Y-10967031D02*
X14193991Y-10986079D01*
X14193991Y-10986079D02*
X14203515Y-11024174D01*
X14203515Y-11024174D02*
X14203515Y-11071793D01*
X14203515Y-11071793D02*
X14193991Y-11109889D01*
X14193991Y-11109889D02*
X14184467Y-11128936D01*
X14184467Y-11128936D02*
X14174944Y-11138460D01*
X14174944Y-11138460D02*
X14155896Y-11147984D01*
X14155896Y-11147984D02*
X14136848Y-11147984D01*
X14136848Y-11147984D02*
X14117801Y-11138460D01*
X14117801Y-11138460D02*
X14108277Y-11128936D01*
X14108277Y-11128936D02*
X14098753Y-11109889D01*
X14098753Y-11109889D02*
X14089229Y-11071793D01*
X14089229Y-11071793D02*
X14089229Y-11024174D01*
X14089229Y-11024174D02*
X14098753Y-10986079D01*
X14098753Y-10986079D02*
X14108277Y-10967031D01*
X14108277Y-10967031D02*
X14117801Y-10957508D01*
X14117801Y-10957508D02*
X14136848Y-10947984D01*
X14270182Y-10947984D02*
X14393991Y-10947984D01*
X14393991Y-10947984D02*
X14327325Y-11024174D01*
X14327325Y-11024174D02*
X14355896Y-11024174D01*
X14355896Y-11024174D02*
X14374944Y-11033698D01*
X14374944Y-11033698D02*
X14384467Y-11043222D01*
X14384467Y-11043222D02*
X14393991Y-11062270D01*
X14393991Y-11062270D02*
X14393991Y-11109889D01*
X14393991Y-11109889D02*
X14384467Y-11128936D01*
X14384467Y-11128936D02*
X14374944Y-11138460D01*
X14374944Y-11138460D02*
X14355896Y-11147984D01*
X14355896Y-11147984D02*
X14298753Y-11147984D01*
X14298753Y-11147984D02*
X14279706Y-11138460D01*
X14279706Y-11138460D02*
X14270182Y-11128936D01*
X14489229Y-11147984D02*
X14527325Y-11147984D01*
X14527325Y-11147984D02*
X14546372Y-11138460D01*
X14546372Y-11138460D02*
X14555896Y-11128936D01*
X14555896Y-11128936D02*
X14574944Y-11100365D01*
X14574944Y-11100365D02*
X14584467Y-11062270D01*
X14584467Y-11062270D02*
X14584467Y-10986079D01*
X14584467Y-10986079D02*
X14574944Y-10967031D01*
X14574944Y-10967031D02*
X14565420Y-10957508D01*
X14565420Y-10957508D02*
X14546372Y-10947984D01*
X14546372Y-10947984D02*
X14508277Y-10947984D01*
X14508277Y-10947984D02*
X14489229Y-10957508D01*
X14489229Y-10957508D02*
X14479706Y-10967031D01*
X14479706Y-10967031D02*
X14470182Y-10986079D01*
X14470182Y-10986079D02*
X14470182Y-11033698D01*
X14470182Y-11033698D02*
X14479706Y-11052746D01*
X14479706Y-11052746D02*
X14489229Y-11062270D01*
X14489229Y-11062270D02*
X14508277Y-11071793D01*
X14508277Y-11071793D02*
X14546372Y-11071793D01*
X14546372Y-11071793D02*
X14565420Y-11062270D01*
X14565420Y-11062270D02*
X14574944Y-11052746D01*
X14574944Y-11052746D02*
X14584467Y-11033698D01*
X14755896Y-11014650D02*
X14755896Y-11147984D01*
X14708277Y-10938460D02*
X14660658Y-11081317D01*
X14660658Y-11081317D02*
X14784467Y-11081317D01*
X14851134Y-10947984D02*
X14851134Y-10986079D01*
X14927325Y-10947984D02*
X14927325Y-10986079D01*
X15222563Y-11224174D02*
X15213039Y-11214650D01*
X15213039Y-11214650D02*
X15193991Y-11186079D01*
X15193991Y-11186079D02*
X15184468Y-11167031D01*
X15184468Y-11167031D02*
X15174944Y-11138460D01*
X15174944Y-11138460D02*
X15165420Y-11090841D01*
X15165420Y-11090841D02*
X15165420Y-11052746D01*
X15165420Y-11052746D02*
X15174944Y-11005127D01*
X15174944Y-11005127D02*
X15184468Y-10976555D01*
X15184468Y-10976555D02*
X15193991Y-10957508D01*
X15193991Y-10957508D02*
X15213039Y-10928936D01*
X15213039Y-10928936D02*
X15222563Y-10919412D01*
X15279706Y-10947984D02*
X15403515Y-10947984D01*
X15403515Y-10947984D02*
X15336848Y-11024174D01*
X15336848Y-11024174D02*
X15365420Y-11024174D01*
X15365420Y-11024174D02*
X15384468Y-11033698D01*
X15384468Y-11033698D02*
X15393991Y-11043222D01*
X15393991Y-11043222D02*
X15403515Y-11062270D01*
X15403515Y-11062270D02*
X15403515Y-11109889D01*
X15403515Y-11109889D02*
X15393991Y-11128936D01*
X15393991Y-11128936D02*
X15384468Y-11138460D01*
X15384468Y-11138460D02*
X15365420Y-11147984D01*
X15365420Y-11147984D02*
X15308277Y-11147984D01*
X15308277Y-11147984D02*
X15289229Y-11138460D01*
X15289229Y-11138460D02*
X15279706Y-11128936D01*
X15517801Y-11033698D02*
X15498753Y-11024174D01*
X15498753Y-11024174D02*
X15489229Y-11014650D01*
X15489229Y-11014650D02*
X15479706Y-10995603D01*
X15479706Y-10995603D02*
X15479706Y-10986079D01*
X15479706Y-10986079D02*
X15489229Y-10967031D01*
X15489229Y-10967031D02*
X15498753Y-10957508D01*
X15498753Y-10957508D02*
X15517801Y-10947984D01*
X15517801Y-10947984D02*
X15555896Y-10947984D01*
X15555896Y-10947984D02*
X15574944Y-10957508D01*
X15574944Y-10957508D02*
X15584468Y-10967031D01*
X15584468Y-10967031D02*
X15593991Y-10986079D01*
X15593991Y-10986079D02*
X15593991Y-10995603D01*
X15593991Y-10995603D02*
X15584468Y-11014650D01*
X15584468Y-11014650D02*
X15574944Y-11024174D01*
X15574944Y-11024174D02*
X15555896Y-11033698D01*
X15555896Y-11033698D02*
X15517801Y-11033698D01*
X15517801Y-11033698D02*
X15498753Y-11043222D01*
X15498753Y-11043222D02*
X15489229Y-11052746D01*
X15489229Y-11052746D02*
X15479706Y-11071793D01*
X15479706Y-11071793D02*
X15479706Y-11109889D01*
X15479706Y-11109889D02*
X15489229Y-11128936D01*
X15489229Y-11128936D02*
X15498753Y-11138460D01*
X15498753Y-11138460D02*
X15517801Y-11147984D01*
X15517801Y-11147984D02*
X15555896Y-11147984D01*
X15555896Y-11147984D02*
X15574944Y-11138460D01*
X15574944Y-11138460D02*
X15584468Y-11128936D01*
X15584468Y-11128936D02*
X15593991Y-11109889D01*
X15593991Y-11109889D02*
X15593991Y-11071793D01*
X15593991Y-11071793D02*
X15584468Y-11052746D01*
X15584468Y-11052746D02*
X15574944Y-11043222D01*
X15574944Y-11043222D02*
X15555896Y-11033698D01*
X15832087Y-11147984D02*
X15832087Y-10947984D01*
X15917801Y-11147984D02*
X15917801Y-11043222D01*
X15917801Y-11043222D02*
X15908277Y-11024174D01*
X15908277Y-11024174D02*
X15889230Y-11014650D01*
X15889230Y-11014650D02*
X15860658Y-11014650D01*
X15860658Y-11014650D02*
X15841610Y-11024174D01*
X15841610Y-11024174D02*
X15832087Y-11033698D01*
X16041610Y-11147984D02*
X16022563Y-11138460D01*
X16022563Y-11138460D02*
X16013039Y-11128936D01*
X16013039Y-11128936D02*
X16003515Y-11109889D01*
X16003515Y-11109889D02*
X16003515Y-11052746D01*
X16003515Y-11052746D02*
X16013039Y-11033698D01*
X16013039Y-11033698D02*
X16022563Y-11024174D01*
X16022563Y-11024174D02*
X16041610Y-11014650D01*
X16041610Y-11014650D02*
X16070182Y-11014650D01*
X16070182Y-11014650D02*
X16089230Y-11024174D01*
X16089230Y-11024174D02*
X16098753Y-11033698D01*
X16098753Y-11033698D02*
X16108277Y-11052746D01*
X16108277Y-11052746D02*
X16108277Y-11109889D01*
X16108277Y-11109889D02*
X16098753Y-11128936D01*
X16098753Y-11128936D02*
X16089230Y-11138460D01*
X16089230Y-11138460D02*
X16070182Y-11147984D01*
X16070182Y-11147984D02*
X16041610Y-11147984D01*
X16222563Y-11147984D02*
X16203515Y-11138460D01*
X16203515Y-11138460D02*
X16193991Y-11119412D01*
X16193991Y-11119412D02*
X16193991Y-10947984D01*
X16374944Y-11138460D02*
X16355896Y-11147984D01*
X16355896Y-11147984D02*
X16317801Y-11147984D01*
X16317801Y-11147984D02*
X16298753Y-11138460D01*
X16298753Y-11138460D02*
X16289230Y-11119412D01*
X16289230Y-11119412D02*
X16289230Y-11043222D01*
X16289230Y-11043222D02*
X16298753Y-11024174D01*
X16298753Y-11024174D02*
X16317801Y-11014650D01*
X16317801Y-11014650D02*
X16355896Y-11014650D01*
X16355896Y-11014650D02*
X16374944Y-11024174D01*
X16374944Y-11024174D02*
X16384468Y-11043222D01*
X16384468Y-11043222D02*
X16384468Y-11062270D01*
X16384468Y-11062270D02*
X16289230Y-11081317D01*
X16460658Y-11138460D02*
X16479706Y-11147984D01*
X16479706Y-11147984D02*
X16517801Y-11147984D01*
X16517801Y-11147984D02*
X16536849Y-11138460D01*
X16536849Y-11138460D02*
X16546372Y-11119412D01*
X16546372Y-11119412D02*
X16546372Y-11109889D01*
X16546372Y-11109889D02*
X16536849Y-11090841D01*
X16536849Y-11090841D02*
X16517801Y-11081317D01*
X16517801Y-11081317D02*
X16489230Y-11081317D01*
X16489230Y-11081317D02*
X16470182Y-11071793D01*
X16470182Y-11071793D02*
X16460658Y-11052746D01*
X16460658Y-11052746D02*
X16460658Y-11043222D01*
X16460658Y-11043222D02*
X16470182Y-11024174D01*
X16470182Y-11024174D02*
X16489230Y-11014650D01*
X16489230Y-11014650D02*
X16517801Y-11014650D01*
X16517801Y-11014650D02*
X16536849Y-11024174D01*
X16613039Y-11224174D02*
X16622563Y-11214650D01*
X16622563Y-11214650D02*
X16641611Y-11186079D01*
X16641611Y-11186079D02*
X16651134Y-11167031D01*
X16651134Y-11167031D02*
X16660658Y-11138460D01*
X16660658Y-11138460D02*
X16670182Y-11090841D01*
X16670182Y-11090841D02*
X16670182Y-11052746D01*
X16670182Y-11052746D02*
X16660658Y-11005127D01*
X16660658Y-11005127D02*
X16651134Y-10976555D01*
X16651134Y-10976555D02*
X16641611Y-10957508D01*
X16641611Y-10957508D02*
X16622563Y-10928936D01*
X16622563Y-10928936D02*
X16613039Y-10919412D01*
D13*
X11562500Y-11235500D02*
X11562500Y-11405500D01*
X11477500Y-11320500D02*
X11647500Y-11320500D01*
D11*
X12013039Y-11411984D02*
X11898753Y-11411984D01*
X11955896Y-11411984D02*
X11955896Y-11211984D01*
X11955896Y-11211984D02*
X11936848Y-11240555D01*
X11936848Y-11240555D02*
X11917801Y-11259603D01*
X11917801Y-11259603D02*
X11898753Y-11269127D01*
X12098753Y-11392936D02*
X12108277Y-11402460D01*
X12108277Y-11402460D02*
X12098753Y-11411984D01*
X12098753Y-11411984D02*
X12089229Y-11402460D01*
X12089229Y-11402460D02*
X12098753Y-11392936D01*
X12098753Y-11392936D02*
X12098753Y-11411984D01*
X12174943Y-11211984D02*
X12308277Y-11211984D01*
X12308277Y-11211984D02*
X12222562Y-11411984D01*
X12422562Y-11211984D02*
X12441610Y-11211984D01*
X12441610Y-11211984D02*
X12460658Y-11221508D01*
X12460658Y-11221508D02*
X12470182Y-11231031D01*
X12470182Y-11231031D02*
X12479705Y-11250079D01*
X12479705Y-11250079D02*
X12489229Y-11288174D01*
X12489229Y-11288174D02*
X12489229Y-11335793D01*
X12489229Y-11335793D02*
X12479705Y-11373888D01*
X12479705Y-11373888D02*
X12470182Y-11392936D01*
X12470182Y-11392936D02*
X12460658Y-11402460D01*
X12460658Y-11402460D02*
X12441610Y-11411984D01*
X12441610Y-11411984D02*
X12422562Y-11411984D01*
X12422562Y-11411984D02*
X12403515Y-11402460D01*
X12403515Y-11402460D02*
X12393991Y-11392936D01*
X12393991Y-11392936D02*
X12384467Y-11373888D01*
X12384467Y-11373888D02*
X12374943Y-11335793D01*
X12374943Y-11335793D02*
X12374943Y-11288174D01*
X12374943Y-11288174D02*
X12384467Y-11250079D01*
X12384467Y-11250079D02*
X12393991Y-11231031D01*
X12393991Y-11231031D02*
X12403515Y-11221508D01*
X12403515Y-11221508D02*
X12422562Y-11211984D01*
X12613039Y-11211984D02*
X12632086Y-11211984D01*
X12632086Y-11211984D02*
X12651134Y-11221508D01*
X12651134Y-11221508D02*
X12660658Y-11231031D01*
X12660658Y-11231031D02*
X12670182Y-11250079D01*
X12670182Y-11250079D02*
X12679705Y-11288174D01*
X12679705Y-11288174D02*
X12679705Y-11335793D01*
X12679705Y-11335793D02*
X12670182Y-11373888D01*
X12670182Y-11373888D02*
X12660658Y-11392936D01*
X12660658Y-11392936D02*
X12651134Y-11402460D01*
X12651134Y-11402460D02*
X12632086Y-11411984D01*
X12632086Y-11411984D02*
X12613039Y-11411984D01*
X12613039Y-11411984D02*
X12593991Y-11402460D01*
X12593991Y-11402460D02*
X12584467Y-11392936D01*
X12584467Y-11392936D02*
X12574943Y-11373888D01*
X12574943Y-11373888D02*
X12565420Y-11335793D01*
X12565420Y-11335793D02*
X12565420Y-11288174D01*
X12565420Y-11288174D02*
X12574943Y-11250079D01*
X12574943Y-11250079D02*
X12584467Y-11231031D01*
X12584467Y-11231031D02*
X12593991Y-11221508D01*
X12593991Y-11221508D02*
X12613039Y-11211984D01*
X12765420Y-11411984D02*
X12765420Y-11278650D01*
X12765420Y-11297698D02*
X12774943Y-11288174D01*
X12774943Y-11288174D02*
X12793991Y-11278650D01*
X12793991Y-11278650D02*
X12822563Y-11278650D01*
X12822563Y-11278650D02*
X12841610Y-11288174D01*
X12841610Y-11288174D02*
X12851134Y-11307222D01*
X12851134Y-11307222D02*
X12851134Y-11411984D01*
X12851134Y-11307222D02*
X12860658Y-11288174D01*
X12860658Y-11288174D02*
X12879705Y-11278650D01*
X12879705Y-11278650D02*
X12908277Y-11278650D01*
X12908277Y-11278650D02*
X12927324Y-11288174D01*
X12927324Y-11288174D02*
X12936848Y-11307222D01*
X12936848Y-11307222D02*
X12936848Y-11411984D01*
X13032086Y-11411984D02*
X13032086Y-11278650D01*
X13032086Y-11297698D02*
X13041610Y-11288174D01*
X13041610Y-11288174D02*
X13060658Y-11278650D01*
X13060658Y-11278650D02*
X13089229Y-11278650D01*
X13089229Y-11278650D02*
X13108277Y-11288174D01*
X13108277Y-11288174D02*
X13117801Y-11307222D01*
X13117801Y-11307222D02*
X13117801Y-11411984D01*
X13117801Y-11307222D02*
X13127324Y-11288174D01*
X13127324Y-11288174D02*
X13146372Y-11278650D01*
X13146372Y-11278650D02*
X13174943Y-11278650D01*
X13174943Y-11278650D02*
X13193991Y-11288174D01*
X13193991Y-11288174D02*
X13203515Y-11307222D01*
X13203515Y-11307222D02*
X13203515Y-11411984D01*
X13593991Y-11202460D02*
X13422563Y-11459603D01*
X13851134Y-11211984D02*
X13870182Y-11211984D01*
X13870182Y-11211984D02*
X13889229Y-11221508D01*
X13889229Y-11221508D02*
X13898753Y-11231031D01*
X13898753Y-11231031D02*
X13908277Y-11250079D01*
X13908277Y-11250079D02*
X13917801Y-11288174D01*
X13917801Y-11288174D02*
X13917801Y-11335793D01*
X13917801Y-11335793D02*
X13908277Y-11373888D01*
X13908277Y-11373888D02*
X13898753Y-11392936D01*
X13898753Y-11392936D02*
X13889229Y-11402460D01*
X13889229Y-11402460D02*
X13870182Y-11411984D01*
X13870182Y-11411984D02*
X13851134Y-11411984D01*
X13851134Y-11411984D02*
X13832086Y-11402460D01*
X13832086Y-11402460D02*
X13822563Y-11392936D01*
X13822563Y-11392936D02*
X13813039Y-11373888D01*
X13813039Y-11373888D02*
X13803515Y-11335793D01*
X13803515Y-11335793D02*
X13803515Y-11288174D01*
X13803515Y-11288174D02*
X13813039Y-11250079D01*
X13813039Y-11250079D02*
X13822563Y-11231031D01*
X13822563Y-11231031D02*
X13832086Y-11221508D01*
X13832086Y-11221508D02*
X13851134Y-11211984D01*
X14003515Y-11392936D02*
X14013039Y-11402460D01*
X14013039Y-11402460D02*
X14003515Y-11411984D01*
X14003515Y-11411984D02*
X13993991Y-11402460D01*
X13993991Y-11402460D02*
X14003515Y-11392936D01*
X14003515Y-11392936D02*
X14003515Y-11411984D01*
X14136848Y-11211984D02*
X14155896Y-11211984D01*
X14155896Y-11211984D02*
X14174944Y-11221508D01*
X14174944Y-11221508D02*
X14184467Y-11231031D01*
X14184467Y-11231031D02*
X14193991Y-11250079D01*
X14193991Y-11250079D02*
X14203515Y-11288174D01*
X14203515Y-11288174D02*
X14203515Y-11335793D01*
X14203515Y-11335793D02*
X14193991Y-11373888D01*
X14193991Y-11373888D02*
X14184467Y-11392936D01*
X14184467Y-11392936D02*
X14174944Y-11402460D01*
X14174944Y-11402460D02*
X14155896Y-11411984D01*
X14155896Y-11411984D02*
X14136848Y-11411984D01*
X14136848Y-11411984D02*
X14117801Y-11402460D01*
X14117801Y-11402460D02*
X14108277Y-11392936D01*
X14108277Y-11392936D02*
X14098753Y-11373888D01*
X14098753Y-11373888D02*
X14089229Y-11335793D01*
X14089229Y-11335793D02*
X14089229Y-11288174D01*
X14089229Y-11288174D02*
X14098753Y-11250079D01*
X14098753Y-11250079D02*
X14108277Y-11231031D01*
X14108277Y-11231031D02*
X14117801Y-11221508D01*
X14117801Y-11221508D02*
X14136848Y-11211984D01*
X14374944Y-11211984D02*
X14336848Y-11211984D01*
X14336848Y-11211984D02*
X14317801Y-11221508D01*
X14317801Y-11221508D02*
X14308277Y-11231031D01*
X14308277Y-11231031D02*
X14289229Y-11259603D01*
X14289229Y-11259603D02*
X14279706Y-11297698D01*
X14279706Y-11297698D02*
X14279706Y-11373888D01*
X14279706Y-11373888D02*
X14289229Y-11392936D01*
X14289229Y-11392936D02*
X14298753Y-11402460D01*
X14298753Y-11402460D02*
X14317801Y-11411984D01*
X14317801Y-11411984D02*
X14355896Y-11411984D01*
X14355896Y-11411984D02*
X14374944Y-11402460D01*
X14374944Y-11402460D02*
X14384467Y-11392936D01*
X14384467Y-11392936D02*
X14393991Y-11373888D01*
X14393991Y-11373888D02*
X14393991Y-11326269D01*
X14393991Y-11326269D02*
X14384467Y-11307222D01*
X14384467Y-11307222D02*
X14374944Y-11297698D01*
X14374944Y-11297698D02*
X14355896Y-11288174D01*
X14355896Y-11288174D02*
X14317801Y-11288174D01*
X14317801Y-11288174D02*
X14298753Y-11297698D01*
X14298753Y-11297698D02*
X14289229Y-11307222D01*
X14289229Y-11307222D02*
X14279706Y-11326269D01*
X14565420Y-11211984D02*
X14527325Y-11211984D01*
X14527325Y-11211984D02*
X14508277Y-11221508D01*
X14508277Y-11221508D02*
X14498753Y-11231031D01*
X14498753Y-11231031D02*
X14479706Y-11259603D01*
X14479706Y-11259603D02*
X14470182Y-11297698D01*
X14470182Y-11297698D02*
X14470182Y-11373888D01*
X14470182Y-11373888D02*
X14479706Y-11392936D01*
X14479706Y-11392936D02*
X14489229Y-11402460D01*
X14489229Y-11402460D02*
X14508277Y-11411984D01*
X14508277Y-11411984D02*
X14546372Y-11411984D01*
X14546372Y-11411984D02*
X14565420Y-11402460D01*
X14565420Y-11402460D02*
X14574944Y-11392936D01*
X14574944Y-11392936D02*
X14584467Y-11373888D01*
X14584467Y-11373888D02*
X14584467Y-11326269D01*
X14584467Y-11326269D02*
X14574944Y-11307222D01*
X14574944Y-11307222D02*
X14565420Y-11297698D01*
X14565420Y-11297698D02*
X14546372Y-11288174D01*
X14546372Y-11288174D02*
X14508277Y-11288174D01*
X14508277Y-11288174D02*
X14489229Y-11297698D01*
X14489229Y-11297698D02*
X14479706Y-11307222D01*
X14479706Y-11307222D02*
X14470182Y-11326269D01*
X14679706Y-11411984D02*
X14717801Y-11411984D01*
X14717801Y-11411984D02*
X14736848Y-11402460D01*
X14736848Y-11402460D02*
X14746372Y-11392936D01*
X14746372Y-11392936D02*
X14765420Y-11364365D01*
X14765420Y-11364365D02*
X14774944Y-11326269D01*
X14774944Y-11326269D02*
X14774944Y-11250079D01*
X14774944Y-11250079D02*
X14765420Y-11231031D01*
X14765420Y-11231031D02*
X14755896Y-11221508D01*
X14755896Y-11221508D02*
X14736848Y-11211984D01*
X14736848Y-11211984D02*
X14698753Y-11211984D01*
X14698753Y-11211984D02*
X14679706Y-11221508D01*
X14679706Y-11221508D02*
X14670182Y-11231031D01*
X14670182Y-11231031D02*
X14660658Y-11250079D01*
X14660658Y-11250079D02*
X14660658Y-11297698D01*
X14660658Y-11297698D02*
X14670182Y-11316746D01*
X14670182Y-11316746D02*
X14679706Y-11326269D01*
X14679706Y-11326269D02*
X14698753Y-11335793D01*
X14698753Y-11335793D02*
X14736848Y-11335793D01*
X14736848Y-11335793D02*
X14755896Y-11326269D01*
X14755896Y-11326269D02*
X14765420Y-11316746D01*
X14765420Y-11316746D02*
X14774944Y-11297698D01*
X14851134Y-11211984D02*
X14851134Y-11250079D01*
X14927325Y-11211984D02*
X14927325Y-11250079D01*
X15222563Y-11488174D02*
X15213039Y-11478650D01*
X15213039Y-11478650D02*
X15193991Y-11450079D01*
X15193991Y-11450079D02*
X15184468Y-11431031D01*
X15184468Y-11431031D02*
X15174944Y-11402460D01*
X15174944Y-11402460D02*
X15165420Y-11354841D01*
X15165420Y-11354841D02*
X15165420Y-11316746D01*
X15165420Y-11316746D02*
X15174944Y-11269127D01*
X15174944Y-11269127D02*
X15184468Y-11240555D01*
X15184468Y-11240555D02*
X15193991Y-11221508D01*
X15193991Y-11221508D02*
X15213039Y-11192936D01*
X15213039Y-11192936D02*
X15222563Y-11183412D01*
X15384468Y-11278650D02*
X15384468Y-11411984D01*
X15336848Y-11202460D02*
X15289229Y-11345317D01*
X15289229Y-11345317D02*
X15413039Y-11345317D01*
X15641610Y-11411984D02*
X15641610Y-11211984D01*
X15727325Y-11411984D02*
X15727325Y-11307222D01*
X15727325Y-11307222D02*
X15717801Y-11288174D01*
X15717801Y-11288174D02*
X15698753Y-11278650D01*
X15698753Y-11278650D02*
X15670182Y-11278650D01*
X15670182Y-11278650D02*
X15651134Y-11288174D01*
X15651134Y-11288174D02*
X15641610Y-11297698D01*
X15851134Y-11411984D02*
X15832087Y-11402460D01*
X15832087Y-11402460D02*
X15822563Y-11392936D01*
X15822563Y-11392936D02*
X15813039Y-11373888D01*
X15813039Y-11373888D02*
X15813039Y-11316746D01*
X15813039Y-11316746D02*
X15822563Y-11297698D01*
X15822563Y-11297698D02*
X15832087Y-11288174D01*
X15832087Y-11288174D02*
X15851134Y-11278650D01*
X15851134Y-11278650D02*
X15879706Y-11278650D01*
X15879706Y-11278650D02*
X15898753Y-11288174D01*
X15898753Y-11288174D02*
X15908277Y-11297698D01*
X15908277Y-11297698D02*
X15917801Y-11316746D01*
X15917801Y-11316746D02*
X15917801Y-11373888D01*
X15917801Y-11373888D02*
X15908277Y-11392936D01*
X15908277Y-11392936D02*
X15898753Y-11402460D01*
X15898753Y-11402460D02*
X15879706Y-11411984D01*
X15879706Y-11411984D02*
X15851134Y-11411984D01*
X16032087Y-11411984D02*
X16013039Y-11402460D01*
X16013039Y-11402460D02*
X16003515Y-11383412D01*
X16003515Y-11383412D02*
X16003515Y-11211984D01*
X16184468Y-11402460D02*
X16165420Y-11411984D01*
X16165420Y-11411984D02*
X16127325Y-11411984D01*
X16127325Y-11411984D02*
X16108277Y-11402460D01*
X16108277Y-11402460D02*
X16098753Y-11383412D01*
X16098753Y-11383412D02*
X16098753Y-11307222D01*
X16098753Y-11307222D02*
X16108277Y-11288174D01*
X16108277Y-11288174D02*
X16127325Y-11278650D01*
X16127325Y-11278650D02*
X16165420Y-11278650D01*
X16165420Y-11278650D02*
X16184468Y-11288174D01*
X16184468Y-11288174D02*
X16193991Y-11307222D01*
X16193991Y-11307222D02*
X16193991Y-11326269D01*
X16193991Y-11326269D02*
X16098753Y-11345317D01*
X16270182Y-11402460D02*
X16289230Y-11411984D01*
X16289230Y-11411984D02*
X16327325Y-11411984D01*
X16327325Y-11411984D02*
X16346372Y-11402460D01*
X16346372Y-11402460D02*
X16355896Y-11383412D01*
X16355896Y-11383412D02*
X16355896Y-11373888D01*
X16355896Y-11373888D02*
X16346372Y-11354841D01*
X16346372Y-11354841D02*
X16327325Y-11345317D01*
X16327325Y-11345317D02*
X16298753Y-11345317D01*
X16298753Y-11345317D02*
X16279706Y-11335793D01*
X16279706Y-11335793D02*
X16270182Y-11316746D01*
X16270182Y-11316746D02*
X16270182Y-11307222D01*
X16270182Y-11307222D02*
X16279706Y-11288174D01*
X16279706Y-11288174D02*
X16298753Y-11278650D01*
X16298753Y-11278650D02*
X16327325Y-11278650D01*
X16327325Y-11278650D02*
X16346372Y-11288174D01*
X16422563Y-11488174D02*
X16432087Y-11478650D01*
X16432087Y-11478650D02*
X16451134Y-11450079D01*
X16451134Y-11450079D02*
X16460658Y-11431031D01*
X16460658Y-11431031D02*
X16470182Y-11402460D01*
X16470182Y-11402460D02*
X16479706Y-11354841D01*
X16479706Y-11354841D02*
X16479706Y-11316746D01*
X16479706Y-11316746D02*
X16470182Y-11269127D01*
X16470182Y-11269127D02*
X16460658Y-11240555D01*
X16460658Y-11240555D02*
X16451134Y-11221508D01*
X16451134Y-11221508D02*
X16432087Y-11192936D01*
X16432087Y-11192936D02*
X16422563Y-11183412D01*
M02*
