%TF.GenerationSoftware,KiCad,Pcbnew,8.0.8-8.0.8-0~ubuntu22.04.1*%
%TF.CreationDate,2025-01-23T22:19:47+01:00*%
%TF.ProjectId,glm5va,676c6d35-7661-42e6-9b69-6361645f7063,v1.0*%
%TF.SameCoordinates,Original*%
%TF.FileFunction,Drillmap*%
%TF.FilePolarity,Positive*%
%FSLAX45Y45*%
G04 Gerber Fmt 4.5, Leading zero omitted, Abs format (unit mm)*
G04 Created by KiCad (PCBNEW 8.0.8-8.0.8-0~ubuntu22.04.1) date 2025-01-23 22:19:47*
%MOMM*%
%LPD*%
G01*
G04 APERTURE LIST*
%ADD10C,0.050000*%
%ADD11C,0.200000*%
G04 APERTURE END LIST*
D10*
X11850000Y-6950000D02*
X17200000Y-6950000D01*
X11650000Y-9950000D02*
X11650000Y-7150000D01*
X17200000Y-6950000D02*
G75*
G02*
X17400000Y-7150000I0J-200000D01*
G01*
X17400000Y-7150000D02*
X17400000Y-9950000D01*
X11850000Y-10150000D02*
G75*
G02*
X11650000Y-9950000I0J200000D01*
G01*
X17400000Y-9950000D02*
G75*
G02*
X17200000Y-10150000I-200000J0D01*
G01*
X11650000Y-7150000D02*
G75*
G02*
X11850000Y-6950000I200000J0D01*
G01*
X17200000Y-10150000D02*
X11850000Y-10150000D01*
D11*
X11908277Y-10463984D02*
X11908277Y-10263984D01*
X11908277Y-10263984D02*
X11955896Y-10263984D01*
X11955896Y-10263984D02*
X11984467Y-10273508D01*
X11984467Y-10273508D02*
X12003515Y-10292555D01*
X12003515Y-10292555D02*
X12013039Y-10311603D01*
X12013039Y-10311603D02*
X12022562Y-10349698D01*
X12022562Y-10349698D02*
X12022562Y-10378270D01*
X12022562Y-10378270D02*
X12013039Y-10416365D01*
X12013039Y-10416365D02*
X12003515Y-10435412D01*
X12003515Y-10435412D02*
X11984467Y-10454460D01*
X11984467Y-10454460D02*
X11955896Y-10463984D01*
X11955896Y-10463984D02*
X11908277Y-10463984D01*
X12108277Y-10463984D02*
X12108277Y-10330650D01*
X12108277Y-10368746D02*
X12117801Y-10349698D01*
X12117801Y-10349698D02*
X12127324Y-10340174D01*
X12127324Y-10340174D02*
X12146372Y-10330650D01*
X12146372Y-10330650D02*
X12165420Y-10330650D01*
X12232086Y-10463984D02*
X12232086Y-10330650D01*
X12232086Y-10263984D02*
X12222562Y-10273508D01*
X12222562Y-10273508D02*
X12232086Y-10283031D01*
X12232086Y-10283031D02*
X12241610Y-10273508D01*
X12241610Y-10273508D02*
X12232086Y-10263984D01*
X12232086Y-10263984D02*
X12232086Y-10283031D01*
X12355896Y-10463984D02*
X12336848Y-10454460D01*
X12336848Y-10454460D02*
X12327324Y-10435412D01*
X12327324Y-10435412D02*
X12327324Y-10263984D01*
X12460658Y-10463984D02*
X12441610Y-10454460D01*
X12441610Y-10454460D02*
X12432086Y-10435412D01*
X12432086Y-10435412D02*
X12432086Y-10263984D01*
X12689229Y-10463984D02*
X12689229Y-10263984D01*
X12689229Y-10263984D02*
X12755896Y-10406841D01*
X12755896Y-10406841D02*
X12822562Y-10263984D01*
X12822562Y-10263984D02*
X12822562Y-10463984D01*
X13003515Y-10463984D02*
X13003515Y-10359222D01*
X13003515Y-10359222D02*
X12993991Y-10340174D01*
X12993991Y-10340174D02*
X12974943Y-10330650D01*
X12974943Y-10330650D02*
X12936848Y-10330650D01*
X12936848Y-10330650D02*
X12917801Y-10340174D01*
X13003515Y-10454460D02*
X12984467Y-10463984D01*
X12984467Y-10463984D02*
X12936848Y-10463984D01*
X12936848Y-10463984D02*
X12917801Y-10454460D01*
X12917801Y-10454460D02*
X12908277Y-10435412D01*
X12908277Y-10435412D02*
X12908277Y-10416365D01*
X12908277Y-10416365D02*
X12917801Y-10397317D01*
X12917801Y-10397317D02*
X12936848Y-10387793D01*
X12936848Y-10387793D02*
X12984467Y-10387793D01*
X12984467Y-10387793D02*
X13003515Y-10378270D01*
X13098753Y-10330650D02*
X13098753Y-10530650D01*
X13098753Y-10340174D02*
X13117801Y-10330650D01*
X13117801Y-10330650D02*
X13155896Y-10330650D01*
X13155896Y-10330650D02*
X13174943Y-10340174D01*
X13174943Y-10340174D02*
X13184467Y-10349698D01*
X13184467Y-10349698D02*
X13193991Y-10368746D01*
X13193991Y-10368746D02*
X13193991Y-10425889D01*
X13193991Y-10425889D02*
X13184467Y-10444936D01*
X13184467Y-10444936D02*
X13174943Y-10454460D01*
X13174943Y-10454460D02*
X13155896Y-10463984D01*
X13155896Y-10463984D02*
X13117801Y-10463984D01*
X13117801Y-10463984D02*
X13098753Y-10454460D01*
X13279705Y-10444936D02*
X13289229Y-10454460D01*
X13289229Y-10454460D02*
X13279705Y-10463984D01*
X13279705Y-10463984D02*
X13270182Y-10454460D01*
X13270182Y-10454460D02*
X13279705Y-10444936D01*
X13279705Y-10444936D02*
X13279705Y-10463984D01*
X13279705Y-10340174D02*
X13289229Y-10349698D01*
X13289229Y-10349698D02*
X13279705Y-10359222D01*
X13279705Y-10359222D02*
X13270182Y-10349698D01*
X13270182Y-10349698D02*
X13279705Y-10340174D01*
X13279705Y-10340174D02*
X13279705Y-10359222D01*
M02*
