G04 #@! TF.GenerationSoftware,KiCad,Pcbnew,8.0.8-8.0.8-0~ubuntu22.04.1*
G04 #@! TF.CreationDate,2025-01-23T22:17:41+01:00*
G04 #@! TF.ProjectId,glm5va,676c6d35-7661-42e6-9b69-6361645f7063,v1.0*
G04 #@! TF.SameCoordinates,Original*
G04 #@! TF.FileFunction,Legend,Bot*
G04 #@! TF.FilePolarity,Positive*
%FSLAX46Y46*%
G04 Gerber Fmt 4.6, Leading zero omitted, Abs format (unit mm)*
G04 Created by KiCad (PCBNEW 8.0.8-8.0.8-0~ubuntu22.04.1) date 2025-01-23 22:17:41*
%MOMM*%
%LPD*%
G01*
G04 APERTURE LIST*
G04 Aperture macros list*
%AMRoundRect*
0 Rectangle with rounded corners*
0 $1 Rounding radius*
0 $2 $3 $4 $5 $6 $7 $8 $9 X,Y pos of 4 corners*
0 Add a 4 corners polygon primitive as box body*
4,1,4,$2,$3,$4,$5,$6,$7,$8,$9,$2,$3,0*
0 Add four circle primitives for the rounded corners*
1,1,$1+$1,$2,$3*
1,1,$1+$1,$4,$5*
1,1,$1+$1,$6,$7*
1,1,$1+$1,$8,$9*
0 Add four rect primitives between the rounded corners*
20,1,$1+$1,$2,$3,$4,$5,0*
20,1,$1+$1,$4,$5,$6,$7,0*
20,1,$1+$1,$6,$7,$8,$9,0*
20,1,$1+$1,$8,$9,$2,$3,0*%
G04 Aperture macros list end*
%ADD10C,0.000000*%
%ADD11RoundRect,0.250000X-0.600000X-0.600000X0.600000X-0.600000X0.600000X0.600000X-0.600000X0.600000X0*%
%ADD12C,1.700000*%
%ADD13R,1.700000X1.700000*%
%ADD14O,1.700000X1.700000*%
%ADD15C,2.000000*%
%ADD16RoundRect,0.250000X-1.330000X-1.800000X1.330000X-1.800000X1.330000X1.800000X-1.330000X1.800000X0*%
%ADD17O,3.160000X4.100000*%
G04 APERTURE END LIST*
D10*
G36*
X138315984Y-90945831D02*
G01*
X138376385Y-90950887D01*
X138425000Y-90958714D01*
X138445783Y-90968585D01*
X138439251Y-90980788D01*
X138405926Y-90995610D01*
X138404742Y-90996023D01*
X138385650Y-91003811D01*
X138371658Y-91014633D01*
X138361763Y-91032784D01*
X138354959Y-91062559D01*
X138350245Y-91108250D01*
X138346615Y-91174153D01*
X138343067Y-91264561D01*
X138341025Y-91324269D01*
X138339868Y-91385191D01*
X138341072Y-91426404D01*
X138345131Y-91453156D01*
X138352540Y-91470696D01*
X138363795Y-91484272D01*
X138387424Y-91502546D01*
X138413216Y-91512082D01*
X138426736Y-91515328D01*
X138434442Y-91529685D01*
X138420440Y-91543298D01*
X138400722Y-91545754D01*
X138359742Y-91546169D01*
X138307044Y-91544448D01*
X138250732Y-91541088D01*
X138198914Y-91536586D01*
X138159696Y-91531441D01*
X138141184Y-91526151D01*
X138139626Y-91523353D01*
X138149418Y-91509277D01*
X138178601Y-91493112D01*
X138199406Y-91483577D01*
X138219915Y-91467202D01*
X138230897Y-91440749D01*
X138238001Y-91394878D01*
X138240424Y-91369380D01*
X138243980Y-91309172D01*
X138246450Y-91236889D01*
X138247407Y-91163076D01*
X138247533Y-91008568D01*
X138202655Y-90985361D01*
X138176570Y-90969136D01*
X138169462Y-90954462D01*
X138190257Y-90945711D01*
X138239062Y-90942847D01*
X138315984Y-90945831D01*
G37*
G36*
X134710550Y-91079864D02*
G01*
X134709360Y-91137206D01*
X134703965Y-91180147D01*
X134691963Y-91214265D01*
X134670957Y-91249852D01*
X134667263Y-91255360D01*
X134620048Y-91311769D01*
X134564047Y-91349964D01*
X134489419Y-91376829D01*
X134468506Y-91382440D01*
X134427764Y-91392026D01*
X134397487Y-91394065D01*
X134365083Y-91388419D01*
X134317958Y-91374950D01*
X134264503Y-91352059D01*
X134197141Y-91299500D01*
X134144462Y-91228811D01*
X134110317Y-91145601D01*
X134102386Y-91084814D01*
X134218080Y-91084814D01*
X134222688Y-91165299D01*
X134244946Y-91238792D01*
X134285596Y-91298250D01*
X134323382Y-91326264D01*
X134376787Y-91340487D01*
X134431417Y-91331750D01*
X134483830Y-91302844D01*
X134530585Y-91256558D01*
X134568241Y-91195682D01*
X134593359Y-91123006D01*
X134602496Y-91041319D01*
X134602005Y-91025433D01*
X134586835Y-90954452D01*
X134553778Y-90895721D01*
X134507347Y-90852477D01*
X134452054Y-90827955D01*
X134392415Y-90825393D01*
X134332941Y-90848026D01*
X134302751Y-90871843D01*
X134258852Y-90931042D01*
X134230381Y-91004381D01*
X134218080Y-91084814D01*
X134102386Y-91084814D01*
X134098558Y-91055475D01*
X134099959Y-91035837D01*
X134120144Y-90968107D01*
X134160060Y-90900244D01*
X134214267Y-90840146D01*
X134277330Y-90795716D01*
X134315673Y-90781164D01*
X134390750Y-90772997D01*
X134471464Y-90783845D01*
X134550060Y-90811485D01*
X134618784Y-90853694D01*
X134669880Y-90908249D01*
X134691032Y-90943685D01*
X134703515Y-90977624D01*
X134709201Y-91019557D01*
X134709688Y-91041319D01*
X134710550Y-91079864D01*
G37*
G36*
X131950427Y-90952419D02*
G01*
X131939919Y-91036775D01*
X131907181Y-91116113D01*
X131853487Y-91185118D01*
X131780109Y-91238474D01*
X131778620Y-91239249D01*
X131720312Y-91258125D01*
X131648416Y-91266098D01*
X131575785Y-91262724D01*
X131515277Y-91247565D01*
X131460291Y-91215848D01*
X131400778Y-91155835D01*
X131358700Y-91080911D01*
X131336280Y-90997081D01*
X131336163Y-90978208D01*
X131447860Y-90978208D01*
X131453979Y-91058750D01*
X131475078Y-91128026D01*
X131510051Y-91178754D01*
X131562500Y-91210338D01*
X131624031Y-91218297D01*
X131687408Y-91202396D01*
X131746102Y-91163069D01*
X131758268Y-91149212D01*
X131786039Y-91102614D01*
X131811115Y-91043442D01*
X131829197Y-90982764D01*
X131835985Y-90931649D01*
X131833305Y-90904828D01*
X131815688Y-90844787D01*
X131786739Y-90786379D01*
X131752478Y-90743192D01*
X131743598Y-90736700D01*
X131704204Y-90719389D01*
X131656956Y-90708920D01*
X131627135Y-90706371D01*
X131596890Y-90709721D01*
X131570138Y-90725329D01*
X131535492Y-90757772D01*
X131519584Y-90775139D01*
X131484608Y-90824529D01*
X131463375Y-90871284D01*
X131457827Y-90893684D01*
X131447860Y-90978208D01*
X131336163Y-90978208D01*
X131335744Y-90910348D01*
X131359318Y-90826718D01*
X131373085Y-90801204D01*
X131422508Y-90740836D01*
X131485772Y-90691163D01*
X131552736Y-90660880D01*
X131604142Y-90653837D01*
X131683651Y-90661678D01*
X131764165Y-90687035D01*
X131836265Y-90726662D01*
X131890531Y-90777312D01*
X131899665Y-90789913D01*
X131937433Y-90868360D01*
X131947216Y-90931649D01*
X131950427Y-90952419D01*
G37*
G36*
X141020149Y-91048443D02*
G01*
X141079616Y-91053308D01*
X141128045Y-91061147D01*
X141159543Y-91071737D01*
X141168213Y-91084857D01*
X141159349Y-91095365D01*
X141132504Y-91105942D01*
X141113325Y-91111319D01*
X141088044Y-91127553D01*
X141085369Y-91134028D01*
X141079487Y-91165972D01*
X141073486Y-91218551D01*
X141067935Y-91286293D01*
X141063407Y-91363725D01*
X141052987Y-91582753D01*
X141106493Y-91614322D01*
X141121375Y-91623837D01*
X141143564Y-91643024D01*
X141145859Y-91654630D01*
X141126097Y-91658392D01*
X141085653Y-91659891D01*
X141033069Y-91659247D01*
X140976534Y-91656818D01*
X140924240Y-91652960D01*
X140884377Y-91648031D01*
X140865135Y-91642388D01*
X140863758Y-91639085D01*
X140874418Y-91622852D01*
X140902487Y-91602314D01*
X140919846Y-91591602D01*
X140938150Y-91575649D01*
X140949021Y-91553662D01*
X140955600Y-91518072D01*
X140961033Y-91461307D01*
X140961538Y-91455152D01*
X140966075Y-91381967D01*
X140969286Y-91298546D01*
X140970505Y-91221763D01*
X140970505Y-91094271D01*
X140919425Y-91094271D01*
X140893447Y-91097174D01*
X140845136Y-91119364D01*
X140810729Y-91157782D01*
X140797618Y-91205669D01*
X140803735Y-91241288D01*
X140830555Y-91293490D01*
X140872532Y-91336410D01*
X140893595Y-91357211D01*
X140895263Y-91375274D01*
X140872998Y-91382417D01*
X140866494Y-91381876D01*
X140828995Y-91367553D01*
X140785510Y-91339002D01*
X140745527Y-91303284D01*
X140718534Y-91267461D01*
X140700917Y-91221708D01*
X140698602Y-91161350D01*
X140722819Y-91109871D01*
X140772832Y-91069939D01*
X140789815Y-91063174D01*
X140834479Y-91053918D01*
X140891686Y-91048526D01*
X140955541Y-91046775D01*
X141020149Y-91048443D01*
G37*
G36*
X138915596Y-90972777D02*
G01*
X138981766Y-90978866D01*
X139030703Y-90986940D01*
X139051186Y-90996278D01*
X139043397Y-91006971D01*
X139007516Y-91019112D01*
X138990502Y-91023888D01*
X138972964Y-91033140D01*
X138962496Y-91050802D01*
X138955819Y-91083631D01*
X138949655Y-91138384D01*
X138948809Y-91147109D01*
X138944261Y-91217917D01*
X138941981Y-91299201D01*
X138942452Y-91375058D01*
X138942490Y-91376362D01*
X138944748Y-91437608D01*
X138948346Y-91476552D01*
X138955158Y-91499588D01*
X138967053Y-91513112D01*
X138985905Y-91523518D01*
X139013843Y-91541516D01*
X139025525Y-91558304D01*
X139017360Y-91564459D01*
X138986893Y-91568079D01*
X138931915Y-91568141D01*
X138850376Y-91564721D01*
X138784848Y-91561454D01*
X138709490Y-91558268D01*
X138644440Y-91556102D01*
X138598926Y-91555304D01*
X138555672Y-91554491D01*
X138530734Y-91548633D01*
X138517604Y-91532604D01*
X138507621Y-91501277D01*
X138507103Y-91499398D01*
X138495714Y-91441833D01*
X138495054Y-91398588D01*
X138503108Y-91372561D01*
X138517863Y-91366649D01*
X138537304Y-91383750D01*
X138559419Y-91426760D01*
X138560012Y-91428227D01*
X138586428Y-91473743D01*
X138617869Y-91498797D01*
X138635884Y-91504003D01*
X138679823Y-91510261D01*
X138729921Y-91512203D01*
X138777490Y-91510024D01*
X138813841Y-91503916D01*
X138830284Y-91494073D01*
X138831428Y-91487221D01*
X138834290Y-91454717D01*
X138837658Y-91401654D01*
X138841204Y-91333511D01*
X138844598Y-91255768D01*
X138853356Y-91035472D01*
X138800676Y-91013461D01*
X138788410Y-91008067D01*
X138760628Y-90990900D01*
X138760278Y-90978497D01*
X138786538Y-90971147D01*
X138838585Y-90969143D01*
X138915596Y-90972777D01*
G37*
G36*
X130033856Y-90582018D02*
G01*
X130047420Y-90586186D01*
X130088555Y-90592511D01*
X130148073Y-90598207D01*
X130219568Y-90602998D01*
X130296633Y-90606605D01*
X130372861Y-90608751D01*
X130441843Y-90609157D01*
X130497173Y-90607545D01*
X130532445Y-90603639D01*
X130541186Y-90602150D01*
X130554282Y-90606217D01*
X130560001Y-90626015D01*
X130561259Y-90668064D01*
X130557495Y-90715348D01*
X130547141Y-90740674D01*
X130532106Y-90740966D01*
X130514303Y-90714340D01*
X130499637Y-90693104D01*
X130472173Y-90678685D01*
X130424455Y-90669266D01*
X130396733Y-90666233D01*
X130359421Y-90665159D01*
X130340626Y-90668936D01*
X130340076Y-90669643D01*
X130335012Y-90690904D01*
X130330390Y-90734096D01*
X130326403Y-90792991D01*
X130323241Y-90861361D01*
X130321096Y-90932979D01*
X130320159Y-91001618D01*
X130320624Y-91061049D01*
X130322680Y-91105045D01*
X130326520Y-91127377D01*
X130342675Y-91146656D01*
X130374841Y-91166641D01*
X130398037Y-91179678D01*
X130409983Y-91196849D01*
X130409983Y-91196903D01*
X130400233Y-91205697D01*
X130368928Y-91208145D01*
X130312734Y-91204512D01*
X130263058Y-91200360D01*
X130204909Y-91196681D01*
X130161458Y-91195225D01*
X130130534Y-91193385D01*
X130110308Y-91185028D01*
X130118156Y-91170614D01*
X130154201Y-91150899D01*
X130171204Y-91142080D01*
X130189102Y-91126341D01*
X130202113Y-91102397D01*
X130211169Y-91066128D01*
X130217199Y-91013410D01*
X130221134Y-90940123D01*
X130223904Y-90842144D01*
X130227772Y-90669257D01*
X130149592Y-90660833D01*
X130096755Y-90656553D01*
X130059379Y-90658886D01*
X130036259Y-90670292D01*
X130020080Y-90692563D01*
X130007162Y-90711916D01*
X129991580Y-90717628D01*
X129981406Y-90696628D01*
X129977765Y-90650048D01*
X129979600Y-90600646D01*
X129987376Y-90574953D01*
X130004369Y-90570069D01*
X130033856Y-90582018D01*
G37*
G36*
X140315671Y-91021856D02*
G01*
X140407488Y-91054679D01*
X140484620Y-91106016D01*
X140543837Y-91173301D01*
X140581907Y-91253968D01*
X140595600Y-91345452D01*
X140594321Y-91374840D01*
X140572857Y-91461235D01*
X140527149Y-91536011D01*
X140460078Y-91595391D01*
X140374522Y-91635597D01*
X140336136Y-91646608D01*
X140301337Y-91652578D01*
X140264030Y-91652730D01*
X140215644Y-91647063D01*
X140147609Y-91635575D01*
X140065509Y-91618349D01*
X140011308Y-91600845D01*
X139985887Y-91583224D01*
X139989264Y-91565495D01*
X139994075Y-91557476D01*
X140002063Y-91524913D01*
X140005218Y-91480893D01*
X140003622Y-91444120D01*
X139995048Y-91413813D01*
X139976404Y-91396824D01*
X139959077Y-91382900D01*
X139947589Y-91358414D01*
X139950001Y-91347217D01*
X139965529Y-91340739D01*
X140001617Y-91344355D01*
X140020309Y-91346924D01*
X140074874Y-91351542D01*
X140131282Y-91353444D01*
X140140363Y-91353536D01*
X140185998Y-91357822D01*
X140204136Y-91367980D01*
X140194420Y-91383307D01*
X140156495Y-91403099D01*
X140135217Y-91412634D01*
X140115437Y-91427910D01*
X140107514Y-91452255D01*
X140106069Y-91495530D01*
X140106456Y-91523947D01*
X140110906Y-91554489D01*
X140124294Y-91570987D01*
X140151441Y-91582709D01*
X140204557Y-91595782D01*
X140283585Y-91593856D01*
X140354301Y-91565717D01*
X140413595Y-91512842D01*
X140458359Y-91436710D01*
X140477356Y-91366278D01*
X140478069Y-91284975D01*
X140459038Y-91207449D01*
X140422100Y-91140794D01*
X140369091Y-91092101D01*
X140319650Y-91070286D01*
X140249355Y-91060668D01*
X140179259Y-91070678D01*
X140117411Y-91098910D01*
X140071858Y-91143960D01*
X140050380Y-91171372D01*
X140031746Y-91180274D01*
X140023003Y-91162713D01*
X140025656Y-91119484D01*
X140030126Y-91095415D01*
X140044170Y-91056322D01*
X140068990Y-91032181D01*
X140110578Y-91018652D01*
X140174925Y-91011400D01*
X140212400Y-91010112D01*
X140315671Y-91021856D01*
G37*
G36*
X132758382Y-90705479D02*
G01*
X132819051Y-90708560D01*
X132887215Y-90713209D01*
X132956828Y-90718947D01*
X133021842Y-90725292D01*
X133076212Y-90731766D01*
X133113891Y-90737887D01*
X133128831Y-90743176D01*
X133123000Y-90756485D01*
X133097980Y-90768559D01*
X133072097Y-90780018D01*
X133048848Y-90802695D01*
X133045765Y-90811726D01*
X133039660Y-90848625D01*
X133034466Y-90903828D01*
X133030401Y-90970620D01*
X133027681Y-91042283D01*
X133026524Y-91112101D01*
X133027147Y-91173357D01*
X133029767Y-91219334D01*
X133034601Y-91243317D01*
X133051732Y-91262506D01*
X133084560Y-91282338D01*
X133106461Y-91295517D01*
X133110263Y-91312129D01*
X133107453Y-91315200D01*
X133079342Y-91322257D01*
X133026555Y-91319485D01*
X133006842Y-91317354D01*
X132942828Y-91312503D01*
X132884430Y-91310506D01*
X132880979Y-91310482D01*
X132838723Y-91306374D01*
X132818155Y-91297037D01*
X132821611Y-91285108D01*
X132851423Y-91273223D01*
X132862049Y-91270274D01*
X132888249Y-91257456D01*
X132905174Y-91234631D01*
X132916102Y-91195532D01*
X132924311Y-91133891D01*
X132934610Y-91036642D01*
X132855233Y-91036642D01*
X132819282Y-91037746D01*
X132783111Y-91044451D01*
X132767564Y-91058253D01*
X132767303Y-91058926D01*
X132753721Y-91080067D01*
X132741598Y-91075420D01*
X132732889Y-91047951D01*
X132729552Y-91000624D01*
X132731670Y-90950783D01*
X132739456Y-90926620D01*
X132754896Y-90927087D01*
X132779977Y-90950199D01*
X132781394Y-90951725D01*
X132815717Y-90972602D01*
X132868654Y-90979013D01*
X132931254Y-90979013D01*
X132931254Y-90762904D01*
X132837465Y-90762904D01*
X132815634Y-90763092D01*
X132768458Y-90766365D01*
X132738969Y-90775245D01*
X132719005Y-90791719D01*
X132699463Y-90811248D01*
X132675182Y-90821706D01*
X132662669Y-90806410D01*
X132664401Y-90766506D01*
X132666238Y-90756997D01*
X132673841Y-90723530D01*
X132679407Y-90707480D01*
X132683715Y-90705944D01*
X132711254Y-90704447D01*
X132758382Y-90705479D01*
G37*
G36*
X141286154Y-91066332D02*
G01*
X141347062Y-91069014D01*
X141415454Y-91073350D01*
X141485285Y-91078880D01*
X141550508Y-91085146D01*
X141605077Y-91091688D01*
X141642944Y-91098047D01*
X141658065Y-91103765D01*
X141658297Y-91104671D01*
X141648342Y-91118861D01*
X141619581Y-91130125D01*
X141614686Y-91131215D01*
X141596605Y-91136599D01*
X141583360Y-91146013D01*
X141573950Y-91163584D01*
X141567375Y-91193439D01*
X141562635Y-91239704D01*
X141558729Y-91306506D01*
X141554658Y-91397973D01*
X141553175Y-91434211D01*
X141551218Y-91508830D01*
X141552955Y-91561368D01*
X141559712Y-91596622D01*
X141572812Y-91619391D01*
X141593582Y-91634471D01*
X141623346Y-91646659D01*
X141636713Y-91654984D01*
X141639408Y-91672236D01*
X141636703Y-91675238D01*
X141608667Y-91682435D01*
X141555653Y-91679667D01*
X141535940Y-91677536D01*
X141471926Y-91672684D01*
X141413528Y-91670687D01*
X141410077Y-91670664D01*
X141367821Y-91666555D01*
X141347254Y-91657219D01*
X141350709Y-91645290D01*
X141380521Y-91633405D01*
X141391778Y-91630256D01*
X141417233Y-91617515D01*
X141433561Y-91594745D01*
X141443957Y-91555684D01*
X141451615Y-91494073D01*
X141461154Y-91396824D01*
X141383054Y-91396824D01*
X141349202Y-91397830D01*
X141312469Y-91404507D01*
X141296662Y-91418435D01*
X141296401Y-91419108D01*
X141282819Y-91440248D01*
X141270696Y-91435601D01*
X141261987Y-91408132D01*
X141258650Y-91360806D01*
X141260768Y-91310964D01*
X141268554Y-91286801D01*
X141283995Y-91287268D01*
X141309075Y-91310380D01*
X141310492Y-91311907D01*
X141344815Y-91332784D01*
X141397752Y-91339195D01*
X141460352Y-91339195D01*
X141460352Y-91123086D01*
X141366563Y-91123086D01*
X141344732Y-91123274D01*
X141297556Y-91126546D01*
X141268068Y-91135427D01*
X141248103Y-91151900D01*
X141229712Y-91170381D01*
X141204677Y-91181736D01*
X141190981Y-91167408D01*
X141191316Y-91128504D01*
X141192574Y-91121102D01*
X141200019Y-91086920D01*
X141206605Y-91069478D01*
X141210979Y-91067768D01*
X141238778Y-91065764D01*
X141286154Y-91066332D01*
G37*
G36*
X137153028Y-90894170D02*
G01*
X137204023Y-90895601D01*
X137270803Y-90898303D01*
X137348382Y-90902119D01*
X137445605Y-90908422D01*
X137519100Y-90915994D01*
X137564679Y-90924728D01*
X137582794Y-90934759D01*
X137573896Y-90946223D01*
X137538437Y-90959256D01*
X137491151Y-90972747D01*
X137478480Y-91176371D01*
X137477144Y-91198912D01*
X137473660Y-91273866D01*
X137472023Y-91339173D01*
X137472335Y-91388473D01*
X137474695Y-91415400D01*
X137490381Y-91443067D01*
X137526803Y-91468708D01*
X137530346Y-91470225D01*
X137556230Y-91485496D01*
X137562993Y-91497990D01*
X137553984Y-91500813D01*
X137520781Y-91503246D01*
X137468848Y-91504079D01*
X137404034Y-91503508D01*
X137332184Y-91501728D01*
X137259148Y-91498935D01*
X137190771Y-91495326D01*
X137132901Y-91491095D01*
X137091385Y-91486439D01*
X137072071Y-91481553D01*
X137067899Y-91476996D01*
X137053078Y-91449398D01*
X137038545Y-91409630D01*
X137032749Y-91387755D01*
X137028704Y-91348660D01*
X137037790Y-91333296D01*
X137057670Y-91343137D01*
X137086008Y-91379660D01*
X137099544Y-91400182D01*
X137122965Y-91426007D01*
X137152432Y-91439484D01*
X137199317Y-91447412D01*
X137226614Y-91450262D01*
X137279073Y-91453140D01*
X137318691Y-91452114D01*
X137361486Y-91447249D01*
X137369902Y-91223937D01*
X137301790Y-91223937D01*
X137284956Y-91224295D01*
X137235912Y-91232837D01*
X137200333Y-91255263D01*
X137166988Y-91286589D01*
X137166988Y-91197634D01*
X137167062Y-91182970D01*
X137169614Y-91135322D01*
X137177172Y-91113526D01*
X137191591Y-91115275D01*
X137214728Y-91138261D01*
X137231611Y-91153568D01*
X137261074Y-91163375D01*
X137307976Y-91163474D01*
X137375893Y-91159104D01*
X137380126Y-91054651D01*
X137384359Y-90950199D01*
X137282736Y-90950199D01*
X137246218Y-90950667D01*
X137202502Y-90954355D01*
X137175166Y-90963213D01*
X137156442Y-90979013D01*
X137136899Y-90998542D01*
X137112618Y-91009000D01*
X137100105Y-90993705D01*
X137101837Y-90953801D01*
X137103677Y-90944267D01*
X137111230Y-90910865D01*
X137116702Y-90894916D01*
X137122802Y-90894164D01*
X137153028Y-90894170D01*
G37*
G36*
X130709659Y-90622061D02*
G01*
X130781316Y-90626047D01*
X130825027Y-90634050D01*
X130840588Y-90646000D01*
X130827794Y-90661833D01*
X130815366Y-90668280D01*
X130781941Y-90676240D01*
X130768138Y-90680138D01*
X130750553Y-90701674D01*
X130745767Y-90728046D01*
X130740934Y-90773836D01*
X130736798Y-90830822D01*
X130733633Y-90892351D01*
X130731715Y-90951772D01*
X130731316Y-91002430D01*
X130732711Y-91037675D01*
X130736173Y-91050853D01*
X130736610Y-91050764D01*
X130751548Y-91039017D01*
X130782669Y-91009769D01*
X130826715Y-90966233D01*
X130880430Y-90911623D01*
X130940560Y-90849152D01*
X131132566Y-90647646D01*
X131210696Y-90647646D01*
X131242254Y-90648405D01*
X131275803Y-90651618D01*
X131288826Y-90656494D01*
X131284254Y-90664139D01*
X131263495Y-90687037D01*
X131231643Y-90717725D01*
X131174461Y-90770108D01*
X131164930Y-90938125D01*
X131160939Y-91023409D01*
X131160710Y-91088626D01*
X131165443Y-91134498D01*
X131176105Y-91165773D01*
X131193667Y-91187198D01*
X131219096Y-91203519D01*
X131226243Y-91207440D01*
X131248112Y-91224503D01*
X131249195Y-91236197D01*
X131232015Y-91240339D01*
X131194579Y-91242393D01*
X131146056Y-91241848D01*
X131094424Y-91239145D01*
X131047664Y-91234722D01*
X131013757Y-91229022D01*
X131000681Y-91222483D01*
X131009530Y-91210075D01*
X131035823Y-91195455D01*
X131046131Y-91191112D01*
X131067755Y-91176382D01*
X131083015Y-91152798D01*
X131093555Y-91115367D01*
X131101014Y-91059103D01*
X131107036Y-90979013D01*
X131116483Y-90827737D01*
X130925315Y-91017077D01*
X130897166Y-91044871D01*
X130823999Y-91115901D01*
X130767528Y-91168300D01*
X130725503Y-91203881D01*
X130695675Y-91224455D01*
X130675792Y-91231835D01*
X130663606Y-91227834D01*
X130660370Y-91217039D01*
X130658910Y-91183903D01*
X130661276Y-91138295D01*
X130664572Y-91094846D01*
X130668686Y-91029508D01*
X130672940Y-90952934D01*
X130676803Y-90874127D01*
X130685163Y-90690001D01*
X130633436Y-90668387D01*
X130607613Y-90655972D01*
X130590967Y-90640344D01*
X130602083Y-90629271D01*
X130640499Y-90623049D01*
X130705751Y-90621977D01*
X130709659Y-90622061D01*
G37*
G36*
X133482331Y-90742152D02*
G01*
X133501258Y-90743801D01*
X133553198Y-90748903D01*
X133590547Y-90753441D01*
X133606236Y-90756591D01*
X133606268Y-90756619D01*
X133606478Y-90770485D01*
X133589345Y-90785002D01*
X133564830Y-90791719D01*
X133547873Y-90795752D01*
X133524204Y-90816932D01*
X133523213Y-90819216D01*
X133517614Y-90845902D01*
X133512450Y-90890746D01*
X133508030Y-90947056D01*
X133504667Y-91008137D01*
X133502670Y-91067296D01*
X133502351Y-91117840D01*
X133504019Y-91153075D01*
X133507986Y-91166308D01*
X133508529Y-91166150D01*
X133523397Y-91153955D01*
X133554643Y-91124554D01*
X133599044Y-91081096D01*
X133653376Y-91026730D01*
X133714417Y-90964606D01*
X133911048Y-90762904D01*
X133983034Y-90762904D01*
X134008908Y-90763427D01*
X134042054Y-90766244D01*
X134055020Y-90770685D01*
X134050622Y-90777936D01*
X134030433Y-90800762D01*
X133999404Y-90831916D01*
X133943789Y-90885366D01*
X133935928Y-91061885D01*
X133933489Y-91132449D01*
X133932632Y-91195016D01*
X133933383Y-91242383D01*
X133935746Y-91267766D01*
X133935779Y-91267890D01*
X133953535Y-91294932D01*
X133985286Y-91318775D01*
X133988787Y-91320640D01*
X134013678Y-91338417D01*
X134019941Y-91352082D01*
X134012195Y-91355584D01*
X133981669Y-91358458D01*
X133936269Y-91358331D01*
X133884447Y-91355700D01*
X133834658Y-91351059D01*
X133795354Y-91344903D01*
X133774988Y-91337728D01*
X133774027Y-91336694D01*
X133778393Y-91323653D01*
X133806249Y-91309563D01*
X133807269Y-91309202D01*
X133841006Y-91291133D01*
X133860340Y-91269754D01*
X133863496Y-91255588D01*
X133868521Y-91215809D01*
X133873497Y-91159609D01*
X133877704Y-91094271D01*
X133885735Y-90942995D01*
X133677514Y-91148299D01*
X133663855Y-91161727D01*
X133600814Y-91222663D01*
X133544590Y-91275371D01*
X133498558Y-91316798D01*
X133466091Y-91343892D01*
X133450562Y-91353602D01*
X133444535Y-91349371D01*
X133440046Y-91332978D01*
X133437684Y-91301076D01*
X133437348Y-91250350D01*
X133438941Y-91177487D01*
X133442364Y-91079175D01*
X133452896Y-90804748D01*
X133408184Y-90787871D01*
X133405163Y-90786687D01*
X133375618Y-90769425D01*
X133363471Y-90751552D01*
X133367641Y-90743070D01*
X133385525Y-90738151D01*
X133422117Y-90737975D01*
X133482331Y-90742152D01*
G37*
G36*
X132536694Y-90988528D02*
G01*
X132532832Y-91061069D01*
X132523538Y-91222364D01*
X132577219Y-91254037D01*
X132592249Y-91263649D01*
X132614452Y-91282847D01*
X132616761Y-91294448D01*
X132597317Y-91298351D01*
X132556819Y-91299925D01*
X132504051Y-91299167D01*
X132447230Y-91296475D01*
X132394571Y-91292247D01*
X132354292Y-91286882D01*
X132334608Y-91280777D01*
X132334400Y-91268753D01*
X132356811Y-91254788D01*
X132386118Y-91240466D01*
X132409633Y-91215764D01*
X132422750Y-91176602D01*
X132429169Y-91115882D01*
X132434203Y-91029439D01*
X132390981Y-91032421D01*
X132351301Y-91044976D01*
X132312195Y-91082846D01*
X132309775Y-91086023D01*
X132280155Y-91121566D01*
X132239139Y-91167222D01*
X132194836Y-91213936D01*
X132157133Y-91251943D01*
X132127426Y-91277946D01*
X132102776Y-91290840D01*
X132075280Y-91294595D01*
X132037034Y-91293176D01*
X132014398Y-91291198D01*
X131974710Y-91282774D01*
X131956632Y-91271086D01*
X131962465Y-91258596D01*
X131994514Y-91247762D01*
X132024797Y-91235372D01*
X132071929Y-91203376D01*
X132124192Y-91158123D01*
X132175207Y-91105231D01*
X132218602Y-91050317D01*
X132258500Y-90992744D01*
X132229292Y-90960666D01*
X132188847Y-90905986D01*
X132168319Y-90846273D01*
X132170622Y-90829661D01*
X132272962Y-90829661D01*
X132276180Y-90881608D01*
X132304380Y-90932976D01*
X132310161Y-90939483D01*
X132350263Y-90970775D01*
X132392128Y-90985148D01*
X132426716Y-90979188D01*
X132434266Y-90963217D01*
X132438771Y-90920749D01*
X132438453Y-90855457D01*
X132435007Y-90800096D01*
X132426398Y-90756883D01*
X132409983Y-90736119D01*
X132382650Y-90734368D01*
X132341285Y-90748195D01*
X132336201Y-90750424D01*
X132293408Y-90783734D01*
X132272962Y-90829661D01*
X132170622Y-90829661D01*
X132175998Y-90790887D01*
X132211929Y-90740387D01*
X132213554Y-90738835D01*
X132232502Y-90721707D01*
X132250742Y-90710215D01*
X132274178Y-90703240D01*
X132308714Y-90699667D01*
X132360256Y-90698378D01*
X132434707Y-90698258D01*
X132493999Y-90698929D01*
X132569862Y-90702768D01*
X132617563Y-90710091D01*
X132637391Y-90721001D01*
X132629634Y-90735597D01*
X132594579Y-90753980D01*
X132582898Y-90758991D01*
X132555659Y-90775169D01*
X132544421Y-90797711D01*
X132542192Y-90837807D01*
X132541724Y-90864552D01*
X132539785Y-90919991D01*
X132539751Y-90920749D01*
X132536694Y-90988528D01*
G37*
G36*
X139751333Y-91350297D02*
G01*
X139774836Y-91423426D01*
X139792918Y-91476568D01*
X139807091Y-91513296D01*
X139818867Y-91537184D01*
X139829755Y-91551804D01*
X139841268Y-91560729D01*
X139854916Y-91567533D01*
X139878253Y-91582409D01*
X139889960Y-91600102D01*
X139889906Y-91601151D01*
X139875696Y-91610493D01*
X139835933Y-91607773D01*
X139832935Y-91607290D01*
X139778850Y-91601097D01*
X139724277Y-91598166D01*
X139666648Y-91597489D01*
X139705769Y-91565448D01*
X139718484Y-91554745D01*
X139735034Y-91535067D01*
X139736997Y-91511885D01*
X139727135Y-91473275D01*
X139722287Y-91457452D01*
X139710424Y-91423408D01*
X139702421Y-91406934D01*
X139689067Y-91403188D01*
X139654117Y-91397988D01*
X139606399Y-91393025D01*
X139517336Y-91385327D01*
X139494743Y-91441792D01*
X139494105Y-91443386D01*
X139477931Y-91487521D01*
X139475169Y-91514102D01*
X139487605Y-91531717D01*
X139517027Y-91548956D01*
X139523068Y-91552246D01*
X139546708Y-91570640D01*
X139549426Y-91584641D01*
X139544663Y-91586867D01*
X139517225Y-91590107D01*
X139473289Y-91590712D01*
X139420406Y-91589103D01*
X139366128Y-91585704D01*
X139318007Y-91580938D01*
X139283597Y-91575230D01*
X139270448Y-91569002D01*
X139271184Y-91566661D01*
X139287264Y-91550801D01*
X139317770Y-91530229D01*
X139329041Y-91522845D01*
X139345673Y-91507635D01*
X139362378Y-91484854D01*
X139381200Y-91450634D01*
X139404185Y-91401108D01*
X139433375Y-91332407D01*
X139435564Y-91327043D01*
X139544186Y-91327043D01*
X139549489Y-91331561D01*
X139576164Y-91337052D01*
X139617764Y-91339195D01*
X139638819Y-91339022D01*
X139671507Y-91336422D01*
X139683814Y-91328854D01*
X139681661Y-91313982D01*
X139675465Y-91295721D01*
X139663001Y-91254923D01*
X139648830Y-91205521D01*
X139636732Y-91168168D01*
X139623580Y-91140175D01*
X139614076Y-91133877D01*
X139608003Y-91143969D01*
X139594096Y-91175810D01*
X139577361Y-91219436D01*
X139561197Y-91265449D01*
X139549006Y-91304451D01*
X139544186Y-91327043D01*
X139435564Y-91327043D01*
X139470817Y-91240661D01*
X139475467Y-91229168D01*
X139507882Y-91149918D01*
X139536571Y-91081225D01*
X139559798Y-91027142D01*
X139575827Y-90991721D01*
X139582922Y-90979013D01*
X139602856Y-90983534D01*
X139621562Y-90999364D01*
X139640665Y-91029821D01*
X139661860Y-91078227D01*
X139686842Y-91147899D01*
X139717307Y-91242158D01*
X139720899Y-91253607D01*
X139744584Y-91328854D01*
X139751333Y-91350297D01*
G37*
G36*
X138019855Y-91017943D02*
G01*
X138011785Y-91060165D01*
X138008951Y-91088855D01*
X138005675Y-91146468D01*
X138003438Y-91216772D01*
X138003195Y-91238344D01*
X138002609Y-91290448D01*
X138002723Y-91349117D01*
X138003834Y-91400709D01*
X138007140Y-91433754D01*
X138013842Y-91453949D01*
X138025138Y-91466990D01*
X138042229Y-91478575D01*
X138044195Y-91479805D01*
X138072418Y-91497537D01*
X138086894Y-91506763D01*
X138087743Y-91507661D01*
X138084664Y-91521934D01*
X138069398Y-91527109D01*
X138031862Y-91529974D01*
X137979476Y-91530241D01*
X137919412Y-91528169D01*
X137858844Y-91524013D01*
X137804945Y-91518031D01*
X137764889Y-91510479D01*
X137711081Y-91488751D01*
X137660496Y-91448748D01*
X137628437Y-91399095D01*
X137615924Y-91345019D01*
X137617936Y-91331714D01*
X137732055Y-91331714D01*
X137734041Y-91386563D01*
X137756203Y-91434733D01*
X137795971Y-91467271D01*
X137832768Y-91480060D01*
X137865528Y-91477810D01*
X137886801Y-91453993D01*
X137898305Y-91406430D01*
X137901758Y-91332938D01*
X137901758Y-91238344D01*
X137847731Y-91238565D01*
X137842502Y-91238608D01*
X137796579Y-91243189D01*
X137767678Y-91259009D01*
X137745435Y-91291424D01*
X137732055Y-91331714D01*
X137617936Y-91331714D01*
X137623980Y-91291748D01*
X137653625Y-91244508D01*
X137705881Y-91208526D01*
X137739206Y-91191957D01*
X137749726Y-91180830D01*
X137738863Y-91172588D01*
X137727673Y-91166333D01*
X137699935Y-91134224D01*
X137679318Y-91088081D01*
X137674494Y-91058546D01*
X137757686Y-91058546D01*
X137762657Y-91085123D01*
X137783850Y-91128135D01*
X137814066Y-91162248D01*
X137831588Y-91171878D01*
X137868195Y-91180257D01*
X137883979Y-91178166D01*
X137895433Y-91166382D01*
X137902952Y-91138509D01*
X137909371Y-91088210D01*
X137912908Y-91042565D01*
X137913206Y-91001727D01*
X137909668Y-90980155D01*
X137899757Y-90970423D01*
X137869755Y-90965309D01*
X137832618Y-90975653D01*
X137796275Y-90997368D01*
X137768654Y-91026361D01*
X137757686Y-91058546D01*
X137674494Y-91058546D01*
X137671242Y-91038639D01*
X137681074Y-90998466D01*
X137715569Y-90958683D01*
X137740833Y-90939900D01*
X137768694Y-90928206D01*
X137806338Y-90923225D01*
X137863244Y-90922646D01*
X137912816Y-90923815D01*
X137991289Y-90928550D01*
X138051023Y-90936112D01*
X138090004Y-90945896D01*
X138106217Y-90957296D01*
X138097647Y-90969704D01*
X138062278Y-90982516D01*
X138056544Y-90984085D01*
X138032834Y-90995567D01*
X138029261Y-91001727D01*
X138019855Y-91017943D01*
G37*
G36*
X135146607Y-90797182D02*
G01*
X135162299Y-90802258D01*
X135206379Y-90809493D01*
X135268477Y-90815641D01*
X135342004Y-90820456D01*
X135420378Y-90823694D01*
X135497012Y-90825109D01*
X135565321Y-90824455D01*
X135618720Y-90821488D01*
X135650624Y-90815961D01*
X135668158Y-90811076D01*
X135678303Y-90816609D01*
X135682325Y-90839068D01*
X135683040Y-90884395D01*
X135683039Y-90885513D01*
X135679612Y-90936047D01*
X135670244Y-90960923D01*
X135655938Y-90959138D01*
X135637700Y-90929691D01*
X135624380Y-90909726D01*
X135597359Y-90894523D01*
X135550220Y-90884932D01*
X135524876Y-90882304D01*
X135486840Y-90882123D01*
X135466727Y-90887431D01*
X135463021Y-90897744D01*
X135457565Y-90932753D01*
X135452288Y-90985842D01*
X135447526Y-91050668D01*
X135443618Y-91120891D01*
X135440900Y-91190168D01*
X135439710Y-91252158D01*
X135440384Y-91300519D01*
X135443260Y-91328910D01*
X135458912Y-91356574D01*
X135495379Y-91382265D01*
X135499047Y-91383851D01*
X135524203Y-91400116D01*
X135529591Y-91414748D01*
X135520936Y-91419814D01*
X135487170Y-91423299D01*
X135434013Y-91420279D01*
X135396897Y-91416838D01*
X135338156Y-91412804D01*
X135291931Y-91411231D01*
X135261658Y-91409438D01*
X135239558Y-91400868D01*
X135245238Y-91386611D01*
X135279158Y-91368208D01*
X135279484Y-91368072D01*
X135311444Y-91348649D01*
X135328623Y-91326840D01*
X135329702Y-91321176D01*
X135333089Y-91289130D01*
X135337070Y-91236393D01*
X135341237Y-91168779D01*
X135345180Y-91092100D01*
X135355014Y-90881023D01*
X135270502Y-90875100D01*
X135245065Y-90873606D01*
X135203253Y-90874535D01*
X135174787Y-90883373D01*
X135149183Y-90902484D01*
X135127179Y-90921114D01*
X135103475Y-90933598D01*
X135094003Y-90922347D01*
X135096540Y-90886693D01*
X135097962Y-90877846D01*
X135100158Y-90850295D01*
X135089814Y-90843272D01*
X135060450Y-90850231D01*
X135059622Y-90850469D01*
X135026693Y-90861603D01*
X135008492Y-90870767D01*
X135008490Y-90870769D01*
X135004954Y-90887465D01*
X135001143Y-90926770D01*
X134997323Y-90982490D01*
X134993764Y-91048429D01*
X134990734Y-91118391D01*
X134988501Y-91186180D01*
X134987334Y-91245602D01*
X134987500Y-91290460D01*
X134989269Y-91314559D01*
X134989373Y-91314992D01*
X135005986Y-91339393D01*
X135037016Y-91361996D01*
X135040525Y-91363867D01*
X135065343Y-91381750D01*
X135071461Y-91395643D01*
X135069572Y-91397143D01*
X135046618Y-91401138D01*
X135004760Y-91402365D01*
X134951759Y-91401222D01*
X134895372Y-91398107D01*
X134843360Y-91393416D01*
X134803482Y-91387547D01*
X134783496Y-91380898D01*
X134782181Y-91379357D01*
X134788024Y-91366296D01*
X134816941Y-91352023D01*
X134819099Y-91351242D01*
X134854583Y-91330264D01*
X134876133Y-91303441D01*
X134877243Y-91299772D01*
X134882017Y-91268105D01*
X134886425Y-91215491D01*
X134890017Y-91148316D01*
X134892345Y-91072970D01*
X134893454Y-91008060D01*
X134893554Y-90947262D01*
X134891694Y-90906467D01*
X134887350Y-90880748D01*
X134879997Y-90865177D01*
X134869109Y-90854828D01*
X134848897Y-90842964D01*
X134821854Y-90834941D01*
X134813336Y-90832925D01*
X134807836Y-90816932D01*
X134815408Y-90809947D01*
X134841128Y-90804473D01*
X134888215Y-90802630D01*
X134960313Y-90804111D01*
X135001938Y-90805263D01*
X135061576Y-90804833D01*
X135095809Y-90800778D01*
X135106750Y-90792936D01*
X135106751Y-90792749D01*
X135116568Y-90785589D01*
X135146607Y-90797182D01*
G37*
G36*
X136900346Y-91199191D02*
G01*
X136897422Y-91267916D01*
X136896266Y-91328413D01*
X136897256Y-91374415D01*
X136900770Y-91399657D01*
X136919273Y-91421104D01*
X136951914Y-91440474D01*
X136953435Y-91441113D01*
X136982208Y-91457047D01*
X136994101Y-91471112D01*
X136985280Y-91475863D01*
X136954192Y-91479462D01*
X136907599Y-91480800D01*
X136852776Y-91480108D01*
X136796997Y-91477616D01*
X136747535Y-91473556D01*
X136711665Y-91468159D01*
X136696661Y-91461657D01*
X136696491Y-91459483D01*
X136709188Y-91443472D01*
X136738713Y-91425638D01*
X136760848Y-91413868D01*
X136778257Y-91396194D01*
X136788384Y-91367197D01*
X136795860Y-91318164D01*
X136799205Y-91280772D01*
X136798942Y-91240064D01*
X136793314Y-91219088D01*
X136771558Y-91209731D01*
X136735896Y-91219445D01*
X136694249Y-91250250D01*
X136650811Y-91299772D01*
X136624182Y-91333637D01*
X136578023Y-91386305D01*
X136535203Y-91429240D01*
X136528423Y-91435298D01*
X136489304Y-91465536D01*
X136454413Y-91479732D01*
X136411416Y-91483267D01*
X136393759Y-91482727D01*
X136357233Y-91477616D01*
X136338571Y-91468860D01*
X136338477Y-91468716D01*
X136320135Y-91461526D01*
X136281397Y-91456405D01*
X136230516Y-91454453D01*
X136218293Y-91454373D01*
X136160343Y-91450724D01*
X136127903Y-91442014D01*
X136122002Y-91428752D01*
X136143669Y-91411447D01*
X136145554Y-91410403D01*
X136168012Y-91385345D01*
X136170095Y-91345675D01*
X136152011Y-91288307D01*
X136147381Y-91277361D01*
X136135203Y-91254925D01*
X136118479Y-91243329D01*
X136089119Y-91238994D01*
X136039034Y-91238344D01*
X135946932Y-91238344D01*
X135930244Y-91294043D01*
X135918374Y-91337509D01*
X135915669Y-91367622D01*
X135925585Y-91385630D01*
X135949575Y-91399445D01*
X135973966Y-91413774D01*
X135985593Y-91427951D01*
X135982130Y-91430931D01*
X135957406Y-91435581D01*
X135915225Y-91438521D01*
X135863115Y-91439756D01*
X135808605Y-91439292D01*
X135759224Y-91437134D01*
X135722499Y-91433287D01*
X135705960Y-91427756D01*
X135705943Y-91422934D01*
X135720742Y-91404310D01*
X135750976Y-91380932D01*
X135765168Y-91370796D01*
X135782937Y-91353975D01*
X135800305Y-91330391D01*
X135819443Y-91296029D01*
X135842522Y-91246868D01*
X135868384Y-91186643D01*
X135981916Y-91186643D01*
X135988199Y-91189338D01*
X136017097Y-91193488D01*
X136059254Y-91195122D01*
X136128112Y-91195122D01*
X136106001Y-91120664D01*
X136096379Y-91088833D01*
X136075322Y-91024785D01*
X136060262Y-90988676D01*
X136051243Y-90980617D01*
X136048982Y-90983589D01*
X136037268Y-91007862D01*
X136022018Y-91047108D01*
X136006045Y-91092969D01*
X135992162Y-91137084D01*
X135983181Y-91171095D01*
X135981916Y-91186643D01*
X135868384Y-91186643D01*
X135871712Y-91178892D01*
X135909184Y-91088081D01*
X135912432Y-91080140D01*
X135945214Y-91000534D01*
X135974318Y-90930790D01*
X135997960Y-90875119D01*
X136014353Y-90837730D01*
X136021710Y-90822836D01*
X136024855Y-90820869D01*
X136042716Y-90827735D01*
X136065572Y-90853136D01*
X136088518Y-90890657D01*
X136106649Y-90933884D01*
X136108191Y-90938708D01*
X136121747Y-90981526D01*
X136141098Y-91043101D01*
X136163894Y-91115933D01*
X136187780Y-91192520D01*
X136188597Y-91195122D01*
X136199861Y-91230994D01*
X136222157Y-91298593D01*
X136240029Y-91345461D01*
X136255752Y-91376445D01*
X136271598Y-91396395D01*
X136289842Y-91410157D01*
X136324602Y-91425180D01*
X136371387Y-91428546D01*
X136374536Y-91427764D01*
X136405452Y-91410817D01*
X136447409Y-91377981D01*
X136494356Y-91335077D01*
X136540241Y-91287926D01*
X136579014Y-91242348D01*
X136604624Y-91204166D01*
X136615970Y-91180164D01*
X136616742Y-91162426D01*
X136601022Y-91149902D01*
X136582179Y-91135327D01*
X136554042Y-91093428D01*
X136537851Y-91041510D01*
X136537273Y-91023855D01*
X136639770Y-91023855D01*
X136646265Y-91079351D01*
X136681308Y-91133891D01*
X136706643Y-91153756D01*
X136759475Y-91166308D01*
X136807972Y-91166308D01*
X136803787Y-91047448D01*
X136801988Y-91002656D01*
X136798662Y-90961294D01*
X136792652Y-90938363D01*
X136782072Y-90927840D01*
X136765036Y-90923702D01*
X136725805Y-90925977D01*
X136679637Y-90950384D01*
X136647969Y-90994285D01*
X136639770Y-91023855D01*
X136537273Y-91023855D01*
X136536163Y-90989948D01*
X136551536Y-90949116D01*
X136574633Y-90923670D01*
X136619725Y-90894465D01*
X136679243Y-90879010D01*
X136759635Y-90875011D01*
X136825179Y-90876648D01*
X136902070Y-90881727D01*
X136959688Y-90889637D01*
X136994865Y-90899898D01*
X137004430Y-90912029D01*
X136996937Y-90921888D01*
X136971296Y-90933740D01*
X136955080Y-90938144D01*
X136927750Y-90951784D01*
X136922177Y-90967338D01*
X136915954Y-91006311D01*
X136909989Y-91062122D01*
X136904661Y-91128504D01*
X136902353Y-91166308D01*
X136900346Y-91199191D01*
G37*
G36*
X141641243Y-84546987D02*
G01*
X141638704Y-84684542D01*
X141633980Y-84820736D01*
X141627257Y-84950083D01*
X141618722Y-85067099D01*
X141608560Y-85166298D01*
X141596958Y-85242195D01*
X141592744Y-85263950D01*
X141583676Y-85316969D01*
X141581015Y-85351421D01*
X141584641Y-85374518D01*
X141594434Y-85393471D01*
X141597850Y-85398106D01*
X141619675Y-85424283D01*
X141656800Y-85466713D01*
X141706019Y-85521796D01*
X141764127Y-85585935D01*
X141827917Y-85655531D01*
X141832375Y-85660373D01*
X141904190Y-85739777D01*
X141976911Y-85822511D01*
X142045351Y-85902517D01*
X142104324Y-85973739D01*
X142148645Y-86030119D01*
X142191658Y-86086429D01*
X142238412Y-86145761D01*
X142279346Y-86195854D01*
X142308845Y-86229715D01*
X142347209Y-86267307D01*
X142403202Y-86317556D01*
X142469687Y-86374385D01*
X142540327Y-86432576D01*
X142608782Y-86486909D01*
X142668714Y-86532166D01*
X142713783Y-86563127D01*
X142821445Y-86638928D01*
X142907199Y-86720240D01*
X142965438Y-86803184D01*
X142995841Y-86887143D01*
X142997317Y-86942644D01*
X142998084Y-86971504D01*
X142971847Y-87055652D01*
X142968479Y-87062403D01*
X142946427Y-87098475D01*
X142916425Y-87134052D01*
X142875520Y-87171400D01*
X142820759Y-87212781D01*
X142749187Y-87260460D01*
X142657852Y-87316700D01*
X142543800Y-87383766D01*
X142492989Y-87413206D01*
X142399015Y-87467698D01*
X142326079Y-87510145D01*
X142271518Y-87542201D01*
X142232665Y-87565517D01*
X142206854Y-87581746D01*
X142191419Y-87592541D01*
X142183695Y-87599555D01*
X142181015Y-87604440D01*
X142180715Y-87608848D01*
X142176654Y-87618435D01*
X142157744Y-87645195D01*
X142128613Y-87679709D01*
X142108733Y-87700996D01*
X142079606Y-87725048D01*
X142048798Y-87735257D01*
X142003850Y-87737380D01*
X141972964Y-87736701D01*
X141939307Y-87730389D01*
X141912125Y-87712619D01*
X141879463Y-87677652D01*
X141845818Y-87640732D01*
X141797963Y-87591335D01*
X141750009Y-87544385D01*
X141680809Y-87479036D01*
X141597967Y-87401292D01*
X141533197Y-87341248D01*
X141484957Y-87297512D01*
X141451707Y-87268695D01*
X141431906Y-87253407D01*
X141424012Y-87250256D01*
X141423506Y-87250983D01*
X141417149Y-87270441D01*
X141407314Y-87309595D01*
X141395908Y-87360943D01*
X141393273Y-87374190D01*
X141380156Y-87476159D01*
X141374595Y-87596688D01*
X141376509Y-87727764D01*
X141385814Y-87861375D01*
X141402427Y-87989507D01*
X141404636Y-88003038D01*
X141417913Y-88094535D01*
X141426105Y-88177597D01*
X141428890Y-88248885D01*
X141429308Y-88259598D01*
X141427616Y-88347915D01*
X141421124Y-88449924D01*
X141409926Y-88573001D01*
X141402226Y-88665248D01*
X141395343Y-88778671D01*
X141390605Y-88892850D01*
X141388743Y-88993267D01*
X141388315Y-89204627D01*
X141485564Y-89213881D01*
X141600053Y-89225882D01*
X141701727Y-89239560D01*
X141798286Y-89256524D01*
X141900558Y-89278684D01*
X142019371Y-89307947D01*
X142106495Y-89331092D01*
X142185559Y-89355196D01*
X142242048Y-89377799D01*
X142279073Y-89400931D01*
X142299750Y-89426619D01*
X142307191Y-89456894D01*
X142304509Y-89493785D01*
X142299969Y-89524227D01*
X142292554Y-89578082D01*
X142283658Y-89645442D01*
X142274346Y-89718378D01*
X142266364Y-89779601D01*
X142248982Y-89893991D01*
X142229018Y-89995875D01*
X142204171Y-90094953D01*
X142172136Y-90200922D01*
X142130609Y-90323483D01*
X142117331Y-90361333D01*
X142085639Y-90451914D01*
X142061908Y-90520722D01*
X142044987Y-90571768D01*
X142033726Y-90609062D01*
X142026971Y-90636616D01*
X142023572Y-90658439D01*
X142022377Y-90678542D01*
X142022235Y-90700937D01*
X142022102Y-90705275D01*
X142021740Y-90717037D01*
X142010418Y-90778786D01*
X141986780Y-90828421D01*
X141954333Y-90857837D01*
X141939811Y-90861796D01*
X141899486Y-90867931D01*
X141842862Y-90873805D01*
X141777311Y-90878556D01*
X141732192Y-90881153D01*
X141669327Y-90884744D01*
X141619277Y-90887569D01*
X141590017Y-90889176D01*
X141582317Y-90889503D01*
X141522908Y-90889433D01*
X141443009Y-90886415D01*
X141349528Y-90880990D01*
X141249369Y-90873698D01*
X141149439Y-90865082D01*
X141056644Y-90855681D01*
X140977888Y-90846037D01*
X140920079Y-90836691D01*
X140862233Y-90826484D01*
X140771712Y-90813193D01*
X140659922Y-90798764D01*
X140530878Y-90783632D01*
X140388600Y-90768228D01*
X140237106Y-90752985D01*
X140080412Y-90738337D01*
X139922537Y-90724716D01*
X139767499Y-90712555D01*
X139659068Y-90704376D01*
X141827737Y-90704376D01*
X141918455Y-90704826D01*
X142009173Y-90705275D01*
X141983287Y-90669710D01*
X141983134Y-90669500D01*
X141962825Y-90644411D01*
X141950198Y-90633766D01*
X141945055Y-90635430D01*
X141920816Y-90647984D01*
X141885366Y-90668881D01*
X141827737Y-90704376D01*
X139659068Y-90704376D01*
X139650623Y-90703739D01*
X139500130Y-90691765D01*
X139369255Y-90680449D01*
X139252557Y-90669288D01*
X139144597Y-90657781D01*
X139039932Y-90645426D01*
X139024715Y-90643793D01*
X138964268Y-90639498D01*
X138880451Y-90635673D01*
X138777271Y-90632429D01*
X138658732Y-90629879D01*
X138528842Y-90628134D01*
X138391605Y-90627306D01*
X138382421Y-90627285D01*
X138244421Y-90627124D01*
X138130787Y-90627454D01*
X138037325Y-90628459D01*
X137959841Y-90630319D01*
X137894139Y-90633217D01*
X137836026Y-90637335D01*
X137781308Y-90642854D01*
X137725791Y-90649957D01*
X137665279Y-90658826D01*
X137595010Y-90669241D01*
X137522314Y-90678563D01*
X137462256Y-90683511D01*
X137405953Y-90684468D01*
X137344521Y-90681820D01*
X137269079Y-90675949D01*
X137167677Y-90666416D01*
X137010590Y-90648501D01*
X136841258Y-90625408D01*
X136651855Y-90596125D01*
X136644292Y-90594924D01*
X136589136Y-90587644D01*
X136527750Y-90582361D01*
X136455621Y-90578922D01*
X136368239Y-90577170D01*
X136261091Y-90576948D01*
X136129665Y-90578103D01*
X136045320Y-90578777D01*
X135893903Y-90578199D01*
X135750919Y-90575423D01*
X135623145Y-90570606D01*
X135517357Y-90563906D01*
X135507277Y-90563078D01*
X135417119Y-90555636D01*
X135308132Y-90546584D01*
X135189045Y-90536651D01*
X135068583Y-90526563D01*
X134955474Y-90517049D01*
X134907699Y-90513189D01*
X134790157Y-90504911D01*
X134656950Y-90497108D01*
X134506616Y-90489732D01*
X134337695Y-90482733D01*
X134148725Y-90476061D01*
X133938246Y-90469667D01*
X133704796Y-90463502D01*
X133446915Y-90457515D01*
X133163141Y-90451659D01*
X132852014Y-90445883D01*
X132792019Y-90444784D01*
X132557544Y-90439645D01*
X132349882Y-90433582D01*
X132167426Y-90426503D01*
X132008568Y-90418316D01*
X131871701Y-90408929D01*
X131755217Y-90398250D01*
X131657510Y-90386185D01*
X131576971Y-90372643D01*
X131569773Y-90371187D01*
X131521173Y-90360550D01*
X131454195Y-90345055D01*
X131376718Y-90326550D01*
X131296620Y-90306882D01*
X131271454Y-90300836D01*
X131173023Y-90279966D01*
X131052485Y-90257659D01*
X130914889Y-90234639D01*
X130765282Y-90211634D01*
X130608713Y-90189369D01*
X130450231Y-90168573D01*
X130294883Y-90149970D01*
X130147718Y-90134288D01*
X130013783Y-90122253D01*
X129987068Y-90119834D01*
X129905621Y-90106707D01*
X129847776Y-90085582D01*
X129809890Y-90054680D01*
X129788318Y-90012224D01*
X129785868Y-90000560D01*
X129781616Y-89956088D01*
X129778804Y-89889074D01*
X129777346Y-89803792D01*
X129777154Y-89704515D01*
X129778140Y-89595519D01*
X129780217Y-89481076D01*
X129783018Y-89375920D01*
X133873443Y-89375920D01*
X133876300Y-89377335D01*
X133901326Y-89382665D01*
X133945414Y-89388809D01*
X134001319Y-89394702D01*
X134003145Y-89394872D01*
X134076958Y-89405374D01*
X134155279Y-89422059D01*
X134221454Y-89441395D01*
X134277550Y-89461975D01*
X134333324Y-89483401D01*
X134374233Y-89500144D01*
X134426912Y-89523140D01*
X134441722Y-89455076D01*
X134444913Y-89439929D01*
X134456195Y-89380148D01*
X134464848Y-89325806D01*
X134465431Y-89321800D01*
X134474927Y-89275364D01*
X134490409Y-89215077D01*
X134508831Y-89152919D01*
X134523092Y-89102288D01*
X134538783Y-89023638D01*
X134544683Y-88956494D01*
X134545480Y-88918572D01*
X134551019Y-88882127D01*
X134565525Y-88855091D01*
X134593206Y-88826162D01*
X134624598Y-88791967D01*
X134625798Y-88789911D01*
X134922877Y-88789911D01*
X134931848Y-88801560D01*
X134961145Y-88803517D01*
X134982186Y-88805100D01*
X135029403Y-88810975D01*
X135094849Y-88820416D01*
X135172924Y-88832609D01*
X135258026Y-88846739D01*
X135351123Y-88862595D01*
X135427180Y-88875179D01*
X135481507Y-88883313D01*
X135517564Y-88887212D01*
X135538811Y-88887090D01*
X135548707Y-88883163D01*
X135550711Y-88875644D01*
X135548284Y-88864748D01*
X135547487Y-88861423D01*
X135542801Y-88830690D01*
X135537413Y-88781999D01*
X135532335Y-88724277D01*
X135527442Y-88665439D01*
X135509404Y-88503234D01*
X135485131Y-88357256D01*
X135452888Y-88218250D01*
X135410939Y-88076962D01*
X135407191Y-88065452D01*
X135699588Y-88065452D01*
X135702502Y-88093959D01*
X135725307Y-88200610D01*
X135746101Y-88305046D01*
X135761891Y-88395133D01*
X135773938Y-88478141D01*
X135783502Y-88561340D01*
X135789141Y-88616236D01*
X135796377Y-88685608D01*
X135802560Y-88743735D01*
X135806772Y-88781906D01*
X135813425Y-88839535D01*
X136018369Y-88840843D01*
X136038266Y-88841016D01*
X136116595Y-88842545D01*
X136187440Y-88845176D01*
X136243692Y-88848590D01*
X136278241Y-88852470D01*
X136333169Y-88862790D01*
X136323156Y-88613443D01*
X136321535Y-88573459D01*
X136317158Y-88468435D01*
X136312510Y-88360207D01*
X136308052Y-88259440D01*
X136304246Y-88176801D01*
X136295349Y-87989507D01*
X136194498Y-87978291D01*
X136179873Y-87976763D01*
X136070435Y-87971548D01*
X135969820Y-87977323D01*
X135884215Y-87993413D01*
X135819807Y-88019143D01*
X135801359Y-88029154D01*
X135758839Y-88047192D01*
X135726797Y-88054339D01*
X135712104Y-88055267D01*
X135699588Y-88065452D01*
X135407191Y-88065452D01*
X135369048Y-87948308D01*
X135397131Y-87910324D01*
X135425213Y-87872340D01*
X135359629Y-87806756D01*
X135331349Y-87775673D01*
X135304243Y-87737390D01*
X135294507Y-87711059D01*
X135431437Y-87711059D01*
X135481600Y-87752646D01*
X135514803Y-87778665D01*
X135542329Y-87791670D01*
X135568451Y-87787732D01*
X135603800Y-87768203D01*
X135611896Y-87763072D01*
X135649158Y-87734112D01*
X135673903Y-87703763D01*
X135812706Y-87703763D01*
X135818146Y-87714962D01*
X135841520Y-87722973D01*
X135861032Y-87719738D01*
X135869029Y-87704865D01*
X135867524Y-87702926D01*
X136163246Y-87702926D01*
X136171820Y-87704464D01*
X136174875Y-87704865D01*
X136202187Y-87708450D01*
X136246493Y-87713655D01*
X136327303Y-87722747D01*
X136312373Y-87666810D01*
X136297443Y-87610874D01*
X136229125Y-87656081D01*
X136200005Y-87675669D01*
X136172790Y-87694857D01*
X136163246Y-87702926D01*
X135867524Y-87702926D01*
X135851000Y-87681640D01*
X135840668Y-87675028D01*
X135820620Y-87677403D01*
X135812706Y-87703763D01*
X135673903Y-87703763D01*
X135677648Y-87699170D01*
X135699066Y-87653681D01*
X135715115Y-87593079D01*
X135727496Y-87512795D01*
X135737909Y-87408265D01*
X135749297Y-87273649D01*
X135683752Y-87217462D01*
X135653549Y-87192506D01*
X135623425Y-87169924D01*
X135607677Y-87161182D01*
X135604279Y-87161995D01*
X135597246Y-87171525D01*
X135590724Y-87194779D01*
X135584036Y-87235509D01*
X135576507Y-87297466D01*
X135567461Y-87384402D01*
X135565656Y-87402325D01*
X135555368Y-87494072D01*
X135545044Y-87562136D01*
X135533371Y-87610880D01*
X135519036Y-87644668D01*
X135500729Y-87667863D01*
X135477137Y-87684831D01*
X135431437Y-87711059D01*
X135294507Y-87711059D01*
X135294044Y-87709806D01*
X135303628Y-87678355D01*
X135336865Y-87636148D01*
X135390418Y-87592134D01*
X135396618Y-87587269D01*
X135418659Y-87553831D01*
X135431511Y-87498204D01*
X135441062Y-87426198D01*
X135380097Y-87385854D01*
X135363133Y-87375074D01*
X135328358Y-87359183D01*
X135307431Y-87364658D01*
X135297125Y-87393881D01*
X135294211Y-87449235D01*
X135294204Y-87450312D01*
X135280900Y-87526060D01*
X135241722Y-87590873D01*
X135175747Y-87646289D01*
X135116801Y-87685690D01*
X135101262Y-87698019D01*
X135070843Y-87722153D01*
X135039374Y-87757640D01*
X135016659Y-87798754D01*
X134996961Y-87852099D01*
X134979635Y-87919241D01*
X134963074Y-88016037D01*
X134949933Y-88130232D01*
X134940755Y-88255864D01*
X134936082Y-88386968D01*
X134936456Y-88517580D01*
X134936678Y-88527568D01*
X134937279Y-88603088D01*
X134936073Y-88671201D01*
X134933279Y-88724779D01*
X134929116Y-88756693D01*
X134928301Y-88759901D01*
X134922877Y-88789911D01*
X134625798Y-88789911D01*
X134651474Y-88745927D01*
X134666873Y-88689837D01*
X134672298Y-88617729D01*
X134669247Y-88523632D01*
X134667298Y-88476283D01*
X134667523Y-88381929D01*
X134671704Y-88276027D01*
X134679257Y-88165303D01*
X134689595Y-88056484D01*
X134702133Y-87956297D01*
X134716287Y-87871467D01*
X134731470Y-87808723D01*
X134745201Y-87761957D01*
X134758024Y-87698019D01*
X134756970Y-87646635D01*
X134741369Y-87599452D01*
X134710550Y-87548121D01*
X134688181Y-87513011D01*
X134667931Y-87474570D01*
X134660125Y-87449999D01*
X134660860Y-87444787D01*
X134675613Y-87417203D01*
X134703347Y-87386672D01*
X134708516Y-87382017D01*
X134729364Y-87359992D01*
X134740788Y-87336231D01*
X134745590Y-87301714D01*
X134746568Y-87247422D01*
X134746559Y-87243493D01*
X134744713Y-87194569D01*
X134740285Y-87159869D01*
X134734172Y-87146682D01*
X134728821Y-87145329D01*
X134703480Y-87132523D01*
X134668577Y-87110581D01*
X134646023Y-87096639D01*
X134607848Y-87083176D01*
X134571285Y-87088517D01*
X134530334Y-87114296D01*
X134478995Y-87162144D01*
X134446038Y-87192953D01*
X134405938Y-87222377D01*
X134377240Y-87233126D01*
X134363168Y-87229896D01*
X134326812Y-87205780D01*
X134281637Y-87160236D01*
X134217875Y-87087346D01*
X134209600Y-87215081D01*
X134208680Y-87228042D01*
X134201225Y-87300688D01*
X134190724Y-87372079D01*
X134179145Y-87428441D01*
X134173109Y-87453657D01*
X134160051Y-87516693D01*
X134146455Y-87591007D01*
X134134445Y-87665343D01*
X134126957Y-87710951D01*
X134109537Y-87801429D01*
X134088699Y-87896660D01*
X134067473Y-87982303D01*
X134060818Y-88007348D01*
X134046010Y-88066907D01*
X134035487Y-88119208D01*
X134028425Y-88171464D01*
X134023999Y-88230891D01*
X134021385Y-88304703D01*
X134019761Y-88400114D01*
X134019649Y-88408446D01*
X134017214Y-88515981D01*
X134012642Y-88604837D01*
X134005046Y-88684476D01*
X133993539Y-88764358D01*
X133977235Y-88853942D01*
X133975416Y-88863336D01*
X133959635Y-88948523D01*
X133944953Y-89033753D01*
X133932940Y-89109604D01*
X133925163Y-89166653D01*
X133924595Y-89171437D01*
X133914891Y-89231937D01*
X133902152Y-89286157D01*
X133888979Y-89322870D01*
X133886084Y-89328652D01*
X133874153Y-89359300D01*
X133873443Y-89375920D01*
X129783018Y-89375920D01*
X129783297Y-89365461D01*
X129787293Y-89252948D01*
X129792118Y-89147812D01*
X129797684Y-89054325D01*
X129803903Y-88976763D01*
X129810688Y-88919399D01*
X129818721Y-88860541D01*
X129826050Y-88773765D01*
X129827787Y-88680918D01*
X129824372Y-88570822D01*
X129822864Y-88538101D01*
X129820272Y-88465395D01*
X129820236Y-88414196D01*
X129823082Y-88379199D01*
X129829133Y-88355098D01*
X129838716Y-88336587D01*
X129854085Y-88316113D01*
X129886163Y-88287576D01*
X129915671Y-88276765D01*
X129936155Y-88286970D01*
X129944997Y-88297837D01*
X129948730Y-88288457D01*
X129960761Y-88275745D01*
X129992172Y-88270448D01*
X129995766Y-88270417D01*
X130026430Y-88264245D01*
X130035644Y-88245236D01*
X130036090Y-88235717D01*
X130038973Y-88199325D01*
X130043921Y-88146123D01*
X130050222Y-88083964D01*
X130053765Y-88045341D01*
X130056595Y-87989258D01*
X130056398Y-87928709D01*
X130052966Y-87857672D01*
X130046091Y-87770125D01*
X130035565Y-87660045D01*
X130026065Y-87561654D01*
X130015609Y-87434163D01*
X130009640Y-87325319D01*
X130008107Y-87229240D01*
X130010961Y-87140049D01*
X130018151Y-87051865D01*
X130029629Y-86958809D01*
X130038581Y-86883203D01*
X130049362Y-86685680D01*
X130044837Y-86474920D01*
X130025331Y-86258631D01*
X129991168Y-86044527D01*
X129987022Y-86023385D01*
X129971497Y-85941855D01*
X129960159Y-85874807D01*
X129952386Y-85815026D01*
X129947551Y-85755295D01*
X129945032Y-85688400D01*
X129944219Y-85608454D01*
X130209824Y-85608454D01*
X130210839Y-85668581D01*
X130214107Y-85725444D01*
X130220087Y-85784316D01*
X130229234Y-85850472D01*
X130242004Y-85929185D01*
X130258856Y-86025729D01*
X130280245Y-86145378D01*
X130283154Y-86162011D01*
X130307849Y-86352728D01*
X130319290Y-86551837D01*
X130317179Y-86748174D01*
X130301218Y-86930573D01*
X130291756Y-87007501D01*
X130281556Y-87123129D01*
X130277462Y-87236158D01*
X130279480Y-87354275D01*
X130287618Y-87485169D01*
X130301883Y-87636529D01*
X130309360Y-87714177D01*
X130319915Y-87889609D01*
X130319080Y-88039932D01*
X130311178Y-88205616D01*
X130406078Y-88209169D01*
X130452805Y-88212232D01*
X130510126Y-88219088D01*
X130552729Y-88227638D01*
X130566058Y-88231260D01*
X130612679Y-88242709D01*
X130673663Y-88256673D01*
X130739334Y-88270909D01*
X130774185Y-88278197D01*
X130826840Y-88289033D01*
X130864194Y-88296489D01*
X130879805Y-88299263D01*
X130879911Y-88299262D01*
X130883600Y-88295608D01*
X130884621Y-88281815D01*
X130882663Y-88253281D01*
X130877413Y-88205403D01*
X130868557Y-88133579D01*
X130864216Y-88085444D01*
X130860085Y-88013030D01*
X130856430Y-87922308D01*
X130853432Y-87818579D01*
X130851272Y-87707144D01*
X130850130Y-87593307D01*
X130848055Y-87182700D01*
X130794881Y-86981941D01*
X130792433Y-86972640D01*
X130778400Y-86916321D01*
X130766153Y-86860285D01*
X130755537Y-86802108D01*
X130746400Y-86739364D01*
X130738588Y-86669629D01*
X130731946Y-86590478D01*
X130726321Y-86499486D01*
X130721561Y-86394228D01*
X130717509Y-86272280D01*
X130714014Y-86131217D01*
X130710922Y-85968613D01*
X130708078Y-85782045D01*
X130705329Y-85569087D01*
X130704892Y-85531306D01*
X130976273Y-85531306D01*
X130976433Y-85716571D01*
X130977426Y-85890933D01*
X130979277Y-86049917D01*
X130982014Y-86189050D01*
X130985662Y-86303857D01*
X130986992Y-86336330D01*
X130992094Y-86454572D01*
X130996871Y-86549641D01*
X131001775Y-86626071D01*
X131007261Y-86688397D01*
X131013784Y-86741154D01*
X131021798Y-86788875D01*
X131031756Y-86836096D01*
X131044114Y-86887351D01*
X131046305Y-86896122D01*
X131068802Y-86988914D01*
X131086383Y-87069364D01*
X131099692Y-87143351D01*
X131109375Y-87216756D01*
X131116077Y-87295456D01*
X131120443Y-87385331D01*
X131123119Y-87492260D01*
X131124749Y-87622122D01*
X131125363Y-87679131D01*
X131127089Y-87795615D01*
X131129363Y-87911647D01*
X131132019Y-88020135D01*
X131134895Y-88113989D01*
X131137824Y-88186119D01*
X131142538Y-88281815D01*
X131147509Y-88382731D01*
X131221769Y-88391458D01*
X131238151Y-88393190D01*
X131290012Y-88397757D01*
X131360104Y-88403193D01*
X131441318Y-88408961D01*
X131526546Y-88414521D01*
X131567674Y-88417141D01*
X131651848Y-88422868D01*
X131728580Y-88428541D01*
X131790761Y-88433624D01*
X131831283Y-88437579D01*
X131905504Y-88446302D01*
X131915785Y-88322879D01*
X131916603Y-88312660D01*
X131919575Y-88247668D01*
X131917273Y-88185681D01*
X131908928Y-88116430D01*
X131893767Y-88029649D01*
X131888722Y-88001872D01*
X131877659Y-87925856D01*
X131870841Y-87847400D01*
X131868640Y-87773121D01*
X132140878Y-87773121D01*
X132145004Y-87869656D01*
X132153978Y-87961096D01*
X132167792Y-88052331D01*
X132173689Y-88086898D01*
X132184307Y-88160046D01*
X132188944Y-88219623D01*
X132188128Y-88276016D01*
X132182386Y-88339611D01*
X132179800Y-88363198D01*
X132174843Y-88415278D01*
X132172398Y-88452440D01*
X132172967Y-88467843D01*
X132173492Y-88468117D01*
X132192304Y-88471130D01*
X132233520Y-88475559D01*
X132291570Y-88480853D01*
X132360884Y-88486459D01*
X132369287Y-88487108D01*
X132438753Y-88493079D01*
X132497271Y-88499138D01*
X132538906Y-88504611D01*
X132557726Y-88508824D01*
X132561485Y-88510802D01*
X132569778Y-88509708D01*
X132577345Y-88495467D01*
X132586209Y-88463021D01*
X132598398Y-88407317D01*
X132606311Y-88369244D01*
X132616351Y-88318048D01*
X132624675Y-88269557D01*
X132631451Y-88220621D01*
X132636846Y-88168086D01*
X132641028Y-88108802D01*
X132644164Y-88039615D01*
X132646422Y-87957374D01*
X132647967Y-87858927D01*
X132648969Y-87741121D01*
X132649593Y-87600806D01*
X132650008Y-87434827D01*
X132650036Y-87421767D01*
X132650602Y-87279225D01*
X132651587Y-87143858D01*
X132652938Y-87018758D01*
X132654604Y-86907017D01*
X132656530Y-86811725D01*
X132658664Y-86735974D01*
X132660952Y-86682855D01*
X132663343Y-86655459D01*
X132675229Y-86589249D01*
X132587928Y-86580125D01*
X132559302Y-86577377D01*
X132494797Y-86572011D01*
X132419143Y-86566421D01*
X132343380Y-86561449D01*
X132186133Y-86551899D01*
X132192591Y-86759245D01*
X132193898Y-86841919D01*
X132191288Y-86970345D01*
X132183069Y-87114119D01*
X132168952Y-87279637D01*
X132157655Y-87404045D01*
X132147196Y-87545206D01*
X132141606Y-87666602D01*
X132140878Y-87773121D01*
X131868640Y-87773121D01*
X131868315Y-87762167D01*
X131870127Y-87665822D01*
X131876326Y-87554029D01*
X131886959Y-87422451D01*
X131902072Y-87266753D01*
X131904853Y-87238833D01*
X131916491Y-87095415D01*
X131923380Y-86958281D01*
X131925514Y-86831858D01*
X131922883Y-86720571D01*
X131915480Y-86628846D01*
X131903298Y-86561108D01*
X131897281Y-86537481D01*
X131882072Y-86447291D01*
X131884666Y-86378106D01*
X131905057Y-86330756D01*
X131924009Y-86309564D01*
X131949102Y-86290699D01*
X131980781Y-86279487D01*
X132024547Y-86274910D01*
X132085901Y-86275946D01*
X132170346Y-86281578D01*
X132195932Y-86283550D01*
X132283389Y-86290173D01*
X132385165Y-86297750D01*
X132490611Y-86305492D01*
X132589081Y-86312611D01*
X132830403Y-86329881D01*
X132830403Y-86370527D01*
X132830413Y-86372117D01*
X132839891Y-86407397D01*
X132871595Y-86432473D01*
X132883508Y-86439145D01*
X132911578Y-86462518D01*
X132929314Y-86494835D01*
X132937824Y-86540910D01*
X132938114Y-86589249D01*
X132938212Y-86605558D01*
X132931585Y-86693594D01*
X132926432Y-86751100D01*
X132913047Y-86962182D01*
X132906490Y-87184961D01*
X132906991Y-87406764D01*
X132914781Y-87614918D01*
X132917552Y-87668611D01*
X132921035Y-87899257D01*
X132910767Y-88119688D01*
X132887125Y-88324673D01*
X132850485Y-88508984D01*
X132850464Y-88509066D01*
X132849165Y-88519748D01*
X132853830Y-88528102D01*
X132868245Y-88534976D01*
X132896198Y-88541215D01*
X132941475Y-88547667D01*
X133007861Y-88555179D01*
X133099144Y-88564597D01*
X133146546Y-88569484D01*
X133253123Y-88580909D01*
X133362335Y-88593110D01*
X133463745Y-88604909D01*
X133546911Y-88615128D01*
X133564719Y-88617375D01*
X133633606Y-88625395D01*
X133690352Y-88630955D01*
X133729487Y-88633569D01*
X133745543Y-88632752D01*
X133747275Y-88623313D01*
X133749342Y-88589040D01*
X133750988Y-88534484D01*
X133752075Y-88464533D01*
X133752467Y-88384079D01*
X133752540Y-88333215D01*
X133753435Y-88253162D01*
X133756068Y-88190047D01*
X133761328Y-88136053D01*
X133770103Y-88083368D01*
X133783284Y-88024175D01*
X133801758Y-87950660D01*
X133821135Y-87870641D01*
X133842365Y-87773479D01*
X133860879Y-87679311D01*
X133874122Y-87600505D01*
X133881730Y-87551499D01*
X133894518Y-87479048D01*
X133907394Y-87415743D01*
X133918479Y-87371301D01*
X133929907Y-87313672D01*
X133937307Y-87226054D01*
X133939816Y-87111976D01*
X133939845Y-87091413D01*
X133940708Y-87016974D01*
X133943299Y-86964115D01*
X133948338Y-86926953D01*
X133956544Y-86899605D01*
X133968637Y-86876187D01*
X133971311Y-86871901D01*
X134009670Y-86829729D01*
X134046311Y-86815315D01*
X134347864Y-86815315D01*
X134544867Y-86815315D01*
X134544708Y-86739677D01*
X134543668Y-86683226D01*
X134537974Y-86621942D01*
X134525431Y-86578623D01*
X134503935Y-86546978D01*
X134471375Y-86520714D01*
X134454254Y-86509616D01*
X134423761Y-86491216D01*
X134408307Y-86483948D01*
X134406324Y-86486106D01*
X134402274Y-86507766D01*
X134400548Y-86545179D01*
X134396941Y-86589470D01*
X134387416Y-86649362D01*
X134374083Y-86710862D01*
X134347864Y-86815315D01*
X134046311Y-86815315D01*
X134059133Y-86810271D01*
X134125407Y-86811158D01*
X134145721Y-86812675D01*
X134195508Y-86804211D01*
X134229644Y-86779620D01*
X134242314Y-86742327D01*
X134232103Y-86717472D01*
X134201144Y-86683449D01*
X134155148Y-86647328D01*
X134099920Y-86614327D01*
X134094917Y-86611677D01*
X134050174Y-86582464D01*
X134012888Y-86550183D01*
X134008797Y-86545883D01*
X133982953Y-86522357D01*
X133966065Y-86512763D01*
X133962394Y-86515994D01*
X133956496Y-86539634D01*
X133954169Y-86578679D01*
X133954146Y-86585331D01*
X133952357Y-86614933D01*
X133944935Y-86639469D01*
X133928009Y-86665109D01*
X133897708Y-86698017D01*
X133850159Y-86744362D01*
X133820295Y-86772530D01*
X133779343Y-86809435D01*
X133748880Y-86834738D01*
X133733927Y-86844130D01*
X133721732Y-86836263D01*
X133693151Y-86811506D01*
X133653130Y-86773885D01*
X133606196Y-86727529D01*
X133604500Y-86725816D01*
X133548882Y-86667415D01*
X133514258Y-86623200D01*
X133499944Y-86588514D01*
X133499992Y-86588247D01*
X133649529Y-86588247D01*
X133689287Y-86629745D01*
X133697718Y-86638351D01*
X133723000Y-86661656D01*
X133737154Y-86670787D01*
X133738120Y-86670587D01*
X133755326Y-86659709D01*
X133782539Y-86637477D01*
X133784231Y-86635979D01*
X133798768Y-86621426D01*
X133809035Y-86604548D01*
X133816098Y-86580052D01*
X133821021Y-86542643D01*
X133824869Y-86487027D01*
X133828707Y-86407911D01*
X133830585Y-86369461D01*
X133835832Y-86291530D01*
X133842385Y-86236014D01*
X133850893Y-86198343D01*
X133862007Y-86173947D01*
X133877083Y-86141147D01*
X133872582Y-86120028D01*
X133849770Y-86117468D01*
X133812549Y-86136427D01*
X133808668Y-86139212D01*
X133790048Y-86154623D01*
X133777894Y-86172605D01*
X133770201Y-86199709D01*
X133764963Y-86242486D01*
X133760175Y-86307484D01*
X133759941Y-86310975D01*
X133753877Y-86393398D01*
X133747616Y-86452393D01*
X133739763Y-86493131D01*
X133728922Y-86520782D01*
X133713697Y-86540519D01*
X133692693Y-86557512D01*
X133649529Y-86588247D01*
X133499992Y-86588247D01*
X133505255Y-86558700D01*
X133529506Y-86529101D01*
X133572012Y-86495062D01*
X133589094Y-86482184D01*
X133619301Y-86454558D01*
X133633113Y-86428321D01*
X133636647Y-86393903D01*
X133636568Y-86384165D01*
X133633135Y-86352604D01*
X133626169Y-86339876D01*
X133625255Y-86339715D01*
X133607740Y-86328470D01*
X133576193Y-86302991D01*
X133536751Y-86268199D01*
X133497312Y-86233618D01*
X133466610Y-86214029D01*
X133447615Y-86217445D01*
X133435881Y-86245079D01*
X133426962Y-86298142D01*
X133409138Y-86360646D01*
X133365497Y-86430786D01*
X133364808Y-86431655D01*
X133330797Y-86470546D01*
X133288304Y-86513727D01*
X133242963Y-86556131D01*
X133200408Y-86592692D01*
X133166271Y-86618344D01*
X133146186Y-86628021D01*
X133137553Y-86624395D01*
X133111235Y-86602875D01*
X133074306Y-86566346D01*
X133031119Y-86519833D01*
X132986026Y-86468359D01*
X132943378Y-86416950D01*
X132907527Y-86370628D01*
X132882826Y-86334420D01*
X132873624Y-86313348D01*
X132874393Y-86306787D01*
X132875412Y-86304352D01*
X133018351Y-86304352D01*
X133018442Y-86305013D01*
X133029219Y-86323229D01*
X133054348Y-86355339D01*
X133088767Y-86394837D01*
X133158529Y-86471410D01*
X133230161Y-86399778D01*
X133237752Y-86392142D01*
X133265234Y-86362565D01*
X133285716Y-86334218D01*
X133300600Y-86302099D01*
X133311290Y-86261206D01*
X133319187Y-86206539D01*
X133325695Y-86133095D01*
X133332216Y-86035873D01*
X133333589Y-86015771D01*
X133341104Y-85940378D01*
X133350716Y-85887034D01*
X133361858Y-85859114D01*
X133367168Y-85852370D01*
X133373805Y-85832277D01*
X133358598Y-85809382D01*
X133352294Y-85803126D01*
X133319859Y-85777819D01*
X133279403Y-85752244D01*
X133261416Y-85742298D01*
X133233827Y-85729974D01*
X133217141Y-85731405D01*
X133201791Y-85745797D01*
X133194867Y-85758163D01*
X133183541Y-85800084D01*
X133172979Y-85868787D01*
X133163002Y-85965287D01*
X133145886Y-86159785D01*
X133081791Y-86225112D01*
X133051675Y-86257539D01*
X133027411Y-86287541D01*
X133018351Y-86304352D01*
X132875412Y-86304352D01*
X132888649Y-86272727D01*
X132916879Y-86228367D01*
X132953801Y-86181336D01*
X132994134Y-86139264D01*
X133022927Y-86101657D01*
X133032104Y-86051661D01*
X133031732Y-86037337D01*
X133025266Y-86007905D01*
X133006014Y-85982874D01*
X132967879Y-85952863D01*
X132903654Y-85906740D01*
X132881145Y-85950266D01*
X132864091Y-85977665D01*
X132831996Y-86021013D01*
X132794722Y-86065758D01*
X132762893Y-86102971D01*
X132732670Y-86141232D01*
X132715053Y-86167159D01*
X132696035Y-86185887D01*
X132659603Y-86191743D01*
X132617768Y-86176500D01*
X132613087Y-86172721D01*
X132590866Y-86149614D01*
X132558257Y-86112040D01*
X132520519Y-86065977D01*
X132514222Y-86058040D01*
X132470906Y-85998353D01*
X132447850Y-85951223D01*
X132445534Y-85924199D01*
X132568632Y-85924199D01*
X132607829Y-85980761D01*
X132620954Y-85999422D01*
X132641035Y-86026628D01*
X132650436Y-86037323D01*
X132657773Y-86030988D01*
X132679874Y-86008508D01*
X132710949Y-85975373D01*
X132768053Y-85913423D01*
X132777547Y-85741255D01*
X132780269Y-85693872D01*
X132784619Y-85634916D01*
X132789929Y-85595435D01*
X132797540Y-85569616D01*
X132808797Y-85551647D01*
X132825043Y-85535716D01*
X132863045Y-85502344D01*
X132814307Y-85460663D01*
X132800514Y-85449145D01*
X132772032Y-85427326D01*
X132756529Y-85418396D01*
X132756335Y-85418385D01*
X132739728Y-85427398D01*
X132726941Y-85458050D01*
X132717350Y-85512712D01*
X132710331Y-85593753D01*
X132704915Y-85655033D01*
X132693922Y-85727024D01*
X132679708Y-85784237D01*
X132663507Y-85821996D01*
X132646553Y-85835621D01*
X132643925Y-85836282D01*
X132625490Y-85851300D01*
X132601376Y-85879910D01*
X132568632Y-85924199D01*
X132445534Y-85924199D01*
X132444340Y-85910269D01*
X132459659Y-85869112D01*
X132493093Y-85821371D01*
X132515450Y-85794066D01*
X132542586Y-85763304D01*
X132559029Y-85747717D01*
X132558295Y-85737563D01*
X132540003Y-85714389D01*
X132507345Y-85684481D01*
X132464747Y-85645277D01*
X132415517Y-85593486D01*
X132370841Y-85540779D01*
X132300549Y-85451335D01*
X132301558Y-85411666D01*
X132424146Y-85411666D01*
X132491197Y-85493979D01*
X132495784Y-85499577D01*
X132529263Y-85538438D01*
X132555747Y-85565888D01*
X132569848Y-85576291D01*
X132575648Y-85568321D01*
X132583492Y-85538598D01*
X132589897Y-85494428D01*
X132592395Y-85475249D01*
X132606895Y-85415881D01*
X132627931Y-85372550D01*
X132630307Y-85369289D01*
X132649601Y-85338591D01*
X132657516Y-85318050D01*
X132657957Y-85314829D01*
X132674234Y-85296008D01*
X132705705Y-85280307D01*
X132741043Y-85273738D01*
X132746360Y-85274566D01*
X132775833Y-85287439D01*
X132818400Y-85312658D01*
X132866770Y-85346033D01*
X132877200Y-85353701D01*
X132929569Y-85391425D01*
X132977373Y-85424734D01*
X133011383Y-85447175D01*
X133017730Y-85451252D01*
X133049301Y-85476412D01*
X133066641Y-85498386D01*
X133067810Y-85502344D01*
X133068259Y-85503866D01*
X133065353Y-85535622D01*
X133048622Y-85564004D01*
X133024883Y-85576291D01*
X133021034Y-85576589D01*
X132991553Y-85584744D01*
X132953353Y-85600570D01*
X132945274Y-85604493D01*
X132916845Y-85622590D01*
X132904883Y-85645975D01*
X132902439Y-85686354D01*
X132903639Y-85716262D01*
X132911638Y-85743842D01*
X132932157Y-85768665D01*
X132970873Y-85800175D01*
X133039308Y-85852492D01*
X133056147Y-85777515D01*
X133075595Y-85722467D01*
X133111123Y-85664862D01*
X133154935Y-85620042D01*
X133200774Y-85595865D01*
X133220463Y-85596941D01*
X133261172Y-85609833D01*
X133311204Y-85632019D01*
X133362423Y-85659423D01*
X133406687Y-85687970D01*
X133435860Y-85713584D01*
X133460156Y-85735190D01*
X133495689Y-85757701D01*
X133511117Y-85767272D01*
X133533735Y-85798659D01*
X133529586Y-85832277D01*
X133528945Y-85837471D01*
X133496738Y-85882609D01*
X133478470Y-85904051D01*
X133461954Y-85939912D01*
X133458517Y-85988552D01*
X133458932Y-85999833D01*
X133467215Y-86045979D01*
X133487331Y-86072557D01*
X133502914Y-86084040D01*
X133538577Y-86111379D01*
X133579580Y-86143623D01*
X133644413Y-86195267D01*
X133653448Y-86142049D01*
X133666691Y-86101535D01*
X133696138Y-86066679D01*
X133725567Y-86043725D01*
X133759139Y-86010785D01*
X133799600Y-85972330D01*
X133835561Y-85958169D01*
X133871327Y-85967149D01*
X133896230Y-85982669D01*
X133936759Y-86013376D01*
X133979141Y-86049837D01*
X134017137Y-86086307D01*
X134044509Y-86117042D01*
X134055020Y-86136297D01*
X134053692Y-86141147D01*
X134052654Y-86144941D01*
X134034600Y-86172205D01*
X134004594Y-86203927D01*
X133984805Y-86223490D01*
X133960901Y-86259289D01*
X133954287Y-86298597D01*
X133954315Y-86301575D01*
X133957947Y-86328185D01*
X133970964Y-86352423D01*
X133998082Y-86380622D01*
X134044017Y-86419115D01*
X134063403Y-86434353D01*
X134115536Y-86472796D01*
X134169243Y-86509571D01*
X134218401Y-86540727D01*
X134256888Y-86562317D01*
X134278579Y-86570392D01*
X134279340Y-86569944D01*
X134282781Y-86552347D01*
X134284524Y-86514262D01*
X134284200Y-86462733D01*
X134283929Y-86413673D01*
X134288888Y-86361278D01*
X134301999Y-86331539D01*
X134325184Y-86321016D01*
X134360362Y-86326268D01*
X134378681Y-86332950D01*
X134425673Y-86355411D01*
X134482691Y-86386768D01*
X134541068Y-86421924D01*
X134592137Y-86455780D01*
X134627229Y-86483238D01*
X134629414Y-86485339D01*
X134643886Y-86505068D01*
X134654020Y-86534434D01*
X134661385Y-86579828D01*
X134667548Y-86647643D01*
X134669829Y-86681521D01*
X134672315Y-86736776D01*
X134672504Y-86777317D01*
X134670268Y-86796152D01*
X134675460Y-86805751D01*
X134688814Y-86815315D01*
X134700743Y-86823858D01*
X134740684Y-86845094D01*
X134818605Y-86881893D01*
X134818605Y-86874383D01*
X134950587Y-86874383D01*
X134962471Y-86934119D01*
X134985372Y-87002609D01*
X134987718Y-87008783D01*
X134997424Y-87042694D01*
X135004964Y-87087192D01*
X135010811Y-87146832D01*
X135015437Y-87226172D01*
X135019316Y-87329768D01*
X135027510Y-87592094D01*
X135094144Y-87550573D01*
X135099516Y-87547203D01*
X135124765Y-87529767D01*
X135144017Y-87510932D01*
X135158120Y-87486782D01*
X135167923Y-87453401D01*
X135174274Y-87406872D01*
X135178022Y-87343278D01*
X135180015Y-87258702D01*
X135181101Y-87149229D01*
X135181217Y-87131862D01*
X135181134Y-87043352D01*
X135179526Y-86979189D01*
X135176118Y-86935563D01*
X135170637Y-86908665D01*
X135162809Y-86894688D01*
X135141635Y-86880691D01*
X135101423Y-86860311D01*
X135051996Y-86838828D01*
X135015436Y-86824632D01*
X134980549Y-86813806D01*
X134961764Y-86813671D01*
X134953179Y-86823303D01*
X134951033Y-86830725D01*
X134950587Y-86874383D01*
X134818605Y-86874383D01*
X134818605Y-86843531D01*
X134822970Y-86816688D01*
X134845374Y-86767442D01*
X134880431Y-86720644D01*
X134920913Y-86687331D01*
X134938406Y-86679133D01*
X134958446Y-86676383D01*
X134985542Y-86681445D01*
X135026130Y-86695590D01*
X135086647Y-86720091D01*
X135106187Y-86728468D01*
X135171806Y-86760409D01*
X135228663Y-86793512D01*
X135267506Y-86822537D01*
X135319460Y-86871552D01*
X135311892Y-87031232D01*
X135311364Y-87042488D01*
X135308785Y-87109650D01*
X135308825Y-87131862D01*
X135308866Y-87154429D01*
X135312206Y-87182425D01*
X135319403Y-87199236D01*
X135331056Y-87210460D01*
X135339847Y-87217250D01*
X135349817Y-87233742D01*
X135336722Y-87255492D01*
X135325627Y-87269444D01*
X135326146Y-87273612D01*
X135348071Y-87260789D01*
X135352142Y-87258315D01*
X135381192Y-87248084D01*
X135409107Y-87258475D01*
X135429461Y-87270501D01*
X135444286Y-87272511D01*
X135452621Y-87255640D01*
X135460073Y-87215117D01*
X135466825Y-87181047D01*
X135489026Y-87110253D01*
X135518233Y-87053683D01*
X135551570Y-87016186D01*
X135586160Y-87002609D01*
X135589429Y-87003048D01*
X135615897Y-87015526D01*
X135656462Y-87041848D01*
X135705145Y-87077485D01*
X135755968Y-87117909D01*
X135802955Y-87158591D01*
X135840127Y-87195003D01*
X135845208Y-87200582D01*
X135858963Y-87218532D01*
X135867054Y-87238918D01*
X135870428Y-87268318D01*
X135870381Y-87273649D01*
X135870031Y-87313311D01*
X135866809Y-87380478D01*
X135858865Y-87528474D01*
X135914027Y-87576068D01*
X135969189Y-87623661D01*
X135974607Y-87579639D01*
X136106280Y-87579639D01*
X136106751Y-87593307D01*
X136111891Y-87590860D01*
X136135172Y-87575164D01*
X136170563Y-87549323D01*
X136211314Y-87518484D01*
X136250673Y-87487788D01*
X136281890Y-87462381D01*
X136298214Y-87447406D01*
X136304352Y-87437439D01*
X136318503Y-87402042D01*
X136331122Y-87356681D01*
X136346757Y-87286916D01*
X136273795Y-87203030D01*
X136233671Y-87152926D01*
X136212043Y-87110360D01*
X136212755Y-87089143D01*
X136345900Y-87089143D01*
X136411763Y-87178611D01*
X136431660Y-87206333D01*
X136458146Y-87248748D01*
X136469511Y-87279399D01*
X136468615Y-87304630D01*
X136466072Y-87316985D01*
X136459399Y-87358437D01*
X136451487Y-87415671D01*
X136443552Y-87480176D01*
X136437203Y-87545630D01*
X136436087Y-87609333D01*
X136444043Y-87658706D01*
X136462499Y-87701427D01*
X136477308Y-87722747D01*
X136492885Y-87745173D01*
X136493566Y-87746036D01*
X136515735Y-87770122D01*
X136530512Y-87779421D01*
X136531026Y-87779354D01*
X136558880Y-87770208D01*
X136600207Y-87751283D01*
X136644998Y-87727814D01*
X136683242Y-87705038D01*
X136704931Y-87688189D01*
X136714591Y-87672802D01*
X136711849Y-87653650D01*
X136690208Y-87625301D01*
X136687275Y-87621971D01*
X136659894Y-87591906D01*
X136640021Y-87571696D01*
X136610012Y-87528862D01*
X136593112Y-87461013D01*
X136593720Y-87373780D01*
X136612020Y-87269144D01*
X136624944Y-87211203D01*
X136630873Y-87161616D01*
X136625628Y-87122383D01*
X136607765Y-87084262D01*
X136575836Y-87038012D01*
X136567087Y-87026265D01*
X136533350Y-86984354D01*
X136510091Y-86964203D01*
X136493498Y-86963507D01*
X136479757Y-86979961D01*
X136471838Y-86989976D01*
X136444341Y-87015604D01*
X136407068Y-87044838D01*
X136345900Y-87089143D01*
X136212755Y-87089143D01*
X136213294Y-87073078D01*
X136237810Y-87034248D01*
X136285976Y-86987038D01*
X136314880Y-86961027D01*
X136369996Y-86910740D01*
X136420380Y-86864062D01*
X136453661Y-86833753D01*
X136481735Y-86810005D01*
X136495340Y-86800908D01*
X136503739Y-86801832D01*
X136542692Y-86821848D01*
X136592806Y-86867715D01*
X136653645Y-86939053D01*
X136688310Y-86981738D01*
X136724037Y-87018807D01*
X136748678Y-87030630D01*
X136764920Y-87016567D01*
X136775452Y-86975975D01*
X136782961Y-86908214D01*
X136792157Y-86799431D01*
X136710117Y-86723069D01*
X136628077Y-86646706D01*
X136640380Y-86605642D01*
X136763317Y-86605642D01*
X136842751Y-86678980D01*
X136922184Y-86752319D01*
X136913047Y-86837844D01*
X136908226Y-86884577D01*
X136904790Y-86926848D01*
X136903354Y-86966205D01*
X136903571Y-87013218D01*
X136905089Y-87078459D01*
X136907598Y-87129923D01*
X136914410Y-87167339D01*
X136928897Y-87196225D01*
X136954560Y-87227100D01*
X137001463Y-87278279D01*
X137091429Y-87196865D01*
X137105935Y-87183486D01*
X137144454Y-87145158D01*
X137171309Y-87114162D01*
X137181395Y-87096209D01*
X137181260Y-87094882D01*
X137170071Y-87073495D01*
X137144438Y-87038983D01*
X137109359Y-86998149D01*
X137105483Y-86993898D01*
X137068663Y-86950765D01*
X137047513Y-86915067D01*
X137040145Y-86878035D01*
X137044677Y-86830900D01*
X137059222Y-86764890D01*
X137067459Y-86723068D01*
X137076652Y-86650568D01*
X137080319Y-86582690D01*
X137080326Y-86567805D01*
X137078792Y-86521021D01*
X137072080Y-86490903D01*
X137056622Y-86467672D01*
X137028855Y-86441549D01*
X136977166Y-86396165D01*
X136909995Y-86456010D01*
X136880271Y-86483265D01*
X136836542Y-86525666D01*
X136803071Y-86560749D01*
X136763317Y-86605642D01*
X136640380Y-86605642D01*
X136646635Y-86584764D01*
X136649896Y-86574980D01*
X136666792Y-86540612D01*
X136695388Y-86500928D01*
X136739147Y-86451533D01*
X136801530Y-86388028D01*
X136834693Y-86355424D01*
X136881909Y-86310477D01*
X136915576Y-86281698D01*
X136939845Y-86266117D01*
X136958866Y-86260766D01*
X136976790Y-86262677D01*
X137015482Y-86278966D01*
X137063831Y-86311456D01*
X137112249Y-86353369D01*
X137154526Y-86398675D01*
X137184448Y-86441339D01*
X137195803Y-86475331D01*
X137198442Y-86485853D01*
X137215460Y-86489908D01*
X137218396Y-86488163D01*
X137228927Y-86467298D01*
X137236815Y-86422720D01*
X137242557Y-86351901D01*
X137249995Y-86221438D01*
X137193329Y-86170243D01*
X137169483Y-86148448D01*
X137135606Y-86113222D01*
X137121842Y-86085423D01*
X137278488Y-86085423D01*
X137326270Y-86124422D01*
X137374053Y-86163420D01*
X137374973Y-86402674D01*
X137375893Y-86641929D01*
X137481923Y-86747977D01*
X137562175Y-86664454D01*
X137573091Y-86653009D01*
X137608392Y-86614701D01*
X137633066Y-86585876D01*
X137642319Y-86572059D01*
X137634607Y-86560361D01*
X137611160Y-86533979D01*
X137577487Y-86499621D01*
X137543684Y-86464788D01*
X137523186Y-86435666D01*
X137514634Y-86405200D01*
X137513018Y-86362752D01*
X137513168Y-86352079D01*
X137515633Y-86297262D01*
X137520473Y-86229285D01*
X137526849Y-86160388D01*
X137527077Y-86158220D01*
X137533041Y-86097107D01*
X137534726Y-86056769D01*
X137531162Y-86029574D01*
X137521376Y-86007892D01*
X137504396Y-85984093D01*
X137471951Y-85944642D01*
X137443761Y-85923044D01*
X137417429Y-85924262D01*
X137387148Y-85948773D01*
X137347111Y-85997056D01*
X137278488Y-86085423D01*
X137121842Y-86085423D01*
X137121406Y-86084542D01*
X137127059Y-86055683D01*
X137152746Y-86019918D01*
X137198646Y-85970522D01*
X137212594Y-85955961D01*
X137260089Y-85906156D01*
X137303484Y-85860349D01*
X137334833Y-85826920D01*
X137363762Y-85799590D01*
X137402833Y-85779135D01*
X137443264Y-85781267D01*
X137489668Y-85806616D01*
X137546662Y-85855811D01*
X137551944Y-85860937D01*
X137592586Y-85903801D01*
X137624890Y-85943517D01*
X137642269Y-85972073D01*
X137650484Y-85991391D01*
X137661889Y-86001048D01*
X137678471Y-85988931D01*
X137681516Y-85985384D01*
X137695077Y-85950549D01*
X137700057Y-85897786D01*
X137700454Y-85879622D01*
X137705163Y-85825479D01*
X137713479Y-85781428D01*
X137719660Y-85754029D01*
X137714716Y-85730501D01*
X137690676Y-85709487D01*
X137647584Y-85677930D01*
X137599565Y-85637639D01*
X137567597Y-85604059D01*
X137555984Y-85581286D01*
X137556161Y-85576351D01*
X137561512Y-85561106D01*
X137700428Y-85561106D01*
X137708376Y-85569985D01*
X137734579Y-85590823D01*
X137772676Y-85617846D01*
X137811493Y-85647394D01*
X137845569Y-85688340D01*
X137855160Y-85731484D01*
X137842411Y-85781874D01*
X137832106Y-85823886D01*
X137826744Y-85891901D01*
X137826642Y-85986566D01*
X137830261Y-86144715D01*
X137883341Y-86199073D01*
X137904199Y-86219080D01*
X137935110Y-86243783D01*
X137955155Y-86253432D01*
X137976613Y-86243488D01*
X138009450Y-86217647D01*
X138046749Y-86182670D01*
X138081755Y-86145319D01*
X138107713Y-86112358D01*
X138117867Y-86090550D01*
X138117741Y-86088978D01*
X138106591Y-86065188D01*
X138080949Y-86028755D01*
X138045831Y-85986898D01*
X138012860Y-85948704D01*
X137989302Y-85913345D01*
X137976966Y-85877280D01*
X137974662Y-85833666D01*
X137981204Y-85775660D01*
X137995403Y-85696418D01*
X137995431Y-85696270D01*
X138010727Y-85604942D01*
X138016505Y-85535470D01*
X138012336Y-85482376D01*
X137997791Y-85440181D01*
X137972440Y-85403404D01*
X137967243Y-85397411D01*
X137941865Y-85371242D01*
X137926712Y-85365050D01*
X137915913Y-85375988D01*
X137911853Y-85381438D01*
X137887640Y-85405301D01*
X137848756Y-85438656D01*
X137801425Y-85476061D01*
X137780585Y-85492081D01*
X137739406Y-85524954D01*
X137710951Y-85549423D01*
X137700428Y-85561106D01*
X137561512Y-85561106D01*
X137573021Y-85528318D01*
X137617089Y-85472730D01*
X137687972Y-85410095D01*
X137690067Y-85408450D01*
X137743097Y-85365392D01*
X137795068Y-85320968D01*
X137835010Y-85284544D01*
X137839386Y-85280366D01*
X137892717Y-85240714D01*
X137941109Y-85228742D01*
X137987593Y-85244502D01*
X138035201Y-85288048D01*
X138055121Y-85309685D01*
X138080224Y-85331530D01*
X138093953Y-85336072D01*
X138096025Y-85328442D01*
X138097752Y-85309434D01*
X138221851Y-85309434D01*
X138306728Y-85400168D01*
X138322152Y-85416887D01*
X138357663Y-85457413D01*
X138382351Y-85488606D01*
X138391605Y-85504782D01*
X138395801Y-85516367D01*
X138412960Y-85514740D01*
X138437587Y-85493449D01*
X138440343Y-85490189D01*
X138466508Y-85456100D01*
X138495568Y-85414273D01*
X138522520Y-85372438D01*
X138542360Y-85338323D01*
X138550085Y-85319658D01*
X138549486Y-85317722D01*
X138533563Y-85301158D01*
X138500372Y-85275188D01*
X138455826Y-85244525D01*
X138447535Y-85239063D01*
X138401799Y-85206720D01*
X138366495Y-85178170D01*
X138348689Y-85159050D01*
X138344563Y-85143277D01*
X138339888Y-85102400D01*
X138336579Y-85045240D01*
X138335169Y-84978925D01*
X138334678Y-84926495D01*
X138333456Y-84871713D01*
X138331744Y-84833542D01*
X138329748Y-84818083D01*
X138326872Y-84818202D01*
X138307772Y-84829575D01*
X138278088Y-84852625D01*
X138231208Y-84891946D01*
X138226530Y-85100690D01*
X138221851Y-85309434D01*
X138097752Y-85309434D01*
X138098976Y-85295967D01*
X138101333Y-85242967D01*
X138102895Y-85174529D01*
X138103460Y-85095740D01*
X138103461Y-85090194D01*
X138104345Y-84993096D01*
X138108014Y-84919640D01*
X138116148Y-84864917D01*
X138130429Y-84824016D01*
X138152540Y-84792028D01*
X138184162Y-84764043D01*
X138226977Y-84735151D01*
X138245575Y-84722498D01*
X138285025Y-84690116D01*
X138311348Y-84660961D01*
X138316982Y-84653412D01*
X138349983Y-84630310D01*
X138387239Y-84626562D01*
X138417841Y-84643915D01*
X138420060Y-84647552D01*
X138429668Y-84675430D01*
X138440796Y-84720066D01*
X138451519Y-84772320D01*
X138459910Y-84823054D01*
X138464043Y-84863131D01*
X138464051Y-84863281D01*
X138470311Y-84862832D01*
X138484269Y-84842131D01*
X138495566Y-84811767D01*
X138489451Y-84770095D01*
X138487109Y-84761379D01*
X138482085Y-84723621D01*
X138477784Y-84665867D01*
X138474603Y-84594237D01*
X138472936Y-84514851D01*
X138472541Y-84473584D01*
X138589316Y-84473584D01*
X138591449Y-84549882D01*
X138596267Y-84621987D01*
X138607342Y-84741023D01*
X138663146Y-84811767D01*
X138709485Y-84870512D01*
X138747327Y-84918040D01*
X138781938Y-84960571D01*
X138806278Y-84989392D01*
X138816618Y-85000000D01*
X138826290Y-84994579D01*
X138849739Y-84972518D01*
X138878490Y-84940617D01*
X138905644Y-84906664D01*
X138924303Y-84878447D01*
X138930306Y-84866724D01*
X138935077Y-84850560D01*
X138930878Y-84834066D01*
X138914689Y-84812407D01*
X138883489Y-84780745D01*
X138834258Y-84734244D01*
X138799147Y-84700530D01*
X138759780Y-84660373D01*
X138732912Y-84630007D01*
X138722972Y-84614209D01*
X138727301Y-84592105D01*
X138738574Y-84557915D01*
X138743864Y-84537046D01*
X138747806Y-84483155D01*
X138744679Y-84414297D01*
X138740326Y-84373891D01*
X138730863Y-84330270D01*
X138714177Y-84307479D01*
X138685609Y-84300619D01*
X138640501Y-84304796D01*
X138628955Y-84306596D01*
X138609667Y-84312682D01*
X138599062Y-84326879D01*
X138593768Y-84356077D01*
X138590414Y-84407165D01*
X138590308Y-84409176D01*
X138589316Y-84473584D01*
X138472541Y-84473584D01*
X138470845Y-84296237D01*
X138427623Y-84349056D01*
X138426160Y-84350835D01*
X138393152Y-84388689D01*
X138349257Y-84436298D01*
X138303556Y-84483797D01*
X138298871Y-84488576D01*
X138257868Y-84534455D01*
X138223705Y-84582825D01*
X138191162Y-84641999D01*
X138155017Y-84720290D01*
X138148779Y-84734469D01*
X138107163Y-84824233D01*
X138067859Y-84897173D01*
X138024982Y-84962365D01*
X137972644Y-85028885D01*
X137904959Y-85105807D01*
X137882350Y-85131204D01*
X137837441Y-85184418D01*
X137799537Y-85232797D01*
X137775058Y-85268313D01*
X137765153Y-85283285D01*
X137729322Y-85328385D01*
X137677323Y-85387054D01*
X137612926Y-85455542D01*
X137539900Y-85530102D01*
X137462015Y-85606984D01*
X137383042Y-85682440D01*
X137306748Y-85752721D01*
X137236905Y-85814078D01*
X137177281Y-85862763D01*
X137117909Y-85909894D01*
X137053172Y-85966538D01*
X137005588Y-86016436D01*
X136970595Y-86064028D01*
X136960558Y-86079169D01*
X136920963Y-86132068D01*
X136871801Y-86191149D01*
X136821412Y-86246228D01*
X136795388Y-86274347D01*
X136739663Y-86340551D01*
X136682974Y-86414205D01*
X136634264Y-86483948D01*
X136579756Y-86564710D01*
X136527601Y-86633543D01*
X136473804Y-86693373D01*
X136410885Y-86752475D01*
X136331367Y-86819127D01*
X136304438Y-86841265D01*
X136260191Y-86879146D01*
X136227263Y-86909313D01*
X136211306Y-86926701D01*
X136208061Y-86931684D01*
X136187442Y-86958916D01*
X136159305Y-86992670D01*
X136119309Y-87038628D01*
X136113804Y-87238194D01*
X136111659Y-87315967D01*
X136111417Y-87324813D01*
X136109235Y-87409756D01*
X136107599Y-87483469D01*
X136106588Y-87541561D01*
X136106280Y-87579639D01*
X135974607Y-87579639D01*
X135976820Y-87561660D01*
X135980657Y-87526868D01*
X135986609Y-87456338D01*
X135991285Y-87380133D01*
X135994425Y-87305126D01*
X135995772Y-87238194D01*
X135995067Y-87186211D01*
X135992053Y-87156053D01*
X135979975Y-87130207D01*
X135961414Y-87117868D01*
X135950818Y-87115464D01*
X135919056Y-87100628D01*
X135880134Y-87076742D01*
X135837102Y-87049099D01*
X135764105Y-87005908D01*
X135675159Y-86956034D01*
X135575924Y-86902517D01*
X135472060Y-86848400D01*
X135369227Y-86796723D01*
X135273084Y-86750529D01*
X135255483Y-86742278D01*
X135177039Y-86704794D01*
X135101132Y-86667500D01*
X135035655Y-86634318D01*
X134988502Y-86609169D01*
X134975036Y-86601251D01*
X134928902Y-86571857D01*
X134865950Y-86529813D01*
X134790638Y-86478256D01*
X134707423Y-86420323D01*
X134620759Y-86359150D01*
X134535105Y-86297875D01*
X134454915Y-86239633D01*
X134384648Y-86187562D01*
X134371925Y-86177827D01*
X135792798Y-86177827D01*
X135806544Y-86195817D01*
X135839670Y-86223152D01*
X135896587Y-86268231D01*
X135960429Y-86192397D01*
X135995593Y-86149393D01*
X136043933Y-86087739D01*
X136087219Y-86030119D01*
X136108852Y-86001000D01*
X136149636Y-85947357D01*
X136200556Y-85881286D01*
X136257191Y-85808514D01*
X136315122Y-85734771D01*
X136358163Y-85679698D01*
X136416221Y-85603787D01*
X136469838Y-85531959D01*
X136514464Y-85470330D01*
X136545550Y-85425014D01*
X136557071Y-85407717D01*
X136602143Y-85344741D01*
X136654600Y-85276441D01*
X136705312Y-85214831D01*
X136733920Y-85179585D01*
X136785736Y-85108389D01*
X136837458Y-85029857D01*
X136881273Y-84955501D01*
X136917756Y-84889416D01*
X136970702Y-84797661D01*
X137023784Y-84711734D01*
X137080185Y-84627086D01*
X137143086Y-84539171D01*
X137215670Y-84443439D01*
X137301118Y-84335342D01*
X137402613Y-84210334D01*
X137422556Y-84185990D01*
X138553409Y-84185990D01*
X138827331Y-84185990D01*
X138818373Y-84079364D01*
X138818253Y-84077932D01*
X138813797Y-84018904D01*
X138810624Y-83965956D01*
X138809416Y-83930396D01*
X138809379Y-83921556D01*
X138807629Y-83904609D01*
X138800262Y-83903977D01*
X138783220Y-83921777D01*
X138752446Y-83960126D01*
X138724297Y-83994704D01*
X138703465Y-84018568D01*
X138697339Y-84025586D01*
X138681714Y-84040704D01*
X138669307Y-84051944D01*
X138643092Y-84080106D01*
X138610681Y-84117599D01*
X138553409Y-84185990D01*
X137422556Y-84185990D01*
X137559709Y-84018568D01*
X137518227Y-83974861D01*
X137516961Y-83973543D01*
X137482949Y-83942987D01*
X137435010Y-83905402D01*
X137383097Y-83868616D01*
X137381267Y-83867392D01*
X137327911Y-83830436D01*
X137277363Y-83793363D01*
X137240338Y-83764021D01*
X137191226Y-83721964D01*
X137148512Y-83770612D01*
X137105799Y-83819260D01*
X137176324Y-83894571D01*
X137219883Y-83943655D01*
X137271041Y-84009762D01*
X137308551Y-84069153D01*
X137329848Y-84117615D01*
X137332367Y-84150933D01*
X137332118Y-84151651D01*
X137317735Y-84174594D01*
X137287606Y-84212643D01*
X137245990Y-84260676D01*
X137197148Y-84313568D01*
X137172736Y-84339999D01*
X137122847Y-84397825D01*
X137071288Y-84461651D01*
X137021465Y-84526834D01*
X136976784Y-84588728D01*
X136940651Y-84642690D01*
X136916474Y-84684075D01*
X136907657Y-84708241D01*
X136905860Y-84717253D01*
X136885397Y-84742005D01*
X136850183Y-84761548D01*
X136810379Y-84769484D01*
X136768604Y-84760524D01*
X136725070Y-84735603D01*
X136713532Y-84726366D01*
X136670375Y-84694796D01*
X136624351Y-84664167D01*
X136564358Y-84626612D01*
X136435076Y-84777938D01*
X136527433Y-84853935D01*
X136537799Y-84862604D01*
X136582982Y-84903603D01*
X136619480Y-84941622D01*
X136640196Y-84969394D01*
X136642826Y-84974587D01*
X136652326Y-85001607D01*
X136649577Y-85028833D01*
X136633769Y-85068790D01*
X136628981Y-85078744D01*
X136603592Y-85123398D01*
X136568400Y-85178245D01*
X136529500Y-85233648D01*
X136520820Y-85245467D01*
X136472687Y-85312402D01*
X136420657Y-85386517D01*
X136374568Y-85453829D01*
X136365696Y-85466631D01*
X136321910Y-85524067D01*
X136265437Y-85592053D01*
X136202602Y-85663151D01*
X136139734Y-85729921D01*
X136019703Y-85859344D01*
X135909275Y-85995253D01*
X135806863Y-86141278D01*
X135795080Y-86160819D01*
X135792798Y-86177827D01*
X134371925Y-86177827D01*
X134328758Y-86144798D01*
X134269910Y-86100592D01*
X134159095Y-86025306D01*
X134026136Y-85943457D01*
X133868542Y-85853470D01*
X133842918Y-85839191D01*
X133766762Y-85795865D01*
X133694536Y-85753594D01*
X133633379Y-85716596D01*
X133590427Y-85689089D01*
X133571229Y-85676982D01*
X133521320Y-85648412D01*
X133453125Y-85611505D01*
X133371464Y-85568806D01*
X133281157Y-85522857D01*
X133187024Y-85476204D01*
X133054613Y-85409923D01*
X132908606Y-85331941D01*
X132843870Y-85294152D01*
X134488437Y-85294152D01*
X134494498Y-85308952D01*
X134511804Y-85331726D01*
X134542624Y-85365589D01*
X134589224Y-85413656D01*
X134653874Y-85479042D01*
X134707626Y-85532802D01*
X134760579Y-85584752D01*
X134803640Y-85625900D01*
X134833387Y-85652982D01*
X134846401Y-85662734D01*
X134847417Y-85662465D01*
X134862374Y-85648545D01*
X134888148Y-85617710D01*
X134919816Y-85575793D01*
X134928151Y-85564768D01*
X134967445Y-85518302D01*
X135020534Y-85460833D01*
X135081505Y-85398623D01*
X135144446Y-85337933D01*
X135180734Y-85303667D01*
X135246250Y-85238525D01*
X135296526Y-85182335D01*
X135336717Y-85129091D01*
X135371978Y-85072787D01*
X135375390Y-85066976D01*
X135413573Y-85009184D01*
X135465497Y-84939238D01*
X135525399Y-84864628D01*
X135587513Y-84792840D01*
X135638842Y-84734054D01*
X135705999Y-84651160D01*
X135763580Y-84573127D01*
X135805888Y-84507405D01*
X135814362Y-84492834D01*
X135859272Y-84419428D01*
X135910000Y-84341075D01*
X135957110Y-84272434D01*
X135990986Y-84222700D01*
X136038081Y-84148621D01*
X136086570Y-84068084D01*
X136130050Y-83991492D01*
X136145055Y-83964087D01*
X136194819Y-83875195D01*
X136236921Y-83804646D01*
X136275456Y-83746549D01*
X136314521Y-83695017D01*
X136358212Y-83644160D01*
X136410625Y-83588089D01*
X136459576Y-83536781D01*
X136501723Y-83489893D01*
X136526058Y-83455387D01*
X136533686Y-83428588D01*
X136525709Y-83404821D01*
X136503230Y-83379413D01*
X136467353Y-83347689D01*
X136425828Y-83311962D01*
X136388038Y-83282274D01*
X136362421Y-83270470D01*
X136343347Y-83276275D01*
X136325183Y-83299411D01*
X136302299Y-83339604D01*
X136284101Y-83370192D01*
X136246957Y-83427541D01*
X136202420Y-83492388D01*
X136156570Y-83555718D01*
X136131114Y-83590906D01*
X136076242Y-83672130D01*
X136021785Y-83758585D01*
X135976468Y-83836659D01*
X135964384Y-83858237D01*
X135921224Y-83930286D01*
X135868271Y-84013504D01*
X135811121Y-84099225D01*
X135755376Y-84178786D01*
X135724101Y-84222386D01*
X135677593Y-84288433D01*
X135637780Y-84346414D01*
X135608114Y-84391276D01*
X135592047Y-84417964D01*
X135591366Y-84419278D01*
X135569928Y-84453587D01*
X135536816Y-84499560D01*
X135498903Y-84547630D01*
X135458871Y-84598040D01*
X135408967Y-84664743D01*
X135365713Y-84726262D01*
X135358317Y-84737136D01*
X135315324Y-84797009D01*
X135264852Y-84863420D01*
X135216333Y-84923894D01*
X135204425Y-84938487D01*
X135158249Y-84999606D01*
X135115459Y-85062384D01*
X135084019Y-85115302D01*
X135056760Y-85165628D01*
X135027820Y-85211337D01*
X135002876Y-85237620D01*
X134977812Y-85248508D01*
X134948511Y-85248032D01*
X134914409Y-85234231D01*
X134868374Y-85199550D01*
X134808763Y-85142408D01*
X134712041Y-85043098D01*
X134673665Y-85104753D01*
X134652022Y-85136061D01*
X134584841Y-85209857D01*
X134504380Y-85273738D01*
X134500980Y-85276019D01*
X134491354Y-85284212D01*
X134488437Y-85294152D01*
X132843870Y-85294152D01*
X132780436Y-85257123D01*
X132664719Y-85182443D01*
X132650184Y-85172599D01*
X132567992Y-85118597D01*
X132506608Y-85081512D01*
X132466619Y-85061677D01*
X132448610Y-85059426D01*
X132442874Y-85076926D01*
X132437109Y-85117605D01*
X132432321Y-85174910D01*
X132429174Y-85242570D01*
X132424146Y-85411666D01*
X132301558Y-85411666D01*
X132305099Y-85272491D01*
X132306708Y-85227224D01*
X132315166Y-85115530D01*
X132329129Y-85021599D01*
X132347957Y-84949039D01*
X132371008Y-84901460D01*
X132478770Y-84759071D01*
X133609987Y-84759071D01*
X133613656Y-84761033D01*
X133636692Y-84772931D01*
X133672274Y-84791095D01*
X133674418Y-84792200D01*
X133715591Y-84816370D01*
X133767914Y-84850774D01*
X133820607Y-84888344D01*
X133831815Y-84896643D01*
X133874948Y-84927240D01*
X133908104Y-84948691D01*
X133924857Y-84956779D01*
X133927996Y-84955378D01*
X133946328Y-84937528D01*
X133974833Y-84903459D01*
X134008818Y-84858657D01*
X134030393Y-84830308D01*
X134075011Y-84775137D01*
X134130738Y-84708878D01*
X134192542Y-84637484D01*
X134255390Y-84566910D01*
X134286564Y-84532251D01*
X134349783Y-84459788D01*
X134398753Y-84399214D01*
X134437864Y-84344568D01*
X134471504Y-84289888D01*
X134504065Y-84229212D01*
X134534473Y-84170209D01*
X134584730Y-84077622D01*
X134627187Y-84009479D01*
X134664258Y-83964479D01*
X134698358Y-83941321D01*
X134731899Y-83938707D01*
X134767296Y-83955337D01*
X134806962Y-83989909D01*
X134853310Y-84041126D01*
X134857510Y-84046017D01*
X134891778Y-84084059D01*
X134918806Y-84110957D01*
X134933062Y-84121157D01*
X134939635Y-84117172D01*
X134959060Y-84095020D01*
X134983534Y-84059927D01*
X134986287Y-84055737D01*
X135018600Y-84014092D01*
X135063052Y-83964839D01*
X135110880Y-83917760D01*
X135199134Y-83836824D01*
X135155428Y-83814223D01*
X135133877Y-83799977D01*
X135094878Y-83765834D01*
X135056985Y-83724823D01*
X135031361Y-83696132D01*
X134995683Y-83663081D01*
X134967878Y-83644956D01*
X134931954Y-83618051D01*
X134910618Y-83574591D01*
X134910287Y-83525953D01*
X134911156Y-83523307D01*
X134926887Y-83496704D01*
X134957793Y-83455252D01*
X134999850Y-83404101D01*
X135049034Y-83348402D01*
X135050737Y-83346535D01*
X135103908Y-83285470D01*
X135153387Y-83223809D01*
X135193714Y-83168642D01*
X135219432Y-83127060D01*
X135224609Y-83117090D01*
X135256714Y-83064913D01*
X135288454Y-83036766D01*
X135325090Y-83031657D01*
X135371885Y-83048593D01*
X135434102Y-83086582D01*
X135500751Y-83130755D01*
X135564026Y-83170616D01*
X135608837Y-83195678D01*
X135637707Y-83207329D01*
X135653160Y-83206955D01*
X135657360Y-83202975D01*
X135675897Y-83178826D01*
X135703258Y-83138804D01*
X135735178Y-83089041D01*
X135740258Y-83080889D01*
X135770468Y-83031590D01*
X135787269Y-83000205D01*
X135792334Y-82980994D01*
X135787340Y-82968215D01*
X135773962Y-82956128D01*
X135767461Y-82950883D01*
X135736896Y-82925999D01*
X135693782Y-82890727D01*
X135645267Y-82850910D01*
X135630373Y-82839052D01*
X135582726Y-82803886D01*
X135524016Y-82763219D01*
X135459200Y-82720193D01*
X135393235Y-82677947D01*
X135331078Y-82639622D01*
X135277684Y-82608359D01*
X135238012Y-82587299D01*
X135217017Y-82579581D01*
X135202843Y-82587164D01*
X135173780Y-82610059D01*
X135137319Y-82642918D01*
X135131386Y-82648561D01*
X135039325Y-82735977D01*
X134965179Y-82806536D01*
X134906385Y-82863321D01*
X134860380Y-82909416D01*
X134824602Y-82947905D01*
X134796486Y-82981873D01*
X134773470Y-83014404D01*
X134752992Y-83048582D01*
X134732488Y-83087490D01*
X134709395Y-83134213D01*
X134681150Y-83191835D01*
X134642507Y-83267457D01*
X134554233Y-83421690D01*
X134465925Y-83550882D01*
X134435171Y-83592972D01*
X134346015Y-83732449D01*
X134262507Y-83889036D01*
X134212259Y-83988487D01*
X134130101Y-84133109D01*
X134043655Y-84261374D01*
X133947652Y-84380832D01*
X133836827Y-84499030D01*
X133798804Y-84537402D01*
X133730434Y-84608348D01*
X133675484Y-84668147D01*
X133635838Y-84714639D01*
X133613378Y-84745666D01*
X133609987Y-84759071D01*
X132478770Y-84759071D01*
X132515213Y-84710917D01*
X132665839Y-84524547D01*
X132806607Y-84364457D01*
X132829929Y-84338830D01*
X132893127Y-84265881D01*
X132954033Y-84191094D01*
X133006682Y-84121936D01*
X133045109Y-84065873D01*
X133066469Y-84031953D01*
X133113189Y-83961593D01*
X133156922Y-83903615D01*
X133204113Y-83850518D01*
X133261209Y-83794802D01*
X133334657Y-83728966D01*
X133368168Y-83698753D01*
X133430926Y-83638582D01*
X133490105Y-83577881D01*
X133536358Y-83526055D01*
X133537352Y-83524859D01*
X133580086Y-83477144D01*
X133637190Y-83418318D01*
X133701325Y-83355737D01*
X133765152Y-83296757D01*
X133836179Y-83230085D01*
X133945976Y-83112439D01*
X134055558Y-82975780D01*
X134076547Y-82948205D01*
X134134915Y-82874342D01*
X134194087Y-82802913D01*
X134248188Y-82740906D01*
X134291345Y-82695307D01*
X134320943Y-82665815D01*
X134346617Y-82637973D01*
X134368743Y-82609496D01*
X134389773Y-82576061D01*
X134412157Y-82533347D01*
X134438346Y-82477032D01*
X134470791Y-82402794D01*
X134511943Y-82306311D01*
X134523672Y-82278818D01*
X134563503Y-82187038D01*
X134602121Y-82100272D01*
X134612161Y-82078335D01*
X136239579Y-82078335D01*
X136244133Y-82083740D01*
X136271951Y-82106119D01*
X136319094Y-82138096D01*
X136381050Y-82176960D01*
X136453310Y-82220000D01*
X136531362Y-82264506D01*
X136610695Y-82307766D01*
X136686797Y-82347071D01*
X136976257Y-82503232D01*
X137290335Y-82699108D01*
X137600046Y-82919921D01*
X137601274Y-82920853D01*
X137681432Y-82980994D01*
X137702732Y-82996975D01*
X137793074Y-83062430D01*
X137877607Y-83120512D01*
X137961635Y-83174512D01*
X138050465Y-83227721D01*
X138149400Y-83283430D01*
X138263746Y-83344933D01*
X138398809Y-83415519D01*
X138400239Y-83416260D01*
X138423811Y-83428588D01*
X138486325Y-83461282D01*
X138570003Y-83505816D01*
X138645458Y-83546709D01*
X138706875Y-83580812D01*
X138748439Y-83604973D01*
X138752934Y-83607703D01*
X138799323Y-83634218D01*
X138837054Y-83652996D01*
X138858331Y-83660125D01*
X138869275Y-83662319D01*
X138893653Y-83679078D01*
X138901014Y-83695799D01*
X138911023Y-83741028D01*
X138921024Y-83809881D01*
X138930666Y-83899406D01*
X138939595Y-84006650D01*
X138947458Y-84128661D01*
X138950678Y-84185990D01*
X138957184Y-84301849D01*
X138918438Y-84347896D01*
X138903388Y-84367555D01*
X138887776Y-84398661D01*
X138878915Y-84439208D01*
X138873953Y-84498872D01*
X138868215Y-84603801D01*
X138975531Y-84697448D01*
X139003771Y-84722606D01*
X139049455Y-84767496D01*
X139074999Y-84800845D01*
X139083000Y-84825754D01*
X139082127Y-84832917D01*
X139075347Y-84850560D01*
X139068855Y-84867453D01*
X139043391Y-84914230D01*
X139010635Y-84965844D01*
X138975486Y-85014891D01*
X138942844Y-85053967D01*
X138917609Y-85075669D01*
X138898727Y-85088380D01*
X138869830Y-85117545D01*
X138847786Y-85136864D01*
X138810134Y-85138791D01*
X138763089Y-85114067D01*
X138707006Y-85062899D01*
X138642245Y-84985492D01*
X138587841Y-84914154D01*
X138547635Y-84987677D01*
X138530007Y-85018977D01*
X138506218Y-85058457D01*
X138489681Y-85082584D01*
X138480025Y-85102761D01*
X138495274Y-85120419D01*
X138527478Y-85143168D01*
X138592182Y-85189588D01*
X138637708Y-85224033D01*
X138667364Y-85249530D01*
X138684453Y-85269109D01*
X138692282Y-85285798D01*
X138694158Y-85302625D01*
X138694139Y-85303678D01*
X138689706Y-85319658D01*
X138684843Y-85337189D01*
X138660893Y-85385684D01*
X138625723Y-85442163D01*
X138607718Y-85468367D01*
X138547283Y-85551851D01*
X138497111Y-85611443D01*
X138454638Y-85648379D01*
X138417304Y-85663896D01*
X138382545Y-85659231D01*
X138347799Y-85635620D01*
X138310505Y-85594300D01*
X138285703Y-85563255D01*
X138235241Y-85502966D01*
X138198372Y-85465056D01*
X138173088Y-85448597D01*
X138157381Y-85452663D01*
X138149243Y-85476327D01*
X138146665Y-85518662D01*
X138145605Y-85537117D01*
X138140124Y-85585514D01*
X138131062Y-85647989D01*
X138119641Y-85715637D01*
X138093074Y-85862188D01*
X138170303Y-85938458D01*
X138186329Y-85954750D01*
X138228596Y-86007407D01*
X138247295Y-86055292D01*
X138244913Y-86090550D01*
X138243923Y-86105209D01*
X138219981Y-86163961D01*
X138219789Y-86164331D01*
X138182685Y-86218746D01*
X138129716Y-86275025D01*
X138068661Y-86326591D01*
X138007303Y-86366868D01*
X137953420Y-86389277D01*
X137936484Y-86391999D01*
X137916106Y-86388838D01*
X137892373Y-86374983D01*
X137859813Y-86347014D01*
X137812949Y-86301510D01*
X137787993Y-86276123D01*
X137750181Y-86234840D01*
X137724152Y-86202600D01*
X137714464Y-86184801D01*
X137714348Y-86183023D01*
X137704294Y-86180148D01*
X137680136Y-86198822D01*
X137678731Y-86200195D01*
X137651774Y-86242134D01*
X137638212Y-86303857D01*
X137638016Y-86305720D01*
X137635195Y-86340698D01*
X137637966Y-86366633D01*
X137649925Y-86390977D01*
X137674665Y-86421186D01*
X137715781Y-86464712D01*
X137740131Y-86490681D01*
X137774409Y-86531619D01*
X137790505Y-86560044D01*
X137790826Y-86572059D01*
X137791037Y-86579970D01*
X137785691Y-86590489D01*
X137761296Y-86624817D01*
X137723931Y-86669937D01*
X137679141Y-86719789D01*
X137632475Y-86768312D01*
X137589477Y-86809444D01*
X137555697Y-86837125D01*
X137506235Y-86863307D01*
X137454184Y-86871190D01*
X137411911Y-86854477D01*
X137395769Y-86840311D01*
X137358691Y-86802342D01*
X137320607Y-86757919D01*
X137286828Y-86713782D01*
X137262666Y-86676674D01*
X137253432Y-86653334D01*
X137250766Y-86637499D01*
X137241062Y-86638100D01*
X137226716Y-86657558D01*
X137210344Y-86691166D01*
X137194561Y-86734214D01*
X137181981Y-86781994D01*
X137163435Y-86871134D01*
X137237248Y-86955999D01*
X137266223Y-86991146D01*
X137299372Y-87043578D01*
X137310385Y-87089218D01*
X137308799Y-87096209D01*
X137300149Y-87134349D01*
X137269548Y-87185258D01*
X137256962Y-87201110D01*
X137219121Y-87242443D01*
X137170209Y-87290852D01*
X137117627Y-87338857D01*
X137088279Y-87364176D01*
X137045276Y-87399091D01*
X137015959Y-87418260D01*
X136995653Y-87424446D01*
X136979682Y-87420414D01*
X136977225Y-87419031D01*
X136944403Y-87393743D01*
X136903076Y-87353984D01*
X136860778Y-87307916D01*
X136825046Y-87263700D01*
X136803416Y-87229499D01*
X136803188Y-87229003D01*
X136786358Y-87202743D01*
X136771179Y-87194576D01*
X136768526Y-87196017D01*
X136754285Y-87218608D01*
X136739594Y-87262210D01*
X136726281Y-87320430D01*
X136716175Y-87386874D01*
X136713347Y-87413254D01*
X136713160Y-87444173D01*
X136721693Y-87468879D01*
X136742790Y-87496273D01*
X136780300Y-87535256D01*
X136819181Y-87577847D01*
X136842121Y-87612599D01*
X136845669Y-87637237D01*
X136843871Y-87653904D01*
X136851377Y-87665343D01*
X136858210Y-87669182D01*
X136859184Y-87672802D01*
X136863963Y-87690556D01*
X136863826Y-87692548D01*
X136849268Y-87720845D01*
X136814734Y-87756460D01*
X136765860Y-87794916D01*
X136708281Y-87831734D01*
X136647635Y-87862437D01*
X136557779Y-87901406D01*
X136566693Y-88089529D01*
X136568261Y-88122894D01*
X136572046Y-88204674D01*
X136576621Y-88304692D01*
X136581671Y-88416034D01*
X136586883Y-88531786D01*
X136591942Y-88645037D01*
X136595879Y-88731603D01*
X136600241Y-88822886D01*
X136602265Y-88862790D01*
X136602917Y-88875644D01*
X136604196Y-88900843D01*
X136607539Y-88961608D01*
X136610065Y-89001317D01*
X136611571Y-89016102D01*
X136614580Y-89016706D01*
X136640414Y-89018190D01*
X136689217Y-89019696D01*
X136756866Y-89021183D01*
X136839241Y-89022609D01*
X136932218Y-89023933D01*
X137031678Y-89025111D01*
X137133498Y-89026103D01*
X137233557Y-89026866D01*
X137327734Y-89027358D01*
X137411907Y-89027538D01*
X137481954Y-89027363D01*
X137533755Y-89026792D01*
X137563188Y-89025783D01*
X137586181Y-89024093D01*
X137739931Y-89013039D01*
X137870812Y-89004196D01*
X137983963Y-88997328D01*
X138084524Y-88992197D01*
X138177633Y-88988569D01*
X138268429Y-88986205D01*
X138362053Y-88984869D01*
X138463641Y-88984325D01*
X138802212Y-88983608D01*
X138810930Y-88832332D01*
X138814424Y-88771830D01*
X138819726Y-88680245D01*
X138825354Y-88583229D01*
X138830556Y-88493761D01*
X138832023Y-88465945D01*
X138834055Y-88304811D01*
X138824389Y-88162394D01*
X138821153Y-88129785D01*
X138816062Y-88058962D01*
X138811175Y-87969223D01*
X138806773Y-87866601D01*
X138803133Y-87757133D01*
X138800536Y-87646852D01*
X138797800Y-87496902D01*
X139061171Y-87496902D01*
X139061518Y-87536965D01*
X139063142Y-87596606D01*
X139065828Y-87671170D01*
X139069362Y-87756003D01*
X139073530Y-87846451D01*
X139078115Y-87937861D01*
X139082904Y-88025577D01*
X139087682Y-88104945D01*
X139092235Y-88171312D01*
X139096347Y-88220023D01*
X139100052Y-88261210D01*
X139103747Y-88325006D01*
X139104524Y-88391288D01*
X139102264Y-88466586D01*
X139096848Y-88557435D01*
X139088158Y-88670365D01*
X139086458Y-88691249D01*
X139079778Y-88777741D01*
X139074533Y-88853000D01*
X139070988Y-88912659D01*
X139069409Y-88952349D01*
X139070062Y-88967701D01*
X139071337Y-88968611D01*
X139094446Y-88974547D01*
X139135740Y-88979398D01*
X139185924Y-88982708D01*
X139235703Y-88984020D01*
X139275780Y-88982879D01*
X139296860Y-88978828D01*
X139305565Y-88965084D01*
X139316386Y-88925725D01*
X139325988Y-88867369D01*
X139333894Y-88795605D01*
X139339625Y-88716021D01*
X139342704Y-88634204D01*
X139342652Y-88555744D01*
X139338992Y-88486227D01*
X139336422Y-88450025D01*
X139333134Y-88374477D01*
X139330947Y-88283777D01*
X139330038Y-88186284D01*
X139330585Y-88090358D01*
X139331282Y-88034198D01*
X139332072Y-87932347D01*
X139332332Y-87831853D01*
X139332047Y-87741867D01*
X139331204Y-87671540D01*
X139328077Y-87512052D01*
X139196524Y-87494537D01*
X139165384Y-87490518D01*
X139113250Y-87484451D01*
X139076723Y-87481109D01*
X139062266Y-87481137D01*
X139061171Y-87496902D01*
X138797800Y-87496902D01*
X138793757Y-87275383D01*
X138837639Y-87231500D01*
X138847467Y-87221786D01*
X138870164Y-87202790D01*
X138893353Y-87193853D01*
X138926416Y-87192681D01*
X138978736Y-87196976D01*
X139026386Y-87202099D01*
X139095705Y-87210900D01*
X139154234Y-87219730D01*
X139172432Y-87222368D01*
X139231307Y-87227875D01*
X139302558Y-87231696D01*
X139374600Y-87233126D01*
X139419692Y-87232865D01*
X139466485Y-87233312D01*
X139503445Y-87237241D01*
X139531807Y-87247463D01*
X139552804Y-87266790D01*
X139567670Y-87298034D01*
X139577638Y-87344007D01*
X139583942Y-87407520D01*
X139587814Y-87491384D01*
X139590489Y-87598411D01*
X139593200Y-87731414D01*
X139595436Y-87838013D01*
X139599382Y-88039836D01*
X139602363Y-88215602D01*
X139604386Y-88367162D01*
X139605456Y-88496370D01*
X139605579Y-88605078D01*
X139605314Y-88634204D01*
X139604760Y-88695138D01*
X139603006Y-88768402D01*
X139600322Y-88826722D01*
X139596714Y-88871952D01*
X139584409Y-88990811D01*
X139740786Y-88990960D01*
X139787742Y-88991526D01*
X139881374Y-88994585D01*
X139979988Y-88999692D01*
X140068713Y-89006157D01*
X140078284Y-89006988D01*
X140154746Y-89012655D01*
X140206574Y-89014195D01*
X140237288Y-89011582D01*
X140250407Y-89004789D01*
X140251072Y-89003432D01*
X140257108Y-88979310D01*
X140263713Y-88943110D01*
X140540687Y-88943110D01*
X140541723Y-88963183D01*
X140545868Y-88973571D01*
X140553016Y-88977292D01*
X140563062Y-88977367D01*
X140575900Y-88976815D01*
X140585218Y-88977325D01*
X140624276Y-88981581D01*
X140682837Y-88989437D01*
X140754693Y-89000032D01*
X140833636Y-89012508D01*
X140868735Y-89018273D01*
X140944789Y-89031005D01*
X141010671Y-89042351D01*
X141060288Y-89051253D01*
X141087546Y-89056651D01*
X141125347Y-89065512D01*
X141134141Y-88808451D01*
X141135732Y-88762742D01*
X141139675Y-88654270D01*
X141143945Y-88542034D01*
X141148124Y-88436888D01*
X141151795Y-88349688D01*
X141154871Y-88248885D01*
X141153852Y-88164497D01*
X141148199Y-88090682D01*
X141137519Y-88018321D01*
X141119825Y-87896583D01*
X141107710Y-87755677D01*
X141103624Y-87616405D01*
X141107796Y-87487375D01*
X141120456Y-87377198D01*
X141126414Y-87343406D01*
X141137117Y-87285363D01*
X141146006Y-87240437D01*
X141151601Y-87216279D01*
X141151549Y-87199838D01*
X141129892Y-87182988D01*
X141117760Y-87175384D01*
X141088680Y-87147999D01*
X141051201Y-87106311D01*
X141010430Y-87055763D01*
X140988111Y-87027894D01*
X140936560Y-86968170D01*
X140873435Y-86899024D01*
X140804717Y-86826946D01*
X140736387Y-86758424D01*
X140552694Y-86579072D01*
X140552787Y-86650370D01*
X140553226Y-86684380D01*
X140555706Y-86762303D01*
X140560077Y-86860079D01*
X140566001Y-86972108D01*
X140573141Y-87092792D01*
X140581158Y-87216531D01*
X140589714Y-87337725D01*
X140598473Y-87450776D01*
X140607094Y-87550085D01*
X140622769Y-87752376D01*
X140630541Y-87960971D01*
X140627849Y-88159076D01*
X140614550Y-88355385D01*
X140590500Y-88558594D01*
X140585823Y-88591797D01*
X140569736Y-88705584D01*
X140557283Y-88794589D01*
X140548361Y-88861833D01*
X140542864Y-88910333D01*
X140540687Y-88943110D01*
X140263713Y-88943110D01*
X140265817Y-88931577D01*
X140276606Y-88864567D01*
X140288884Y-88782608D01*
X140302057Y-88690031D01*
X140315534Y-88591168D01*
X140328722Y-88490349D01*
X140341030Y-88391905D01*
X140351864Y-88300166D01*
X140360632Y-88219463D01*
X140366743Y-88154127D01*
X140371946Y-88075974D01*
X140373725Y-87958885D01*
X140366334Y-87859841D01*
X140358102Y-87792557D01*
X140340773Y-87620532D01*
X140325752Y-87427117D01*
X140313359Y-87217434D01*
X140303918Y-86996606D01*
X140297751Y-86769755D01*
X140289186Y-86327996D01*
X140135548Y-86171854D01*
X140086686Y-86120962D01*
X140015934Y-86044584D01*
X139938728Y-85958960D01*
X139861517Y-85871259D01*
X139790755Y-85788652D01*
X139767480Y-85761056D01*
X139681067Y-85659837D01*
X139606486Y-85575062D01*
X139538996Y-85501681D01*
X139473858Y-85434642D01*
X139406332Y-85368893D01*
X139331679Y-85299382D01*
X139325141Y-85293390D01*
X139279243Y-85250361D01*
X139250495Y-85219625D01*
X139234906Y-85195105D01*
X139228481Y-85170720D01*
X139227226Y-85140394D01*
X139227694Y-85127728D01*
X139539630Y-85127728D01*
X139668984Y-85254760D01*
X139716828Y-85303661D01*
X139780112Y-85371603D01*
X139850658Y-85449845D01*
X139922853Y-85532156D01*
X139991087Y-85612309D01*
X140013728Y-85639247D01*
X140150538Y-85796149D01*
X140283725Y-85939044D01*
X140409754Y-86064248D01*
X140525085Y-86168081D01*
X140532848Y-86174571D01*
X140570515Y-86205347D01*
X140626103Y-86250139D01*
X140696035Y-86306087D01*
X140776730Y-86370333D01*
X140864611Y-86440021D01*
X140956098Y-86512290D01*
X141081617Y-86611675D01*
X141219056Y-86721837D01*
X141339196Y-86819932D01*
X141445322Y-86908714D01*
X141540720Y-86990941D01*
X141628677Y-87069369D01*
X141712479Y-87146754D01*
X141742391Y-87174620D01*
X141804697Y-87231588D01*
X141865682Y-87286172D01*
X141915602Y-87329601D01*
X141921816Y-87334863D01*
X141964785Y-87369748D01*
X141992598Y-87387842D01*
X142010479Y-87391790D01*
X142023656Y-87384233D01*
X142026265Y-87381883D01*
X142052252Y-87363418D01*
X142094310Y-87337166D01*
X142144697Y-87308003D01*
X142217064Y-87267171D01*
X142302026Y-87218332D01*
X142388982Y-87167573D01*
X142473423Y-87117583D01*
X142550840Y-87071054D01*
X142616724Y-87030675D01*
X142666565Y-86999137D01*
X142695856Y-86979131D01*
X142712714Y-86965067D01*
X142729259Y-86942644D01*
X142728453Y-86919488D01*
X142708398Y-86892172D01*
X142667198Y-86857273D01*
X142602957Y-86811364D01*
X142592634Y-86804245D01*
X142430531Y-86687002D01*
X142290753Y-86574091D01*
X142168527Y-86461118D01*
X142059078Y-86343690D01*
X141957634Y-86217414D01*
X141929575Y-86181124D01*
X141872077Y-86110553D01*
X141802414Y-86028247D01*
X141724924Y-85939071D01*
X141643947Y-85847892D01*
X141563822Y-85759579D01*
X141488888Y-85678997D01*
X141423485Y-85611013D01*
X141371950Y-85560495D01*
X141351385Y-85540036D01*
X141326138Y-85509819D01*
X141316279Y-85490142D01*
X141316237Y-85489404D01*
X141305551Y-85467785D01*
X141278380Y-85429772D01*
X141238182Y-85379301D01*
X141188412Y-85320311D01*
X141132527Y-85256737D01*
X141073984Y-85192517D01*
X141016238Y-85131587D01*
X140962747Y-85077883D01*
X140916968Y-85035344D01*
X140881129Y-85005474D01*
X140806324Y-84948596D01*
X140725261Y-84892158D01*
X140650128Y-84844862D01*
X140598547Y-84813696D01*
X140533411Y-84771772D01*
X140476953Y-84732720D01*
X140437436Y-84702087D01*
X140406810Y-84676337D01*
X140350330Y-84631326D01*
X140296352Y-84590693D01*
X140293307Y-84588488D01*
X140258907Y-84563616D01*
X140234038Y-84549908D01*
X140212414Y-84548878D01*
X140187752Y-84562041D01*
X140153768Y-84590911D01*
X140104175Y-84637001D01*
X140080203Y-84657617D01*
X140033404Y-84694635D01*
X139975917Y-84737839D01*
X139915175Y-84781546D01*
X139825854Y-84846020D01*
X139731682Y-84918781D01*
X139655611Y-84983426D01*
X139599979Y-85037949D01*
X139567121Y-85080346D01*
X139539630Y-85127728D01*
X139227694Y-85127728D01*
X139228141Y-85115651D01*
X139238414Y-85074961D01*
X139264201Y-85042323D01*
X139278695Y-85026752D01*
X139310079Y-84984984D01*
X139339123Y-84937867D01*
X139364340Y-84900252D01*
X139422108Y-84836398D01*
X139505260Y-84760686D01*
X139613433Y-84673440D01*
X139746262Y-84574986D01*
X139787914Y-84544604D01*
X140675156Y-84544604D01*
X140798334Y-84617424D01*
X140827052Y-84634542D01*
X140885739Y-84670320D01*
X140936655Y-84702336D01*
X140971221Y-84725243D01*
X140983984Y-84735099D01*
X141020492Y-84766498D01*
X141069888Y-84811402D01*
X141127328Y-84865369D01*
X141187968Y-84923958D01*
X141355006Y-85087676D01*
X141364457Y-84911911D01*
X141367643Y-84841702D01*
X141371057Y-84723324D01*
X141372823Y-84595779D01*
X141372987Y-84465392D01*
X141371591Y-84338488D01*
X141368678Y-84221391D01*
X141364292Y-84120426D01*
X141358477Y-84041917D01*
X141357364Y-84029870D01*
X141353159Y-83971149D01*
X141348606Y-83890125D01*
X141343933Y-83791849D01*
X141339369Y-83681371D01*
X141335140Y-83563743D01*
X141331476Y-83444016D01*
X141329144Y-83363001D01*
X141325183Y-83242584D01*
X141321097Y-83144775D01*
X141316600Y-83065632D01*
X141311405Y-83001215D01*
X141305225Y-82947584D01*
X141297774Y-82900799D01*
X141288765Y-82856920D01*
X141267122Y-82760845D01*
X141245663Y-82663767D01*
X141229368Y-82586032D01*
X141217526Y-82522813D01*
X141209425Y-82469280D01*
X141204356Y-82420603D01*
X141201606Y-82371953D01*
X141200466Y-82318501D01*
X141200225Y-82255417D01*
X141200687Y-82214787D01*
X141204187Y-82118012D01*
X141210562Y-82008622D01*
X141219145Y-81897214D01*
X141229269Y-81794385D01*
X141237572Y-81719156D01*
X141245912Y-81640580D01*
X141252537Y-81574779D01*
X141256917Y-81527038D01*
X141258524Y-81502638D01*
X141258527Y-81501311D01*
X141257308Y-81488383D01*
X141250543Y-81479632D01*
X141233580Y-81474223D01*
X141201764Y-81471320D01*
X141150441Y-81470088D01*
X141074957Y-81469692D01*
X141002518Y-81468221D01*
X140920349Y-81463974D01*
X140846839Y-81457657D01*
X140792062Y-81449972D01*
X140692858Y-81430781D01*
X140701576Y-81533910D01*
X140707410Y-81588094D01*
X140718834Y-81667817D01*
X140731865Y-81739587D01*
X140733272Y-81746588D01*
X140738245Y-81778064D01*
X140742382Y-81817790D01*
X140745752Y-81868336D01*
X140748426Y-81932271D01*
X140750475Y-82012168D01*
X140751969Y-82110596D01*
X140752978Y-82230126D01*
X140753491Y-82353872D01*
X140753572Y-82373328D01*
X140753821Y-82542773D01*
X140753830Y-82566813D01*
X140753451Y-82785379D01*
X140752116Y-82980386D01*
X140749667Y-83156588D01*
X140745947Y-83318738D01*
X140740798Y-83471593D01*
X140734062Y-83619906D01*
X140725584Y-83768432D01*
X140715204Y-83921925D01*
X140702767Y-84085139D01*
X140702538Y-84088004D01*
X140695240Y-84182619D01*
X140688668Y-84273187D01*
X140683240Y-84353542D01*
X140679371Y-84417517D01*
X140677481Y-84458944D01*
X140675156Y-84544604D01*
X139787914Y-84544604D01*
X139793986Y-84540175D01*
X139879100Y-84474563D01*
X139949536Y-84415347D01*
X140002860Y-84364754D01*
X140036640Y-84325013D01*
X140048440Y-84298351D01*
X140057784Y-84271871D01*
X140084842Y-84237568D01*
X140121168Y-84206467D01*
X140158193Y-84187242D01*
X140177342Y-84183718D01*
X140218760Y-84190996D01*
X140266442Y-84219393D01*
X140324335Y-84270897D01*
X140358501Y-84303130D01*
X140388067Y-84327819D01*
X140404206Y-84337266D01*
X140406872Y-84332081D01*
X140412589Y-84302813D01*
X140419570Y-84251215D01*
X140427348Y-84181273D01*
X140435455Y-84096972D01*
X140443427Y-84002298D01*
X140446319Y-83962810D01*
X140452378Y-83861954D01*
X140458064Y-83743275D01*
X140463339Y-83609685D01*
X140468165Y-83464100D01*
X140472502Y-83309432D01*
X140476313Y-83148595D01*
X140479558Y-82984505D01*
X140482200Y-82820073D01*
X140484200Y-82658215D01*
X140485519Y-82501843D01*
X140486118Y-82353872D01*
X140485960Y-82217216D01*
X140485006Y-82094788D01*
X140483217Y-81989503D01*
X140480555Y-81904273D01*
X140476981Y-81842014D01*
X140472457Y-81805638D01*
X140466168Y-81773611D01*
X140455685Y-81707672D01*
X140445523Y-81630910D01*
X140437200Y-81554165D01*
X140431512Y-81495841D01*
X140425791Y-81441492D01*
X140421363Y-81404155D01*
X140418880Y-81389671D01*
X140416782Y-81389188D01*
X140393385Y-81386403D01*
X140348320Y-81381945D01*
X140286822Y-81376315D01*
X140214124Y-81370015D01*
X140153347Y-81364795D01*
X139985986Y-81349658D01*
X139811533Y-81332897D01*
X139635958Y-81315141D01*
X139465233Y-81297018D01*
X139305329Y-81279156D01*
X139162217Y-81262183D01*
X139041868Y-81246727D01*
X138952106Y-81234505D01*
X138868934Y-81223354D01*
X138808597Y-81216103D01*
X138767962Y-81212962D01*
X138743895Y-81214142D01*
X138733263Y-81219853D01*
X138732932Y-81230305D01*
X138739770Y-81245709D01*
X138750641Y-81266274D01*
X138759096Y-81281777D01*
X138785395Y-81326201D01*
X138822724Y-81386692D01*
X138867805Y-81458152D01*
X138917363Y-81535484D01*
X138968120Y-81613590D01*
X139016799Y-81687375D01*
X139060122Y-81751740D01*
X139094812Y-81801589D01*
X139114864Y-81830090D01*
X139142527Y-81872383D01*
X139166750Y-81915004D01*
X139189474Y-81962501D01*
X139212640Y-82019423D01*
X139238190Y-82090319D01*
X139268066Y-82179739D01*
X139304208Y-82292230D01*
X139345439Y-82423786D01*
X139387445Y-82563870D01*
X139422303Y-82688722D01*
X139451709Y-82804757D01*
X139477359Y-82918386D01*
X139500950Y-83036022D01*
X139512801Y-83102147D01*
X139515203Y-83121728D01*
X139520455Y-83164531D01*
X139519049Y-83210695D01*
X139507359Y-83247168D01*
X139484158Y-83280483D01*
X139448223Y-83317170D01*
X139427062Y-83334243D01*
X139370123Y-83368403D01*
X139297038Y-83403128D01*
X139215735Y-83435394D01*
X139134145Y-83462182D01*
X139060197Y-83480470D01*
X139001822Y-83487238D01*
X138990853Y-83486937D01*
X138928900Y-83473500D01*
X138865889Y-83438960D01*
X138799922Y-83381722D01*
X138729102Y-83300191D01*
X138651530Y-83192770D01*
X138640335Y-83175888D01*
X138599884Y-83110845D01*
X138562518Y-83045334D01*
X138535123Y-82991273D01*
X138530166Y-82980674D01*
X138504401Y-82929919D01*
X138468824Y-82863989D01*
X138427464Y-82790242D01*
X138384351Y-82716032D01*
X138381068Y-82710485D01*
X138331627Y-82626079D01*
X138278565Y-82534151D01*
X138228043Y-82445437D01*
X138186219Y-82370675D01*
X138157878Y-82320577D01*
X138104986Y-82231196D01*
X138048937Y-82140351D01*
X137997940Y-82061522D01*
X137986203Y-82043837D01*
X137905962Y-81912982D01*
X137835727Y-81778043D01*
X137771532Y-81630795D01*
X137709415Y-81463018D01*
X137707393Y-81457166D01*
X137679863Y-81378929D01*
X137652195Y-81302547D01*
X137627505Y-81236503D01*
X137608908Y-81189280D01*
X137598782Y-81164089D01*
X137589245Y-81142787D01*
X137583244Y-81133887D01*
X137875288Y-81133887D01*
X137878833Y-81147337D01*
X137883181Y-81158950D01*
X137896703Y-81196068D01*
X137916771Y-81251712D01*
X137941490Y-81320621D01*
X137968965Y-81397540D01*
X138001968Y-81488945D01*
X138034329Y-81573980D01*
X138064108Y-81644616D01*
X138094697Y-81707793D01*
X138129488Y-81770452D01*
X138171872Y-81839531D01*
X138225240Y-81921970D01*
X138264646Y-81983395D01*
X138318595Y-82070699D01*
X138370758Y-82158159D01*
X138413895Y-82233806D01*
X138417332Y-82240036D01*
X138458471Y-82313438D01*
X138507965Y-82400171D01*
X138559892Y-82489922D01*
X138608329Y-82572377D01*
X138616860Y-82586819D01*
X138662922Y-82666651D01*
X138708529Y-82748386D01*
X138748821Y-82823195D01*
X138778938Y-82882251D01*
X138785219Y-82894923D01*
X138824935Y-82967671D01*
X138870750Y-83042679D01*
X138913965Y-83105564D01*
X138920586Y-83114286D01*
X138961114Y-83162975D01*
X138995165Y-83196021D01*
X139018321Y-83209040D01*
X139047033Y-83206942D01*
X139092180Y-83195838D01*
X139142185Y-83178516D01*
X139188832Y-83158225D01*
X139223904Y-83138213D01*
X139239186Y-83121728D01*
X139238615Y-83093445D01*
X139230627Y-83040910D01*
X139216046Y-82969053D01*
X139195846Y-82882073D01*
X139171006Y-82784169D01*
X139142503Y-82679537D01*
X139111314Y-82572377D01*
X139091245Y-82505680D01*
X139056391Y-82390585D01*
X139027035Y-82296490D01*
X139001233Y-82219022D01*
X138977040Y-82153804D01*
X138952512Y-82096464D01*
X138925704Y-82042627D01*
X138894671Y-81987918D01*
X138857470Y-81927964D01*
X138812156Y-81858389D01*
X138756784Y-81774820D01*
X138727898Y-81731029D01*
X138668378Y-81639361D01*
X138611439Y-81549897D01*
X138560473Y-81468052D01*
X138518870Y-81399241D01*
X138490023Y-81348881D01*
X138468765Y-81310361D01*
X138439220Y-81259052D01*
X138415626Y-81220712D01*
X138401734Y-81201596D01*
X138389495Y-81195152D01*
X138350924Y-81183751D01*
X138293171Y-81171158D01*
X138221931Y-81158369D01*
X138142901Y-81146378D01*
X138061777Y-81136177D01*
X137984256Y-81128760D01*
X137942328Y-81125684D01*
X137901816Y-81123981D01*
X137881209Y-81126408D01*
X137875288Y-81133887D01*
X137583244Y-81133887D01*
X137577776Y-81125778D01*
X137561395Y-81112367D01*
X137537124Y-81101857D01*
X137501981Y-81093551D01*
X137452989Y-81086753D01*
X137387167Y-81080766D01*
X137301537Y-81074895D01*
X137193119Y-81068441D01*
X137058934Y-81060710D01*
X136963697Y-81055106D01*
X136858349Y-81048749D01*
X136761667Y-81042752D01*
X136678676Y-81037433D01*
X136614402Y-81033108D01*
X136573871Y-81030096D01*
X136477805Y-81022085D01*
X136498156Y-81089707D01*
X136498381Y-81090461D01*
X136511201Y-81148348D01*
X136523535Y-81233521D01*
X136535225Y-81344479D01*
X136546114Y-81479721D01*
X136556041Y-81637746D01*
X136556494Y-81645952D01*
X136559928Y-81722199D01*
X136560010Y-81748866D01*
X136560103Y-81778867D01*
X136556374Y-81824318D01*
X136548093Y-81866912D01*
X136534615Y-81915011D01*
X136516397Y-81968264D01*
X136489156Y-82019108D01*
X136453227Y-82049519D01*
X136402227Y-82064267D01*
X136329775Y-82068123D01*
X136328236Y-82068124D01*
X136281233Y-82069574D01*
X136249409Y-82073235D01*
X136239579Y-82078335D01*
X134612161Y-82078335D01*
X134637065Y-82023919D01*
X134665877Y-81963379D01*
X134686095Y-81924050D01*
X134721397Y-81867737D01*
X134773306Y-81794858D01*
X134834229Y-81715862D01*
X134873518Y-81668173D01*
X135678082Y-81668173D01*
X135680711Y-81700248D01*
X135687659Y-81719808D01*
X135698854Y-81730305D01*
X135701452Y-81731475D01*
X135731525Y-81737824D01*
X135779744Y-81742321D01*
X135836971Y-81744055D01*
X135876486Y-81745302D01*
X135951544Y-81751164D01*
X136035084Y-81760729D01*
X136115258Y-81772774D01*
X136178116Y-81783614D01*
X136232043Y-81792875D01*
X136268891Y-81799157D01*
X136283002Y-81801493D01*
X136291194Y-81788945D01*
X136294852Y-81748866D01*
X136293552Y-81682069D01*
X136287276Y-81589406D01*
X136279746Y-81500230D01*
X136268833Y-81378774D01*
X136258777Y-81281567D01*
X136248906Y-81205839D01*
X136238549Y-81148817D01*
X136227034Y-81107730D01*
X136213690Y-81079806D01*
X136197846Y-81062273D01*
X136178830Y-81052360D01*
X136155972Y-81047295D01*
X136121390Y-81042362D01*
X136011478Y-81026626D01*
X135925985Y-81014261D01*
X135861671Y-81004776D01*
X135815300Y-80997677D01*
X135783635Y-80992473D01*
X135763439Y-80988671D01*
X135751475Y-80985779D01*
X135742867Y-80984354D01*
X135734046Y-80989888D01*
X135729030Y-81009067D01*
X135726781Y-81046944D01*
X135726621Y-81065912D01*
X135726262Y-81108574D01*
X135725779Y-81140213D01*
X135721838Y-81222318D01*
X135714788Y-81311748D01*
X135705669Y-81394088D01*
X135696801Y-81462350D01*
X135686057Y-81552676D01*
X135679840Y-81620133D01*
X135678082Y-81668173D01*
X134873518Y-81668173D01*
X134898298Y-81638096D01*
X134959644Y-81568904D01*
X135012398Y-81515631D01*
X135022943Y-81506145D01*
X135063287Y-81476018D01*
X135103085Y-81459885D01*
X135147242Y-81458139D01*
X135200666Y-81471177D01*
X135268264Y-81499391D01*
X135354941Y-81543177D01*
X135408634Y-81571548D01*
X135415474Y-81538894D01*
X135419101Y-81517891D01*
X135426038Y-81469122D01*
X135434485Y-81403438D01*
X135443607Y-81327634D01*
X135452566Y-81248503D01*
X135460528Y-81172839D01*
X135463013Y-81136187D01*
X135463474Y-81065912D01*
X135459300Y-81003554D01*
X135458624Y-80998150D01*
X135452221Y-80954739D01*
X135443727Y-80932333D01*
X135428053Y-80923985D01*
X135400110Y-80922746D01*
X135381735Y-80922030D01*
X135332848Y-80918443D01*
X135262129Y-80912229D01*
X135173658Y-80903823D01*
X135071518Y-80893663D01*
X134959790Y-80882187D01*
X134842553Y-80869830D01*
X134723891Y-80857030D01*
X134607884Y-80844224D01*
X134498613Y-80831849D01*
X134400160Y-80820341D01*
X134316605Y-80810137D01*
X134252031Y-80801675D01*
X134210517Y-80795391D01*
X134187162Y-80791959D01*
X134158247Y-80790734D01*
X134150137Y-80795458D01*
X134151033Y-80797071D01*
X134148144Y-80805409D01*
X134126236Y-80805941D01*
X134083240Y-80798312D01*
X134017086Y-80782170D01*
X133925702Y-80757160D01*
X133914717Y-80754072D01*
X133848829Y-80736150D01*
X133794475Y-80722363D01*
X133757030Y-80714020D01*
X133741872Y-80712430D01*
X133741692Y-80713126D01*
X133748015Y-80730832D01*
X133765380Y-80768097D01*
X133791406Y-80820000D01*
X133823712Y-80881617D01*
X133825785Y-80885498D01*
X133867265Y-80964235D01*
X133915294Y-81056957D01*
X133964084Y-81152419D01*
X134007848Y-81239375D01*
X134035031Y-81294464D01*
X134065424Y-81358909D01*
X134085603Y-81407527D01*
X134097581Y-81446049D01*
X134103248Y-81479465D01*
X134103374Y-81480208D01*
X134104996Y-81515735D01*
X134104825Y-81540183D01*
X134100579Y-81582223D01*
X134087711Y-81612598D01*
X134062223Y-81643220D01*
X134041409Y-81661222D01*
X133996251Y-81692933D01*
X133938259Y-81728826D01*
X133874929Y-81764064D01*
X133837694Y-81783777D01*
X133757826Y-81826958D01*
X133678185Y-81870986D01*
X133611482Y-81908873D01*
X133546336Y-81944323D01*
X133473849Y-81975005D01*
X133415438Y-81986653D01*
X133367334Y-81979880D01*
X133325768Y-81955297D01*
X133320128Y-81949885D01*
X133294366Y-81917288D01*
X133260515Y-81866561D01*
X133222325Y-81803536D01*
X133183544Y-81734044D01*
X133178802Y-81725179D01*
X133139148Y-81651544D01*
X133090074Y-81561053D01*
X133035551Y-81460992D01*
X132979547Y-81358651D01*
X132926033Y-81261316D01*
X132915985Y-81242996D01*
X132864297Y-81145946D01*
X132813472Y-81046329D01*
X132766890Y-80951028D01*
X132727931Y-80866928D01*
X132699976Y-80800912D01*
X132632787Y-80628652D01*
X132480983Y-80604426D01*
X132444001Y-80598713D01*
X132363194Y-80587231D01*
X132285360Y-80577304D01*
X132223211Y-80570600D01*
X132193463Y-80567796D01*
X132128304Y-80561328D01*
X132046848Y-80552983D01*
X131956613Y-80543536D01*
X131865116Y-80533760D01*
X131818111Y-80528753D01*
X131715190Y-80518184D01*
X131611305Y-80507965D01*
X131516320Y-80499057D01*
X131440102Y-80492420D01*
X131383624Y-80486859D01*
X131294793Y-80475222D01*
X131209612Y-80461130D01*
X131140646Y-80446510D01*
X131112532Y-80439708D01*
X131060281Y-80428635D01*
X131022365Y-80422764D01*
X131005523Y-80423254D01*
X131004933Y-80425581D01*
X131006328Y-80449964D01*
X131012104Y-80497013D01*
X131021647Y-80562443D01*
X131034345Y-80641969D01*
X131049583Y-80731304D01*
X131053738Y-80755001D01*
X131075160Y-80879592D01*
X131092213Y-80985282D01*
X131105633Y-81078886D01*
X131116160Y-81167219D01*
X131124530Y-81257096D01*
X131131482Y-81355331D01*
X131137753Y-81468741D01*
X131144082Y-81604138D01*
X131151795Y-81763135D01*
X131167230Y-82030536D01*
X131186992Y-82325397D01*
X131211115Y-82648227D01*
X131219288Y-82752892D01*
X131293677Y-82685766D01*
X131349005Y-82639835D01*
X131411128Y-82601892D01*
X131469585Y-82584477D01*
X131530307Y-82585066D01*
X131543846Y-82587162D01*
X131588587Y-82597102D01*
X131620208Y-82608403D01*
X131638473Y-82623999D01*
X131670351Y-82663053D01*
X131709373Y-82719377D01*
X131752441Y-82788201D01*
X131796457Y-82864754D01*
X131838322Y-82944265D01*
X131843718Y-82954980D01*
X131880143Y-83025210D01*
X131919192Y-83097715D01*
X131953288Y-83158385D01*
X131955956Y-83163003D01*
X131993494Y-83239609D01*
X131995897Y-83249337D01*
X132008802Y-83301576D01*
X132002154Y-83352067D01*
X131973826Y-83394246D01*
X131970536Y-83397478D01*
X131943337Y-83420275D01*
X131924735Y-83429609D01*
X131924247Y-83429652D01*
X131905323Y-83438864D01*
X131865108Y-83463183D01*
X131805724Y-83501230D01*
X131729290Y-83551627D01*
X131637925Y-83612993D01*
X131533749Y-83683952D01*
X131531827Y-83685265D01*
X131485320Y-83715688D01*
X131426660Y-83752341D01*
X131368066Y-83787580D01*
X131336083Y-83807314D01*
X131272115Y-83850060D01*
X131202515Y-83899609D01*
X131137550Y-83948779D01*
X131007884Y-84050778D01*
X130997771Y-84269660D01*
X130996216Y-84304970D01*
X130991297Y-84441288D01*
X130987023Y-84598020D01*
X130983422Y-84770692D01*
X130980519Y-84954831D01*
X130978343Y-85145962D01*
X130976918Y-85339612D01*
X130976273Y-85531306D01*
X130704892Y-85531306D01*
X130704316Y-85481575D01*
X130702676Y-85307427D01*
X130701901Y-85157059D01*
X130702032Y-85027014D01*
X130703112Y-84913833D01*
X130705183Y-84814058D01*
X130708290Y-84724230D01*
X130712473Y-84640892D01*
X130717776Y-84560584D01*
X130719062Y-84542952D01*
X130725049Y-84456756D01*
X130729775Y-84381714D01*
X130732998Y-84322220D01*
X130734475Y-84282667D01*
X130733963Y-84267448D01*
X130725167Y-84269874D01*
X130698436Y-84284798D01*
X130661000Y-84309215D01*
X130658211Y-84311111D01*
X130608890Y-84340646D01*
X130546377Y-84373123D01*
X130483499Y-84401848D01*
X130474924Y-84405468D01*
X130415618Y-84431894D01*
X130361568Y-84458064D01*
X130323539Y-84478798D01*
X130273114Y-84509879D01*
X130248763Y-84787356D01*
X130240859Y-84887707D01*
X130232726Y-85010609D01*
X130225275Y-85142028D01*
X130219091Y-85271609D01*
X130214759Y-85388996D01*
X130212732Y-85457313D01*
X130210608Y-85539790D01*
X130209824Y-85608454D01*
X129944219Y-85608454D01*
X129944205Y-85607125D01*
X129944445Y-85504254D01*
X129945540Y-85412377D01*
X129948231Y-85302065D01*
X129952149Y-85194338D01*
X129956968Y-85097939D01*
X129962364Y-85021611D01*
X129968794Y-84947109D01*
X129976179Y-84858542D01*
X129982782Y-84776414D01*
X129987694Y-84711855D01*
X129996545Y-84589393D01*
X129925924Y-84655035D01*
X129881095Y-84693589D01*
X129821769Y-84739451D01*
X129756253Y-84786380D01*
X129690277Y-84830551D01*
X129629568Y-84868138D01*
X129579854Y-84895313D01*
X129546861Y-84908251D01*
X129544045Y-84908799D01*
X129501259Y-84912288D01*
X129461594Y-84904081D01*
X129422481Y-84881783D01*
X129381352Y-84843000D01*
X129335638Y-84785338D01*
X129282769Y-84706403D01*
X129220178Y-84603801D01*
X129192113Y-84557396D01*
X129149003Y-84488910D01*
X129108136Y-84426840D01*
X129075536Y-84380488D01*
X129046635Y-84337523D01*
X129020632Y-84289544D01*
X129015856Y-84276420D01*
X129334437Y-84276420D01*
X129432719Y-84440087D01*
X129440719Y-84453361D01*
X129477165Y-84512581D01*
X129508223Y-84561079D01*
X129530818Y-84594151D01*
X129541875Y-84607094D01*
X129556323Y-84601657D01*
X129588009Y-84581231D01*
X129631021Y-84549758D01*
X129679985Y-84511453D01*
X129729526Y-84470531D01*
X129774270Y-84431209D01*
X129808842Y-84397702D01*
X129861212Y-84349517D01*
X129931194Y-84294952D01*
X130009341Y-84240713D01*
X130086621Y-84193063D01*
X130154006Y-84158267D01*
X130194352Y-84141516D01*
X130256063Y-84117500D01*
X130328416Y-84090435D01*
X130402810Y-84063594D01*
X130433415Y-84052702D01*
X130518214Y-84021154D01*
X130590139Y-83991173D01*
X130655057Y-83959463D01*
X130718836Y-83922726D01*
X130787343Y-83877666D01*
X130866445Y-83820987D01*
X130962008Y-83749392D01*
X131036673Y-83693800D01*
X131112379Y-83639309D01*
X131181607Y-83591270D01*
X131238941Y-83553439D01*
X131278968Y-83529570D01*
X131322500Y-83504943D01*
X131389164Y-83463089D01*
X131447306Y-83422377D01*
X131486078Y-83393842D01*
X131550350Y-83348816D01*
X131609387Y-83309689D01*
X131610215Y-83309163D01*
X131651561Y-83281821D01*
X131681008Y-83260343D01*
X131692229Y-83249337D01*
X131689321Y-83239883D01*
X131675357Y-83208616D01*
X131652685Y-83162365D01*
X131624472Y-83107276D01*
X131593885Y-83049498D01*
X131564091Y-82995178D01*
X131538257Y-82950462D01*
X131488313Y-82867514D01*
X131463529Y-82889337D01*
X131392171Y-82952170D01*
X131361747Y-82978605D01*
X131253896Y-83067332D01*
X131143397Y-83151358D01*
X131035906Y-83226666D01*
X130937081Y-83289242D01*
X130852579Y-83335072D01*
X130832227Y-83344977D01*
X130752642Y-83385841D01*
X130669315Y-83431214D01*
X130597277Y-83472977D01*
X130564031Y-83492992D01*
X130465721Y-83549501D01*
X130375899Y-83595856D01*
X130283417Y-83637554D01*
X130177122Y-83680092D01*
X130090387Y-83716092D01*
X130011011Y-83755866D01*
X129932240Y-83803547D01*
X129847128Y-83863339D01*
X129748730Y-83939446D01*
X129714443Y-83966264D01*
X129655355Y-84010365D01*
X129601535Y-84048179D01*
X129561436Y-84073648D01*
X129559755Y-84074615D01*
X129515488Y-84105101D01*
X129463531Y-84147829D01*
X129414780Y-84193866D01*
X129334437Y-84276420D01*
X129015856Y-84276420D01*
X129007170Y-84252548D01*
X129005425Y-84219608D01*
X129023020Y-84162821D01*
X129064425Y-84112657D01*
X129126441Y-84073908D01*
X129152180Y-84060263D01*
X129203555Y-84023746D01*
X129247976Y-83981915D01*
X129288336Y-83942845D01*
X129342975Y-83898925D01*
X129399252Y-83860509D01*
X129401331Y-83859233D01*
X129451265Y-83826576D01*
X129515306Y-83781985D01*
X129585427Y-83731162D01*
X129653602Y-83679811D01*
X129716841Y-83633311D01*
X129800409Y-83577083D01*
X129885195Y-83524855D01*
X129965246Y-83480099D01*
X130034609Y-83446284D01*
X130087332Y-83426883D01*
X130099449Y-83421256D01*
X130115157Y-83402101D01*
X130130401Y-83365285D01*
X130147857Y-83305441D01*
X130162154Y-83249636D01*
X130179888Y-83170997D01*
X130193813Y-83093305D01*
X130204248Y-83012315D01*
X130211513Y-82923781D01*
X130215927Y-82823458D01*
X130217809Y-82707100D01*
X130217478Y-82570462D01*
X130215254Y-82409298D01*
X130214184Y-82354070D01*
X130211212Y-82235425D01*
X130207526Y-82122758D01*
X130203325Y-82020634D01*
X130198810Y-81933621D01*
X130194179Y-81866287D01*
X130189633Y-81823199D01*
X130187963Y-81810530D01*
X130183144Y-81751588D01*
X130179213Y-81665041D01*
X130176164Y-81550647D01*
X130174633Y-81450105D01*
X130351530Y-81450105D01*
X130352009Y-81516259D01*
X130353300Y-81571473D01*
X130355458Y-81618919D01*
X130358539Y-81661763D01*
X130362599Y-81703177D01*
X130367693Y-81746328D01*
X130373878Y-81794385D01*
X130381502Y-81871906D01*
X130387745Y-81977482D01*
X130392612Y-82111287D01*
X130396109Y-82273506D01*
X130398244Y-82464322D01*
X130398761Y-82544086D01*
X130399254Y-82670968D01*
X130399044Y-82774702D01*
X130398007Y-82858958D01*
X130396016Y-82927409D01*
X130392947Y-82983725D01*
X130388675Y-83031578D01*
X130383075Y-83074639D01*
X130376022Y-83116579D01*
X130369100Y-83155777D01*
X130360389Y-83211041D01*
X130355333Y-83251570D01*
X130354865Y-83270592D01*
X130368800Y-83270032D01*
X130403328Y-83257069D01*
X130454214Y-83233935D01*
X130517226Y-83202867D01*
X130588134Y-83166106D01*
X130662708Y-83125889D01*
X130736715Y-83084455D01*
X130805925Y-83044044D01*
X130866107Y-83006894D01*
X130913030Y-82975243D01*
X131031672Y-82889337D01*
X131023485Y-82658820D01*
X131022476Y-82632013D01*
X131018084Y-82535451D01*
X131012631Y-82437359D01*
X131006713Y-82347847D01*
X131000928Y-82277028D01*
X131000043Y-82267330D01*
X130995395Y-82207966D01*
X130989840Y-82126191D01*
X130983692Y-82027212D01*
X130977267Y-81916237D01*
X130970879Y-81798472D01*
X130964841Y-81679127D01*
X130963327Y-81648119D01*
X130956292Y-81509482D01*
X130949708Y-81393420D01*
X130943036Y-81294755D01*
X130935736Y-81208309D01*
X130927267Y-81128904D01*
X130917090Y-81051360D01*
X130904666Y-80970500D01*
X130889453Y-80881145D01*
X130870914Y-80778117D01*
X130864310Y-80741548D01*
X130849462Y-80656362D01*
X130836271Y-80576800D01*
X130825970Y-80510425D01*
X130819793Y-80464799D01*
X130809849Y-80376901D01*
X130728776Y-80365485D01*
X130711616Y-80363397D01*
X130651810Y-80358588D01*
X130579789Y-80355200D01*
X130507548Y-80353864D01*
X130367393Y-80353659D01*
X130358318Y-80908338D01*
X130356621Y-81012725D01*
X130354409Y-81154323D01*
X130352786Y-81272306D01*
X130351808Y-81369844D01*
X130351530Y-81450105D01*
X130174633Y-81450105D01*
X130173994Y-81408170D01*
X130172695Y-81237368D01*
X130172263Y-81038004D01*
X130172263Y-80368066D01*
X129749397Y-80368066D01*
X129706057Y-80326667D01*
X129694822Y-80315772D01*
X129683314Y-80302608D01*
X129674063Y-80286799D01*
X129666583Y-80265080D01*
X129660386Y-80234185D01*
X129654984Y-80190850D01*
X129649890Y-80131809D01*
X129644616Y-80053796D01*
X129638676Y-79953546D01*
X129631580Y-79827794D01*
X129625962Y-79738762D01*
X129613045Y-79577416D01*
X129596875Y-79414484D01*
X129578308Y-79257566D01*
X129558202Y-79114262D01*
X129537412Y-78992173D01*
X129531534Y-78957231D01*
X129528589Y-78932596D01*
X131902834Y-78932596D01*
X131956599Y-79016412D01*
X131978887Y-79053301D01*
X132013700Y-79115436D01*
X132051713Y-79186984D01*
X132087921Y-79258707D01*
X132118914Y-79319000D01*
X132192572Y-79439896D01*
X132282320Y-79558072D01*
X132304979Y-79585458D01*
X132395030Y-79695972D01*
X132468476Y-79789388D01*
X132527776Y-79868981D01*
X132575390Y-79938029D01*
X132613775Y-79999809D01*
X132643014Y-80051364D01*
X132701647Y-80161500D01*
X132763382Y-80284676D01*
X132823846Y-80411828D01*
X132878666Y-80533892D01*
X132923471Y-80641804D01*
X132944077Y-80693256D01*
X132968618Y-80751270D01*
X132995681Y-80811284D01*
X133026926Y-80876598D01*
X133064013Y-80950512D01*
X133108604Y-81036327D01*
X133162359Y-81137344D01*
X133226938Y-81256863D01*
X133304002Y-81398185D01*
X133318170Y-81424139D01*
X133360124Y-81501622D01*
X133396306Y-81569377D01*
X133424680Y-81623529D01*
X133443206Y-81660204D01*
X133449848Y-81675525D01*
X133450427Y-81680092D01*
X133456623Y-81684513D01*
X133472582Y-81680320D01*
X133501960Y-81665828D01*
X133548413Y-81639356D01*
X133615598Y-81599220D01*
X133669103Y-81567687D01*
X133724042Y-81536947D01*
X133767142Y-81514617D01*
X133792087Y-81504100D01*
X133812346Y-81495350D01*
X133824492Y-81479465D01*
X133823650Y-81473434D01*
X133811792Y-81440009D01*
X133786895Y-81385165D01*
X133750195Y-81311414D01*
X133702929Y-81221269D01*
X133646331Y-81117244D01*
X133606972Y-81043963D01*
X133562945Y-80958096D01*
X133522567Y-80875689D01*
X133491220Y-80807488D01*
X133478318Y-80778567D01*
X133439834Y-80703031D01*
X133398678Y-80641340D01*
X133347976Y-80582703D01*
X133305230Y-80535402D01*
X133196663Y-80390750D01*
X133106701Y-80232851D01*
X133040347Y-80070043D01*
X133025200Y-80025854D01*
X132945850Y-79840732D01*
X132839848Y-79651551D01*
X132708317Y-79460371D01*
X132670381Y-79408847D01*
X132548055Y-79224031D01*
X132444254Y-79033111D01*
X132352812Y-78825069D01*
X132341366Y-78796496D01*
X132314421Y-78731654D01*
X132291353Y-78679454D01*
X132274311Y-78644649D01*
X132265447Y-78631991D01*
X132259663Y-78633570D01*
X132232501Y-78647109D01*
X132190895Y-78671209D01*
X132141253Y-78701860D01*
X132089980Y-78735053D01*
X132043482Y-78766778D01*
X132008166Y-78793026D01*
X131995953Y-78803501D01*
X131957199Y-78844181D01*
X131928907Y-78884181D01*
X131902834Y-78932596D01*
X129528589Y-78932596D01*
X129523728Y-78891930D01*
X129518865Y-78824900D01*
X129517060Y-78762207D01*
X129518427Y-78709917D01*
X129523082Y-78674094D01*
X129531140Y-78660806D01*
X129540616Y-78651863D01*
X129545547Y-78624788D01*
X129541318Y-78601294D01*
X129523936Y-78588769D01*
X129514612Y-78587620D01*
X129500468Y-78573261D01*
X129503074Y-78547487D01*
X129519453Y-78516665D01*
X129546628Y-78487165D01*
X129581621Y-78465356D01*
X129586869Y-78463352D01*
X129601442Y-78459388D01*
X129621299Y-78456272D01*
X129648398Y-78454043D01*
X129684699Y-78452742D01*
X129732158Y-78452410D01*
X129792735Y-78453087D01*
X129868387Y-78454813D01*
X129961073Y-78457629D01*
X130072752Y-78461576D01*
X130205381Y-78466694D01*
X130360918Y-78473023D01*
X130541323Y-78480604D01*
X130748554Y-78489477D01*
X130762852Y-78490082D01*
X131010133Y-78497422D01*
X131254506Y-78499025D01*
X131483324Y-78494799D01*
X131538294Y-78492988D01*
X131639194Y-78489695D01*
X131732727Y-78486683D01*
X131813534Y-78484122D01*
X131876258Y-78482182D01*
X131915542Y-78481035D01*
X131952730Y-78478947D01*
X131996905Y-78470683D01*
X132040646Y-78452724D01*
X132095632Y-78421189D01*
X132171808Y-78377205D01*
X132249381Y-78341153D01*
X132317694Y-78321184D01*
X132382881Y-78315032D01*
X132453438Y-78315032D01*
X132542902Y-78583570D01*
X132661439Y-78577539D01*
X132680312Y-78576921D01*
X132746392Y-78577482D01*
X132829079Y-78580890D01*
X132919667Y-78586720D01*
X133009449Y-78594546D01*
X133039552Y-78597459D01*
X133133255Y-78605375D01*
X133226466Y-78611762D01*
X133309808Y-78616030D01*
X133373903Y-78617584D01*
X133408398Y-78618232D01*
X133482950Y-78621830D01*
X133572631Y-78628051D01*
X133669082Y-78636287D01*
X133763944Y-78645930D01*
X133776602Y-78647335D01*
X133927683Y-78663755D01*
X134058155Y-78677078D01*
X134175409Y-78687900D01*
X134286840Y-78696816D01*
X134399841Y-78704421D01*
X134521804Y-78711311D01*
X134660125Y-78718080D01*
X134701530Y-78720074D01*
X134822209Y-78726462D01*
X134958440Y-78734332D01*
X135100786Y-78743108D01*
X135239811Y-78752217D01*
X135366081Y-78761082D01*
X135428644Y-78765623D01*
X135553221Y-78774457D01*
X135680505Y-78783247D01*
X135802636Y-78791462D01*
X135911754Y-78798569D01*
X136000000Y-78804035D01*
X136155991Y-78813319D01*
X136323170Y-78823351D01*
X136466452Y-78832128D01*
X136588516Y-78839892D01*
X136692042Y-78846883D01*
X136779712Y-78853342D01*
X136854204Y-78859510D01*
X136918199Y-78865628D01*
X136974378Y-78871937D01*
X137025419Y-78878679D01*
X137074004Y-78886093D01*
X137122813Y-78894422D01*
X137174525Y-78903905D01*
X137231821Y-78914784D01*
X137269280Y-78921519D01*
X137351535Y-78934734D01*
X137451731Y-78949429D01*
X137563129Y-78964666D01*
X137678993Y-78979503D01*
X137792587Y-78993002D01*
X137809768Y-78994954D01*
X137914555Y-79006897D01*
X138001777Y-79017047D01*
X138076538Y-79026157D01*
X138143942Y-79034983D01*
X138209095Y-79044282D01*
X138277101Y-79054807D01*
X138353065Y-79067315D01*
X138442091Y-79082562D01*
X138549285Y-79101301D01*
X138679750Y-79124290D01*
X138697076Y-79127339D01*
X138803916Y-79145624D01*
X138894343Y-79159726D01*
X138975895Y-79170418D01*
X139056109Y-79178476D01*
X139142522Y-79184672D01*
X139242672Y-79189781D01*
X139364095Y-79194578D01*
X139636432Y-79206184D01*
X140018199Y-79228995D01*
X140385104Y-79259451D01*
X140745052Y-79298442D01*
X141105951Y-79346857D01*
X141475708Y-79405584D01*
X141862229Y-79475513D01*
X141906700Y-79484286D01*
X141948186Y-79494649D01*
X141982300Y-79508172D01*
X142009866Y-79527420D01*
X142031709Y-79554957D01*
X142048654Y-79593347D01*
X142061523Y-79645153D01*
X142071142Y-79712940D01*
X142078336Y-79799272D01*
X142083928Y-79906713D01*
X142088743Y-80037827D01*
X142093605Y-80195179D01*
X142095849Y-80266245D01*
X142100445Y-80396324D01*
X142105535Y-80524130D01*
X142110877Y-80644356D01*
X142116230Y-80751696D01*
X142121352Y-80840843D01*
X142126001Y-80906492D01*
X142131879Y-80980098D01*
X142135809Y-81041932D01*
X142136615Y-81085112D01*
X142134143Y-81114984D01*
X142128236Y-81136893D01*
X142118740Y-81156184D01*
X142110617Y-81173315D01*
X142100978Y-81210807D01*
X142095808Y-81264372D01*
X142094271Y-81340314D01*
X142094271Y-81481810D01*
X142053199Y-81496128D01*
X142031301Y-81500425D01*
X141975368Y-81503032D01*
X141891005Y-81501272D01*
X141778187Y-81495146D01*
X141751676Y-81493443D01*
X141667208Y-81488664D01*
X141606793Y-81486667D01*
X141566764Y-81487492D01*
X141543448Y-81491177D01*
X141533175Y-81497762D01*
X141531626Y-81501185D01*
X141525200Y-81529567D01*
X141518680Y-81576367D01*
X141513265Y-81633420D01*
X141512378Y-81644838D01*
X141506830Y-81708843D01*
X141499135Y-81790082D01*
X141490191Y-81879308D01*
X141480895Y-81967272D01*
X141475342Y-82022131D01*
X141464850Y-82189687D01*
X141466788Y-82340919D01*
X141481481Y-82483415D01*
X141509259Y-82624760D01*
X141528802Y-82707700D01*
X141547578Y-82793339D01*
X141562545Y-82871813D01*
X141574274Y-82948263D01*
X141583338Y-83027828D01*
X141590307Y-83115648D01*
X141595754Y-83216862D01*
X141600249Y-83336611D01*
X141604364Y-83480034D01*
X141604563Y-83487577D01*
X141608300Y-83613880D01*
X141612819Y-83743996D01*
X141617850Y-83871402D01*
X141623119Y-83989574D01*
X141628354Y-84091985D01*
X141633282Y-84172113D01*
X141633887Y-84181008D01*
X141639021Y-84289735D01*
X141641411Y-84413557D01*
X141641346Y-84465392D01*
X141641243Y-84546987D01*
G37*
%LPC*%
D11*
X166960000Y-76880000D03*
D12*
X169500000Y-76880000D03*
X166960000Y-79420000D03*
X169500000Y-79420000D03*
X166960000Y-81960000D03*
X169500000Y-81960000D03*
X166960000Y-84500000D03*
X169500000Y-84500000D03*
X166960000Y-87040000D03*
X169500000Y-87040000D03*
X166960000Y-89580000D03*
X169500000Y-89580000D03*
X166960000Y-92120000D03*
X169500000Y-92120000D03*
X166960000Y-94660000D03*
X169500000Y-94660000D03*
D13*
X119960000Y-73760000D03*
D14*
X122500000Y-73760000D03*
X119960000Y-76300000D03*
X122500000Y-76300000D03*
X119960000Y-78840000D03*
X122500000Y-78840000D03*
X119960000Y-81380000D03*
X122500000Y-81380000D03*
X119960000Y-83920000D03*
X122500000Y-83920000D03*
X119960000Y-86460000D03*
X122500000Y-86460000D03*
X119960000Y-89000000D03*
X122500000Y-89000000D03*
X119960000Y-91540000D03*
X122500000Y-91540000D03*
X119960000Y-94080000D03*
X122500000Y-94080000D03*
X119960000Y-96620000D03*
X122500000Y-96620000D03*
D15*
X128500000Y-72500000D03*
D16*
X147060000Y-76605000D03*
D17*
X151020000Y-76605000D03*
X154980000Y-76605000D03*
X158940000Y-76605000D03*
D15*
X128500000Y-98000000D03*
%LPD*%
M02*
