G04 #@! TF.GenerationSoftware,KiCad,Pcbnew,8.0.8-8.0.8-0~ubuntu22.04.1*
G04 #@! TF.CreationDate,2025-01-23T22:17:41+01:00*
G04 #@! TF.ProjectId,glm5va,676c6d35-7661-42e6-9b69-6361645f7063,v1.0*
G04 #@! TF.SameCoordinates,Original*
G04 #@! TF.FileFunction,Copper,L1,Top*
G04 #@! TF.FilePolarity,Positive*
%FSLAX46Y46*%
G04 Gerber Fmt 4.6, Leading zero omitted, Abs format (unit mm)*
G04 Created by KiCad (PCBNEW 8.0.8-8.0.8-0~ubuntu22.04.1) date 2025-01-23 22:17:41*
%MOMM*%
%LPD*%
G01*
G04 APERTURE LIST*
G04 Aperture macros list*
%AMRoundRect*
0 Rectangle with rounded corners*
0 $1 Rounding radius*
0 $2 $3 $4 $5 $6 $7 $8 $9 X,Y pos of 4 corners*
0 Add a 4 corners polygon primitive as box body*
4,1,4,$2,$3,$4,$5,$6,$7,$8,$9,$2,$3,0*
0 Add four circle primitives for the rounded corners*
1,1,$1+$1,$2,$3*
1,1,$1+$1,$4,$5*
1,1,$1+$1,$6,$7*
1,1,$1+$1,$8,$9*
0 Add four rect primitives between the rounded corners*
20,1,$1+$1,$2,$3,$4,$5,0*
20,1,$1+$1,$4,$5,$6,$7,0*
20,1,$1+$1,$6,$7,$8,$9,0*
20,1,$1+$1,$8,$9,$2,$3,0*%
G04 Aperture macros list end*
G04 #@! TA.AperFunction,ComponentPad*
%ADD10RoundRect,0.250000X-0.600000X-0.600000X0.600000X-0.600000X0.600000X0.600000X-0.600000X0.600000X0*%
G04 #@! TD*
G04 #@! TA.AperFunction,ComponentPad*
%ADD11C,1.700000*%
G04 #@! TD*
G04 #@! TA.AperFunction,ComponentPad*
%ADD12R,1.700000X1.700000*%
G04 #@! TD*
G04 #@! TA.AperFunction,ComponentPad*
%ADD13O,1.700000X1.700000*%
G04 #@! TD*
G04 #@! TA.AperFunction,SMDPad,CuDef*
%ADD14RoundRect,0.225000X-0.225000X-0.250000X0.225000X-0.250000X0.225000X0.250000X-0.225000X0.250000X0*%
G04 #@! TD*
G04 #@! TA.AperFunction,SMDPad,CuDef*
%ADD15RoundRect,0.200000X0.200000X0.275000X-0.200000X0.275000X-0.200000X-0.275000X0.200000X-0.275000X0*%
G04 #@! TD*
G04 #@! TA.AperFunction,SMDPad,CuDef*
%ADD16RoundRect,0.250000X-0.625000X0.375000X-0.625000X-0.375000X0.625000X-0.375000X0.625000X0.375000X0*%
G04 #@! TD*
G04 #@! TA.AperFunction,SMDPad,CuDef*
%ADD17RoundRect,0.200000X0.275000X-0.200000X0.275000X0.200000X-0.275000X0.200000X-0.275000X-0.200000X0*%
G04 #@! TD*
G04 #@! TA.AperFunction,ComponentPad*
%ADD18C,2.000000*%
G04 #@! TD*
G04 #@! TA.AperFunction,SMDPad,CuDef*
%ADD19RoundRect,0.100000X-0.637500X-0.100000X0.637500X-0.100000X0.637500X0.100000X-0.637500X0.100000X0*%
G04 #@! TD*
G04 #@! TA.AperFunction,ComponentPad*
%ADD20RoundRect,0.250000X-1.330000X-1.800000X1.330000X-1.800000X1.330000X1.800000X-1.330000X1.800000X0*%
G04 #@! TD*
G04 #@! TA.AperFunction,ComponentPad*
%ADD21O,3.160000X4.100000*%
G04 #@! TD*
G04 #@! TA.AperFunction,ViaPad*
%ADD22C,0.600000*%
G04 #@! TD*
G04 #@! TA.AperFunction,Conductor*
%ADD23C,0.200000*%
G04 #@! TD*
G04 APERTURE END LIST*
D10*
X166960000Y-76880000D03*
D11*
X169500000Y-76880000D03*
X166960000Y-79420000D03*
X169500000Y-79420000D03*
X166960000Y-81960000D03*
X169500000Y-81960000D03*
X166960000Y-84500000D03*
X169500000Y-84500000D03*
X166960000Y-87040000D03*
X169500000Y-87040000D03*
X166960000Y-89580000D03*
X169500000Y-89580000D03*
X166960000Y-92120000D03*
X169500000Y-92120000D03*
X166960000Y-94660000D03*
X169500000Y-94660000D03*
D12*
X119960000Y-73760000D03*
D13*
X122500000Y-73760000D03*
X119960000Y-76300000D03*
X122500000Y-76300000D03*
X119960000Y-78840000D03*
X122500000Y-78840000D03*
X119960000Y-81380000D03*
X122500000Y-81380000D03*
X119960000Y-83920000D03*
X122500000Y-83920000D03*
X119960000Y-86460000D03*
X122500000Y-86460000D03*
X119960000Y-89000000D03*
X122500000Y-89000000D03*
X119960000Y-91540000D03*
X122500000Y-91540000D03*
X119960000Y-94080000D03*
X122500000Y-94080000D03*
X119960000Y-96620000D03*
X122500000Y-96620000D03*
D14*
X137725000Y-87000000D03*
X139275000Y-87000000D03*
D15*
X134650000Y-74000000D03*
X133000000Y-74000000D03*
D16*
X157000000Y-95700000D03*
X157000000Y-98500000D03*
X151000000Y-95700000D03*
X151000000Y-98500000D03*
D15*
X133000000Y-87000000D03*
X131350000Y-87000000D03*
D17*
X141500000Y-89000000D03*
X141500000Y-87350000D03*
X154000000Y-93500000D03*
X154000000Y-91850000D03*
D18*
X128500000Y-72500000D03*
D17*
X151000000Y-93500000D03*
X151000000Y-91850000D03*
X160000000Y-93500000D03*
X160000000Y-91850000D03*
D19*
X133000000Y-88750000D03*
X133000000Y-89400000D03*
X133000000Y-90050000D03*
X133000000Y-90700000D03*
X133000000Y-91350000D03*
X133000000Y-92000000D03*
X133000000Y-92650000D03*
X133000000Y-93300000D03*
X133000000Y-93950000D03*
X133000000Y-94600000D03*
X138725000Y-94600000D03*
X138725000Y-93950000D03*
X138725000Y-93300000D03*
X138725000Y-92650000D03*
X138725000Y-92000000D03*
X138725000Y-91350000D03*
X138725000Y-90700000D03*
X138725000Y-90050000D03*
X138725000Y-89400000D03*
X138725000Y-88750000D03*
D20*
X147060000Y-76605000D03*
D21*
X151020000Y-76605000D03*
X154980000Y-76605000D03*
X158940000Y-76605000D03*
D18*
X128500000Y-98000000D03*
D16*
X160000000Y-95700000D03*
X160000000Y-98500000D03*
D17*
X141000000Y-76150000D03*
X141000000Y-74500000D03*
X157000000Y-93500000D03*
X157000000Y-91850000D03*
D19*
X132775000Y-76250000D03*
X132775000Y-76900000D03*
X132775000Y-77550000D03*
X132775000Y-78200000D03*
X132775000Y-78850000D03*
X132775000Y-79500000D03*
X132775000Y-80150000D03*
X132775000Y-80800000D03*
X132775000Y-81450000D03*
X132775000Y-82100000D03*
X138500000Y-82100000D03*
X138500000Y-81450000D03*
X138500000Y-80800000D03*
X138500000Y-80150000D03*
X138500000Y-79500000D03*
X138500000Y-78850000D03*
X138500000Y-78200000D03*
X138500000Y-77550000D03*
X138500000Y-76900000D03*
X138500000Y-76250000D03*
D16*
X154000000Y-95700000D03*
X154000000Y-98500000D03*
D14*
X136950000Y-74000000D03*
X138500000Y-74000000D03*
D22*
X141500000Y-86000000D03*
X142000000Y-73000000D03*
X136500000Y-72500000D03*
X136500000Y-87000000D03*
X131000000Y-82500000D03*
X131500000Y-95000000D03*
X146500000Y-89500000D03*
X151500000Y-83385356D03*
X148250000Y-89250000D03*
X151750000Y-85750000D03*
X149500000Y-90500000D03*
X145500000Y-90700000D03*
X145000000Y-92000000D03*
X148000000Y-92000000D03*
D23*
X129984314Y-90050000D02*
X126394314Y-86460000D01*
X121350000Y-85070000D02*
X119960000Y-86460000D01*
X133000000Y-90050000D02*
X129984314Y-90050000D01*
X126394314Y-86460000D02*
X122500000Y-86460000D01*
X133000000Y-89400000D02*
X129900000Y-89400000D01*
X129900000Y-89400000D02*
X125570000Y-85070000D01*
X125570000Y-85070000D02*
X121350000Y-85070000D01*
X133000000Y-90700000D02*
X129700000Y-90700000D01*
X129700000Y-90700000D02*
X126610000Y-87610000D01*
X126610000Y-87610000D02*
X121350000Y-87610000D01*
X121350000Y-87610000D02*
X119960000Y-89000000D01*
X138725000Y-87550000D02*
X139275000Y-87000000D01*
X138725000Y-88750000D02*
X138725000Y-87550000D01*
X141000000Y-74500000D02*
X141000000Y-74000000D01*
X136950000Y-74000000D02*
X136950000Y-72950000D01*
X136950000Y-72950000D02*
X136500000Y-72500000D01*
X132775000Y-82100000D02*
X131400000Y-82100000D01*
X141500000Y-87350000D02*
X141500000Y-86000000D01*
X131400000Y-82100000D02*
X131000000Y-82500000D01*
X131900000Y-94600000D02*
X131500000Y-95000000D01*
X141000000Y-74000000D02*
X142000000Y-73000000D01*
X137725000Y-87000000D02*
X136500000Y-87000000D01*
X133000000Y-94600000D02*
X131900000Y-94600000D01*
X160000000Y-93500000D02*
X160000000Y-95700000D01*
X157000000Y-93500000D02*
X157000000Y-95700000D01*
X154000000Y-93500000D02*
X154000000Y-95700000D01*
X119960000Y-73760000D02*
X121220000Y-72500000D01*
X121220000Y-72500000D02*
X128500000Y-72500000D01*
X139237499Y-81450000D02*
X138500000Y-81450000D01*
X145627499Y-87840000D02*
X139237499Y-81450000D01*
X166960000Y-92120000D02*
X162680000Y-87840000D01*
X162680000Y-87840000D02*
X145627499Y-87840000D01*
X145950000Y-90050000D02*
X146500000Y-89500000D01*
X169500000Y-76880000D02*
X168350000Y-78030000D01*
X154315356Y-80570000D02*
X151500000Y-83385356D01*
X138725000Y-90050000D02*
X145950000Y-90050000D01*
X168350000Y-78030000D02*
X168350000Y-79656346D01*
X167436346Y-80570000D02*
X154315356Y-80570000D01*
X168350000Y-79656346D02*
X167436346Y-80570000D01*
X146137499Y-86400000D02*
X165060000Y-86400000D01*
X139237499Y-79500000D02*
X146137499Y-86400000D01*
X165060000Y-86400000D02*
X166960000Y-84500000D01*
X138500000Y-79500000D02*
X139237499Y-79500000D01*
X169500000Y-81960000D02*
X168350000Y-83110000D01*
X168350000Y-83110000D02*
X154390000Y-83110000D01*
X154390000Y-83110000D02*
X151750000Y-85750000D01*
X138725000Y-91350000D02*
X146150000Y-91350000D01*
X146150000Y-91350000D02*
X148250000Y-89250000D01*
X160900000Y-88600000D02*
X145000000Y-88600000D01*
X166960000Y-94660000D02*
X160900000Y-88600000D01*
X145000000Y-88600000D02*
X138500000Y-82100000D01*
X139237499Y-80800000D02*
X138500000Y-80800000D01*
X145877499Y-87440000D02*
X139237499Y-80800000D01*
X166960000Y-89580000D02*
X164820000Y-87440000D01*
X164820000Y-87440000D02*
X145877499Y-87440000D01*
X138500000Y-78850000D02*
X144258884Y-78850000D01*
X144258884Y-78850000D02*
X149444240Y-84035356D01*
X166960000Y-81960000D02*
X154110711Y-81960000D01*
X149444240Y-84035356D02*
X152035356Y-84035356D01*
X154110711Y-81960000D02*
X152035356Y-84035356D01*
X137687500Y-94250001D02*
X137687500Y-95187500D01*
X137987501Y-93950000D02*
X137687500Y-94250001D01*
X170650000Y-95350000D02*
X170650000Y-93270000D01*
X137687500Y-95187500D02*
X139500000Y-97000000D01*
X138725000Y-93950000D02*
X137987501Y-93950000D01*
X139500000Y-97000000D02*
X169000000Y-97000000D01*
X169000000Y-97000000D02*
X170650000Y-95350000D01*
X170650000Y-93270000D02*
X169500000Y-92120000D01*
X138500000Y-80150000D02*
X139237499Y-80150000D01*
X139237499Y-80150000D02*
X146127499Y-87040000D01*
X146127499Y-87040000D02*
X166960000Y-87040000D01*
X164885000Y-78955000D02*
X166960000Y-76880000D01*
X138500000Y-77550000D02*
X144090256Y-77550000D01*
X144090256Y-77550000D02*
X145495256Y-78955000D01*
X145495256Y-78955000D02*
X164885000Y-78955000D01*
X144174570Y-78200000D02*
X145394570Y-79420000D01*
X145394570Y-79420000D02*
X166960000Y-79420000D01*
X138500000Y-78200000D02*
X144174570Y-78200000D01*
X169976346Y-90730000D02*
X171000000Y-89706346D01*
X171000000Y-89706346D02*
X171000000Y-88540000D01*
X160523654Y-89850000D02*
X166673654Y-96000000D01*
X171000000Y-88540000D02*
X169500000Y-87040000D01*
X169263654Y-90730000D02*
X169976346Y-90730000D01*
X166673654Y-96000000D02*
X167486346Y-96000000D01*
X167486346Y-96000000D02*
X168350000Y-95136346D01*
X168350000Y-91643654D02*
X169263654Y-90730000D01*
X168350000Y-95136346D02*
X168350000Y-91643654D01*
X146430761Y-92650000D02*
X149230761Y-89850000D01*
X149230761Y-89850000D02*
X160523654Y-89850000D01*
X138725000Y-92650000D02*
X146430761Y-92650000D01*
X151000000Y-93500000D02*
X151000000Y-95700000D01*
X138725000Y-89400000D02*
X141100000Y-89400000D01*
X141100000Y-89400000D02*
X141500000Y-89000000D01*
X140250000Y-76900000D02*
X141000000Y-76150000D01*
X138500000Y-76900000D02*
X140250000Y-76900000D01*
X133000000Y-76025000D02*
X133000000Y-74000000D01*
X132775000Y-76250000D02*
X133000000Y-76025000D01*
X133000000Y-87000000D02*
X133000000Y-88750000D01*
X160000000Y-91850000D02*
X158650000Y-90500000D01*
X158650000Y-90500000D02*
X149500000Y-90500000D01*
X138725000Y-90700000D02*
X145500000Y-90700000D01*
X145000000Y-92000000D02*
X138725000Y-92000000D01*
X157000000Y-91850000D02*
X156300000Y-91150000D01*
X148850000Y-91150000D02*
X148000000Y-92000000D01*
X156300000Y-91150000D02*
X148850000Y-91150000D01*
X148031371Y-94600000D02*
X138725000Y-94600000D01*
X149831371Y-92800000D02*
X148031371Y-94600000D01*
X154000000Y-91850000D02*
X153050000Y-92800000D01*
X153050000Y-92800000D02*
X149831371Y-92800000D01*
X148765686Y-93300000D02*
X138725000Y-93300000D01*
X151000000Y-91850000D02*
X150215686Y-91850000D01*
X150215686Y-91850000D02*
X148765686Y-93300000D01*
X132775000Y-80800000D02*
X125700000Y-80800000D01*
X123970000Y-82530000D02*
X121350000Y-82530000D01*
X121350000Y-82530000D02*
X119960000Y-83920000D01*
X125700000Y-80800000D02*
X123970000Y-82530000D01*
X132775000Y-76900000D02*
X128400000Y-76900000D01*
X126500000Y-75000000D02*
X121260000Y-75000000D01*
X121260000Y-75000000D02*
X119960000Y-76300000D01*
X128400000Y-76900000D02*
X126500000Y-75000000D01*
X121110000Y-90390000D02*
X119960000Y-91540000D01*
X126890000Y-90390000D02*
X121110000Y-90390000D01*
X133000000Y-92000000D02*
X128500000Y-92000000D01*
X128500000Y-92000000D02*
X126890000Y-90390000D01*
X132775000Y-80150000D02*
X125350000Y-80150000D01*
X124120000Y-81380000D02*
X122500000Y-81380000D01*
X125350000Y-80150000D02*
X124120000Y-81380000D01*
X132775000Y-81450000D02*
X127050000Y-81450000D01*
X124580000Y-83920000D02*
X122500000Y-83920000D01*
X127050000Y-81450000D02*
X124580000Y-83920000D01*
X121110000Y-92930000D02*
X119960000Y-94080000D01*
X126800000Y-93300000D02*
X126430000Y-92930000D01*
X126430000Y-92930000D02*
X121110000Y-92930000D01*
X133000000Y-93300000D02*
X126800000Y-93300000D01*
X132775000Y-78850000D02*
X122510000Y-78850000D01*
X122510000Y-78850000D02*
X122500000Y-78840000D01*
X129350000Y-91350000D02*
X127000000Y-89000000D01*
X133000000Y-91350000D02*
X129350000Y-91350000D01*
X127000000Y-89000000D02*
X122500000Y-89000000D01*
X133000000Y-93950000D02*
X122630000Y-93950000D01*
X122630000Y-93950000D02*
X122500000Y-94080000D01*
X127650000Y-92650000D02*
X126540000Y-91540000D01*
X133000000Y-92650000D02*
X127650000Y-92650000D01*
X126540000Y-91540000D02*
X122500000Y-91540000D01*
X124500000Y-80000000D02*
X121340000Y-80000000D01*
X132775000Y-79500000D02*
X125000000Y-79500000D01*
X125000000Y-79500000D02*
X124500000Y-80000000D01*
X121340000Y-80000000D02*
X119960000Y-81380000D01*
X121300000Y-77500000D02*
X119960000Y-78840000D01*
X127000000Y-77500000D02*
X121300000Y-77500000D01*
X132775000Y-78200000D02*
X127700000Y-78200000D01*
X127700000Y-78200000D02*
X127000000Y-77500000D01*
X126800000Y-76300000D02*
X122500000Y-76300000D01*
X128050000Y-77550000D02*
X126800000Y-76300000D01*
X132775000Y-77550000D02*
X128050000Y-77550000D01*
G04 #@! TA.AperFunction,Conductor*
G36*
X150202665Y-76357064D02*
G01*
X150170000Y-76521282D01*
X150170000Y-76688718D01*
X150202665Y-76852936D01*
X150203520Y-76855000D01*
X147876480Y-76855000D01*
X147877335Y-76852936D01*
X147910000Y-76688718D01*
X147910000Y-76521282D01*
X147877335Y-76357064D01*
X147876480Y-76355000D01*
X150203520Y-76355000D01*
X150202665Y-76357064D01*
G37*
G04 #@! TD.AperFunction*
G04 #@! TA.AperFunction,Conductor*
G36*
X172004418Y-70000816D02*
G01*
X172204561Y-70015130D01*
X172222063Y-70017647D01*
X172413797Y-70059355D01*
X172430755Y-70064334D01*
X172614609Y-70132909D01*
X172630701Y-70140259D01*
X172802904Y-70234288D01*
X172817784Y-70243849D01*
X172974867Y-70361441D01*
X172988237Y-70373027D01*
X173126972Y-70511762D01*
X173138558Y-70525132D01*
X173256146Y-70682210D01*
X173265711Y-70697095D01*
X173359740Y-70869298D01*
X173367090Y-70885390D01*
X173435662Y-71069236D01*
X173440646Y-71086212D01*
X173482351Y-71277931D01*
X173484869Y-71295442D01*
X173499184Y-71495580D01*
X173499500Y-71504427D01*
X173499500Y-99495572D01*
X173499184Y-99504419D01*
X173484869Y-99704557D01*
X173482351Y-99722068D01*
X173440646Y-99913787D01*
X173435662Y-99930763D01*
X173367090Y-100114609D01*
X173359740Y-100130701D01*
X173265711Y-100302904D01*
X173256146Y-100317789D01*
X173138558Y-100474867D01*
X173126972Y-100488237D01*
X172988237Y-100626972D01*
X172974867Y-100638558D01*
X172817789Y-100756146D01*
X172802904Y-100765711D01*
X172630701Y-100859740D01*
X172614609Y-100867090D01*
X172430763Y-100935662D01*
X172413787Y-100940646D01*
X172222068Y-100982351D01*
X172204557Y-100984869D01*
X172023779Y-100997799D01*
X172004417Y-100999184D01*
X171995572Y-100999500D01*
X118504428Y-100999500D01*
X118495582Y-100999184D01*
X118473622Y-100997613D01*
X118295442Y-100984869D01*
X118277931Y-100982351D01*
X118086212Y-100940646D01*
X118069236Y-100935662D01*
X117885390Y-100867090D01*
X117869298Y-100859740D01*
X117697095Y-100765711D01*
X117682210Y-100756146D01*
X117525132Y-100638558D01*
X117511762Y-100626972D01*
X117373027Y-100488237D01*
X117361441Y-100474867D01*
X117243849Y-100317784D01*
X117234288Y-100302904D01*
X117140259Y-100130701D01*
X117132909Y-100114609D01*
X117072091Y-99951551D01*
X117064334Y-99930755D01*
X117059355Y-99913797D01*
X117017647Y-99722063D01*
X117015130Y-99704556D01*
X117008689Y-99614505D01*
X117000816Y-99504418D01*
X117000500Y-99495572D01*
X117000500Y-97999994D01*
X126994357Y-97999994D01*
X126994357Y-98000005D01*
X127014890Y-98247812D01*
X127014892Y-98247824D01*
X127075936Y-98488881D01*
X127175826Y-98716606D01*
X127311833Y-98924782D01*
X127311836Y-98924785D01*
X127480256Y-99107738D01*
X127676491Y-99260474D01*
X127895190Y-99378828D01*
X128130386Y-99459571D01*
X128375665Y-99500500D01*
X128624335Y-99500500D01*
X128869614Y-99459571D01*
X129104810Y-99378828D01*
X129323509Y-99260474D01*
X129519744Y-99107738D01*
X129687979Y-98924986D01*
X149625001Y-98924986D01*
X149635494Y-99027697D01*
X149690641Y-99194119D01*
X149690643Y-99194124D01*
X149782684Y-99343345D01*
X149906654Y-99467315D01*
X150055875Y-99559356D01*
X150055880Y-99559358D01*
X150222302Y-99614505D01*
X150222309Y-99614506D01*
X150325019Y-99624999D01*
X150749999Y-99624999D01*
X151250000Y-99624999D01*
X151674972Y-99624999D01*
X151674986Y-99624998D01*
X151777697Y-99614505D01*
X151944119Y-99559358D01*
X151944124Y-99559356D01*
X152093345Y-99467315D01*
X152217315Y-99343345D01*
X152309356Y-99194124D01*
X152309358Y-99194119D01*
X152364505Y-99027697D01*
X152364506Y-99027690D01*
X152374999Y-98924986D01*
X152625001Y-98924986D01*
X152635494Y-99027697D01*
X152690641Y-99194119D01*
X152690643Y-99194124D01*
X152782684Y-99343345D01*
X152906654Y-99467315D01*
X153055875Y-99559356D01*
X153055880Y-99559358D01*
X153222302Y-99614505D01*
X153222309Y-99614506D01*
X153325019Y-99624999D01*
X153749999Y-99624999D01*
X154250000Y-99624999D01*
X154674972Y-99624999D01*
X154674986Y-99624998D01*
X154777697Y-99614505D01*
X154944119Y-99559358D01*
X154944124Y-99559356D01*
X155093345Y-99467315D01*
X155217315Y-99343345D01*
X155309356Y-99194124D01*
X155309358Y-99194119D01*
X155364505Y-99027697D01*
X155364506Y-99027690D01*
X155374999Y-98924986D01*
X155625001Y-98924986D01*
X155635494Y-99027697D01*
X155690641Y-99194119D01*
X155690643Y-99194124D01*
X155782684Y-99343345D01*
X155906654Y-99467315D01*
X156055875Y-99559356D01*
X156055880Y-99559358D01*
X156222302Y-99614505D01*
X156222309Y-99614506D01*
X156325019Y-99624999D01*
X156749999Y-99624999D01*
X157250000Y-99624999D01*
X157674972Y-99624999D01*
X157674986Y-99624998D01*
X157777697Y-99614505D01*
X157944119Y-99559358D01*
X157944124Y-99559356D01*
X158093345Y-99467315D01*
X158217315Y-99343345D01*
X158309356Y-99194124D01*
X158309358Y-99194119D01*
X158364505Y-99027697D01*
X158364506Y-99027690D01*
X158374999Y-98924986D01*
X158625001Y-98924986D01*
X158635494Y-99027697D01*
X158690641Y-99194119D01*
X158690643Y-99194124D01*
X158782684Y-99343345D01*
X158906654Y-99467315D01*
X159055875Y-99559356D01*
X159055880Y-99559358D01*
X159222302Y-99614505D01*
X159222309Y-99614506D01*
X159325019Y-99624999D01*
X159749999Y-99624999D01*
X160250000Y-99624999D01*
X160674972Y-99624999D01*
X160674986Y-99624998D01*
X160777697Y-99614505D01*
X160944119Y-99559358D01*
X160944124Y-99559356D01*
X161093345Y-99467315D01*
X161217315Y-99343345D01*
X161309356Y-99194124D01*
X161309358Y-99194119D01*
X161364505Y-99027697D01*
X161364506Y-99027690D01*
X161374999Y-98924986D01*
X161375000Y-98924973D01*
X161375000Y-98750000D01*
X160250000Y-98750000D01*
X160250000Y-99624999D01*
X159749999Y-99624999D01*
X159750000Y-99624998D01*
X159750000Y-98750000D01*
X158625001Y-98750000D01*
X158625001Y-98924986D01*
X158374999Y-98924986D01*
X158375000Y-98924973D01*
X158375000Y-98750000D01*
X157250000Y-98750000D01*
X157250000Y-99624999D01*
X156749999Y-99624999D01*
X156750000Y-99624998D01*
X156750000Y-98750000D01*
X155625001Y-98750000D01*
X155625001Y-98924986D01*
X155374999Y-98924986D01*
X155375000Y-98924973D01*
X155375000Y-98750000D01*
X154250000Y-98750000D01*
X154250000Y-99624999D01*
X153749999Y-99624999D01*
X153750000Y-99624998D01*
X153750000Y-98750000D01*
X152625001Y-98750000D01*
X152625001Y-98924986D01*
X152374999Y-98924986D01*
X152375000Y-98924973D01*
X152375000Y-98750000D01*
X151250000Y-98750000D01*
X151250000Y-99624999D01*
X150749999Y-99624999D01*
X150750000Y-99624998D01*
X150750000Y-98750000D01*
X149625001Y-98750000D01*
X149625001Y-98924986D01*
X129687979Y-98924986D01*
X129688164Y-98924785D01*
X129824173Y-98716607D01*
X129924063Y-98488881D01*
X129985108Y-98247821D01*
X129999426Y-98075028D01*
X130005643Y-98000005D01*
X130005643Y-97999994D01*
X129985109Y-97752187D01*
X129985107Y-97752175D01*
X129924063Y-97511118D01*
X129824173Y-97283393D01*
X129688166Y-97075217D01*
X129666557Y-97051744D01*
X129519744Y-96892262D01*
X129323509Y-96739526D01*
X129323507Y-96739525D01*
X129323506Y-96739524D01*
X129104811Y-96621172D01*
X129104802Y-96621169D01*
X128869616Y-96540429D01*
X128624335Y-96499500D01*
X128375665Y-96499500D01*
X128130383Y-96540429D01*
X127895197Y-96621169D01*
X127895188Y-96621172D01*
X127676493Y-96739524D01*
X127480257Y-96892261D01*
X127311833Y-97075217D01*
X127175826Y-97283393D01*
X127075936Y-97511118D01*
X127014892Y-97752175D01*
X127014890Y-97752187D01*
X126994357Y-97999994D01*
X117000500Y-97999994D01*
X117000500Y-76299999D01*
X118604341Y-76299999D01*
X118604341Y-76300000D01*
X118624936Y-76535403D01*
X118624938Y-76535413D01*
X118686094Y-76763655D01*
X118686096Y-76763659D01*
X118686097Y-76763663D01*
X118785965Y-76977830D01*
X118785967Y-76977834D01*
X118921501Y-77171395D01*
X118921506Y-77171402D01*
X119088597Y-77338493D01*
X119088603Y-77338498D01*
X119274158Y-77468425D01*
X119317783Y-77523002D01*
X119324977Y-77592500D01*
X119293454Y-77654855D01*
X119274158Y-77671575D01*
X119088597Y-77801505D01*
X118921505Y-77968597D01*
X118785965Y-78162169D01*
X118785964Y-78162171D01*
X118686098Y-78376335D01*
X118686094Y-78376344D01*
X118624938Y-78604586D01*
X118624936Y-78604596D01*
X118604341Y-78839999D01*
X118604341Y-78840000D01*
X118624936Y-79075403D01*
X118624938Y-79075413D01*
X118686094Y-79303655D01*
X118686096Y-79303659D01*
X118686097Y-79303663D01*
X118754716Y-79450816D01*
X118785965Y-79517830D01*
X118785967Y-79517834D01*
X118921501Y-79711395D01*
X118921506Y-79711402D01*
X119088597Y-79878493D01*
X119088603Y-79878498D01*
X119274158Y-80008425D01*
X119317783Y-80063002D01*
X119324977Y-80132500D01*
X119293454Y-80194855D01*
X119274158Y-80211575D01*
X119088597Y-80341505D01*
X118921505Y-80508597D01*
X118785965Y-80702169D01*
X118785964Y-80702171D01*
X118686098Y-80916335D01*
X118686094Y-80916344D01*
X118624938Y-81144586D01*
X118624936Y-81144596D01*
X118604341Y-81379999D01*
X118604341Y-81380000D01*
X118624936Y-81615403D01*
X118624938Y-81615413D01*
X118686094Y-81843655D01*
X118686096Y-81843659D01*
X118686097Y-81843663D01*
X118782547Y-82050500D01*
X118785965Y-82057830D01*
X118785967Y-82057834D01*
X118850838Y-82150478D01*
X118913074Y-82239361D01*
X118921501Y-82251395D01*
X118921506Y-82251402D01*
X119088597Y-82418493D01*
X119088603Y-82418498D01*
X119274158Y-82548425D01*
X119317783Y-82603002D01*
X119324977Y-82672500D01*
X119293454Y-82734855D01*
X119274158Y-82751575D01*
X119088597Y-82881505D01*
X118921505Y-83048597D01*
X118785965Y-83242169D01*
X118785964Y-83242171D01*
X118686098Y-83456335D01*
X118686094Y-83456344D01*
X118624938Y-83684586D01*
X118624936Y-83684596D01*
X118604341Y-83919999D01*
X118604341Y-83920000D01*
X118624936Y-84155403D01*
X118624938Y-84155413D01*
X118686094Y-84383655D01*
X118686096Y-84383659D01*
X118686097Y-84383663D01*
X118749906Y-84520501D01*
X118785965Y-84597830D01*
X118785967Y-84597834D01*
X118921501Y-84791395D01*
X118921506Y-84791402D01*
X119088597Y-84958493D01*
X119088603Y-84958498D01*
X119274158Y-85088425D01*
X119317783Y-85143002D01*
X119324977Y-85212500D01*
X119293454Y-85274855D01*
X119274158Y-85291575D01*
X119088597Y-85421505D01*
X118921505Y-85588597D01*
X118785965Y-85782169D01*
X118785964Y-85782171D01*
X118686098Y-85996335D01*
X118686094Y-85996344D01*
X118624938Y-86224586D01*
X118624936Y-86224596D01*
X118604341Y-86459999D01*
X118604341Y-86460000D01*
X118624936Y-86695403D01*
X118624938Y-86695413D01*
X118686094Y-86923655D01*
X118686096Y-86923659D01*
X118686097Y-86923663D01*
X118765240Y-87093386D01*
X118785965Y-87137830D01*
X118785967Y-87137834D01*
X118921501Y-87331395D01*
X118921506Y-87331402D01*
X119088597Y-87498493D01*
X119088603Y-87498498D01*
X119274158Y-87628425D01*
X119317783Y-87683002D01*
X119324977Y-87752500D01*
X119293454Y-87814855D01*
X119274158Y-87831575D01*
X119088597Y-87961505D01*
X118921505Y-88128597D01*
X118785965Y-88322169D01*
X118785964Y-88322171D01*
X118686098Y-88536335D01*
X118686094Y-88536344D01*
X118624938Y-88764586D01*
X118624936Y-88764596D01*
X118604341Y-88999999D01*
X118604341Y-89000000D01*
X118624936Y-89235403D01*
X118624938Y-89235413D01*
X118686094Y-89463655D01*
X118686096Y-89463659D01*
X118686097Y-89463663D01*
X118753330Y-89607844D01*
X118785965Y-89677830D01*
X118785967Y-89677834D01*
X118921501Y-89871395D01*
X118921506Y-89871402D01*
X119088597Y-90038493D01*
X119088603Y-90038498D01*
X119274158Y-90168425D01*
X119317783Y-90223002D01*
X119324977Y-90292500D01*
X119293454Y-90354855D01*
X119274158Y-90371575D01*
X119088597Y-90501505D01*
X118921505Y-90668597D01*
X118785965Y-90862169D01*
X118785964Y-90862171D01*
X118686098Y-91076335D01*
X118686094Y-91076344D01*
X118624938Y-91304586D01*
X118624936Y-91304596D01*
X118604341Y-91539999D01*
X118604341Y-91540000D01*
X118624936Y-91775403D01*
X118624938Y-91775413D01*
X118686094Y-92003655D01*
X118686096Y-92003659D01*
X118686097Y-92003663D01*
X118753330Y-92147844D01*
X118785965Y-92217830D01*
X118785967Y-92217834D01*
X118921501Y-92411395D01*
X118921506Y-92411402D01*
X119088597Y-92578493D01*
X119088603Y-92578498D01*
X119274158Y-92708425D01*
X119317783Y-92763002D01*
X119324977Y-92832500D01*
X119293454Y-92894855D01*
X119274158Y-92911575D01*
X119088597Y-93041505D01*
X118921505Y-93208597D01*
X118785965Y-93402169D01*
X118785964Y-93402171D01*
X118686098Y-93616335D01*
X118686094Y-93616344D01*
X118624938Y-93844586D01*
X118624936Y-93844596D01*
X118604341Y-94079999D01*
X118604341Y-94080000D01*
X118624936Y-94315403D01*
X118624938Y-94315413D01*
X118686094Y-94543655D01*
X118686096Y-94543659D01*
X118686097Y-94543663D01*
X118766004Y-94715023D01*
X118785965Y-94757830D01*
X118785967Y-94757834D01*
X118855238Y-94856762D01*
X118921501Y-94951396D01*
X118921506Y-94951402D01*
X119088597Y-95118493D01*
X119088603Y-95118498D01*
X119274158Y-95248425D01*
X119317783Y-95303002D01*
X119324977Y-95372500D01*
X119293454Y-95434855D01*
X119274158Y-95451575D01*
X119088597Y-95581505D01*
X118921505Y-95748597D01*
X118785965Y-95942169D01*
X118785964Y-95942171D01*
X118686098Y-96156335D01*
X118686094Y-96156344D01*
X118624938Y-96384586D01*
X118624936Y-96384596D01*
X118604341Y-96619999D01*
X118604341Y-96620000D01*
X118624936Y-96855403D01*
X118624938Y-96855413D01*
X118686094Y-97083655D01*
X118686096Y-97083659D01*
X118686097Y-97083663D01*
X118690000Y-97092032D01*
X118785965Y-97297830D01*
X118785967Y-97297834D01*
X118835600Y-97368716D01*
X118921505Y-97491401D01*
X119088599Y-97658495D01*
X119109299Y-97672989D01*
X119282165Y-97794032D01*
X119282167Y-97794033D01*
X119282170Y-97794035D01*
X119496337Y-97893903D01*
X119724592Y-97955063D01*
X119912918Y-97971539D01*
X119959999Y-97975659D01*
X119960000Y-97975659D01*
X119960001Y-97975659D01*
X119999234Y-97972226D01*
X120195408Y-97955063D01*
X120423663Y-97893903D01*
X120637830Y-97794035D01*
X120831401Y-97658495D01*
X120998495Y-97491401D01*
X121128425Y-97305842D01*
X121183002Y-97262217D01*
X121252500Y-97255023D01*
X121314855Y-97286546D01*
X121331575Y-97305842D01*
X121461500Y-97491395D01*
X121461505Y-97491401D01*
X121628599Y-97658495D01*
X121649299Y-97672989D01*
X121822165Y-97794032D01*
X121822167Y-97794033D01*
X121822170Y-97794035D01*
X122036337Y-97893903D01*
X122264592Y-97955063D01*
X122452918Y-97971539D01*
X122499999Y-97975659D01*
X122500000Y-97975659D01*
X122500001Y-97975659D01*
X122539234Y-97972226D01*
X122735408Y-97955063D01*
X122963663Y-97893903D01*
X123177830Y-97794035D01*
X123371401Y-97658495D01*
X123538495Y-97491401D01*
X123674035Y-97297830D01*
X123773903Y-97083663D01*
X123835063Y-96855408D01*
X123855659Y-96620000D01*
X123835063Y-96384592D01*
X123784074Y-96194297D01*
X123773905Y-96156344D01*
X123773904Y-96156343D01*
X123773903Y-96156337D01*
X123674035Y-95942171D01*
X123668425Y-95934158D01*
X123538494Y-95748597D01*
X123371402Y-95581506D01*
X123371396Y-95581501D01*
X123185842Y-95451575D01*
X123142217Y-95396998D01*
X123135023Y-95327500D01*
X123166546Y-95265145D01*
X123185842Y-95248425D01*
X123254286Y-95200500D01*
X123371401Y-95118495D01*
X123538495Y-94951401D01*
X123674035Y-94757830D01*
X123706373Y-94688480D01*
X123737330Y-94622095D01*
X123783503Y-94569656D01*
X123849712Y-94550500D01*
X130634433Y-94550500D01*
X130701472Y-94570185D01*
X130747227Y-94622989D01*
X130757171Y-94692147D01*
X130751474Y-94715455D01*
X130714633Y-94820737D01*
X130714630Y-94820750D01*
X130694435Y-94999996D01*
X130694435Y-95000003D01*
X130714630Y-95179249D01*
X130714631Y-95179254D01*
X130774211Y-95349523D01*
X130834810Y-95445965D01*
X130870184Y-95502262D01*
X130997738Y-95629816D01*
X131150478Y-95725789D01*
X131253017Y-95761669D01*
X131320745Y-95785368D01*
X131320750Y-95785369D01*
X131499996Y-95805565D01*
X131500000Y-95805565D01*
X131500004Y-95805565D01*
X131679249Y-95785369D01*
X131679252Y-95785368D01*
X131679255Y-95785368D01*
X131849522Y-95725789D01*
X132002262Y-95629816D01*
X132129816Y-95502262D01*
X132220131Y-95358525D01*
X132272463Y-95312236D01*
X132325118Y-95300499D01*
X133676860Y-95300499D01*
X133676863Y-95300499D01*
X133794253Y-95285046D01*
X133794257Y-95285044D01*
X133794262Y-95285044D01*
X133940341Y-95224536D01*
X134065782Y-95128282D01*
X134162036Y-95002841D01*
X134222544Y-94856762D01*
X134238000Y-94739361D01*
X134237999Y-94460640D01*
X134222544Y-94343238D01*
X134220813Y-94339060D01*
X134216891Y-94329592D01*
X134213934Y-94322454D01*
X134206465Y-94252986D01*
X134213935Y-94227545D01*
X134222544Y-94206762D01*
X134238000Y-94089361D01*
X134237999Y-93810640D01*
X134222544Y-93693238D01*
X134213934Y-93672454D01*
X134206465Y-93602986D01*
X134213935Y-93577545D01*
X134214036Y-93577301D01*
X134222544Y-93556762D01*
X134238000Y-93439361D01*
X134237999Y-93160640D01*
X134222544Y-93043238D01*
X134222542Y-93043234D01*
X134213935Y-93022455D01*
X134206465Y-92952986D01*
X134213935Y-92927545D01*
X134220550Y-92911575D01*
X134222544Y-92906762D01*
X134238000Y-92789361D01*
X134237999Y-92510640D01*
X134222544Y-92393238D01*
X134222542Y-92393234D01*
X134213935Y-92372455D01*
X134206465Y-92302986D01*
X134213935Y-92277545D01*
X134222544Y-92256762D01*
X134238000Y-92139361D01*
X134237999Y-91860640D01*
X134222544Y-91743238D01*
X134222542Y-91743234D01*
X134213935Y-91722455D01*
X134206465Y-91652986D01*
X134213935Y-91627545D01*
X134222544Y-91606762D01*
X134238000Y-91489361D01*
X134237999Y-91210640D01*
X134222544Y-91093238D01*
X134222542Y-91093234D01*
X134213935Y-91072455D01*
X134206465Y-91002986D01*
X134213935Y-90977545D01*
X134213989Y-90977415D01*
X134222544Y-90956762D01*
X134238000Y-90839361D01*
X134237999Y-90560640D01*
X134222544Y-90443238D01*
X134222542Y-90443234D01*
X134213935Y-90422455D01*
X134206465Y-90352986D01*
X134213935Y-90327545D01*
X134222544Y-90306762D01*
X134238000Y-90189361D01*
X134237999Y-89910640D01*
X134222544Y-89793238D01*
X134222542Y-89793234D01*
X134213935Y-89772455D01*
X134206465Y-89702986D01*
X134213935Y-89677545D01*
X134222544Y-89656762D01*
X134238000Y-89539361D01*
X134237999Y-89260640D01*
X134236532Y-89249499D01*
X134230082Y-89200499D01*
X134222544Y-89143238D01*
X134213934Y-89122454D01*
X134206465Y-89052986D01*
X134213935Y-89027545D01*
X134214204Y-89026895D01*
X134222544Y-89006762D01*
X134238000Y-88889361D01*
X134237999Y-88610640D01*
X134237999Y-88610638D01*
X134237999Y-88610636D01*
X134222546Y-88493246D01*
X134222544Y-88493239D01*
X134222544Y-88493238D01*
X134162036Y-88347159D01*
X134065782Y-88221718D01*
X133940341Y-88125464D01*
X133794262Y-88064956D01*
X133780626Y-88063160D01*
X133708313Y-88053640D01*
X133644417Y-88025373D01*
X133605947Y-87967048D01*
X133600500Y-87930701D01*
X133600500Y-87916519D01*
X133620185Y-87849480D01*
X133636814Y-87828842D01*
X133755472Y-87710185D01*
X133843478Y-87564606D01*
X133894086Y-87402196D01*
X133900500Y-87331616D01*
X133900500Y-86999996D01*
X135694435Y-86999996D01*
X135694435Y-87000000D01*
X135714630Y-87179249D01*
X135714631Y-87179254D01*
X135774211Y-87349523D01*
X135807308Y-87402196D01*
X135870184Y-87502262D01*
X135997738Y-87629816D01*
X136073136Y-87677192D01*
X136150073Y-87725535D01*
X136150478Y-87725789D01*
X136320739Y-87785366D01*
X136320745Y-87785368D01*
X136320750Y-87785369D01*
X136499996Y-87805565D01*
X136500000Y-87805565D01*
X136500004Y-87805565D01*
X136679249Y-87785369D01*
X136679251Y-87785368D01*
X136679255Y-87785368D01*
X136679258Y-87785366D01*
X136679262Y-87785366D01*
X136780245Y-87750029D01*
X136849522Y-87725789D01*
X136849523Y-87725788D01*
X136850247Y-87725535D01*
X136920025Y-87721972D01*
X136978883Y-87754895D01*
X137046955Y-87822967D01*
X137046959Y-87822970D01*
X137191294Y-87911998D01*
X137191297Y-87911999D01*
X137191303Y-87912003D01*
X137352292Y-87965349D01*
X137451655Y-87975500D01*
X137615627Y-87975499D01*
X137682665Y-87995183D01*
X137728420Y-88047987D01*
X137738364Y-88117145D01*
X137709339Y-88180701D01*
X137691114Y-88197873D01*
X137659578Y-88222072D01*
X137563399Y-88347413D01*
X137502944Y-88493368D01*
X137495487Y-88550000D01*
X137713197Y-88550000D01*
X137780236Y-88569685D01*
X137825991Y-88622489D01*
X137835935Y-88691647D01*
X137806910Y-88755203D01*
X137788684Y-88772376D01*
X137784660Y-88775463D01*
X137784659Y-88775464D01*
X137778989Y-88779815D01*
X137659215Y-88871720D01*
X137636375Y-88901487D01*
X137579947Y-88942690D01*
X137538000Y-88950000D01*
X137495490Y-88950000D01*
X137495488Y-88950001D01*
X137502941Y-89006622D01*
X137502945Y-89006634D01*
X137511337Y-89026895D01*
X137518804Y-89096364D01*
X137511338Y-89121794D01*
X137502456Y-89143238D01*
X137502455Y-89143239D01*
X137487000Y-89260638D01*
X137487000Y-89539363D01*
X137502453Y-89656753D01*
X137502457Y-89656765D01*
X137511066Y-89677550D01*
X137518533Y-89747019D01*
X137511066Y-89772450D01*
X137502457Y-89793234D01*
X137502455Y-89793239D01*
X137487000Y-89910638D01*
X137487000Y-90189363D01*
X137502453Y-90306753D01*
X137502457Y-90306765D01*
X137511066Y-90327550D01*
X137518533Y-90397019D01*
X137511066Y-90422450D01*
X137502457Y-90443234D01*
X137502455Y-90443239D01*
X137487000Y-90560638D01*
X137487000Y-90839363D01*
X137502453Y-90956753D01*
X137502457Y-90956765D01*
X137511066Y-90977550D01*
X137518533Y-91047019D01*
X137511066Y-91072450D01*
X137502457Y-91093234D01*
X137502455Y-91093239D01*
X137487000Y-91210638D01*
X137487000Y-91489363D01*
X137502453Y-91606753D01*
X137502457Y-91606765D01*
X137511066Y-91627550D01*
X137518533Y-91697019D01*
X137511066Y-91722450D01*
X137502457Y-91743234D01*
X137502455Y-91743239D01*
X137487000Y-91860638D01*
X137487000Y-92139363D01*
X137502453Y-92256753D01*
X137502457Y-92256765D01*
X137511066Y-92277550D01*
X137518533Y-92347019D01*
X137511066Y-92372450D01*
X137502457Y-92393234D01*
X137502455Y-92393239D01*
X137487000Y-92510638D01*
X137487000Y-92789363D01*
X137502453Y-92906753D01*
X137502457Y-92906765D01*
X137511066Y-92927550D01*
X137518533Y-92997019D01*
X137511066Y-93022450D01*
X137502457Y-93043234D01*
X137502455Y-93043239D01*
X137487000Y-93160638D01*
X137487000Y-93439363D01*
X137497853Y-93521805D01*
X137487086Y-93590840D01*
X137462596Y-93625669D01*
X137318786Y-93769479D01*
X137206981Y-93881283D01*
X137206979Y-93881286D01*
X137156861Y-93968095D01*
X137156859Y-93968097D01*
X137127925Y-94018210D01*
X137127924Y-94018211D01*
X137127923Y-94018216D01*
X137086999Y-94170944D01*
X137086999Y-94170946D01*
X137086999Y-94339047D01*
X137087000Y-94339060D01*
X137087000Y-95100830D01*
X137086999Y-95100848D01*
X137086999Y-95266554D01*
X137086998Y-95266554D01*
X137127923Y-95419284D01*
X137127924Y-95419288D01*
X137133562Y-95429053D01*
X137133565Y-95429057D01*
X137206977Y-95556212D01*
X137206981Y-95556217D01*
X137325849Y-95675085D01*
X137325855Y-95675090D01*
X139015139Y-97364374D01*
X139015149Y-97364385D01*
X139019479Y-97368715D01*
X139019480Y-97368716D01*
X139131284Y-97480520D01*
X139218095Y-97530639D01*
X139218097Y-97530641D01*
X139256151Y-97552611D01*
X139268215Y-97559577D01*
X139420943Y-97600500D01*
X149595146Y-97600500D01*
X149662185Y-97620185D01*
X149707940Y-97672989D01*
X149717884Y-97742147D01*
X149700684Y-97789598D01*
X149690644Y-97805873D01*
X149690641Y-97805880D01*
X149635494Y-97972302D01*
X149635493Y-97972309D01*
X149625000Y-98075013D01*
X149625000Y-98250000D01*
X152374999Y-98250000D01*
X152374999Y-98075028D01*
X152374998Y-98075013D01*
X152364505Y-97972302D01*
X152309358Y-97805880D01*
X152309355Y-97805873D01*
X152299316Y-97789598D01*
X152280875Y-97722206D01*
X152301797Y-97655542D01*
X152355438Y-97610772D01*
X152404854Y-97600500D01*
X152595146Y-97600500D01*
X152662185Y-97620185D01*
X152707940Y-97672989D01*
X152717884Y-97742147D01*
X152700684Y-97789598D01*
X152690644Y-97805873D01*
X152690641Y-97805880D01*
X152635494Y-97972302D01*
X152635493Y-97972309D01*
X152625000Y-98075013D01*
X152625000Y-98250000D01*
X155374999Y-98250000D01*
X155374999Y-98075028D01*
X155374998Y-98075013D01*
X155364505Y-97972302D01*
X155309358Y-97805880D01*
X155309355Y-97805873D01*
X155299316Y-97789598D01*
X155280875Y-97722206D01*
X155301797Y-97655542D01*
X155355438Y-97610772D01*
X155404854Y-97600500D01*
X155595146Y-97600500D01*
X155662185Y-97620185D01*
X155707940Y-97672989D01*
X155717884Y-97742147D01*
X155700684Y-97789598D01*
X155690644Y-97805873D01*
X155690641Y-97805880D01*
X155635494Y-97972302D01*
X155635493Y-97972309D01*
X155625000Y-98075013D01*
X155625000Y-98250000D01*
X158374999Y-98250000D01*
X158374999Y-98075028D01*
X158374998Y-98075013D01*
X158364505Y-97972302D01*
X158309358Y-97805880D01*
X158309355Y-97805873D01*
X158299316Y-97789598D01*
X158280875Y-97722206D01*
X158301797Y-97655542D01*
X158355438Y-97610772D01*
X158404854Y-97600500D01*
X158595146Y-97600500D01*
X158662185Y-97620185D01*
X158707940Y-97672989D01*
X158717884Y-97742147D01*
X158700684Y-97789598D01*
X158690644Y-97805873D01*
X158690641Y-97805880D01*
X158635494Y-97972302D01*
X158635493Y-97972309D01*
X158625000Y-98075013D01*
X158625000Y-98250000D01*
X161374999Y-98250000D01*
X161374999Y-98075028D01*
X161374998Y-98075013D01*
X161364505Y-97972302D01*
X161309358Y-97805880D01*
X161309355Y-97805873D01*
X161299316Y-97789598D01*
X161280875Y-97722206D01*
X161301797Y-97655542D01*
X161355438Y-97610772D01*
X161404854Y-97600500D01*
X168913331Y-97600500D01*
X168913347Y-97600501D01*
X168920943Y-97600501D01*
X169079054Y-97600501D01*
X169079057Y-97600501D01*
X169231785Y-97559577D01*
X169281904Y-97530639D01*
X169368716Y-97480520D01*
X169480520Y-97368716D01*
X169480520Y-97368714D01*
X169490728Y-97358507D01*
X169490730Y-97358504D01*
X171008506Y-95840728D01*
X171008511Y-95840724D01*
X171018714Y-95830520D01*
X171018716Y-95830520D01*
X171130520Y-95718716D01*
X171209577Y-95581784D01*
X171245970Y-95445965D01*
X171250500Y-95429058D01*
X171250500Y-95270943D01*
X171250500Y-93359060D01*
X171250501Y-93359047D01*
X171250501Y-93190944D01*
X171245641Y-93172807D01*
X171209577Y-93038216D01*
X171209573Y-93038209D01*
X171130524Y-92901290D01*
X171130518Y-92901282D01*
X170832766Y-92603530D01*
X170799281Y-92542207D01*
X170800672Y-92483755D01*
X170820059Y-92411402D01*
X170835063Y-92355408D01*
X170855659Y-92120000D01*
X170835063Y-91884592D01*
X170784804Y-91697019D01*
X170773905Y-91656344D01*
X170773904Y-91656343D01*
X170773903Y-91656337D01*
X170674035Y-91442171D01*
X170616775Y-91360394D01*
X170538494Y-91248597D01*
X170510419Y-91220522D01*
X170476934Y-91159199D01*
X170481918Y-91089507D01*
X170510417Y-91045162D01*
X171358506Y-90197074D01*
X171358511Y-90197070D01*
X171368714Y-90186866D01*
X171368716Y-90186866D01*
X171480520Y-90075062D01*
X171559577Y-89938130D01*
X171599402Y-89789500D01*
X171599402Y-89789499D01*
X171599408Y-89789500D01*
X171599408Y-89789474D01*
X171600500Y-89785404D01*
X171600500Y-89627289D01*
X171600500Y-88460943D01*
X171559577Y-88308216D01*
X171533288Y-88262681D01*
X171480524Y-88171290D01*
X171480521Y-88171286D01*
X171480520Y-88171284D01*
X171368716Y-88059480D01*
X171368715Y-88059479D01*
X171364385Y-88055149D01*
X171364374Y-88055139D01*
X170832766Y-87523531D01*
X170799281Y-87462208D01*
X170800672Y-87403757D01*
X170820002Y-87331616D01*
X170835063Y-87275408D01*
X170855659Y-87040000D01*
X170835063Y-86804592D01*
X170773903Y-86576337D01*
X170674035Y-86362171D01*
X170668425Y-86354158D01*
X170538494Y-86168597D01*
X170371402Y-86001506D01*
X170371396Y-86001501D01*
X170185842Y-85871575D01*
X170142217Y-85816998D01*
X170135023Y-85747500D01*
X170166546Y-85685145D01*
X170185842Y-85668425D01*
X170211476Y-85650476D01*
X170371401Y-85538495D01*
X170538495Y-85371401D01*
X170674035Y-85177830D01*
X170773903Y-84963663D01*
X170835063Y-84735408D01*
X170855659Y-84500000D01*
X170835063Y-84264592D01*
X170773903Y-84036337D01*
X170674035Y-83822171D01*
X170621274Y-83746819D01*
X170538494Y-83628597D01*
X170371402Y-83461506D01*
X170371396Y-83461501D01*
X170185842Y-83331575D01*
X170142217Y-83276998D01*
X170135023Y-83207500D01*
X170166546Y-83145145D01*
X170185842Y-83128425D01*
X170208026Y-83112891D01*
X170371401Y-82998495D01*
X170538495Y-82831401D01*
X170674035Y-82637830D01*
X170773903Y-82423663D01*
X170835063Y-82195408D01*
X170855659Y-81960000D01*
X170835063Y-81724592D01*
X170773903Y-81496337D01*
X170674035Y-81282171D01*
X170668425Y-81274158D01*
X170538494Y-81088597D01*
X170371402Y-80921506D01*
X170371396Y-80921501D01*
X170185842Y-80791575D01*
X170142217Y-80736998D01*
X170135023Y-80667500D01*
X170166546Y-80605145D01*
X170185842Y-80588425D01*
X170250374Y-80543239D01*
X170371401Y-80458495D01*
X170538495Y-80291401D01*
X170674035Y-80097830D01*
X170773903Y-79883663D01*
X170835063Y-79655408D01*
X170855659Y-79420000D01*
X170835063Y-79184592D01*
X170773903Y-78956337D01*
X170674035Y-78742171D01*
X170651957Y-78710639D01*
X170538494Y-78548597D01*
X170371402Y-78381506D01*
X170371396Y-78381501D01*
X170185842Y-78251575D01*
X170142217Y-78196998D01*
X170135023Y-78127500D01*
X170166546Y-78065145D01*
X170185842Y-78048425D01*
X170259057Y-77997159D01*
X170371401Y-77918495D01*
X170538495Y-77751401D01*
X170674035Y-77557830D01*
X170773903Y-77343663D01*
X170835063Y-77115408D01*
X170855659Y-76880000D01*
X170855397Y-76877011D01*
X170848488Y-76798039D01*
X170835063Y-76644592D01*
X170773903Y-76416337D01*
X170674035Y-76202171D01*
X170672166Y-76199501D01*
X170538494Y-76008597D01*
X170371402Y-75841506D01*
X170371395Y-75841501D01*
X170344697Y-75822807D01*
X170294510Y-75787665D01*
X170177834Y-75705967D01*
X170177830Y-75705965D01*
X170137777Y-75687288D01*
X169963663Y-75606097D01*
X169963659Y-75606096D01*
X169963655Y-75606094D01*
X169735413Y-75544938D01*
X169735403Y-75544936D01*
X169500001Y-75524341D01*
X169499999Y-75524341D01*
X169264596Y-75544936D01*
X169264586Y-75544938D01*
X169036344Y-75606094D01*
X169036335Y-75606098D01*
X168822171Y-75705964D01*
X168822169Y-75705965D01*
X168628597Y-75841505D01*
X168461503Y-76008599D01*
X168460349Y-76009975D01*
X168459688Y-76010414D01*
X168457676Y-76012427D01*
X168457271Y-76012022D01*
X168402173Y-76048671D01*
X168332312Y-76049772D01*
X168272946Y-76012928D01*
X168247663Y-75969265D01*
X168244814Y-75960666D01*
X168152712Y-75811344D01*
X168028656Y-75687288D01*
X167902703Y-75609600D01*
X167879336Y-75595187D01*
X167879331Y-75595185D01*
X167827153Y-75577895D01*
X167712797Y-75540001D01*
X167712795Y-75540000D01*
X167610010Y-75529500D01*
X166309998Y-75529500D01*
X166309981Y-75529501D01*
X166207203Y-75540000D01*
X166207200Y-75540001D01*
X166040668Y-75595185D01*
X166040663Y-75595187D01*
X165891342Y-75687289D01*
X165767289Y-75811342D01*
X165675187Y-75960663D01*
X165675185Y-75960668D01*
X165658701Y-76010414D01*
X165620001Y-76127203D01*
X165620001Y-76127204D01*
X165620000Y-76127204D01*
X165609500Y-76229983D01*
X165609500Y-77329902D01*
X165589815Y-77396941D01*
X165573181Y-77417583D01*
X164672584Y-78318181D01*
X164611261Y-78351666D01*
X164584903Y-78354500D01*
X160818409Y-78354500D01*
X160751370Y-78334815D01*
X160705615Y-78282011D01*
X160695671Y-78212853D01*
X160711022Y-78168500D01*
X160809945Y-77997159D01*
X160809947Y-77997156D01*
X160914315Y-77745190D01*
X160984902Y-77481756D01*
X161020500Y-77211363D01*
X161020500Y-75998637D01*
X160984902Y-75728244D01*
X160914315Y-75464810D01*
X160838454Y-75281666D01*
X160809952Y-75212855D01*
X160809945Y-75212840D01*
X160673584Y-74976656D01*
X160507560Y-74760289D01*
X160507554Y-74760282D01*
X160314717Y-74567445D01*
X160314710Y-74567439D01*
X160098343Y-74401415D01*
X159862159Y-74265054D01*
X159862144Y-74265047D01*
X159610188Y-74160684D01*
X159346754Y-74090097D01*
X159076372Y-74054501D01*
X159076369Y-74054500D01*
X159076363Y-74054500D01*
X158803637Y-74054500D01*
X158803631Y-74054500D01*
X158803627Y-74054501D01*
X158533245Y-74090097D01*
X158269811Y-74160684D01*
X158017855Y-74265047D01*
X158017840Y-74265054D01*
X157781656Y-74401415D01*
X157565289Y-74567439D01*
X157565282Y-74567445D01*
X157372445Y-74760282D01*
X157372439Y-74760289D01*
X157206415Y-74976656D01*
X157068023Y-75216360D01*
X157066585Y-75215530D01*
X157023885Y-75261926D01*
X156956286Y-75279593D01*
X156889866Y-75257909D01*
X156853234Y-75215634D01*
X156851977Y-75216360D01*
X156713584Y-74976656D01*
X156547560Y-74760289D01*
X156547554Y-74760282D01*
X156354717Y-74567445D01*
X156354710Y-74567439D01*
X156138343Y-74401415D01*
X155902159Y-74265054D01*
X155902144Y-74265047D01*
X155650188Y-74160684D01*
X155386754Y-74090097D01*
X155116372Y-74054501D01*
X155116369Y-74054500D01*
X155116363Y-74054500D01*
X154843637Y-74054500D01*
X154843631Y-74054500D01*
X154843627Y-74054501D01*
X154573245Y-74090097D01*
X154309811Y-74160684D01*
X154057855Y-74265047D01*
X154057840Y-74265054D01*
X153821656Y-74401415D01*
X153605289Y-74567439D01*
X153605282Y-74567445D01*
X153412445Y-74760282D01*
X153412439Y-74760289D01*
X153246415Y-74976656D01*
X153108023Y-75216360D01*
X153106750Y-75215625D01*
X153063571Y-75262512D01*
X152995966Y-75280158D01*
X152929553Y-75258453D01*
X152892707Y-75215901D01*
X152891528Y-75216582D01*
X152753168Y-74976933D01*
X152587181Y-74760617D01*
X152587174Y-74760609D01*
X152394391Y-74567826D01*
X152394382Y-74567818D01*
X152178066Y-74401831D01*
X151941937Y-74265503D01*
X151941927Y-74265499D01*
X151690029Y-74161159D01*
X151426655Y-74090588D01*
X151270000Y-74069963D01*
X151270000Y-75788519D01*
X151267936Y-75787665D01*
X151103718Y-75755000D01*
X150936282Y-75755000D01*
X150772064Y-75787665D01*
X150770000Y-75788519D01*
X150770000Y-74069963D01*
X150769999Y-74069963D01*
X150613344Y-74090588D01*
X150349970Y-74161159D01*
X150098072Y-74265499D01*
X150098062Y-74265503D01*
X149861933Y-74401831D01*
X149645617Y-74567818D01*
X149452818Y-74760617D01*
X149362374Y-74878486D01*
X149305946Y-74919688D01*
X149236200Y-74923843D01*
X149175280Y-74889630D01*
X149142528Y-74827913D01*
X149139999Y-74802999D01*
X149139999Y-74755028D01*
X149139998Y-74755013D01*
X149129505Y-74652302D01*
X149074358Y-74485880D01*
X149074356Y-74485875D01*
X148982315Y-74336654D01*
X148858345Y-74212684D01*
X148709124Y-74120643D01*
X148709119Y-74120641D01*
X148542697Y-74065494D01*
X148542690Y-74065493D01*
X148439986Y-74055000D01*
X147310000Y-74055000D01*
X147310000Y-75788519D01*
X147307936Y-75787665D01*
X147143718Y-75755000D01*
X146976282Y-75755000D01*
X146812064Y-75787665D01*
X146810000Y-75788519D01*
X146810000Y-74055000D01*
X145680028Y-74055000D01*
X145680012Y-74055001D01*
X145577302Y-74065494D01*
X145410880Y-74120641D01*
X145410875Y-74120643D01*
X145261654Y-74212684D01*
X145137684Y-74336654D01*
X145045643Y-74485875D01*
X145045641Y-74485880D01*
X144990494Y-74652302D01*
X144990493Y-74652309D01*
X144980000Y-74755013D01*
X144980000Y-76355000D01*
X146243520Y-76355000D01*
X146242665Y-76357064D01*
X146210000Y-76521282D01*
X146210000Y-76688718D01*
X146242665Y-76852936D01*
X146243520Y-76855000D01*
X144980000Y-76855000D01*
X144980000Y-77291147D01*
X144960315Y-77358187D01*
X144907511Y-77403941D01*
X144838353Y-77413885D01*
X144774797Y-77384860D01*
X144768319Y-77378828D01*
X144577846Y-77188355D01*
X144577844Y-77188352D01*
X144458973Y-77069481D01*
X144458972Y-77069480D01*
X144372160Y-77019360D01*
X144372160Y-77019359D01*
X144372156Y-77019358D01*
X144322041Y-76990423D01*
X144169313Y-76949499D01*
X144011199Y-76949499D01*
X144003603Y-76949499D01*
X144003587Y-76949500D01*
X141950997Y-76949500D01*
X141883958Y-76929815D01*
X141838203Y-76877011D01*
X141828259Y-76807853D01*
X141844878Y-76761353D01*
X141918478Y-76639606D01*
X141969086Y-76477196D01*
X141975500Y-76406616D01*
X141975500Y-75893384D01*
X141969086Y-75822804D01*
X141918478Y-75660394D01*
X141830472Y-75514815D01*
X141830470Y-75514813D01*
X141830469Y-75514811D01*
X141728339Y-75412681D01*
X141694854Y-75351358D01*
X141699838Y-75281666D01*
X141728339Y-75237319D01*
X141830468Y-75135189D01*
X141830469Y-75135188D01*
X141830472Y-75135185D01*
X141918478Y-74989606D01*
X141969086Y-74827196D01*
X141975500Y-74756616D01*
X141975500Y-74243384D01*
X141969086Y-74172804D01*
X141921856Y-74021237D01*
X141920707Y-73951382D01*
X141952560Y-73896673D01*
X142018535Y-73830698D01*
X142079856Y-73797215D01*
X142092311Y-73795163D01*
X142179255Y-73785368D01*
X142349522Y-73725789D01*
X142502262Y-73629816D01*
X142629816Y-73502262D01*
X142725789Y-73349522D01*
X142785368Y-73179255D01*
X142785574Y-73177427D01*
X142805565Y-73000003D01*
X142805565Y-72999996D01*
X142785369Y-72820750D01*
X142785368Y-72820745D01*
X142749491Y-72718215D01*
X142725789Y-72650478D01*
X142629816Y-72497738D01*
X142502262Y-72370184D01*
X142349523Y-72274211D01*
X142179254Y-72214631D01*
X142179249Y-72214630D01*
X142000004Y-72194435D01*
X141999996Y-72194435D01*
X141820750Y-72214630D01*
X141820745Y-72214631D01*
X141650476Y-72274211D01*
X141497737Y-72370184D01*
X141370184Y-72497737D01*
X141274210Y-72650478D01*
X141214630Y-72820750D01*
X141204837Y-72907668D01*
X141177770Y-72972082D01*
X141169298Y-72981465D01*
X140631286Y-73519478D01*
X140631283Y-73519480D01*
X140542488Y-73608273D01*
X140491699Y-73638976D01*
X140435396Y-73656521D01*
X140435394Y-73656521D01*
X140435394Y-73656522D01*
X140386867Y-73685857D01*
X140289811Y-73744530D01*
X140169530Y-73864811D01*
X140081522Y-74010393D01*
X140030913Y-74172807D01*
X140024500Y-74243386D01*
X140024500Y-74756613D01*
X140030913Y-74827192D01*
X140030913Y-74827194D01*
X140030914Y-74827196D01*
X140077487Y-74976656D01*
X140081522Y-74989606D01*
X140169530Y-75135188D01*
X140271661Y-75237319D01*
X140305146Y-75298642D01*
X140300162Y-75368334D01*
X140271661Y-75412681D01*
X140169531Y-75514810D01*
X140169530Y-75514811D01*
X140081522Y-75660393D01*
X140030913Y-75822807D01*
X140024500Y-75893386D01*
X140024500Y-76175500D01*
X140004815Y-76242539D01*
X139952011Y-76288294D01*
X139900500Y-76299500D01*
X139513757Y-76299500D01*
X139446718Y-76279815D01*
X139438250Y-76273860D01*
X139436296Y-76272360D01*
X139395105Y-76215924D01*
X139390965Y-76146177D01*
X139425190Y-76085264D01*
X139486914Y-76052524D01*
X139511803Y-76050000D01*
X139729510Y-76050000D01*
X139729511Y-76049998D01*
X139722057Y-75993372D01*
X139722055Y-75993366D01*
X139661600Y-75847414D01*
X139565424Y-75722075D01*
X139440086Y-75625899D01*
X139294134Y-75565445D01*
X139294130Y-75565444D01*
X139176830Y-75550000D01*
X138700000Y-75550000D01*
X138700000Y-76075500D01*
X138680315Y-76142539D01*
X138627511Y-76188294D01*
X138576000Y-76199500D01*
X138424000Y-76199500D01*
X138356961Y-76179815D01*
X138311206Y-76127011D01*
X138300000Y-76075500D01*
X138300000Y-75550000D01*
X137823175Y-75550000D01*
X137705871Y-75565442D01*
X137705866Y-75565444D01*
X137559914Y-75625899D01*
X137434575Y-75722075D01*
X137338399Y-75847413D01*
X137277944Y-75993368D01*
X137270487Y-76050000D01*
X137488197Y-76050000D01*
X137555236Y-76069685D01*
X137600991Y-76122489D01*
X137610935Y-76191647D01*
X137581910Y-76255203D01*
X137563684Y-76272376D01*
X137559660Y-76275463D01*
X137559659Y-76275464D01*
X137527683Y-76300000D01*
X137434215Y-76371720D01*
X137411375Y-76401487D01*
X137354947Y-76442690D01*
X137313000Y-76450000D01*
X137270490Y-76450000D01*
X137270488Y-76450001D01*
X137277941Y-76506622D01*
X137277945Y-76506634D01*
X137286337Y-76526895D01*
X137293804Y-76596364D01*
X137286338Y-76621794D01*
X137277456Y-76643238D01*
X137277455Y-76643239D01*
X137262000Y-76760638D01*
X137262000Y-77039363D01*
X137277453Y-77156753D01*
X137277457Y-77156765D01*
X137286066Y-77177550D01*
X137293533Y-77247019D01*
X137286066Y-77272450D01*
X137277457Y-77293234D01*
X137277455Y-77293239D01*
X137262000Y-77410638D01*
X137262000Y-77689363D01*
X137277453Y-77806753D01*
X137277457Y-77806765D01*
X137286066Y-77827550D01*
X137293533Y-77897019D01*
X137286066Y-77922450D01*
X137277457Y-77943234D01*
X137277455Y-77943239D01*
X137262000Y-78060638D01*
X137262000Y-78339363D01*
X137277453Y-78456753D01*
X137277457Y-78456765D01*
X137286066Y-78477550D01*
X137293533Y-78547019D01*
X137286066Y-78572450D01*
X137277457Y-78593234D01*
X137277455Y-78593239D01*
X137262000Y-78710638D01*
X137262000Y-78989363D01*
X137277453Y-79106753D01*
X137277457Y-79106765D01*
X137286066Y-79127550D01*
X137293533Y-79197019D01*
X137286066Y-79222450D01*
X137277457Y-79243234D01*
X137277455Y-79243239D01*
X137262000Y-79360638D01*
X137262000Y-79639363D01*
X137277453Y-79756753D01*
X137277457Y-79756765D01*
X137286066Y-79777550D01*
X137293533Y-79847019D01*
X137286066Y-79872450D01*
X137277457Y-79893234D01*
X137277455Y-79893239D01*
X137262000Y-80010638D01*
X137262000Y-80289363D01*
X137277453Y-80406753D01*
X137277457Y-80406765D01*
X137286066Y-80427550D01*
X137293533Y-80497019D01*
X137286066Y-80522450D01*
X137277457Y-80543234D01*
X137277455Y-80543239D01*
X137262000Y-80660638D01*
X137262000Y-80939363D01*
X137277453Y-81056753D01*
X137277457Y-81056765D01*
X137286066Y-81077550D01*
X137293533Y-81147019D01*
X137286066Y-81172450D01*
X137277457Y-81193234D01*
X137277455Y-81193239D01*
X137262000Y-81310638D01*
X137262000Y-81589363D01*
X137277453Y-81706753D01*
X137277457Y-81706765D01*
X137286066Y-81727550D01*
X137293533Y-81797019D01*
X137286066Y-81822450D01*
X137277457Y-81843234D01*
X137277455Y-81843239D01*
X137262000Y-81960638D01*
X137262000Y-82239363D01*
X137277453Y-82356753D01*
X137277456Y-82356762D01*
X137336785Y-82499996D01*
X137337964Y-82502841D01*
X137434218Y-82628282D01*
X137559659Y-82724536D01*
X137705738Y-82785044D01*
X137823139Y-82800500D01*
X138299902Y-82800499D01*
X138366941Y-82820183D01*
X138387583Y-82836818D01*
X140871661Y-85320896D01*
X140905146Y-85382219D01*
X140900162Y-85451911D01*
X140874321Y-85492125D01*
X140874528Y-85492290D01*
X140872922Y-85494302D01*
X140871675Y-85496245D01*
X140870188Y-85497731D01*
X140870186Y-85497734D01*
X140774211Y-85650476D01*
X140714631Y-85820745D01*
X140714630Y-85820750D01*
X140694435Y-85999996D01*
X140694435Y-86000003D01*
X140714630Y-86179249D01*
X140714631Y-86179254D01*
X140774211Y-86349523D01*
X140823051Y-86427251D01*
X140842051Y-86494488D01*
X140821683Y-86561323D01*
X140794529Y-86590835D01*
X140789810Y-86594531D01*
X140669530Y-86714811D01*
X140581522Y-86860393D01*
X140530913Y-87022807D01*
X140524500Y-87093386D01*
X140524500Y-87606613D01*
X140530913Y-87677192D01*
X140530913Y-87677194D01*
X140530914Y-87677196D01*
X140581522Y-87839606D01*
X140669530Y-87985188D01*
X140771661Y-88087319D01*
X140805146Y-88148642D01*
X140800162Y-88218334D01*
X140771661Y-88262681D01*
X140669531Y-88364810D01*
X140669530Y-88364811D01*
X140581522Y-88510393D01*
X140568394Y-88552524D01*
X140530914Y-88672804D01*
X140530914Y-88672806D01*
X140529649Y-88686725D01*
X140503977Y-88751707D01*
X140447248Y-88792494D01*
X140406158Y-88799500D01*
X139738757Y-88799500D01*
X139671718Y-88779815D01*
X139663250Y-88773860D01*
X139661296Y-88772360D01*
X139620105Y-88715924D01*
X139615965Y-88646177D01*
X139650190Y-88585264D01*
X139711914Y-88552524D01*
X139736803Y-88550000D01*
X139954510Y-88550000D01*
X139954511Y-88549998D01*
X139947057Y-88493372D01*
X139947055Y-88493366D01*
X139886600Y-88347414D01*
X139790424Y-88222075D01*
X139698905Y-88151850D01*
X139657703Y-88095422D01*
X139653548Y-88025676D01*
X139687761Y-87964755D01*
X139735388Y-87935768D01*
X139808481Y-87911547D01*
X139808492Y-87911542D01*
X139952728Y-87822575D01*
X139952732Y-87822572D01*
X140072572Y-87702732D01*
X140072575Y-87702728D01*
X140161542Y-87558492D01*
X140161547Y-87558481D01*
X140214855Y-87397606D01*
X140224999Y-87298322D01*
X140225000Y-87298309D01*
X140225000Y-87250000D01*
X139399000Y-87250000D01*
X139331961Y-87230315D01*
X139286206Y-87177511D01*
X139275000Y-87126000D01*
X139275000Y-87000000D01*
X139149000Y-87000000D01*
X139081961Y-86980315D01*
X139036206Y-86927511D01*
X139025000Y-86876000D01*
X139025000Y-86750000D01*
X139525000Y-86750000D01*
X140224999Y-86750000D01*
X140224999Y-86701692D01*
X140224998Y-86701677D01*
X140214855Y-86602392D01*
X140161547Y-86441518D01*
X140161542Y-86441507D01*
X140072575Y-86297271D01*
X140072572Y-86297267D01*
X139952732Y-86177427D01*
X139952728Y-86177424D01*
X139808492Y-86088457D01*
X139808481Y-86088452D01*
X139647606Y-86035144D01*
X139548322Y-86025000D01*
X139525000Y-86025000D01*
X139525000Y-86750000D01*
X139025000Y-86750000D01*
X139025000Y-86024999D01*
X139001693Y-86025000D01*
X139001674Y-86025001D01*
X138902392Y-86035144D01*
X138741518Y-86088452D01*
X138741507Y-86088457D01*
X138597271Y-86177424D01*
X138597265Y-86177428D01*
X138588031Y-86186663D01*
X138526707Y-86220146D01*
X138457015Y-86215159D01*
X138412672Y-86186660D01*
X138403044Y-86177032D01*
X138403040Y-86177029D01*
X138258705Y-86088001D01*
X138258699Y-86087998D01*
X138258697Y-86087997D01*
X138239157Y-86081522D01*
X138097709Y-86034651D01*
X137998346Y-86024500D01*
X137451662Y-86024500D01*
X137451644Y-86024501D01*
X137352292Y-86034650D01*
X137352289Y-86034651D01*
X137191305Y-86087996D01*
X137191294Y-86088001D01*
X137046959Y-86177029D01*
X136978883Y-86245105D01*
X136917559Y-86278589D01*
X136850247Y-86274464D01*
X136679262Y-86214633D01*
X136679249Y-86214630D01*
X136500004Y-86194435D01*
X136499996Y-86194435D01*
X136320750Y-86214630D01*
X136320745Y-86214631D01*
X136150476Y-86274211D01*
X135997737Y-86370184D01*
X135870184Y-86497737D01*
X135774211Y-86650476D01*
X135714631Y-86820745D01*
X135714630Y-86820750D01*
X135694435Y-86999996D01*
X133900500Y-86999996D01*
X133900500Y-86668384D01*
X133894086Y-86597804D01*
X133843478Y-86435394D01*
X133755472Y-86289815D01*
X133755470Y-86289813D01*
X133755469Y-86289811D01*
X133635188Y-86169530D01*
X133489606Y-86081522D01*
X133327196Y-86030914D01*
X133327194Y-86030913D01*
X133327192Y-86030913D01*
X133277778Y-86026423D01*
X133256616Y-86024500D01*
X132743384Y-86024500D01*
X132724145Y-86026248D01*
X132672807Y-86030913D01*
X132510393Y-86081522D01*
X132364811Y-86169530D01*
X132364810Y-86169531D01*
X132262327Y-86272015D01*
X132201004Y-86305500D01*
X132131312Y-86300516D01*
X132086965Y-86272015D01*
X131984877Y-86169927D01*
X131839395Y-86081980D01*
X131839396Y-86081980D01*
X131677105Y-86031409D01*
X131677106Y-86031409D01*
X131606572Y-86025000D01*
X131600000Y-86025000D01*
X131600000Y-87974999D01*
X131606581Y-87974999D01*
X131677102Y-87968591D01*
X131677107Y-87968590D01*
X131839396Y-87918018D01*
X131984877Y-87830072D01*
X131984878Y-87830071D01*
X132086963Y-87727985D01*
X132148286Y-87694499D01*
X132217977Y-87699483D01*
X132262326Y-87727983D01*
X132363182Y-87828839D01*
X132396666Y-87890160D01*
X132399500Y-87916519D01*
X132399500Y-87930702D01*
X132379815Y-87997741D01*
X132327011Y-88043496D01*
X132291684Y-88053641D01*
X132205746Y-88064954D01*
X132205737Y-88064956D01*
X132059660Y-88125463D01*
X131934218Y-88221718D01*
X131837963Y-88347160D01*
X131777456Y-88493237D01*
X131777455Y-88493239D01*
X131762000Y-88610638D01*
X131762000Y-88675500D01*
X131742315Y-88742539D01*
X131689511Y-88788294D01*
X131638000Y-88799500D01*
X130200098Y-88799500D01*
X130133059Y-88779815D01*
X130112417Y-88763181D01*
X128680817Y-87331582D01*
X130450001Y-87331582D01*
X130456408Y-87402102D01*
X130456409Y-87402107D01*
X130506981Y-87564396D01*
X130594927Y-87709877D01*
X130715122Y-87830072D01*
X130860604Y-87918019D01*
X130860603Y-87918019D01*
X131022894Y-87968590D01*
X131022893Y-87968590D01*
X131093408Y-87974998D01*
X131093426Y-87974999D01*
X131099999Y-87974998D01*
X131100000Y-87974998D01*
X131100000Y-87250000D01*
X130450001Y-87250000D01*
X130450001Y-87331582D01*
X128680817Y-87331582D01*
X128017662Y-86668427D01*
X130450000Y-86668427D01*
X130450000Y-86750000D01*
X131100000Y-86750000D01*
X131100000Y-86025000D01*
X131099999Y-86024999D01*
X131093436Y-86025000D01*
X131093417Y-86025001D01*
X131022897Y-86031408D01*
X131022892Y-86031409D01*
X130860603Y-86081981D01*
X130715122Y-86169927D01*
X130594927Y-86290122D01*
X130506980Y-86435604D01*
X130456409Y-86597893D01*
X130450000Y-86668427D01*
X128017662Y-86668427D01*
X126057590Y-84708355D01*
X126057588Y-84708352D01*
X125938717Y-84589481D01*
X125938709Y-84589475D01*
X125819241Y-84520501D01*
X125819238Y-84520500D01*
X125811229Y-84515876D01*
X125801785Y-84510423D01*
X125649057Y-84469499D01*
X125490943Y-84469499D01*
X125483347Y-84469499D01*
X125483331Y-84469500D01*
X125179096Y-84469500D01*
X125112057Y-84449815D01*
X125066302Y-84397011D01*
X125056358Y-84327853D01*
X125085383Y-84264297D01*
X125091415Y-84257819D01*
X127262416Y-82086819D01*
X127323739Y-82053334D01*
X127350097Y-82050500D01*
X130134433Y-82050500D01*
X130201472Y-82070185D01*
X130247227Y-82122989D01*
X130257171Y-82192147D01*
X130251474Y-82215455D01*
X130214633Y-82320737D01*
X130214630Y-82320750D01*
X130194435Y-82499996D01*
X130194435Y-82500003D01*
X130214630Y-82679249D01*
X130214631Y-82679254D01*
X130274211Y-82849523D01*
X130367816Y-82998493D01*
X130370184Y-83002262D01*
X130497738Y-83129816D01*
X130650478Y-83225789D01*
X130796825Y-83276998D01*
X130820745Y-83285368D01*
X130820750Y-83285369D01*
X130999996Y-83305565D01*
X131000000Y-83305565D01*
X131000004Y-83305565D01*
X131179249Y-83285369D01*
X131179252Y-83285368D01*
X131179255Y-83285368D01*
X131349522Y-83225789D01*
X131502262Y-83129816D01*
X131629816Y-83002262D01*
X131725789Y-82849522D01*
X131730763Y-82835306D01*
X131734450Y-82824771D01*
X131775172Y-82767995D01*
X131840124Y-82742247D01*
X131898944Y-82751163D01*
X131980738Y-82785044D01*
X132098139Y-82800500D01*
X133451860Y-82800499D01*
X133451863Y-82800499D01*
X133569253Y-82785046D01*
X133569257Y-82785044D01*
X133569262Y-82785044D01*
X133715341Y-82724536D01*
X133840782Y-82628282D01*
X133937036Y-82502841D01*
X133997544Y-82356762D01*
X134013000Y-82239361D01*
X134012999Y-81960640D01*
X133997544Y-81843238D01*
X133997542Y-81843234D01*
X133988935Y-81822455D01*
X133981465Y-81752986D01*
X133988935Y-81727545D01*
X133997544Y-81706762D01*
X134013000Y-81589361D01*
X134012999Y-81310640D01*
X133997544Y-81193238D01*
X133997542Y-81193234D01*
X133988935Y-81172455D01*
X133981465Y-81102986D01*
X133988935Y-81077545D01*
X133997544Y-81056762D01*
X134013000Y-80939361D01*
X134012999Y-80660640D01*
X133997544Y-80543238D01*
X133997542Y-80543234D01*
X133988935Y-80522455D01*
X133981465Y-80452986D01*
X133988935Y-80427545D01*
X133997544Y-80406762D01*
X134013000Y-80289361D01*
X134012999Y-80010640D01*
X134012707Y-80008425D01*
X134009777Y-79986170D01*
X133997544Y-79893238D01*
X133997542Y-79893234D01*
X133988935Y-79872455D01*
X133981465Y-79802986D01*
X133988935Y-79777545D01*
X133997544Y-79756762D01*
X134013000Y-79639361D01*
X134012999Y-79360640D01*
X133997544Y-79243238D01*
X133997542Y-79243234D01*
X133988935Y-79222455D01*
X133981465Y-79152986D01*
X133988935Y-79127545D01*
X133997544Y-79106762D01*
X134013000Y-78989361D01*
X134012999Y-78710640D01*
X133997544Y-78593238D01*
X133997542Y-78593234D01*
X133988935Y-78572455D01*
X133981465Y-78502986D01*
X133988935Y-78477545D01*
X133997544Y-78456762D01*
X134013000Y-78339361D01*
X134012999Y-78060640D01*
X133997544Y-77943238D01*
X133997542Y-77943234D01*
X133988935Y-77922455D01*
X133981465Y-77852986D01*
X133988935Y-77827545D01*
X133997544Y-77806762D01*
X134013000Y-77689361D01*
X134012999Y-77410640D01*
X133997544Y-77293238D01*
X133997542Y-77293234D01*
X133988935Y-77272455D01*
X133981465Y-77202986D01*
X133988935Y-77177545D01*
X133997544Y-77156762D01*
X134013000Y-77039361D01*
X134012999Y-76760640D01*
X133997544Y-76643238D01*
X133988934Y-76622454D01*
X133981465Y-76552986D01*
X133988935Y-76527545D01*
X133991529Y-76521282D01*
X133997544Y-76506762D01*
X134013000Y-76389361D01*
X134012999Y-76110640D01*
X134012999Y-76110638D01*
X134012999Y-76110636D01*
X133997546Y-75993246D01*
X133997544Y-75993239D01*
X133997544Y-75993238D01*
X133937036Y-75847159D01*
X133840782Y-75721718D01*
X133840780Y-75721717D01*
X133840780Y-75721716D01*
X133795912Y-75687288D01*
X133715341Y-75625464D01*
X133715337Y-75625462D01*
X133715334Y-75625460D01*
X133677046Y-75609600D01*
X133622643Y-75565759D01*
X133600579Y-75499464D01*
X133600500Y-75495040D01*
X133600500Y-74916519D01*
X133620185Y-74849480D01*
X133636813Y-74828843D01*
X133737675Y-74727981D01*
X133798994Y-74694499D01*
X133868686Y-74699483D01*
X133913034Y-74727984D01*
X134015122Y-74830072D01*
X134160604Y-74918019D01*
X134160603Y-74918019D01*
X134322894Y-74968590D01*
X134322893Y-74968590D01*
X134393408Y-74974998D01*
X134393426Y-74974999D01*
X134900000Y-74974999D01*
X134906581Y-74974999D01*
X134977102Y-74968591D01*
X134977107Y-74968590D01*
X135139396Y-74918018D01*
X135284877Y-74830072D01*
X135405072Y-74709877D01*
X135493019Y-74564395D01*
X135543590Y-74402106D01*
X135550000Y-74331572D01*
X135550000Y-74250000D01*
X134900000Y-74250000D01*
X134900000Y-74974999D01*
X134393426Y-74974999D01*
X134399999Y-74974998D01*
X134400000Y-74974998D01*
X134400000Y-73750000D01*
X134900000Y-73750000D01*
X135549999Y-73750000D01*
X135549999Y-73668417D01*
X135543591Y-73597897D01*
X135543590Y-73597892D01*
X135493018Y-73435603D01*
X135405072Y-73290122D01*
X135284877Y-73169927D01*
X135139395Y-73081980D01*
X135139396Y-73081980D01*
X134977105Y-73031409D01*
X134977106Y-73031409D01*
X134906572Y-73025000D01*
X134900000Y-73025000D01*
X134900000Y-73750000D01*
X134400000Y-73750000D01*
X134400000Y-73025000D01*
X134399999Y-73024999D01*
X134393436Y-73025000D01*
X134393417Y-73025001D01*
X134322897Y-73031408D01*
X134322892Y-73031409D01*
X134160603Y-73081981D01*
X134015122Y-73169927D01*
X134015121Y-73169928D01*
X133913035Y-73272015D01*
X133851712Y-73305500D01*
X133782020Y-73300516D01*
X133737673Y-73272015D01*
X133635188Y-73169530D01*
X133569493Y-73129816D01*
X133489606Y-73081522D01*
X133327196Y-73030914D01*
X133327194Y-73030913D01*
X133327192Y-73030913D01*
X133277778Y-73026423D01*
X133256616Y-73024500D01*
X132743384Y-73024500D01*
X132724145Y-73026248D01*
X132672807Y-73030913D01*
X132510393Y-73081522D01*
X132364811Y-73169530D01*
X132244530Y-73289811D01*
X132156522Y-73435393D01*
X132105913Y-73597807D01*
X132099500Y-73668386D01*
X132099500Y-74331613D01*
X132105913Y-74402192D01*
X132105913Y-74402194D01*
X132105914Y-74402196D01*
X132156522Y-74564606D01*
X132244528Y-74710185D01*
X132363182Y-74828839D01*
X132396666Y-74890160D01*
X132399500Y-74916519D01*
X132399500Y-75425500D01*
X132379815Y-75492539D01*
X132327011Y-75538294D01*
X132275501Y-75549500D01*
X132098136Y-75549500D01*
X131980746Y-75564953D01*
X131980737Y-75564956D01*
X131834660Y-75625463D01*
X131709218Y-75721718D01*
X131612963Y-75847160D01*
X131552456Y-75993237D01*
X131552455Y-75993239D01*
X131537000Y-76110638D01*
X131537000Y-76175500D01*
X131517315Y-76242539D01*
X131464511Y-76288294D01*
X131413000Y-76299500D01*
X128700098Y-76299500D01*
X128633059Y-76279815D01*
X128612417Y-76263181D01*
X126987590Y-74638355D01*
X126987588Y-74638352D01*
X126868717Y-74519481D01*
X126868716Y-74519480D01*
X126781904Y-74469360D01*
X126781904Y-74469359D01*
X126781900Y-74469358D01*
X126731785Y-74440423D01*
X126579057Y-74399499D01*
X126420943Y-74399499D01*
X126413347Y-74399499D01*
X126413331Y-74399500D01*
X123886550Y-74399500D01*
X123819511Y-74379815D01*
X123773756Y-74327011D01*
X123763812Y-74257853D01*
X123772441Y-74228885D01*
X123772053Y-74228744D01*
X123773898Y-74223671D01*
X123773903Y-74223663D01*
X123835063Y-73995408D01*
X123855659Y-73760000D01*
X123835063Y-73524592D01*
X123773903Y-73296337D01*
X123764841Y-73276905D01*
X123754349Y-73207829D01*
X123782867Y-73144045D01*
X123841343Y-73105804D01*
X123877223Y-73100500D01*
X127043884Y-73100500D01*
X127110923Y-73120185D01*
X127156678Y-73172989D01*
X127157440Y-73174689D01*
X127175827Y-73216608D01*
X127311833Y-73424782D01*
X127327039Y-73441300D01*
X127480256Y-73607738D01*
X127676491Y-73760474D01*
X127895190Y-73878828D01*
X128130386Y-73959571D01*
X128375665Y-74000500D01*
X128624335Y-74000500D01*
X128869614Y-73959571D01*
X129104810Y-73878828D01*
X129323509Y-73760474D01*
X129519744Y-73607738D01*
X129688164Y-73424785D01*
X129824173Y-73216607D01*
X129924063Y-72988881D01*
X129985108Y-72747821D01*
X129987561Y-72718215D01*
X130005643Y-72500005D01*
X130005643Y-72499996D01*
X135694435Y-72499996D01*
X135694435Y-72500003D01*
X135714630Y-72679249D01*
X135714631Y-72679254D01*
X135774211Y-72849523D01*
X135837838Y-72950784D01*
X135870184Y-73002262D01*
X135997738Y-73129816D01*
X136076410Y-73179249D01*
X136079108Y-73180944D01*
X136125399Y-73233279D01*
X136136047Y-73302332D01*
X136118675Y-73351035D01*
X136062998Y-73441300D01*
X136062996Y-73441305D01*
X136009651Y-73602290D01*
X135999500Y-73701647D01*
X135999500Y-74298337D01*
X135999501Y-74298355D01*
X136009650Y-74397707D01*
X136009651Y-74397710D01*
X136062996Y-74558694D01*
X136063001Y-74558705D01*
X136152029Y-74703040D01*
X136152032Y-74703044D01*
X136271955Y-74822967D01*
X136271959Y-74822970D01*
X136416294Y-74911998D01*
X136416297Y-74911999D01*
X136416303Y-74912003D01*
X136577292Y-74965349D01*
X136676655Y-74975500D01*
X137223344Y-74975499D01*
X137223352Y-74975498D01*
X137223355Y-74975498D01*
X137290980Y-74968590D01*
X137322708Y-74965349D01*
X137483697Y-74912003D01*
X137628044Y-74822968D01*
X137637668Y-74813343D01*
X137698987Y-74779856D01*
X137768679Y-74784835D01*
X137813034Y-74813339D01*
X137822267Y-74822572D01*
X137822271Y-74822575D01*
X137966507Y-74911542D01*
X137966518Y-74911547D01*
X138127393Y-74964855D01*
X138226683Y-74974999D01*
X138750000Y-74974999D01*
X138773308Y-74974999D01*
X138773322Y-74974998D01*
X138872607Y-74964855D01*
X139033481Y-74911547D01*
X139033492Y-74911542D01*
X139177728Y-74822575D01*
X139177732Y-74822572D01*
X139297572Y-74702732D01*
X139297575Y-74702728D01*
X139386542Y-74558492D01*
X139386547Y-74558481D01*
X139439855Y-74397606D01*
X139449999Y-74298322D01*
X139450000Y-74298309D01*
X139450000Y-74250000D01*
X138750000Y-74250000D01*
X138750000Y-74974999D01*
X138226683Y-74974999D01*
X138250000Y-74974998D01*
X138250000Y-73750000D01*
X138750000Y-73750000D01*
X139449999Y-73750000D01*
X139449999Y-73701692D01*
X139449998Y-73701677D01*
X139439855Y-73602392D01*
X139386547Y-73441518D01*
X139386542Y-73441507D01*
X139297575Y-73297271D01*
X139297572Y-73297267D01*
X139177732Y-73177427D01*
X139177728Y-73177424D01*
X139033492Y-73088457D01*
X139033481Y-73088452D01*
X138872606Y-73035144D01*
X138773322Y-73025000D01*
X138750000Y-73025000D01*
X138750000Y-73750000D01*
X138250000Y-73750000D01*
X138250000Y-73024999D01*
X138226693Y-73025000D01*
X138226674Y-73025001D01*
X138127392Y-73035144D01*
X137966518Y-73088452D01*
X137966507Y-73088457D01*
X137822271Y-73177424D01*
X137822264Y-73177430D01*
X137813028Y-73186665D01*
X137751703Y-73220146D01*
X137682011Y-73215157D01*
X137637672Y-73186659D01*
X137628047Y-73177034D01*
X137624245Y-73174689D01*
X137609399Y-73165531D01*
X137562677Y-73113582D01*
X137550500Y-73059995D01*
X137550500Y-72870944D01*
X137550500Y-72870943D01*
X137544760Y-72849522D01*
X137509577Y-72718215D01*
X137459387Y-72631284D01*
X137430520Y-72581284D01*
X137330699Y-72481463D01*
X137297215Y-72420140D01*
X137295161Y-72407664D01*
X137285369Y-72320747D01*
X137225789Y-72150478D01*
X137129815Y-71997737D01*
X137002262Y-71870184D01*
X136849523Y-71774211D01*
X136679254Y-71714631D01*
X136679249Y-71714630D01*
X136500004Y-71694435D01*
X136499996Y-71694435D01*
X136320750Y-71714630D01*
X136320745Y-71714631D01*
X136150476Y-71774211D01*
X135997737Y-71870184D01*
X135870184Y-71997737D01*
X135774211Y-72150476D01*
X135714631Y-72320745D01*
X135714630Y-72320750D01*
X135694435Y-72499996D01*
X130005643Y-72499996D01*
X130005643Y-72499994D01*
X129985109Y-72252187D01*
X129985107Y-72252175D01*
X129924063Y-72011118D01*
X129824173Y-71783393D01*
X129688166Y-71575217D01*
X129622999Y-71504427D01*
X129519744Y-71392262D01*
X129323509Y-71239526D01*
X129323507Y-71239525D01*
X129323506Y-71239524D01*
X129104811Y-71121172D01*
X129104802Y-71121169D01*
X128869616Y-71040429D01*
X128624335Y-70999500D01*
X128375665Y-70999500D01*
X128130383Y-71040429D01*
X127895197Y-71121169D01*
X127895188Y-71121172D01*
X127676493Y-71239524D01*
X127480257Y-71392261D01*
X127311833Y-71575217D01*
X127175827Y-71783391D01*
X127157440Y-71825311D01*
X127112483Y-71878796D01*
X127045747Y-71899486D01*
X127043884Y-71899500D01*
X121299057Y-71899500D01*
X121140943Y-71899500D01*
X120988215Y-71940423D01*
X120988214Y-71940423D01*
X120988212Y-71940424D01*
X120988209Y-71940425D01*
X120953066Y-71960716D01*
X120953064Y-71960717D01*
X120851290Y-72019475D01*
X120851282Y-72019481D01*
X120739478Y-72131286D01*
X120497582Y-72373181D01*
X120436259Y-72406666D01*
X120409901Y-72409500D01*
X119062129Y-72409500D01*
X119062123Y-72409501D01*
X119002516Y-72415908D01*
X118867671Y-72466202D01*
X118867664Y-72466206D01*
X118752455Y-72552452D01*
X118752452Y-72552455D01*
X118666206Y-72667664D01*
X118666202Y-72667671D01*
X118615908Y-72802517D01*
X118609501Y-72862116D01*
X118609500Y-72862135D01*
X118609500Y-74657870D01*
X118609501Y-74657876D01*
X118615908Y-74717483D01*
X118666202Y-74852328D01*
X118666206Y-74852335D01*
X118752452Y-74967544D01*
X118752455Y-74967547D01*
X118867664Y-75053793D01*
X118867671Y-75053797D01*
X118999081Y-75102810D01*
X119055015Y-75144681D01*
X119079432Y-75210145D01*
X119064580Y-75278418D01*
X119043430Y-75306673D01*
X118921503Y-75428600D01*
X118785965Y-75622169D01*
X118785964Y-75622171D01*
X118686098Y-75836335D01*
X118686094Y-75836344D01*
X118624938Y-76064586D01*
X118624936Y-76064596D01*
X118604341Y-76299999D01*
X117000500Y-76299999D01*
X117000500Y-71504427D01*
X117000816Y-71495581D01*
X117005213Y-71434108D01*
X117015130Y-71295436D01*
X117017646Y-71277938D01*
X117059356Y-71086199D01*
X117064333Y-71069248D01*
X117132911Y-70885385D01*
X117140259Y-70869298D01*
X117202815Y-70754734D01*
X117234291Y-70697089D01*
X117243845Y-70682221D01*
X117361448Y-70525123D01*
X117373020Y-70511769D01*
X117511769Y-70373020D01*
X117525123Y-70361448D01*
X117682221Y-70243845D01*
X117697089Y-70234291D01*
X117869298Y-70140258D01*
X117885385Y-70132911D01*
X118069248Y-70064333D01*
X118086199Y-70059356D01*
X118277938Y-70017646D01*
X118295436Y-70015130D01*
X118495582Y-70000816D01*
X118504428Y-70000500D01*
X118565892Y-70000500D01*
X171934108Y-70000500D01*
X171995572Y-70000500D01*
X172004418Y-70000816D01*
G37*
G04 #@! TD.AperFunction*
M02*
