G04 #@! TF.GenerationSoftware,KiCad,Pcbnew,8.0.8-8.0.8-0~ubuntu22.04.1*
G04 #@! TF.CreationDate,2025-01-23T22:17:41+01:00*
G04 #@! TF.ProjectId,glm5va,676c6d35-7661-42e6-9b69-6361645f7063,v1.0*
G04 #@! TF.SameCoordinates,Original*
G04 #@! TF.FileFunction,Legend,Top*
G04 #@! TF.FilePolarity,Positive*
%FSLAX46Y46*%
G04 Gerber Fmt 4.6, Leading zero omitted, Abs format (unit mm)*
G04 Created by KiCad (PCBNEW 8.0.8-8.0.8-0~ubuntu22.04.1) date 2025-01-23 22:17:41*
%MOMM*%
%LPD*%
G01*
G04 APERTURE LIST*
G04 Aperture macros list*
%AMRoundRect*
0 Rectangle with rounded corners*
0 $1 Rounding radius*
0 $2 $3 $4 $5 $6 $7 $8 $9 X,Y pos of 4 corners*
0 Add a 4 corners polygon primitive as box body*
4,1,4,$2,$3,$4,$5,$6,$7,$8,$9,$2,$3,0*
0 Add four circle primitives for the rounded corners*
1,1,$1+$1,$2,$3*
1,1,$1+$1,$4,$5*
1,1,$1+$1,$6,$7*
1,1,$1+$1,$8,$9*
0 Add four rect primitives between the rounded corners*
20,1,$1+$1,$2,$3,$4,$5,0*
20,1,$1+$1,$4,$5,$6,$7,0*
20,1,$1+$1,$6,$7,$8,$9,0*
20,1,$1+$1,$8,$9,$2,$3,0*%
G04 Aperture macros list end*
%ADD10C,0.100000*%
%ADD11C,0.150000*%
%ADD12C,0.120000*%
%ADD13RoundRect,0.250000X-0.600000X-0.600000X0.600000X-0.600000X0.600000X0.600000X-0.600000X0.600000X0*%
%ADD14C,1.700000*%
%ADD15R,1.700000X1.700000*%
%ADD16O,1.700000X1.700000*%
%ADD17RoundRect,0.225000X-0.225000X-0.250000X0.225000X-0.250000X0.225000X0.250000X-0.225000X0.250000X0*%
%ADD18RoundRect,0.200000X0.200000X0.275000X-0.200000X0.275000X-0.200000X-0.275000X0.200000X-0.275000X0*%
%ADD19RoundRect,0.250000X-0.625000X0.375000X-0.625000X-0.375000X0.625000X-0.375000X0.625000X0.375000X0*%
%ADD20RoundRect,0.200000X0.275000X-0.200000X0.275000X0.200000X-0.275000X0.200000X-0.275000X-0.200000X0*%
%ADD21C,2.000000*%
%ADD22RoundRect,0.100000X-0.637500X-0.100000X0.637500X-0.100000X0.637500X0.100000X-0.637500X0.100000X0*%
%ADD23RoundRect,0.250000X-1.330000X-1.800000X1.330000X-1.800000X1.330000X1.800000X-1.330000X1.800000X0*%
%ADD24O,3.160000X4.100000*%
G04 APERTURE END LIST*
D10*
X132976190Y-97595808D02*
X132976190Y-98405332D01*
X132976190Y-98405332D02*
X132928571Y-98500570D01*
X132928571Y-98500570D02*
X132880952Y-98548189D01*
X132880952Y-98548189D02*
X132785714Y-98595808D01*
X132785714Y-98595808D02*
X132642857Y-98595808D01*
X132642857Y-98595808D02*
X132547619Y-98548189D01*
X132976190Y-98214856D02*
X132880952Y-98262475D01*
X132880952Y-98262475D02*
X132690476Y-98262475D01*
X132690476Y-98262475D02*
X132595238Y-98214856D01*
X132595238Y-98214856D02*
X132547619Y-98167236D01*
X132547619Y-98167236D02*
X132500000Y-98071998D01*
X132500000Y-98071998D02*
X132500000Y-97786284D01*
X132500000Y-97786284D02*
X132547619Y-97691046D01*
X132547619Y-97691046D02*
X132595238Y-97643427D01*
X132595238Y-97643427D02*
X132690476Y-97595808D01*
X132690476Y-97595808D02*
X132880952Y-97595808D01*
X132880952Y-97595808D02*
X132976190Y-97643427D01*
X133595238Y-98262475D02*
X133500000Y-98214856D01*
X133500000Y-98214856D02*
X133452381Y-98119617D01*
X133452381Y-98119617D02*
X133452381Y-97262475D01*
X133976191Y-98262475D02*
X133976191Y-97595808D01*
X133976191Y-97691046D02*
X134023810Y-97643427D01*
X134023810Y-97643427D02*
X134119048Y-97595808D01*
X134119048Y-97595808D02*
X134261905Y-97595808D01*
X134261905Y-97595808D02*
X134357143Y-97643427D01*
X134357143Y-97643427D02*
X134404762Y-97738665D01*
X134404762Y-97738665D02*
X134404762Y-98262475D01*
X134404762Y-97738665D02*
X134452381Y-97643427D01*
X134452381Y-97643427D02*
X134547619Y-97595808D01*
X134547619Y-97595808D02*
X134690476Y-97595808D01*
X134690476Y-97595808D02*
X134785715Y-97643427D01*
X134785715Y-97643427D02*
X134833334Y-97738665D01*
X134833334Y-97738665D02*
X134833334Y-98262475D01*
X135785714Y-97262475D02*
X135309524Y-97262475D01*
X135309524Y-97262475D02*
X135261905Y-97738665D01*
X135261905Y-97738665D02*
X135309524Y-97691046D01*
X135309524Y-97691046D02*
X135404762Y-97643427D01*
X135404762Y-97643427D02*
X135642857Y-97643427D01*
X135642857Y-97643427D02*
X135738095Y-97691046D01*
X135738095Y-97691046D02*
X135785714Y-97738665D01*
X135785714Y-97738665D02*
X135833333Y-97833903D01*
X135833333Y-97833903D02*
X135833333Y-98071998D01*
X135833333Y-98071998D02*
X135785714Y-98167236D01*
X135785714Y-98167236D02*
X135738095Y-98214856D01*
X135738095Y-98214856D02*
X135642857Y-98262475D01*
X135642857Y-98262475D02*
X135404762Y-98262475D01*
X135404762Y-98262475D02*
X135309524Y-98214856D01*
X135309524Y-98214856D02*
X135261905Y-98167236D01*
X136166667Y-97595808D02*
X136404762Y-98262475D01*
X136404762Y-98262475D02*
X136642857Y-97595808D01*
X137452381Y-98262475D02*
X137452381Y-97738665D01*
X137452381Y-97738665D02*
X137404762Y-97643427D01*
X137404762Y-97643427D02*
X137309524Y-97595808D01*
X137309524Y-97595808D02*
X137119048Y-97595808D01*
X137119048Y-97595808D02*
X137023810Y-97643427D01*
X137452381Y-98214856D02*
X137357143Y-98262475D01*
X137357143Y-98262475D02*
X137119048Y-98262475D01*
X137119048Y-98262475D02*
X137023810Y-98214856D01*
X137023810Y-98214856D02*
X136976191Y-98119617D01*
X136976191Y-98119617D02*
X136976191Y-98024379D01*
X136976191Y-98024379D02*
X137023810Y-97929141D01*
X137023810Y-97929141D02*
X137119048Y-97881522D01*
X137119048Y-97881522D02*
X137357143Y-97881522D01*
X137357143Y-97881522D02*
X137452381Y-97833903D01*
X133571429Y-99205752D02*
X133809524Y-99872419D01*
X133809524Y-99872419D02*
X134047619Y-99205752D01*
X134952381Y-99872419D02*
X134380953Y-99872419D01*
X134666667Y-99872419D02*
X134666667Y-98872419D01*
X134666667Y-98872419D02*
X134571429Y-99015276D01*
X134571429Y-99015276D02*
X134476191Y-99110514D01*
X134476191Y-99110514D02*
X134380953Y-99158133D01*
X135380953Y-99777180D02*
X135428572Y-99824800D01*
X135428572Y-99824800D02*
X135380953Y-99872419D01*
X135380953Y-99872419D02*
X135333334Y-99824800D01*
X135333334Y-99824800D02*
X135380953Y-99777180D01*
X135380953Y-99777180D02*
X135380953Y-99872419D01*
X136047619Y-98872419D02*
X136142857Y-98872419D01*
X136142857Y-98872419D02*
X136238095Y-98920038D01*
X136238095Y-98920038D02*
X136285714Y-98967657D01*
X136285714Y-98967657D02*
X136333333Y-99062895D01*
X136333333Y-99062895D02*
X136380952Y-99253371D01*
X136380952Y-99253371D02*
X136380952Y-99491466D01*
X136380952Y-99491466D02*
X136333333Y-99681942D01*
X136333333Y-99681942D02*
X136285714Y-99777180D01*
X136285714Y-99777180D02*
X136238095Y-99824800D01*
X136238095Y-99824800D02*
X136142857Y-99872419D01*
X136142857Y-99872419D02*
X136047619Y-99872419D01*
X136047619Y-99872419D02*
X135952381Y-99824800D01*
X135952381Y-99824800D02*
X135904762Y-99777180D01*
X135904762Y-99777180D02*
X135857143Y-99681942D01*
X135857143Y-99681942D02*
X135809524Y-99491466D01*
X135809524Y-99491466D02*
X135809524Y-99253371D01*
X135809524Y-99253371D02*
X135857143Y-99062895D01*
X135857143Y-99062895D02*
X135904762Y-98967657D01*
X135904762Y-98967657D02*
X135952381Y-98920038D01*
X135952381Y-98920038D02*
X136047619Y-98872419D01*
D11*
X167896666Y-70234819D02*
X167896666Y-70949104D01*
X167896666Y-70949104D02*
X167849047Y-71091961D01*
X167849047Y-71091961D02*
X167753809Y-71187200D01*
X167753809Y-71187200D02*
X167610952Y-71234819D01*
X167610952Y-71234819D02*
X167515714Y-71234819D01*
X168325238Y-70330057D02*
X168372857Y-70282438D01*
X168372857Y-70282438D02*
X168468095Y-70234819D01*
X168468095Y-70234819D02*
X168706190Y-70234819D01*
X168706190Y-70234819D02*
X168801428Y-70282438D01*
X168801428Y-70282438D02*
X168849047Y-70330057D01*
X168849047Y-70330057D02*
X168896666Y-70425295D01*
X168896666Y-70425295D02*
X168896666Y-70520533D01*
X168896666Y-70520533D02*
X168849047Y-70663390D01*
X168849047Y-70663390D02*
X168277619Y-71234819D01*
X168277619Y-71234819D02*
X168896666Y-71234819D01*
X120896666Y-70884819D02*
X120896666Y-71599104D01*
X120896666Y-71599104D02*
X120849047Y-71741961D01*
X120849047Y-71741961D02*
X120753809Y-71837200D01*
X120753809Y-71837200D02*
X120610952Y-71884819D01*
X120610952Y-71884819D02*
X120515714Y-71884819D01*
X121896666Y-71884819D02*
X121325238Y-71884819D01*
X121610952Y-71884819D02*
X121610952Y-70884819D01*
X121610952Y-70884819D02*
X121515714Y-71027676D01*
X121515714Y-71027676D02*
X121420476Y-71122914D01*
X121420476Y-71122914D02*
X121325238Y-71170533D01*
X138333333Y-85929580D02*
X138285714Y-85977200D01*
X138285714Y-85977200D02*
X138142857Y-86024819D01*
X138142857Y-86024819D02*
X138047619Y-86024819D01*
X138047619Y-86024819D02*
X137904762Y-85977200D01*
X137904762Y-85977200D02*
X137809524Y-85881961D01*
X137809524Y-85881961D02*
X137761905Y-85786723D01*
X137761905Y-85786723D02*
X137714286Y-85596247D01*
X137714286Y-85596247D02*
X137714286Y-85453390D01*
X137714286Y-85453390D02*
X137761905Y-85262914D01*
X137761905Y-85262914D02*
X137809524Y-85167676D01*
X137809524Y-85167676D02*
X137904762Y-85072438D01*
X137904762Y-85072438D02*
X138047619Y-85024819D01*
X138047619Y-85024819D02*
X138142857Y-85024819D01*
X138142857Y-85024819D02*
X138285714Y-85072438D01*
X138285714Y-85072438D02*
X138333333Y-85120057D01*
X139285714Y-86024819D02*
X138714286Y-86024819D01*
X139000000Y-86024819D02*
X139000000Y-85024819D01*
X139000000Y-85024819D02*
X138904762Y-85167676D01*
X138904762Y-85167676D02*
X138809524Y-85262914D01*
X138809524Y-85262914D02*
X138714286Y-85310533D01*
X133658333Y-72954819D02*
X133325000Y-72478628D01*
X133086905Y-72954819D02*
X133086905Y-71954819D01*
X133086905Y-71954819D02*
X133467857Y-71954819D01*
X133467857Y-71954819D02*
X133563095Y-72002438D01*
X133563095Y-72002438D02*
X133610714Y-72050057D01*
X133610714Y-72050057D02*
X133658333Y-72145295D01*
X133658333Y-72145295D02*
X133658333Y-72288152D01*
X133658333Y-72288152D02*
X133610714Y-72383390D01*
X133610714Y-72383390D02*
X133563095Y-72431009D01*
X133563095Y-72431009D02*
X133467857Y-72478628D01*
X133467857Y-72478628D02*
X133086905Y-72478628D01*
X133991667Y-71954819D02*
X134610714Y-71954819D01*
X134610714Y-71954819D02*
X134277381Y-72335771D01*
X134277381Y-72335771D02*
X134420238Y-72335771D01*
X134420238Y-72335771D02*
X134515476Y-72383390D01*
X134515476Y-72383390D02*
X134563095Y-72431009D01*
X134563095Y-72431009D02*
X134610714Y-72526247D01*
X134610714Y-72526247D02*
X134610714Y-72764342D01*
X134610714Y-72764342D02*
X134563095Y-72859580D01*
X134563095Y-72859580D02*
X134515476Y-72907200D01*
X134515476Y-72907200D02*
X134420238Y-72954819D01*
X134420238Y-72954819D02*
X134134524Y-72954819D01*
X134134524Y-72954819D02*
X134039286Y-72907200D01*
X134039286Y-72907200D02*
X133991667Y-72859580D01*
X156261905Y-97454819D02*
X156261905Y-96454819D01*
X156261905Y-96454819D02*
X156500000Y-96454819D01*
X156500000Y-96454819D02*
X156642857Y-96502438D01*
X156642857Y-96502438D02*
X156738095Y-96597676D01*
X156738095Y-96597676D02*
X156785714Y-96692914D01*
X156785714Y-96692914D02*
X156833333Y-96883390D01*
X156833333Y-96883390D02*
X156833333Y-97026247D01*
X156833333Y-97026247D02*
X156785714Y-97216723D01*
X156785714Y-97216723D02*
X156738095Y-97311961D01*
X156738095Y-97311961D02*
X156642857Y-97407200D01*
X156642857Y-97407200D02*
X156500000Y-97454819D01*
X156500000Y-97454819D02*
X156261905Y-97454819D01*
X157214286Y-96550057D02*
X157261905Y-96502438D01*
X157261905Y-96502438D02*
X157357143Y-96454819D01*
X157357143Y-96454819D02*
X157595238Y-96454819D01*
X157595238Y-96454819D02*
X157690476Y-96502438D01*
X157690476Y-96502438D02*
X157738095Y-96550057D01*
X157738095Y-96550057D02*
X157785714Y-96645295D01*
X157785714Y-96645295D02*
X157785714Y-96740533D01*
X157785714Y-96740533D02*
X157738095Y-96883390D01*
X157738095Y-96883390D02*
X157166667Y-97454819D01*
X157166667Y-97454819D02*
X157785714Y-97454819D01*
X150261905Y-97454819D02*
X150261905Y-96454819D01*
X150261905Y-96454819D02*
X150500000Y-96454819D01*
X150500000Y-96454819D02*
X150642857Y-96502438D01*
X150642857Y-96502438D02*
X150738095Y-96597676D01*
X150738095Y-96597676D02*
X150785714Y-96692914D01*
X150785714Y-96692914D02*
X150833333Y-96883390D01*
X150833333Y-96883390D02*
X150833333Y-97026247D01*
X150833333Y-97026247D02*
X150785714Y-97216723D01*
X150785714Y-97216723D02*
X150738095Y-97311961D01*
X150738095Y-97311961D02*
X150642857Y-97407200D01*
X150642857Y-97407200D02*
X150500000Y-97454819D01*
X150500000Y-97454819D02*
X150261905Y-97454819D01*
X151690476Y-96788152D02*
X151690476Y-97454819D01*
X151452381Y-96407200D02*
X151214286Y-97121485D01*
X151214286Y-97121485D02*
X151833333Y-97121485D01*
X131833333Y-85954819D02*
X131500000Y-85478628D01*
X131261905Y-85954819D02*
X131261905Y-84954819D01*
X131261905Y-84954819D02*
X131642857Y-84954819D01*
X131642857Y-84954819D02*
X131738095Y-85002438D01*
X131738095Y-85002438D02*
X131785714Y-85050057D01*
X131785714Y-85050057D02*
X131833333Y-85145295D01*
X131833333Y-85145295D02*
X131833333Y-85288152D01*
X131833333Y-85288152D02*
X131785714Y-85383390D01*
X131785714Y-85383390D02*
X131738095Y-85431009D01*
X131738095Y-85431009D02*
X131642857Y-85478628D01*
X131642857Y-85478628D02*
X131261905Y-85478628D01*
X132690476Y-85288152D02*
X132690476Y-85954819D01*
X132452381Y-84907200D02*
X132214286Y-85621485D01*
X132214286Y-85621485D02*
X132833333Y-85621485D01*
X143333333Y-88454819D02*
X143000000Y-87978628D01*
X142761905Y-88454819D02*
X142761905Y-87454819D01*
X142761905Y-87454819D02*
X143142857Y-87454819D01*
X143142857Y-87454819D02*
X143238095Y-87502438D01*
X143238095Y-87502438D02*
X143285714Y-87550057D01*
X143285714Y-87550057D02*
X143333333Y-87645295D01*
X143333333Y-87645295D02*
X143333333Y-87788152D01*
X143333333Y-87788152D02*
X143285714Y-87883390D01*
X143285714Y-87883390D02*
X143238095Y-87931009D01*
X143238095Y-87931009D02*
X143142857Y-87978628D01*
X143142857Y-87978628D02*
X142761905Y-87978628D01*
X144285714Y-88454819D02*
X143714286Y-88454819D01*
X144000000Y-88454819D02*
X144000000Y-87454819D01*
X144000000Y-87454819D02*
X143904762Y-87597676D01*
X143904762Y-87597676D02*
X143809524Y-87692914D01*
X143809524Y-87692914D02*
X143714286Y-87740533D01*
X153024819Y-92841666D02*
X152548628Y-93174999D01*
X153024819Y-93413094D02*
X152024819Y-93413094D01*
X152024819Y-93413094D02*
X152024819Y-93032142D01*
X152024819Y-93032142D02*
X152072438Y-92936904D01*
X152072438Y-92936904D02*
X152120057Y-92889285D01*
X152120057Y-92889285D02*
X152215295Y-92841666D01*
X152215295Y-92841666D02*
X152358152Y-92841666D01*
X152358152Y-92841666D02*
X152453390Y-92889285D01*
X152453390Y-92889285D02*
X152501009Y-92936904D01*
X152501009Y-92936904D02*
X152548628Y-93032142D01*
X152548628Y-93032142D02*
X152548628Y-93413094D01*
X152024819Y-92508332D02*
X152024819Y-91841666D01*
X152024819Y-91841666D02*
X153024819Y-92270237D01*
X127238095Y-74204819D02*
X127809523Y-74204819D01*
X127523809Y-75204819D02*
X127523809Y-74204819D01*
X128142857Y-75204819D02*
X128142857Y-74204819D01*
X128142857Y-74204819D02*
X128523809Y-74204819D01*
X128523809Y-74204819D02*
X128619047Y-74252438D01*
X128619047Y-74252438D02*
X128666666Y-74300057D01*
X128666666Y-74300057D02*
X128714285Y-74395295D01*
X128714285Y-74395295D02*
X128714285Y-74538152D01*
X128714285Y-74538152D02*
X128666666Y-74633390D01*
X128666666Y-74633390D02*
X128619047Y-74681009D01*
X128619047Y-74681009D02*
X128523809Y-74728628D01*
X128523809Y-74728628D02*
X128142857Y-74728628D01*
X129095238Y-74300057D02*
X129142857Y-74252438D01*
X129142857Y-74252438D02*
X129238095Y-74204819D01*
X129238095Y-74204819D02*
X129476190Y-74204819D01*
X129476190Y-74204819D02*
X129571428Y-74252438D01*
X129571428Y-74252438D02*
X129619047Y-74300057D01*
X129619047Y-74300057D02*
X129666666Y-74395295D01*
X129666666Y-74395295D02*
X129666666Y-74490533D01*
X129666666Y-74490533D02*
X129619047Y-74633390D01*
X129619047Y-74633390D02*
X129047619Y-75204819D01*
X129047619Y-75204819D02*
X129666666Y-75204819D01*
X150024819Y-92841666D02*
X149548628Y-93174999D01*
X150024819Y-93413094D02*
X149024819Y-93413094D01*
X149024819Y-93413094D02*
X149024819Y-93032142D01*
X149024819Y-93032142D02*
X149072438Y-92936904D01*
X149072438Y-92936904D02*
X149120057Y-92889285D01*
X149120057Y-92889285D02*
X149215295Y-92841666D01*
X149215295Y-92841666D02*
X149358152Y-92841666D01*
X149358152Y-92841666D02*
X149453390Y-92889285D01*
X149453390Y-92889285D02*
X149501009Y-92936904D01*
X149501009Y-92936904D02*
X149548628Y-93032142D01*
X149548628Y-93032142D02*
X149548628Y-93413094D01*
X149453390Y-92270237D02*
X149405771Y-92365475D01*
X149405771Y-92365475D02*
X149358152Y-92413094D01*
X149358152Y-92413094D02*
X149262914Y-92460713D01*
X149262914Y-92460713D02*
X149215295Y-92460713D01*
X149215295Y-92460713D02*
X149120057Y-92413094D01*
X149120057Y-92413094D02*
X149072438Y-92365475D01*
X149072438Y-92365475D02*
X149024819Y-92270237D01*
X149024819Y-92270237D02*
X149024819Y-92079761D01*
X149024819Y-92079761D02*
X149072438Y-91984523D01*
X149072438Y-91984523D02*
X149120057Y-91936904D01*
X149120057Y-91936904D02*
X149215295Y-91889285D01*
X149215295Y-91889285D02*
X149262914Y-91889285D01*
X149262914Y-91889285D02*
X149358152Y-91936904D01*
X149358152Y-91936904D02*
X149405771Y-91984523D01*
X149405771Y-91984523D02*
X149453390Y-92079761D01*
X149453390Y-92079761D02*
X149453390Y-92270237D01*
X149453390Y-92270237D02*
X149501009Y-92365475D01*
X149501009Y-92365475D02*
X149548628Y-92413094D01*
X149548628Y-92413094D02*
X149643866Y-92460713D01*
X149643866Y-92460713D02*
X149834342Y-92460713D01*
X149834342Y-92460713D02*
X149929580Y-92413094D01*
X149929580Y-92413094D02*
X149977200Y-92365475D01*
X149977200Y-92365475D02*
X150024819Y-92270237D01*
X150024819Y-92270237D02*
X150024819Y-92079761D01*
X150024819Y-92079761D02*
X149977200Y-91984523D01*
X149977200Y-91984523D02*
X149929580Y-91936904D01*
X149929580Y-91936904D02*
X149834342Y-91889285D01*
X149834342Y-91889285D02*
X149643866Y-91889285D01*
X149643866Y-91889285D02*
X149548628Y-91936904D01*
X149548628Y-91936904D02*
X149501009Y-91984523D01*
X149501009Y-91984523D02*
X149453390Y-92079761D01*
X159024819Y-92841666D02*
X158548628Y-93174999D01*
X159024819Y-93413094D02*
X158024819Y-93413094D01*
X158024819Y-93413094D02*
X158024819Y-93032142D01*
X158024819Y-93032142D02*
X158072438Y-92936904D01*
X158072438Y-92936904D02*
X158120057Y-92889285D01*
X158120057Y-92889285D02*
X158215295Y-92841666D01*
X158215295Y-92841666D02*
X158358152Y-92841666D01*
X158358152Y-92841666D02*
X158453390Y-92889285D01*
X158453390Y-92889285D02*
X158501009Y-92936904D01*
X158501009Y-92936904D02*
X158548628Y-93032142D01*
X158548628Y-93032142D02*
X158548628Y-93413094D01*
X158024819Y-91936904D02*
X158024819Y-92413094D01*
X158024819Y-92413094D02*
X158501009Y-92460713D01*
X158501009Y-92460713D02*
X158453390Y-92413094D01*
X158453390Y-92413094D02*
X158405771Y-92317856D01*
X158405771Y-92317856D02*
X158405771Y-92079761D01*
X158405771Y-92079761D02*
X158453390Y-91984523D01*
X158453390Y-91984523D02*
X158501009Y-91936904D01*
X158501009Y-91936904D02*
X158596247Y-91889285D01*
X158596247Y-91889285D02*
X158834342Y-91889285D01*
X158834342Y-91889285D02*
X158929580Y-91936904D01*
X158929580Y-91936904D02*
X158977200Y-91984523D01*
X158977200Y-91984523D02*
X159024819Y-92079761D01*
X159024819Y-92079761D02*
X159024819Y-92317856D01*
X159024819Y-92317856D02*
X158977200Y-92413094D01*
X158977200Y-92413094D02*
X158929580Y-92460713D01*
X135100595Y-90954819D02*
X135100595Y-91764342D01*
X135100595Y-91764342D02*
X135148214Y-91859580D01*
X135148214Y-91859580D02*
X135195833Y-91907200D01*
X135195833Y-91907200D02*
X135291071Y-91954819D01*
X135291071Y-91954819D02*
X135481547Y-91954819D01*
X135481547Y-91954819D02*
X135576785Y-91907200D01*
X135576785Y-91907200D02*
X135624404Y-91859580D01*
X135624404Y-91859580D02*
X135672023Y-91764342D01*
X135672023Y-91764342D02*
X135672023Y-90954819D01*
X136100595Y-91050057D02*
X136148214Y-91002438D01*
X136148214Y-91002438D02*
X136243452Y-90954819D01*
X136243452Y-90954819D02*
X136481547Y-90954819D01*
X136481547Y-90954819D02*
X136576785Y-91002438D01*
X136576785Y-91002438D02*
X136624404Y-91050057D01*
X136624404Y-91050057D02*
X136672023Y-91145295D01*
X136672023Y-91145295D02*
X136672023Y-91240533D01*
X136672023Y-91240533D02*
X136624404Y-91383390D01*
X136624404Y-91383390D02*
X136052976Y-91954819D01*
X136052976Y-91954819D02*
X136672023Y-91954819D01*
X152666666Y-69749819D02*
X152666666Y-70464104D01*
X152666666Y-70464104D02*
X152619047Y-70606961D01*
X152619047Y-70606961D02*
X152523809Y-70702200D01*
X152523809Y-70702200D02*
X152380952Y-70749819D01*
X152380952Y-70749819D02*
X152285714Y-70749819D01*
X153047619Y-69749819D02*
X153666666Y-69749819D01*
X153666666Y-69749819D02*
X153333333Y-70130771D01*
X153333333Y-70130771D02*
X153476190Y-70130771D01*
X153476190Y-70130771D02*
X153571428Y-70178390D01*
X153571428Y-70178390D02*
X153619047Y-70226009D01*
X153619047Y-70226009D02*
X153666666Y-70321247D01*
X153666666Y-70321247D02*
X153666666Y-70559342D01*
X153666666Y-70559342D02*
X153619047Y-70654580D01*
X153619047Y-70654580D02*
X153571428Y-70702200D01*
X153571428Y-70702200D02*
X153476190Y-70749819D01*
X153476190Y-70749819D02*
X153190476Y-70749819D01*
X153190476Y-70749819D02*
X153095238Y-70702200D01*
X153095238Y-70702200D02*
X153047619Y-70654580D01*
X127238095Y-99704819D02*
X127809523Y-99704819D01*
X127523809Y-100704819D02*
X127523809Y-99704819D01*
X128142857Y-100704819D02*
X128142857Y-99704819D01*
X128142857Y-99704819D02*
X128523809Y-99704819D01*
X128523809Y-99704819D02*
X128619047Y-99752438D01*
X128619047Y-99752438D02*
X128666666Y-99800057D01*
X128666666Y-99800057D02*
X128714285Y-99895295D01*
X128714285Y-99895295D02*
X128714285Y-100038152D01*
X128714285Y-100038152D02*
X128666666Y-100133390D01*
X128666666Y-100133390D02*
X128619047Y-100181009D01*
X128619047Y-100181009D02*
X128523809Y-100228628D01*
X128523809Y-100228628D02*
X128142857Y-100228628D01*
X129666666Y-100704819D02*
X129095238Y-100704819D01*
X129380952Y-100704819D02*
X129380952Y-99704819D01*
X129380952Y-99704819D02*
X129285714Y-99847676D01*
X129285714Y-99847676D02*
X129190476Y-99942914D01*
X129190476Y-99942914D02*
X129095238Y-99990533D01*
X159091905Y-97554819D02*
X159091905Y-96554819D01*
X159091905Y-96554819D02*
X159330000Y-96554819D01*
X159330000Y-96554819D02*
X159472857Y-96602438D01*
X159472857Y-96602438D02*
X159568095Y-96697676D01*
X159568095Y-96697676D02*
X159615714Y-96792914D01*
X159615714Y-96792914D02*
X159663333Y-96983390D01*
X159663333Y-96983390D02*
X159663333Y-97126247D01*
X159663333Y-97126247D02*
X159615714Y-97316723D01*
X159615714Y-97316723D02*
X159568095Y-97411961D01*
X159568095Y-97411961D02*
X159472857Y-97507200D01*
X159472857Y-97507200D02*
X159330000Y-97554819D01*
X159330000Y-97554819D02*
X159091905Y-97554819D01*
X160615714Y-97554819D02*
X160044286Y-97554819D01*
X160330000Y-97554819D02*
X160330000Y-96554819D01*
X160330000Y-96554819D02*
X160234762Y-96697676D01*
X160234762Y-96697676D02*
X160139524Y-96792914D01*
X160139524Y-96792914D02*
X160044286Y-96840533D01*
X142833333Y-75779819D02*
X142500000Y-75303628D01*
X142261905Y-75779819D02*
X142261905Y-74779819D01*
X142261905Y-74779819D02*
X142642857Y-74779819D01*
X142642857Y-74779819D02*
X142738095Y-74827438D01*
X142738095Y-74827438D02*
X142785714Y-74875057D01*
X142785714Y-74875057D02*
X142833333Y-74970295D01*
X142833333Y-74970295D02*
X142833333Y-75113152D01*
X142833333Y-75113152D02*
X142785714Y-75208390D01*
X142785714Y-75208390D02*
X142738095Y-75256009D01*
X142738095Y-75256009D02*
X142642857Y-75303628D01*
X142642857Y-75303628D02*
X142261905Y-75303628D01*
X143214286Y-74875057D02*
X143261905Y-74827438D01*
X143261905Y-74827438D02*
X143357143Y-74779819D01*
X143357143Y-74779819D02*
X143595238Y-74779819D01*
X143595238Y-74779819D02*
X143690476Y-74827438D01*
X143690476Y-74827438D02*
X143738095Y-74875057D01*
X143738095Y-74875057D02*
X143785714Y-74970295D01*
X143785714Y-74970295D02*
X143785714Y-75065533D01*
X143785714Y-75065533D02*
X143738095Y-75208390D01*
X143738095Y-75208390D02*
X143166667Y-75779819D01*
X143166667Y-75779819D02*
X143785714Y-75779819D01*
X156024819Y-92841666D02*
X155548628Y-93174999D01*
X156024819Y-93413094D02*
X155024819Y-93413094D01*
X155024819Y-93413094D02*
X155024819Y-93032142D01*
X155024819Y-93032142D02*
X155072438Y-92936904D01*
X155072438Y-92936904D02*
X155120057Y-92889285D01*
X155120057Y-92889285D02*
X155215295Y-92841666D01*
X155215295Y-92841666D02*
X155358152Y-92841666D01*
X155358152Y-92841666D02*
X155453390Y-92889285D01*
X155453390Y-92889285D02*
X155501009Y-92936904D01*
X155501009Y-92936904D02*
X155548628Y-93032142D01*
X155548628Y-93032142D02*
X155548628Y-93413094D01*
X155024819Y-91984523D02*
X155024819Y-92174999D01*
X155024819Y-92174999D02*
X155072438Y-92270237D01*
X155072438Y-92270237D02*
X155120057Y-92317856D01*
X155120057Y-92317856D02*
X155262914Y-92413094D01*
X155262914Y-92413094D02*
X155453390Y-92460713D01*
X155453390Y-92460713D02*
X155834342Y-92460713D01*
X155834342Y-92460713D02*
X155929580Y-92413094D01*
X155929580Y-92413094D02*
X155977200Y-92365475D01*
X155977200Y-92365475D02*
X156024819Y-92270237D01*
X156024819Y-92270237D02*
X156024819Y-92079761D01*
X156024819Y-92079761D02*
X155977200Y-91984523D01*
X155977200Y-91984523D02*
X155929580Y-91936904D01*
X155929580Y-91936904D02*
X155834342Y-91889285D01*
X155834342Y-91889285D02*
X155596247Y-91889285D01*
X155596247Y-91889285D02*
X155501009Y-91936904D01*
X155501009Y-91936904D02*
X155453390Y-91984523D01*
X155453390Y-91984523D02*
X155405771Y-92079761D01*
X155405771Y-92079761D02*
X155405771Y-92270237D01*
X155405771Y-92270237D02*
X155453390Y-92365475D01*
X155453390Y-92365475D02*
X155501009Y-92413094D01*
X155501009Y-92413094D02*
X155596247Y-92460713D01*
X134875595Y-78954819D02*
X134875595Y-79764342D01*
X134875595Y-79764342D02*
X134923214Y-79859580D01*
X134923214Y-79859580D02*
X134970833Y-79907200D01*
X134970833Y-79907200D02*
X135066071Y-79954819D01*
X135066071Y-79954819D02*
X135256547Y-79954819D01*
X135256547Y-79954819D02*
X135351785Y-79907200D01*
X135351785Y-79907200D02*
X135399404Y-79859580D01*
X135399404Y-79859580D02*
X135447023Y-79764342D01*
X135447023Y-79764342D02*
X135447023Y-78954819D01*
X136447023Y-79954819D02*
X135875595Y-79954819D01*
X136161309Y-79954819D02*
X136161309Y-78954819D01*
X136161309Y-78954819D02*
X136066071Y-79097676D01*
X136066071Y-79097676D02*
X135970833Y-79192914D01*
X135970833Y-79192914D02*
X135875595Y-79240533D01*
X153261905Y-97654819D02*
X153261905Y-96654819D01*
X153261905Y-96654819D02*
X153500000Y-96654819D01*
X153500000Y-96654819D02*
X153642857Y-96702438D01*
X153642857Y-96702438D02*
X153738095Y-96797676D01*
X153738095Y-96797676D02*
X153785714Y-96892914D01*
X153785714Y-96892914D02*
X153833333Y-97083390D01*
X153833333Y-97083390D02*
X153833333Y-97226247D01*
X153833333Y-97226247D02*
X153785714Y-97416723D01*
X153785714Y-97416723D02*
X153738095Y-97511961D01*
X153738095Y-97511961D02*
X153642857Y-97607200D01*
X153642857Y-97607200D02*
X153500000Y-97654819D01*
X153500000Y-97654819D02*
X153261905Y-97654819D01*
X154166667Y-96654819D02*
X154785714Y-96654819D01*
X154785714Y-96654819D02*
X154452381Y-97035771D01*
X154452381Y-97035771D02*
X154595238Y-97035771D01*
X154595238Y-97035771D02*
X154690476Y-97083390D01*
X154690476Y-97083390D02*
X154738095Y-97131009D01*
X154738095Y-97131009D02*
X154785714Y-97226247D01*
X154785714Y-97226247D02*
X154785714Y-97464342D01*
X154785714Y-97464342D02*
X154738095Y-97559580D01*
X154738095Y-97559580D02*
X154690476Y-97607200D01*
X154690476Y-97607200D02*
X154595238Y-97654819D01*
X154595238Y-97654819D02*
X154309524Y-97654819D01*
X154309524Y-97654819D02*
X154214286Y-97607200D01*
X154214286Y-97607200D02*
X154166667Y-97559580D01*
X138333333Y-72859580D02*
X138285714Y-72907200D01*
X138285714Y-72907200D02*
X138142857Y-72954819D01*
X138142857Y-72954819D02*
X138047619Y-72954819D01*
X138047619Y-72954819D02*
X137904762Y-72907200D01*
X137904762Y-72907200D02*
X137809524Y-72811961D01*
X137809524Y-72811961D02*
X137761905Y-72716723D01*
X137761905Y-72716723D02*
X137714286Y-72526247D01*
X137714286Y-72526247D02*
X137714286Y-72383390D01*
X137714286Y-72383390D02*
X137761905Y-72192914D01*
X137761905Y-72192914D02*
X137809524Y-72097676D01*
X137809524Y-72097676D02*
X137904762Y-72002438D01*
X137904762Y-72002438D02*
X138047619Y-71954819D01*
X138047619Y-71954819D02*
X138142857Y-71954819D01*
X138142857Y-71954819D02*
X138285714Y-72002438D01*
X138285714Y-72002438D02*
X138333333Y-72050057D01*
X138714286Y-72050057D02*
X138761905Y-72002438D01*
X138761905Y-72002438D02*
X138857143Y-71954819D01*
X138857143Y-71954819D02*
X139095238Y-71954819D01*
X139095238Y-71954819D02*
X139190476Y-72002438D01*
X139190476Y-72002438D02*
X139238095Y-72050057D01*
X139238095Y-72050057D02*
X139285714Y-72145295D01*
X139285714Y-72145295D02*
X139285714Y-72240533D01*
X139285714Y-72240533D02*
X139238095Y-72383390D01*
X139238095Y-72383390D02*
X138666667Y-72954819D01*
X138666667Y-72954819D02*
X139285714Y-72954819D01*
D12*
X162280000Y-76380000D02*
X162280000Y-77380000D01*
X162280000Y-77380000D02*
X163280000Y-76880000D01*
X163280000Y-76880000D02*
X162280000Y-76380000D01*
X163670000Y-71670000D02*
X172790000Y-71670000D01*
X163670000Y-83720000D02*
X164980000Y-83720000D01*
X163670000Y-99870000D02*
X163670000Y-71670000D01*
X164980000Y-72970000D02*
X171480000Y-72970000D01*
X164980000Y-83720000D02*
X164980000Y-72970000D01*
X164980000Y-87820000D02*
X163670000Y-87820000D01*
X164980000Y-87820000D02*
X164980000Y-87820000D01*
X164980000Y-98570000D02*
X164980000Y-87820000D01*
X171480000Y-72970000D02*
X171480000Y-98570000D01*
X171480000Y-98570000D02*
X164980000Y-98570000D01*
X172790000Y-71670000D02*
X172790000Y-99870000D01*
X172790000Y-99870000D02*
X163670000Y-99870000D01*
X118630000Y-72430000D02*
X119960000Y-72430000D01*
X118630000Y-73760000D02*
X118630000Y-72430000D01*
X118630000Y-75030000D02*
X118630000Y-97950000D01*
X118630000Y-75030000D02*
X121230000Y-75030000D01*
X118630000Y-97950000D02*
X123830000Y-97950000D01*
X121230000Y-72430000D02*
X123830000Y-72430000D01*
X121230000Y-75030000D02*
X121230000Y-72430000D01*
X123830000Y-72430000D02*
X123830000Y-97950000D01*
X138359420Y-86490000D02*
X138640580Y-86490000D01*
X138359420Y-87510000D02*
X138640580Y-87510000D01*
X134062258Y-73477500D02*
X133587742Y-73477500D01*
X134062258Y-74522500D02*
X133587742Y-74522500D01*
X155865000Y-94815000D02*
X155865000Y-98700000D01*
X158135000Y-94815000D02*
X155865000Y-94815000D01*
X158135000Y-98700000D02*
X158135000Y-94815000D01*
X149865000Y-94815000D02*
X149865000Y-98700000D01*
X152135000Y-94815000D02*
X149865000Y-94815000D01*
X152135000Y-98700000D02*
X152135000Y-94815000D01*
X132412258Y-86477500D02*
X131937742Y-86477500D01*
X132412258Y-87522500D02*
X131937742Y-87522500D01*
X140977500Y-88412258D02*
X140977500Y-87937742D01*
X142022500Y-88412258D02*
X142022500Y-87937742D01*
X153477500Y-92912258D02*
X153477500Y-92437742D01*
X154522500Y-92912258D02*
X154522500Y-92437742D01*
X129751000Y-72500000D02*
G75*
G02*
X127249000Y-72500000I-1251000J0D01*
G01*
X127249000Y-72500000D02*
G75*
G02*
X129751000Y-72500000I1251000J0D01*
G01*
X150477500Y-92912258D02*
X150477500Y-92437742D01*
X151522500Y-92912258D02*
X151522500Y-92437742D01*
X159477500Y-92912258D02*
X159477500Y-92437742D01*
X160522500Y-92912258D02*
X160522500Y-92437742D01*
X135862500Y-88290000D02*
X132262500Y-88290000D01*
X135862500Y-88290000D02*
X138062500Y-88290000D01*
X135862500Y-95060000D02*
X133662500Y-95060000D01*
X135862500Y-95060000D02*
X138062500Y-95060000D01*
X144750000Y-74605000D02*
X144750000Y-78605000D01*
X145040000Y-71385000D02*
X160960000Y-71385000D01*
X145040000Y-80610000D02*
X145040000Y-71385000D01*
X146260000Y-71385000D02*
X146260000Y-71985000D01*
X146260000Y-71985000D02*
X147860000Y-71985000D01*
X146945000Y-80610000D02*
X145040000Y-80610000D01*
X146945000Y-81615000D02*
X146945000Y-80610000D01*
X147060000Y-78945000D02*
X158940000Y-78945000D01*
X147060000Y-80615000D02*
X147060000Y-78945000D01*
X147060000Y-80615000D02*
X158940000Y-80615000D01*
X147060000Y-81615000D02*
X147060000Y-80615000D01*
X147860000Y-71985000D02*
X147860000Y-71385000D01*
X150220000Y-71385000D02*
X150220000Y-71985000D01*
X150220000Y-71985000D02*
X151820000Y-71985000D01*
X151820000Y-71985000D02*
X151820000Y-71385000D01*
X154180000Y-71385000D02*
X154180000Y-71985000D01*
X154180000Y-71985000D02*
X155780000Y-71985000D01*
X155780000Y-71985000D02*
X155780000Y-71385000D01*
X158140000Y-71385000D02*
X158140000Y-71985000D01*
X158140000Y-71985000D02*
X159740000Y-71985000D01*
X158940000Y-78945000D02*
X158940000Y-80615000D01*
X158940000Y-80615000D02*
X158940000Y-81615000D01*
X159055000Y-80610000D02*
X159055000Y-81615000D01*
X159055000Y-81615000D02*
X146945000Y-81615000D01*
X159740000Y-71985000D02*
X159740000Y-71385000D01*
X160960000Y-71385000D02*
X160960000Y-80610000D01*
X160960000Y-80610000D02*
X159055000Y-80610000D01*
X129751000Y-98000000D02*
G75*
G02*
X127249000Y-98000000I-1251000J0D01*
G01*
X127249000Y-98000000D02*
G75*
G02*
X129751000Y-98000000I1251000J0D01*
G01*
X158865000Y-94815000D02*
X158865000Y-98700000D01*
X161135000Y-94815000D02*
X158865000Y-94815000D01*
X161135000Y-98700000D02*
X161135000Y-94815000D01*
X140477500Y-75562258D02*
X140477500Y-75087742D01*
X141522500Y-75562258D02*
X141522500Y-75087742D01*
X156477500Y-92912258D02*
X156477500Y-92437742D01*
X157522500Y-92912258D02*
X157522500Y-92437742D01*
X135637500Y-75790000D02*
X132037500Y-75790000D01*
X135637500Y-75790000D02*
X137837500Y-75790000D01*
X135637500Y-82560000D02*
X133437500Y-82560000D01*
X135637500Y-82560000D02*
X137837500Y-82560000D01*
X152865000Y-94815000D02*
X152865000Y-98700000D01*
X155135000Y-94815000D02*
X152865000Y-94815000D01*
X155135000Y-98700000D02*
X155135000Y-94815000D01*
X137584420Y-73490000D02*
X137865580Y-73490000D01*
X137584420Y-74510000D02*
X137865580Y-74510000D01*
%LPC*%
D13*
X166960000Y-76880000D03*
D14*
X169500000Y-76880000D03*
X166960000Y-79420000D03*
X169500000Y-79420000D03*
X166960000Y-81960000D03*
X169500000Y-81960000D03*
X166960000Y-84500000D03*
X169500000Y-84500000D03*
X166960000Y-87040000D03*
X169500000Y-87040000D03*
X166960000Y-89580000D03*
X169500000Y-89580000D03*
X166960000Y-92120000D03*
X169500000Y-92120000D03*
X166960000Y-94660000D03*
X169500000Y-94660000D03*
D15*
X119960000Y-73760000D03*
D16*
X122500000Y-73760000D03*
X119960000Y-76300000D03*
X122500000Y-76300000D03*
X119960000Y-78840000D03*
X122500000Y-78840000D03*
X119960000Y-81380000D03*
X122500000Y-81380000D03*
X119960000Y-83920000D03*
X122500000Y-83920000D03*
X119960000Y-86460000D03*
X122500000Y-86460000D03*
X119960000Y-89000000D03*
X122500000Y-89000000D03*
X119960000Y-91540000D03*
X122500000Y-91540000D03*
X119960000Y-94080000D03*
X122500000Y-94080000D03*
X119960000Y-96620000D03*
X122500000Y-96620000D03*
D17*
X137725000Y-87000000D03*
X139275000Y-87000000D03*
D18*
X134650000Y-74000000D03*
X133000000Y-74000000D03*
D19*
X157000000Y-95700000D03*
X157000000Y-98500000D03*
X151000000Y-95700000D03*
X151000000Y-98500000D03*
D18*
X133000000Y-87000000D03*
X131350000Y-87000000D03*
D20*
X141500000Y-89000000D03*
X141500000Y-87350000D03*
X154000000Y-93500000D03*
X154000000Y-91850000D03*
D21*
X128500000Y-72500000D03*
D20*
X151000000Y-93500000D03*
X151000000Y-91850000D03*
X160000000Y-93500000D03*
X160000000Y-91850000D03*
D22*
X133000000Y-88750000D03*
X133000000Y-89400000D03*
X133000000Y-90050000D03*
X133000000Y-90700000D03*
X133000000Y-91350000D03*
X133000000Y-92000000D03*
X133000000Y-92650000D03*
X133000000Y-93300000D03*
X133000000Y-93950000D03*
X133000000Y-94600000D03*
X138725000Y-94600000D03*
X138725000Y-93950000D03*
X138725000Y-93300000D03*
X138725000Y-92650000D03*
X138725000Y-92000000D03*
X138725000Y-91350000D03*
X138725000Y-90700000D03*
X138725000Y-90050000D03*
X138725000Y-89400000D03*
X138725000Y-88750000D03*
D23*
X147060000Y-76605000D03*
D24*
X151020000Y-76605000D03*
X154980000Y-76605000D03*
X158940000Y-76605000D03*
D21*
X128500000Y-98000000D03*
D19*
X160000000Y-95700000D03*
X160000000Y-98500000D03*
D20*
X141000000Y-76150000D03*
X141000000Y-74500000D03*
X157000000Y-93500000D03*
X157000000Y-91850000D03*
D22*
X132775000Y-76250000D03*
X132775000Y-76900000D03*
X132775000Y-77550000D03*
X132775000Y-78200000D03*
X132775000Y-78850000D03*
X132775000Y-79500000D03*
X132775000Y-80150000D03*
X132775000Y-80800000D03*
X132775000Y-81450000D03*
X132775000Y-82100000D03*
X138500000Y-82100000D03*
X138500000Y-81450000D03*
X138500000Y-80800000D03*
X138500000Y-80150000D03*
X138500000Y-79500000D03*
X138500000Y-78850000D03*
X138500000Y-78200000D03*
X138500000Y-77550000D03*
X138500000Y-76900000D03*
X138500000Y-76250000D03*
D19*
X154000000Y-95700000D03*
X154000000Y-98500000D03*
D17*
X136950000Y-74000000D03*
X138500000Y-74000000D03*
%LPD*%
M02*
